<?xml version="1.0" encoding="UTF-8" standalone="no"?>
<!-- Created with Inkscape (http://www.inkscape.org/) -->

<svg
   xmlns:dc="http://purl.org/dc/elements/1.1/"
   xmlns:cc="http://creativecommons.org/ns#"
   xmlns:rdf="http://www.w3.org/1999/02/22-rdf-syntax-ns#"
   xmlns:svg="http://www.w3.org/2000/svg"
   xmlns="http://www.w3.org/2000/svg"
   xmlns:sodipodi="http://sodipodi.sourceforge.net/DTD/sodipodi-0.dtd"
   xmlns:inkscape="http://www.inkscape.org/namespaces/inkscape"
   version="1.1"
   id="svg4485"
   xml:space="preserve"
   width="989.33331"
   height="694"
   viewBox="0 0 989.33327 693.99997"
   sodipodi:docname="animation_diplome.svg"
   inkscape:version="0.92.1 r15371"
   inkscape:export-filename="E:\Documents\Projets Marianne\Educ\Trousse2\CDT-BLOCKLY-WEB\architecture\assets\img\architecture_diplome.png"
   inkscape:export-xdpi="96"
   inkscape:export-ydpi="96"><metadata
     id="metadata4491"><rdf:RDF><cc:Work
         rdf:about=""><dc:format>image/svg+xml</dc:format><dc:type
           rdf:resource="http://purl.org/dc/dcmitype/StillImage" /><dc:title /></cc:Work></rdf:RDF></metadata><defs
     id="defs4489"><clipPath
       clipPathUnits="userSpaceOnUse"
       id="clipPath4501"><path
         d="M 0,800 H 800 V 0 H 0 Z"
         id="path4499"
         inkscape:connector-curvature="0" /></clipPath><clipPath
       clipPathUnits="userSpaceOnUse"
       id="clipPath4949"><path
         d="M 0,800 H 800 V 0 H 0 Z"
         id="path4947"
         inkscape:connector-curvature="0" /></clipPath><clipPath
       clipPathUnits="userSpaceOnUse"
       id="clipPath4977"><path
         d="M 0,800 H 800 V 0 H 0 Z"
         id="path4975"
         inkscape:connector-curvature="0" /></clipPath><clipPath
       clipPathUnits="userSpaceOnUse"
       id="clipPath4991"><path
         d="M 0,800 H 800 V 0 H 0 Z"
         id="path4989"
         inkscape:connector-curvature="0" /></clipPath><clipPath
       clipPathUnits="userSpaceOnUse"
       id="clipPath5035"><path
         d="M 0,800 H 800 V 0 H 0 Z"
         id="path5033"
         inkscape:connector-curvature="0" /></clipPath><clipPath
       clipPathUnits="userSpaceOnUse"
       id="clipPath5051"><path
         d="M 0,800 H 800 V 0 H 0 Z"
         id="path5049"
         inkscape:connector-curvature="0" /></clipPath></defs><sodipodi:namedview
     pagecolor="#ffffff"
     bordercolor="#666666"
     borderopacity="1"
     objecttolerance="10"
     gridtolerance="10"
     guidetolerance="10"
     inkscape:pageopacity="0"
     inkscape:pageshadow="2"
     inkscape:window-width="1680"
     inkscape:window-height="987"
     id="namedview4487"
     showgrid="false"
     fit-margin-top="0"
     fit-margin-left="0"
     fit-margin-right="0"
     fit-margin-bottom="0"
     inkscape:zoom="1.1587499"
     inkscape:cx="544.3402"
     inkscape:cy="348.56587"
     inkscape:window-x="-8"
     inkscape:window-y="-8"
     inkscape:window-maximized="1"
     inkscape:current-layer="g4493"
     inkscape:snap-text-baseline="true" /><g
     id="g4493"
     inkscape:groupmode="layer"
     inkscape:label="20743-NSXOI6"
     transform="matrix(1.3333333,0,0,-1.3333333,-41.333332,917.36931)"><path
       d="M 754.997,673.027 H 49.003 v -490.5 H 754.997 Z M 773,167.527 H 31 v 520.5 h 742 z"
       style="fill:#ffce00;fill-opacity:1;fill-rule:nonzero;stroke:none"
       id="path4629"
       inkscape:connector-curvature="0" /><g
       id="g5578"
       transform="matrix(0.73337252,0,0,0.73337252,15.76857,222.76306)"><path
         d="m 125.3339,530.5579 c -9.965,-5.457 -3.306,-11.401 -11.136,-17.6 -7.83,-6.2 -22.735,-0.554 -27.286,-4.539 -4.593,-4.022 -1.667,-13.879 11.389,-14.711 0,0 -8.917,-2.981 -5.932,-9.598 3.004,-6.656 23.19,-3.658 22.304,-3.785 -8.127,-1.166 8.152,-3.9 28.709,-3.751 20.558,0.15 52.2,18.795 56.945,33.743 4.746,14.948 9.254,24.439 4.034,34.405 -5.22,9.965 -25.382,16.134 -32.147,15.897 -6.765,-0.237 -46.88,-30.061 -46.88,-30.061"
         style="fill:#ce4627;fill-opacity:1;fill-rule:nonzero;stroke:none"
         id="path4633"
         inkscape:connector-curvature="0" /><path
         d="m 112.7746,363.6844 c 0.087,0.116 6.407,-1.169 6.964,-1.195 3.137,-0.149 6.287,-0.019 9.401,0.384 7.701,0.997 15.887,4 22.933,7.234 11.999,5.507 20.008,16.356 29.938,24.617 4.998,4.159 10.586,7.63 16.932,9.272 6.778,1.754 13.935,5.414 17.756,11.942 0,0 -47.216,-3.851 -64.537,-11.444 -17.303,-7.585 -39.342,-40.742 -39.387,-40.81"
         style="fill:#111a1e;fill-opacity:1;fill-rule:nonzero;stroke:none"
         id="path4637"
         inkscape:connector-curvature="0" /><path
         d="m 139.636,361.2323 c 0,0 -1.632,-14.553 0.741,-20.247 2.373,-5.695 5.852,-6.486 8.858,-4.587 3.005,1.898 5.062,6.801 5.853,13.603 0.79,6.802 -0.505,13.604 -3.574,15.027 -3.07,1.424 -9.455,3.006 -11.878,-3.796"
         style="fill:#ce4627;fill-opacity:1;fill-rule:nonzero;stroke:none"
         id="path4641"
         inkscape:connector-curvature="0" /><path
         d="m 124.2424,374.994 c 0,0 6.585,-9.333 15.394,-14.236 0,0 0.74,-9.17 5.011,-9.884 4.271,-0.714 8.146,9.884 6.13,14.471 -2.017,4.587 -7.237,10.124 -10.401,17.4 -3.163,7.276 -16.134,-7.751 -16.134,-7.751"
         style="fill:#ffd8bd;fill-opacity:1;fill-rule:nonzero;stroke:none"
         id="path4645"
         inkscape:connector-curvature="0" /><path
         d="m 200.4156,388.0137 c 0,0 6.305,0.267 10.543,1.691 4.238,1.424 7.243,2.373 8.509,0 1.265,-2.373 -0.159,-7.118 -4.271,-9.491 -4.113,-2.373 -17.084,-5.694 -21.355,-3.796 -4.271,1.898 -3.246,10.38 -1.307,11.596 1.94,1.216 7.881,0 7.881,0"
         style="fill:#ce4627;fill-opacity:1;fill-rule:nonzero;stroke:none"
         id="path4649"
         inkscape:connector-curvature="0" /><path
         d="m 209.8346,413.619 c 0,0 1.249,-13.851 -5.869,-25.605 0,0 4.09,0.316 4.249,-0.366 0.385,-1.659 -3.933,-2.981 -9.627,-2.914 -5.695,0.067 -6.169,1.016 -6.169,2.756 0,1.74 1.107,11.231 -1.266,19.773 -2.373,8.542 13.478,16.667 18.682,6.356"
         style="fill:#ffd8bd;fill-opacity:1;fill-rule:nonzero;stroke:none"
         id="path4653"
         inkscape:connector-curvature="0" /><path
         d="m 212.6653,481.6076 c 0,0 2.61,3.559 1.661,8.542 0,0 -8.542,4.033 -8.067,6.881 0.474,2.847 6.169,0.711 9.491,0 0,0 0.237,14.236 3.559,14.473 3.321,0.237 4.033,-9.965 4.033,-9.965 0,0 4.746,12.101 8.779,11.389 4.034,-0.712 -1.423,-13.287 -1.423,-13.287 0,0 6.643,5.694 9.965,4.033 3.322,-1.661 -4.983,-10.914 -11.626,-14.948 0,0 1.898,-18.744 -2.136,-25.388 -4.033,-6.643 -14.236,18.27 -14.236,18.27"
         style="fill:#ffd8bd;fill-opacity:1;fill-rule:nonzero;stroke:none"
         id="path4657"
         inkscape:connector-curvature="0" /><path
         d="m 224.2598,496.6552 c 0,0 -0.098,-0.103 -0.254,-0.266 -0.148,-0.179 -0.4,-0.324 -0.612,-0.615 -0.113,-0.133 -0.225,-0.281 -0.358,-0.411 -0.141,-0.122 -0.213,-0.334 -0.345,-0.482 -0.12,-0.163 -0.26,-0.314 -0.339,-0.516 -0.107,-0.179 -0.216,-0.361 -0.325,-0.543 -0.086,-0.193 -0.173,-0.387 -0.258,-0.577 -0.101,-0.186 -0.154,-0.383 -0.224,-0.572 -0.05,-0.192 -0.166,-0.373 -0.198,-0.555 -0.037,-0.183 -0.084,-0.358 -0.14,-0.526 -0.12,-0.337 -0.106,-0.627 -0.173,-0.851 -0.054,-0.23 -0.085,-0.361 -0.085,-0.361 0,0 -0.075,0.108 -0.206,0.297 -0.099,0.199 -0.34,0.496 -0.392,0.894 -0.046,0.197 -0.083,0.417 -0.108,0.653 -0.047,0.239 0.008,0.48 0.033,0.736 0.034,0.255 0.046,0.531 0.166,0.775 0.1,0.252 0.202,0.508 0.304,0.763 0.155,0.227 0.311,0.454 0.464,0.678 0.151,0.223 0.365,0.393 0.553,0.566 0.195,0.168 0.376,0.334 0.59,0.439 0.206,0.114 0.415,0.198 0.598,0.278 0.356,0.181 0.732,0.157 0.951,0.19 0.231,0.014 0.358,0.006 0.358,0.006"
         style="fill:#e8b592;fill-opacity:1;fill-rule:nonzero;stroke:none"
         id="path4661"
         inkscape:connector-curvature="0" /><path
         d="m 101.1481,451.4742 c 0,0 -6.406,-3.085 -9.728,-10.203 0,0 9.728,-1.898 8.304,-5.457 -1.423,-3.559 -8.541,-2.61 -8.541,-2.61 0,0 1.66,-13.05 -2.848,-13.999 -4.508,-0.949 -5.694,11.389 -5.694,11.389 0,0 -6.881,-10.44 -9.254,-9.016 -2.372,1.423 0,10.44 0,10.44 0,0 -7.355,-5.932 -9.49,-3.559 -2.136,2.372 9.016,12.575 13.049,15.422 0,0 3.559,16.609 12.813,24.914 9.254,8.304 11.389,-17.321 11.389,-17.321"
         style="fill:#ffd8bd;fill-opacity:1;fill-rule:nonzero;stroke:none"
         id="path4665"
         inkscape:connector-curvature="0" /><path
         d="m 159.0421,483.9803 c 0,0 -42.471,11.152 -74.74,-16.372 0,0 2.135,-17.083 22.303,-28.947 0,0 7.356,10.915 16.372,17.558 0,0 -17.084,-26.337 -14.711,-46.267 2.373,-19.931 4.983,-39.862 4.508,-46.268 0,0 25.388,9.491 37.726,23.015 12.338,13.524 26.1,18.744 35.354,18.507 9.253,-0.237 25.625,-0.474 32.98,10.203 0,0 -20.88,8.304 -31.794,17.321 -10.915,9.016 -12.084,22.385 -12.084,22.385 0,0 10.148,-13.844 31.284,-11.708 21.136,2.135 28.966,16.609 28.966,16.609 0,0 -13.999,20.603 -21.354,26.198 0,0 -6.644,-10.064 -15.186,-13.386 -8.542,-3.321 -21.829,4.508 -26.337,7.83 -4.508,3.322 -9.314,2.503 -13.287,3.322"
         style="fill:#1f3247;fill-opacity:1;fill-rule:nonzero;stroke:none"
         id="path4669"
         inkscape:connector-curvature="0" /><path
         d="m 121.925,455.1156 c 0,0 0.393,0.806 1.145,1.92 0.189,0.278 0.387,0.585 0.619,0.893 0.222,0.316 0.5,0.608 0.785,0.914 0.289,0.304 0.587,0.618 0.89,0.936 0.314,0.309 0.633,0.622 0.952,0.935 0.354,0.273 0.709,0.545 1.058,0.813 0.346,0.272 0.705,0.515 1.048,0.754 0.346,0.235 0.665,0.485 1.016,0.649 0.34,0.181 0.667,0.343 0.974,0.483 0.605,0.292 1.127,0.499 1.493,0.638 0.371,0.128 0.583,0.201 0.583,0.201 0,0 -0.155,-0.166 -0.428,-0.456 -0.277,-0.28 -0.675,-0.67 -1.173,-1.096 -0.245,-0.219 -0.516,-0.446 -0.808,-0.675 -0.295,-0.228 -0.562,-0.525 -0.874,-0.782 -0.302,-0.271 -0.611,-0.553 -0.943,-0.817 -0.329,-0.266 -0.664,-0.537 -0.998,-0.808 -0.318,-0.29 -0.636,-0.58 -0.949,-0.866 -0.324,-0.275 -0.643,-0.546 -0.951,-0.808 -0.298,-0.274 -0.644,-0.483 -0.903,-0.75 -0.267,-0.259 -0.539,-0.486 -0.784,-0.703 -0.986,-0.863 -1.752,-1.375 -1.752,-1.375"
         style="fill:#0d1a26;fill-opacity:1;fill-rule:nonzero;stroke:none"
         id="path4673"
         inkscape:connector-curvature="0" /><path
         d="m 175.2227,453.8658 c 0,0 -0.133,0.21 -0.358,0.564 -0.206,0.368 -0.554,0.883 -0.826,1.557 -0.142,0.335 -0.305,0.697 -0.452,1.089 -0.156,0.389 -0.279,0.813 -0.403,1.252 -0.119,0.441 -0.259,0.894 -0.343,1.367 -0.082,0.473 -0.166,0.954 -0.25,1.434 -0.038,0.487 -0.077,0.973 -0.114,1.452 -0.055,0.478 -0.022,0.952 -0.011,1.409 0.016,0.457 0.014,0.898 0.082,1.314 0.051,0.416 0.109,0.808 0.175,1.167 0.099,0.721 0.319,1.304 0.433,1.711 0.139,0.403 0.219,0.633 0.219,0.633 0,0 0.028,-0.243 0.077,-0.668 0.053,-0.423 0.053,-1.017 0.126,-1.726 0.036,-0.354 0.062,-0.735 0.079,-1.137 0.016,-0.401 0.088,-0.823 0.11,-1.259 0.038,-0.436 0.065,-0.885 0.121,-1.339 0.047,-0.455 0.094,-0.917 0.142,-1.379 0.064,-0.46 0.128,-0.92 0.191,-1.373 0.035,-0.458 0.126,-0.899 0.198,-1.33 0.088,-0.428 0.103,-0.859 0.197,-1.25 0.086,-0.393 0.141,-0.773 0.202,-1.123 0.102,-0.706 0.254,-1.279 0.309,-1.701 0.06,-0.417 0.096,-0.664 0.096,-0.664"
         style="fill:#0d1a26;fill-opacity:1;fill-rule:nonzero;stroke:none"
         id="path4677"
         inkscape:connector-curvature="0" /><path
         d="m 130.4667,457.6868 c 0,0 -0.201,-0.684 -0.551,-1.875 -0.2,-0.586 -0.37,-1.319 -0.548,-2.161 -0.095,-0.418 -0.196,-0.863 -0.303,-1.332 -0.087,-0.473 -0.151,-0.976 -0.235,-1.495 -0.073,-0.522 -0.183,-1.059 -0.233,-1.624 -0.047,-0.565 -0.095,-1.149 -0.145,-1.748 -0.073,-0.597 -0.082,-1.215 -0.08,-1.847 0,-0.63 -0.029,-1.274 -0.02,-1.927 0.075,-1.308 0.096,-2.66 0.31,-4.019 0.11,-1.37 0.425,-2.731 0.67,-4.102 0.355,-1.347 0.641,-2.715 1.118,-4.003 0.395,-1.316 0.935,-2.555 1.412,-3.774 0.264,-0.598 0.563,-1.168 0.829,-1.739 0.266,-0.573 0.534,-1.129 0.845,-1.643 0.297,-0.523 0.586,-1.032 0.865,-1.524 0.283,-0.492 0.608,-0.932 0.889,-1.378 0.294,-0.436 0.562,-0.866 0.838,-1.259 0.293,-0.382 0.571,-0.744 0.832,-1.084 0.511,-0.692 0.971,-1.287 1.397,-1.736 0.814,-0.941 1.279,-1.478 1.279,-1.478 0,0 -0.542,0.461 -1.492,1.269 -0.49,0.395 -1.026,0.931 -1.621,1.57 -0.302,0.318 -0.622,0.656 -0.959,1.012 -0.32,0.371 -0.631,0.782 -0.967,1.204 -0.33,0.426 -0.701,0.853 -1.028,1.334 -0.319,0.487 -0.649,0.99 -0.988,1.507 -0.357,0.509 -0.669,1.063 -0.972,1.639 -0.305,0.575 -0.639,1.153 -0.93,1.763 -0.541,1.239 -1.156,2.502 -1.571,3.866 -0.503,1.333 -0.814,2.747 -1.191,4.143 -0.24,1.425 -0.548,2.84 -0.647,4.262 -0.174,1.413 -0.152,2.816 -0.183,4.167 0.007,0.676 0.071,1.34 0.11,1.989 0.037,0.649 0.09,1.283 0.194,1.894 0.092,0.611 0.181,1.206 0.267,1.782 0.096,0.574 0.256,1.116 0.371,1.641 0.129,0.524 0.238,1.027 0.372,1.499 0.156,0.464 0.305,0.905 0.444,1.32 0.27,0.83 0.53,1.542 0.807,2.106 0.518,1.131 0.815,1.781 0.815,1.781"
         style="fill:#0d1a26;fill-opacity:1;fill-rule:nonzero;stroke:none"
         id="path4681"
         inkscape:connector-curvature="0" /><path
         d="m 131.4333,445.9843 c 0,0 0.065,-0.177 0.187,-0.507 0.13,-0.328 0.271,-0.823 0.559,-1.412 0.508,-1.199 1.385,-2.853 2.755,-4.588 0.699,-0.857 1.486,-1.757 2.412,-2.616 0.9,-0.884 1.961,-1.694 3.071,-2.5 1.119,-0.8 2.351,-1.513 3.631,-2.175 1.287,-0.653 2.639,-1.221 4.022,-1.702 1.411,-0.414 2.802,-0.899 4.233,-1.163 1.409,-0.351 2.831,-0.538 4.199,-0.776 1.382,-0.138 2.714,-0.344 3.992,-0.418 1.276,-0.095 2.484,-0.181 3.605,-0.22 2.238,-0.107 4.115,-0.14 5.428,-0.174 1.315,-0.039 2.067,-0.061 2.067,-0.061 0,0 -0.748,-0.087 -2.055,-0.237 -1.309,-0.132 -3.183,-0.321 -5.444,-0.384 -1.131,-0.063 -2.358,-0.061 -3.658,-0.031 -1.3,-0.01 -2.671,0.129 -4.089,0.234 -1.412,0.192 -2.883,0.325 -4.346,0.684 -1.48,0.263 -2.934,0.753 -4.403,1.175 -1.446,0.52 -2.857,1.132 -4.198,1.831 -1.32,0.735 -2.585,1.522 -3.73,2.395 -1.145,0.871 -2.183,1.803 -3.08,2.769 -0.924,0.941 -1.661,1.952 -2.318,2.89 -1.283,1.907 -1.994,3.7 -2.356,4.97 -0.216,0.626 -0.291,1.145 -0.373,1.487 -0.072,0.345 -0.111,0.529 -0.111,0.529"
         style="fill:#0d1a26;fill-opacity:1;fill-rule:nonzero;stroke:none"
         id="path4685"
         inkscape:connector-curvature="0" /><path
         d="m 176.4622,461.6827 c 0,0 0.505,-0.219 1.381,-0.598 0.429,-0.207 0.97,-0.413 1.591,-0.641 0.614,-0.244 1.311,-0.502 2.088,-0.732 0.763,-0.27 1.614,-0.478 2.508,-0.711 0.886,-0.257 1.857,-0.383 2.835,-0.598 0.996,-0.14 2.017,-0.322 3.07,-0.378 1.045,-0.131 2.116,-0.126 3.183,-0.169 1.068,0.028 2.138,0.008 3.185,0.124 1.052,0.061 2.075,0.218 3.073,0.338 0.982,0.196 1.95,0.325 2.843,0.555 0.897,0.215 1.747,0.421 2.517,0.669 0.781,0.218 1.482,0.461 2.1,0.694 0.626,0.215 1.171,0.41 1.604,0.608 0.887,0.361 1.394,0.567 1.394,0.567 0,0 -0.457,-0.303 -1.259,-0.833 -0.399,-0.274 -0.908,-0.56 -1.505,-0.869 -0.59,-0.326 -1.27,-0.667 -2.043,-0.972 -0.755,-0.351 -1.606,-0.646 -2.516,-0.933 -0.901,-0.321 -1.89,-0.525 -2.904,-0.766 -1.027,-0.176 -2.086,-0.4 -3.182,-0.468 -1.09,-0.131 -2.205,-0.124 -3.319,-0.163 -1.112,0.059 -2.227,0.074 -3.315,0.225 -1.091,0.106 -2.147,0.339 -3.17,0.529 -1.011,0.254 -1.991,0.493 -2.889,0.816 -0.906,0.299 -1.747,0.619 -2.5,0.973 -0.767,0.317 -1.441,0.667 -2.027,1.001 -0.592,0.316 -1.098,0.607 -1.493,0.887 -0.793,0.536 -1.25,0.845 -1.25,0.845"
         style="fill:#0d1a26;fill-opacity:1;fill-rule:nonzero;stroke:none"
         id="path4689"
         inkscape:connector-curvature="0" /><path
         d="m 183.8208,454.4348 c 0,0 0.381,-0.276 1.04,-0.754 0.323,-0.243 0.715,-0.539 1.164,-0.876 0.221,-0.171 0.456,-0.353 0.703,-0.544 0.259,-0.176 0.55,-0.337 0.841,-0.52 0.586,-0.36 1.224,-0.741 1.879,-1.166 0.319,-0.227 0.681,-0.404 1.057,-0.574 0.369,-0.181 0.745,-0.365 1.127,-0.552 0.764,-0.375 1.526,-0.816 2.385,-1.078 0.833,-0.318 1.678,-0.642 2.524,-0.965 0.874,-0.236 1.749,-0.471 2.609,-0.703 0.853,-0.274 1.725,-0.376 2.562,-0.527 0.42,-0.072 0.832,-0.144 1.237,-0.214 0.403,-0.082 0.799,-0.151 1.19,-0.161 0.779,-0.048 1.518,-0.105 2.203,-0.169 0.343,-0.024 0.673,-0.066 0.986,-0.078 0.312,0.007 0.609,0.014 0.888,0.021 0.561,0.006 1.052,0.011 1.457,0.014 0.818,-0.009 1.286,-0.014 1.286,-0.014 0,0 -0.454,-0.102 -1.249,-0.281 -0.403,-0.082 -0.892,-0.18 -1.45,-0.293 -0.283,-0.053 -0.584,-0.108 -0.9,-0.167 -0.319,-0.035 -0.656,-0.039 -1.008,-0.058 -0.703,-0.037 -1.47,-0.065 -2.282,-0.082 -0.408,-0.031 -0.823,10e-4 -1.246,0.052 -0.424,0.047 -0.857,0.094 -1.297,0.143 -0.88,0.106 -1.804,0.155 -2.697,0.435 -0.904,0.233 -1.821,0.468 -2.739,0.704 -0.879,0.353 -1.758,0.707 -2.623,1.055 -0.877,0.32 -1.655,0.818 -2.429,1.248 -0.382,0.222 -0.759,0.44 -1.128,0.655 -0.37,0.21 -0.722,0.43 -1.037,0.691 -0.647,0.49 -1.242,0.974 -1.794,1.411 -0.273,0.223 -0.542,0.424 -0.779,0.64 -0.222,0.233 -0.432,0.454 -0.63,0.663 -0.386,0.418 -0.723,0.785 -1.002,1.087 -0.537,0.606 -0.848,0.957 -0.848,0.957"
         style="fill:#0d1a26;fill-opacity:1;fill-rule:nonzero;stroke:none"
         id="path4693"
         inkscape:connector-curvature="0" /><path
         d="m 155.9576,484.0746 c 0,0 -7.83,0.855 -7.355,-5.789 0.474,-6.643 10.202,-4.745 11.151,-1.661 z"
         style="fill:#ffffff;fill-opacity:1;fill-rule:nonzero;stroke:none"
         id="path4697"
         inkscape:connector-curvature="0" /><path
         d="m 161.4149,476.5744 c 0,0 2.135,-4.874 7.355,-2.768 5.22,2.107 4.983,7.015 -4.033,9.544 z"
         style="fill:#ffffff;fill-opacity:1;fill-rule:nonzero;stroke:none"
         id="path4701"
         inkscape:connector-curvature="0" /><path
         d="m 159.754,476.6249 c -7.57,0.421 -8.932,8.4 -0.712,7.355 8.22,-1.045 13.525,-8.067 0.712,-7.355"
         style="fill:#edb894;fill-opacity:1;fill-rule:nonzero;stroke:none"
         id="path4705"
         inkscape:connector-curvature="0" /><path
         d="m 184.1928,554.9243 c 0,0 5.932,-12.813 10.915,-17.321 4.982,-4.508 17.558,-15.908 4.773,-38.223 -8.494,-14.826 -46.429,-31.772 -66.227,-6.621 0,0 -8.541,-10.677 -16.609,0.237 -8.067,10.915 6.169,13.999 9.966,11.152 0,0 3.084,-6.169 5.457,-6.881 2.373,-0.712 5.22,5.695 -2.135,9.965 0,0 1.4,6.307 -2.373,13.762 0,0 11.152,2.373 13.287,7.356 0,0 0.299,-7.356 4.539,-7.119 4.24,0.238 17.764,9.254 24.645,22.067 0,0 0.949,-4.508 4.034,-4.271 3.085,0.237 8.304,8.067 9.728,15.897"
         style="fill:#ffd8bd;fill-opacity:1;fill-rule:nonzero;stroke:none"
         id="path4709"
         inkscape:connector-curvature="0" /><path
         d="m 176.8374,524.7909 c 0,0 0.219,0.068 0.614,0.133 0.395,0.064 0.968,0.123 1.663,0.075 0.347,-0.028 0.73,-0.059 1.126,-0.164 0.396,-0.097 0.826,-0.213 1.24,-0.436 0.418,-0.206 0.833,-0.496 1.205,-0.864 0.363,-0.38 0.642,-0.854 0.84,-1.359 0.078,-0.256 0.121,-0.52 0.176,-0.778 0.036,-0.255 0.034,-0.499 0.05,-0.746 0.006,-0.496 -0.086,-0.987 -0.223,-1.445 -0.154,-0.455 -0.362,-0.873 -0.627,-1.215 -0.254,-0.349 -0.538,-0.639 -0.834,-0.853 -0.573,-0.451 -1.133,-0.662 -1.521,-0.774 -0.397,-0.1 -0.624,-0.116 -0.624,-0.116 0,0 0.195,0.121 0.485,0.381 0.294,0.249 0.688,0.626 1.055,1.115 0.184,0.245 0.347,0.525 0.492,0.824 0.141,0.302 0.233,0.633 0.317,0.972 0.056,0.35 0.072,0.712 0.065,1.088 -0.02,0.187 -0.021,0.386 -0.053,0.565 -0.048,0.169 -0.076,0.345 -0.128,0.51 -0.119,0.323 -0.275,0.629 -0.507,0.89 -0.22,0.269 -0.488,0.514 -0.797,0.707 -0.302,0.196 -0.62,0.385 -0.946,0.522 -0.322,0.143 -0.643,0.272 -0.946,0.374 -1.219,0.409 -2.122,0.594 -2.122,0.594"
         style="fill:#ba825b;fill-opacity:1;fill-rule:nonzero;stroke:none"
         id="path4713"
         inkscape:connector-curvature="0" /><path
         d="m 168.5797,498.929 c -4.595,1.603 -9.85,1.03 -14.086,-1.338 4.061,-4.858 10.091,-9.713 17.72,-9.102 2.297,0.183 4.305,0.801 6.062,1.734 -1.977,3.989 -5.484,7.236 -9.696,8.706"
         style="fill:#d84a4a;fill-opacity:1;fill-rule:nonzero;stroke:none"
         id="path4717"
         inkscape:connector-curvature="0" /><path
         d="m 190.3619,514.8255 c -0.338,-0.074 -21.349,-6.738 -41.78,-8.067 0,0 2.08,-4.585 5.912,-9.168 4.236,2.368 9.491,2.942 14.086,1.338 4.212,-1.469 7.719,-4.717 9.696,-8.705 9.588,5.088 11.685,19.589 12.086,24.602"
         style="fill:#720f0f;fill-opacity:1;fill-rule:nonzero;stroke:none"
         id="path4721"
         inkscape:connector-curvature="0" /><path
         d="m 162.0031,523.0514 c 0.85,-1.485 0.48,-3.296 -0.828,-4.045 -1.308,-0.749 -3.057,-0.152 -3.908,1.333 -0.85,1.485 -0.479,3.296 0.828,4.045 1.308,0.749 3.058,0.152 3.908,-1.333"
         style="fill:#1d1d1b;fill-opacity:1;fill-rule:nonzero;stroke:none"
         id="path4725"
         inkscape:connector-curvature="0" /><path
         d="m 186.7979,534.9259 c 0.85,-1.485 0.48,-3.296 -0.828,-4.045 -1.308,-0.749 -3.057,-0.152 -3.908,1.333 -0.85,1.485 -0.479,3.296 0.828,4.045 1.308,0.749 3.058,0.152 3.908,-1.333"
         style="fill:#1d1d1b;fill-opacity:1;fill-rule:nonzero;stroke:none"
         id="path4729"
         inkscape:connector-curvature="0" /><path
         d="m 155.5042,537.0632 c 0,0 -0.206,-0.143 -0.552,-0.383 -0.176,-0.114 -0.388,-0.251 -0.628,-0.407 -0.121,-0.074 -0.249,-0.152 -0.383,-0.235 -0.128,-0.094 -0.253,-0.21 -0.389,-0.318 -0.271,-0.22 -0.555,-0.463 -0.869,-0.694 -0.325,-0.216 -0.564,-0.578 -0.883,-0.853 -0.3,-0.298 -0.636,-0.578 -0.883,-0.953 -0.279,-0.342 -0.563,-0.69 -0.847,-1.038 -0.24,-0.379 -0.481,-0.758 -0.717,-1.131 -0.262,-0.361 -0.429,-0.762 -0.622,-1.139 -0.166,-0.387 -0.418,-0.732 -0.532,-1.103 -0.126,-0.368 -0.258,-0.716 -0.392,-1.039 -0.06,-0.163 -0.132,-0.317 -0.183,-0.468 -0.037,-0.153 -0.073,-0.298 -0.107,-0.436 -0.075,-0.276 -0.142,-0.519 -0.198,-0.721 -0.129,-0.41 -0.202,-0.644 -0.202,-0.644 0,0 -0.035,0.24 -0.096,0.66 -0.021,0.217 -0.046,0.479 -0.076,0.774 -0.01,0.153 -0.02,0.315 -0.032,0.484 0.006,0.168 0.035,0.342 0.056,0.526 0.04,0.369 0.098,0.77 0.171,1.195 0.046,0.434 0.248,0.842 0.397,1.288 0.165,0.439 0.301,0.915 0.585,1.322 0.256,0.423 0.515,0.853 0.775,1.283 0.33,0.378 0.66,0.757 0.985,1.129 0.314,0.382 0.718,0.664 1.081,0.96 0.375,0.282 0.711,0.585 1.102,0.772 0.378,0.204 0.747,0.373 1.08,0.534 0.168,0.077 0.324,0.158 0.481,0.216 0.164,0.043 0.321,0.084 0.468,0.123 0.289,0.066 0.545,0.125 0.757,0.174 0.41,0.076 0.653,0.122 0.653,0.122"
         style="fill:#a51902;fill-opacity:1;fill-rule:nonzero;stroke:none"
         id="path4733"
         inkscape:connector-curvature="0" /><path
         d="m 173.6762,546.5221 c 0,0 0.093,0.111 0.273,0.288 0.184,0.165 0.438,0.445 0.808,0.658 0.183,0.111 0.38,0.241 0.601,0.353 0.217,0.12 0.459,0.216 0.714,0.305 0.255,0.087 0.517,0.19 0.795,0.247 0.279,0.052 0.563,0.105 0.846,0.158 0.289,0.013 0.577,0.025 0.861,0.037 0.283,0.026 0.562,-0.026 0.83,-0.058 0.268,-0.035 0.527,-0.057 0.765,-0.139 0.24,-0.065 0.463,-0.138 0.664,-0.216 0.409,-0.127 0.716,-0.354 0.931,-0.479 0.208,-0.146 0.327,-0.23 0.327,-0.23 0,0 -0.146,-0.021 -0.4,-0.059 -0.251,-0.038 -0.589,-0.032 -0.992,-0.078 -0.202,-0.024 -0.416,-0.038 -0.638,-0.042 -0.223,-0.004 -0.459,-0.053 -0.698,-0.057 -0.241,-0.019 -0.488,-0.037 -0.736,-0.056 -0.249,-0.021 -0.502,-0.042 -0.756,-0.063 -0.252,-0.032 -0.504,-0.064 -0.752,-0.095 -0.254,-0.006 -0.495,-0.058 -0.733,-0.095 -0.234,-0.052 -0.481,-0.037 -0.697,-0.093 -0.217,-0.048 -0.433,-0.07 -0.632,-0.099 -0.405,-0.042 -0.73,-0.13 -0.982,-0.149 -0.246,-0.023 -0.399,-0.038 -0.399,-0.038"
         style="fill:#a51902;fill-opacity:1;fill-rule:nonzero;stroke:none"
         id="path4737"
         inkscape:connector-curvature="0" /><path
         d="m 193.1484,518.6834 c 1.722,-4.332 9.314,-1.982 7.653,3.012 -1.66,4.994 -9.375,1.32 -7.653,-3.012"
         style="fill:#ffac73;fill-opacity:1;fill-rule:nonzero;stroke:none"
         id="path4741"
         inkscape:connector-curvature="0" /><path
         d="m 139.2278,500.9517 c 1.722,-4.332 9.314,-1.982 7.653,3.012 -1.661,4.994 -9.375,1.32 -7.653,-3.012"
         style="fill:#ffac73;fill-opacity:1;fill-rule:nonzero;stroke:none"
         id="path4745"
         inkscape:connector-curvature="0" /><path
         d="m 135.341,567.6812 c -5.073,2.776 -11.171,3.625 -16.81,2.342 -5.639,-1.284 -10.768,-4.688 -14.14,-9.386 -2.12,-2.953 -3.539,-6.344 -5.444,-9.44 -1.905,-3.095 -4.475,-6.011 -7.924,-7.158 -3.448,-1.147 -7.86,0.06 -9.359,3.371"
         style="fill:none;stroke:#cc0000;stroke-width:2;stroke-linecap:butt;stroke-linejoin:miter;stroke-miterlimit:10;stroke-dasharray:none;stroke-opacity:1"
         id="path4749"
         inkscape:connector-curvature="0" /><path
         d="m 84.3019,544.6302 c 0,0 1.898,11.165 -11.389,21.169 0,0 -0.475,-3.404 0,-4.529 0,0 -5.22,1.721 -5.932,1.01 -0.712,-0.712 2.61,-4.034 2.61,-4.034 0,0 -4.572,0.342 -5.963,-1.134 -1.392,-1.476 4.302,-4.086 4.302,-4.086 0,0 -8.304,0.474 -8.779,-0.712 -0.474,-1.186 15.897,-16.08 25.151,-7.684"
         style="fill:#ed0606;fill-opacity:1;fill-rule:nonzero;stroke:none"
         id="path4753"
         inkscape:connector-curvature="0" /><path
         d="m 145.7856,568.9232 c 0,0 -10.378,6.264 -16.272,-7.653 0,0 7.998,0.534 16.272,7.653"
         style="fill:#ed0606;fill-opacity:1;fill-rule:nonzero;stroke:none"
         id="path4757"
         inkscape:connector-curvature="0" /><path
         d="m 120.439,526.2887 c 0,0 39.471,14.969 61.652,32.615 l -15.009,18.951 -56.059,-33.455 z"
         style="fill:#1f3247;fill-opacity:1;fill-rule:nonzero;stroke:none"
         id="path4761"
         inkscape:connector-curvature="0" /><path
         d="m 87.834,534.7438 5.932,-5.851 c 0,0 88.739,54.894 90.875,56.08 l -5.177,6.169 c 0,0 -82.614,-48.733 -91.63,-56.398"
         style="fill:#2e4c66;fill-opacity:1;fill-rule:nonzero;stroke:none"
         id="path4765"
         inkscape:connector-curvature="0" /><path
         d="m 112.7744,540.6481 c 0,0 3.391,2.373 8.576,5.776 1.296,0.85 2.696,1.778 4.192,2.737 1.494,0.958 3.059,1.988 4.699,3.02 1.637,1.036 3.328,2.107 5.047,3.196 1.726,1.075 3.479,2.168 5.233,3.261 1.761,1.081 3.522,2.162 5.256,3.226 1.731,1.068 3.45,2.094 5.111,3.09 1.658,1.002 3.27,1.957 4.803,2.854 1.528,0.905 2.979,1.751 4.324,2.522 2.682,1.556 4.937,2.82 6.519,3.699 1.588,0.869 2.496,1.366 2.496,1.366 0,0 -0.851,-0.589 -2.339,-1.62 -1.494,-1.021 -3.634,-2.472 -6.226,-4.173 -1.292,-0.858 -2.698,-1.776 -4.192,-2.738 -1.488,-0.969 -3.063,-1.982 -4.701,-3.016 -1.635,-1.04 -3.322,-2.118 -5.052,-3.188 -1.727,-1.073 -3.482,-2.164 -5.237,-3.255 -1.763,-1.079 -3.525,-2.158 -5.26,-3.22 -1.742,-1.049 -3.457,-2.082 -5.117,-3.081 -1.656,-1.004 -3.278,-1.943 -4.804,-2.85 -1.527,-0.908 -2.984,-1.744 -4.324,-2.524 -5.363,-3.112 -9.004,-5.082 -9.004,-5.082"
         style="fill:#0d1a26;fill-opacity:1;fill-rule:nonzero;stroke:none"
         id="path4769"
         inkscape:connector-curvature="0" /></g><g
       id="g5505"
       transform="matrix(0.75543331,0,0,0.75543331,173.98694,195.52421)"><path
         d="m 688.9717,417.3095 c 0,0 7.5,-22.75 16,-20.75 8.5,2 -0.5,24 -2.5,25.25 -2,1.25 -14,0.75 -13.5,-4.5"
         style="fill:#00739b;fill-opacity:1;fill-rule:nonzero;stroke:none"
         id="path4773"
         inkscape:connector-curvature="0" /><path
         d="m 702.4717,421.8095 c -0.421,0.263 -1.287,0.447 -2.383,0.527 4.694,-7.609 6.396,-17.026 4.702,-25.804 0.061,0.012 0.121,0.013 0.181,0.027 8.5,2 -0.5,24 -2.5,25.25"
         style="fill:#24aace;fill-opacity:1;fill-rule:nonzero;stroke:none"
         id="path4777"
         inkscape:connector-curvature="0" /><path
         d="m 606.9717,373.5595 c 0,0 -13.25,-11.5 -11,-17.25 2.25,-5.75 25,7.25 26,10 1,2.75 -5.75,9.25 -8.25,10.25 -2.5,1 -6.75,-3 -6.75,-3"
         style="fill:#00739b;fill-opacity:1;fill-rule:nonzero;stroke:none"
         id="path4781"
         inkscape:connector-curvature="0" /><path
         d="m 595.9688,356.3194 c 10e-4,-0.003 0.002,-0.007 0.003,-0.01 2.25,-5.75 25,7.25 26,10 0.329,0.906 -0.191,2.221 -1.115,3.61 -7.596,-6.775 -16.176,-11.459 -24.888,-13.6"
         style="fill:#24aace;fill-opacity:1;fill-rule:nonzero;stroke:none"
         id="path4785"
         inkscape:connector-curvature="0" /><path
         d="m 671.8728,573.1447 c 3.635,4.498 8.95,7.605 14.653,8.564 5.703,0.96 11.742,-0.236 16.649,-3.296 3.083,-1.924 5.687,-4.52 8.626,-6.657 2.94,-2.137 6.427,-3.855 10.053,-3.603 3.626,0.252 7.245,3.048 7.371,6.68"
         style="fill:none;stroke:#cc0000;stroke-width:2;stroke-linecap:butt;stroke-linejoin:miter;stroke-miterlimit:10;stroke-dasharray:none;stroke-opacity:1"
         id="path4789"
         inkscape:connector-curvature="0" /><path
         d="m 727.8441,571.2579 c 0,0 -6.005,9.602 2.473,23.911 0,0 1.735,-2.967 1.724,-4.189 0,0 4.172,3.579 5.101,3.192 0.929,-0.387 -0.878,-4.723 -0.878,-4.723 0,0 4.098,2.056 5.946,1.221 1.849,-0.835 -2.423,-5.416 -2.423,-5.416 0,0 7.499,3.6 8.389,2.684 0.891,-0.917 -8.579,-20.921 -20.332,-16.68"
         style="fill:#ed0606;fill-opacity:1;fill-rule:nonzero;stroke:none"
         id="path4793"
         inkscape:connector-curvature="0" /><path
         d="m 661.7417,570.3173 c 0,0 7.213,9.743 17.961,-0.883 0,0 -7.6,-2.55 -17.961,0.883"
         style="fill:#ed0606;fill-opacity:1;fill-rule:nonzero;stroke:none"
         id="path4797"
         inkscape:connector-curvature="0" /><path
         d="m 641.9717,554.8095 -23.13,44.75 103.155,-55.853 6.225,-29.897 z"
         style="fill:#182938;fill-opacity:1;fill-rule:nonzero;stroke:none"
         id="path4801"
         inkscape:connector-curvature="0" /><path
         d="m 618.8422,599.5595 1.832,3.5 102.548,-55.494 6.5,-32.678 -1.5,-1.078 -6.226,29.897 z"
         style="fill:#2e4c66;fill-opacity:1;fill-rule:nonzero;stroke:none"
         id="path4805"
         inkscape:connector-curvature="0" /><path
         d="m 614.4717,539.8095 c 0,0 9.5,6 9.5,8.75 0,2.75 -8.5,0 -8.5,0 0,0 1.25,14 -3.25,16 -4.5,2 -4.25,-12.375 -4.25,-12.375 0,0 -2.25,13.507 -6.5,12.566 -4.25,-0.941 -1,-12.447 -1,-12.447 0,0 -5.75,8.506 -9,6.256 -3.25,-2.25 2.75,-13.5 5.75,-15.5 3,-2 10.25,-6 17.25,-3.25"
         style="fill:#ffd8bd;fill-opacity:1;fill-rule:nonzero;stroke:none"
         id="path4809"
         inkscape:connector-curvature="0" /><path
         d="m 604.7131,548.5196 c 0,0 0.106,0.028 0.3,0.051 0.186,0.007 0.496,0.072 0.814,-0.024 0.162,-0.041 0.346,-0.08 0.531,-0.148 0.189,-0.06 0.363,-0.166 0.545,-0.28 0.178,-0.118 0.375,-0.23 0.532,-0.391 0.155,-0.164 0.313,-0.33 0.471,-0.496 0.118,-0.196 0.236,-0.393 0.352,-0.586 0.131,-0.186 0.178,-0.411 0.239,-0.616 0.056,-0.208 0.128,-0.4 0.122,-0.603 0.011,-0.197 0.009,-0.384 -0.005,-0.553 0.005,-0.334 -0.152,-0.615 -0.213,-0.793 -0.09,-0.174 -0.141,-0.274 -0.141,-0.274 0,0 -0.057,0.1 -0.158,0.275 -0.105,0.167 -0.169,0.399 -0.332,0.644 -0.08,0.124 -0.152,0.254 -0.216,0.391 -0.062,0.137 -0.184,0.262 -0.255,0.405 -0.087,0.138 -0.163,0.283 -0.267,0.418 l -0.284,0.421 -0.32,0.394 c -0.086,0.153 -0.211,0.261 -0.322,0.381 -0.12,0.105 -0.196,0.273 -0.318,0.362 -0.117,0.096 -0.217,0.212 -0.318,0.315 -0.193,0.226 -0.401,0.344 -0.534,0.489 -0.135,0.132 -0.223,0.218 -0.223,0.218"
         style="fill:#dda783;fill-opacity:1;fill-rule:nonzero;stroke:none"
         id="path4813"
         inkscape:connector-curvature="0" /><path
         d="m 705.4717,501.3095 c 0,0 -0.071,13.5 3.09,15.5 3.16,2 5.16,-10.5 5.16,-10.5 0,0 7.75,14.25 12,12.75 4.25,-1.5 -4.25,-14.25 -4.25,-14.25 0,0 10,9.361 13.5,5.43 3.5,-3.93 -7,-13.18 -7,-13.18 0,0 10,1.5 11,-2.5 1,-4 -21,-11 -23.75,-10.25 -2.75,0.75 -12.5,9.25 -9.75,17"
         style="fill:#ffd8bd;fill-opacity:1;fill-rule:nonzero;stroke:none"
         id="path4817"
         inkscape:connector-curvature="0" /><path
         d="m 714.4303,495.198 c 0,0 0.065,0.214 0.209,0.595 0.063,0.197 0.177,0.414 0.326,0.657 0.139,0.252 0.318,0.524 0.559,0.784 0.221,0.283 0.498,0.553 0.822,0.81 0.311,0.273 0.69,0.497 1.084,0.723 0.416,0.18 0.841,0.396 1.314,0.507 0.462,0.147 0.96,0.173 1.45,0.234 0.494,-0.029 0.992,-0.023 1.464,-0.139 0.483,-0.063 0.921,-0.26 1.347,-0.418 0.406,-0.206 0.808,-0.391 1.13,-0.656 0.337,-0.241 0.638,-0.485 0.87,-0.762 0.257,-0.246 0.451,-0.509 0.604,-0.754 0.162,-0.236 0.287,-0.447 0.361,-0.642 0.15,-0.373 0.236,-0.587 0.236,-0.587 0,0 -0.172,0.148 -0.474,0.408 -0.135,0.137 -0.326,0.275 -0.544,0.427 -0.207,0.162 -0.445,0.331 -0.724,0.485 -0.264,0.172 -0.572,0.316 -0.891,0.469 -0.313,0.162 -0.68,0.252 -1.028,0.395 -0.371,0.084 -0.742,0.198 -1.132,0.241 -0.384,0.089 -0.782,0.064 -1.175,0.084 -0.392,-0.041 -0.79,-0.037 -1.17,-0.147 -0.393,-0.045 -0.756,-0.19 -1.121,-0.299 -0.337,-0.167 -0.709,-0.263 -1.007,-0.454 -0.308,-0.175 -0.615,-0.329 -0.863,-0.525 -0.271,-0.171 -0.497,-0.356 -0.693,-0.532 -0.207,-0.166 -0.387,-0.318 -0.512,-0.464 -0.277,-0.276 -0.442,-0.44 -0.442,-0.44"
         style="fill:#dda783;fill-opacity:1;fill-rule:nonzero;stroke:none"
         id="path4821"
         inkscape:connector-curvature="0" /><path
         d="m 589.2217,543.3095 c 0,0 19.628,1.758 27.314,-2.121 0,0 -5.936,-24.324 0,-39.477 5.936,-15.152 30.436,-23.402 45.936,-23.902 15.5,-0.5 39.5,23.555 40.25,23.902 0.75,0.348 17.25,-15.152 16.25,-18.652 -1,-3.5 -33.25,-24.25 -55.75,-23 0,0 -4.5,-18.75 2.75,-25 7.25,-6.25 20.47,-6.5 22.985,-6 0,0 12.015,-15 4.015,-28 -8,-13 -32,-16.5 -40.5,-15.25 -8.5,1.25 -21.167,-6.608 -26.75,-10.75 -5.583,-4.142 -28.25,-11 -38,5 -9.75,16 4.25,44.25 11,57.5 6.75,13.25 15.75,27 15.25,32.75 0,0 -15,14.5 -20.75,28.75 -5.75,14.25 -7,29.75 -4,44.25"
         style="fill:#1f3247;fill-opacity:1;fill-rule:nonzero;stroke:none"
         id="path4825"
         inkscape:connector-curvature="0" /><path
         d="m 613.7242,468.8092 c 0,0 -0.019,0.351 -0.052,0.954 -0.047,0.605 0.005,1.456 -0.089,2.478 -0.032,0.51 -0.076,1.061 -0.095,1.641 -0.005,0.581 -0.136,1.189 -0.174,1.819 -0.061,0.63 -0.097,1.281 -0.227,1.934 -0.094,0.655 -0.189,1.321 -0.284,1.987 -0.131,0.66 -0.261,1.32 -0.389,1.97 -0.111,0.653 -0.283,1.282 -0.428,1.898 -0.167,0.608 -0.26,1.219 -0.434,1.773 -0.169,0.556 -0.318,1.086 -0.445,1.582 -0.246,0.995 -0.566,1.786 -0.716,2.375 -0.163,0.586 -0.255,0.921 -0.255,0.921 0,0 0.19,-0.289 0.525,-0.795 0.303,-0.521 0.83,-1.235 1.244,-2.192 0.226,-0.47 0.46,-0.986 0.698,-1.537 0.259,-0.544 0.425,-1.155 0.635,-1.775 0.199,-0.623 0.437,-1.261 0.556,-1.94 0.145,-0.672 0.292,-1.356 0.438,-2.04 0.083,-0.694 0.165,-1.388 0.246,-2.071 0.088,-0.683 0.08,-1.362 0.099,-2.016 0.008,-0.654 0.032,-1.285 -0.023,-1.884 -0.04,-0.598 -0.105,-1.161 -0.155,-1.68 -0.079,-1.038 -0.335,-1.885 -0.448,-2.478 -0.144,-0.584 -0.227,-0.924 -0.227,-0.924"
         style="fill:#0d1a26;fill-opacity:1;fill-rule:nonzero;stroke:none"
         id="path4829"
         inkscape:connector-curvature="0" /><path
         d="m 607.0773,442.0405 c 0,0 -0.143,-0.226 -0.411,-0.649 -0.26,-0.427 -0.689,-1.022 -1.127,-1.845 -0.942,-1.601 -2.131,-3.988 -3.147,-6.988 -0.476,-1.51 -0.951,-3.157 -1.285,-4.935 -0.383,-1.768 -0.556,-3.67 -0.688,-5.629 -0.1,-1.965 -0.022,-3.998 0.189,-6.046 0.242,-2.046 0.652,-4.1 1.226,-6.109 0.604,-2 1.37,-3.949 2.273,-5.8 0.947,-1.827 1.97,-3.583 3.112,-5.184 1.166,-1.579 2.352,-3.074 3.619,-4.363 1.238,-1.318 2.534,-2.438 3.743,-3.459 2.474,-1.975 4.757,-3.348 6.414,-4.19 0.81,-0.463 1.491,-0.734 1.94,-0.954 0.454,-0.211 0.697,-0.324 0.697,-0.324 0,0 -0.253,0.087 -0.725,0.251 -0.47,0.173 -1.181,0.377 -2.039,0.757 -1.739,0.696 -4.168,1.894 -6.805,3.778 -1.299,0.963 -2.687,2.049 -4.01,3.358 -1.365,1.267 -2.646,2.765 -3.884,4.378 -1.223,1.627 -2.34,3.417 -3.327,5.317 -0.95,1.92 -1.759,3.945 -2.399,6.028 -0.583,2.099 -0.993,4.241 -1.227,6.369 -0.174,2.134 -0.208,4.241 -0.06,6.27 0.168,2.026 0.456,3.974 0.909,5.779 0.403,1.816 0.996,3.475 1.56,4.988 1.202,3.009 2.592,5.331 3.678,6.857 0.51,0.787 0.998,1.343 1.298,1.743 0.311,0.392 0.476,0.602 0.476,0.602"
         style="fill:#0d1a26;fill-opacity:1;fill-rule:nonzero;stroke:none"
         id="path4833"
         inkscape:connector-curvature="0" /><path
         d="m 602.2576,393.0879 c 0,0 0.237,-0.185 0.642,-0.499 0.197,-0.162 0.435,-0.358 0.706,-0.58 0.259,-0.234 0.562,-0.482 0.929,-0.711 0.353,-0.244 0.738,-0.499 1.125,-0.789 0.375,-0.306 0.87,-0.49 1.308,-0.778 0.455,-0.263 0.904,-0.568 1.425,-0.762 0.498,-0.233 1.003,-0.47 1.509,-0.707 0.526,-0.186 1.053,-0.373 1.571,-0.556 0.511,-0.21 1.042,-0.317 1.549,-0.455 0.512,-0.108 0.995,-0.308 1.475,-0.367 0.477,-0.072 0.93,-0.151 1.351,-0.236 0.422,-0.096 0.811,-0.137 1.159,-0.156 0.349,-0.036 0.656,-0.067 0.91,-0.093 0.514,-0.069 0.807,-0.108 0.807,-0.108 0,0 -0.285,-0.069 -0.786,-0.189 -0.257,-0.052 -0.567,-0.115 -0.92,-0.186 -0.358,-0.078 -0.765,-0.135 -1.211,-0.123 -0.446,-0.015 -0.933,-0.018 -1.45,-0.009 -0.521,-0.021 -1.05,0.116 -1.607,0.195 -0.555,0.096 -1.143,0.156 -1.696,0.375 -0.562,0.187 -1.134,0.378 -1.705,0.568 -0.538,0.271 -1.076,0.541 -1.606,0.807 -0.537,0.254 -0.998,0.618 -1.46,0.938 -0.453,0.335 -0.913,0.626 -1.274,0.998 -0.374,0.355 -0.709,0.709 -1.021,1.027 -0.324,0.306 -0.573,0.632 -0.773,0.938 -0.202,0.298 -0.379,0.559 -0.526,0.776 -0.272,0.429 -0.431,0.682 -0.431,0.682"
         style="fill:#0d1a26;fill-opacity:1;fill-rule:nonzero;stroke:none"
         id="path4837"
         inkscape:connector-curvature="0" /><path
         d="m 662.0135,460.3712 c 0,0 -1.517,-3.279 -4.025,-8.08 -0.626,-1.201 -1.31,-2.5 -2.063,-3.857 -0.743,-1.363 -1.548,-2.79 -2.398,-4.256 -0.873,-1.453 -1.755,-2.968 -2.709,-4.473 -0.94,-1.514 -1.956,-3.014 -2.957,-4.523 -1.054,-1.475 -2.08,-2.969 -3.173,-4.382 -1.054,-1.44 -2.19,-2.784 -3.271,-4.096 -1.116,-1.284 -2.187,-2.533 -3.282,-3.644 -1.078,-1.127 -2.109,-2.179 -3.123,-3.088 -0.499,-0.461 -0.976,-0.904 -1.431,-1.325 -0.474,-0.398 -0.924,-0.777 -1.347,-1.132 -0.841,-0.714 -1.587,-1.32 -2.232,-1.782 -1.274,-0.936 -2.002,-1.471 -2.002,-1.471 0,0 0.658,0.618 1.809,1.699 0.589,0.523 1.267,1.199 2.037,1.979 0.389,0.386 0.802,0.797 1.238,1.229 0.42,0.448 0.862,0.918 1.323,1.409 0.933,0.97 1.891,2.069 2.907,3.228 1.02,1.153 2.026,2.432 3.098,3.724 1.029,1.329 2.103,2.692 3.143,4.118 1.071,1.402 2.078,2.889 3.111,4.355 1.006,1.486 2.026,2.963 2.973,4.457 0.985,1.468 1.9,2.951 2.805,4.372 0.887,1.434 1.746,2.822 2.559,4.137 0.807,1.32 1.57,2.57 2.274,3.723 2.802,4.625 4.736,7.679 4.736,7.679"
         style="fill:#0d1a26;fill-opacity:1;fill-rule:nonzero;stroke:none"
         id="path4841"
         inkscape:connector-curvature="0" /><path
         d="m 654.6623,439.3217 c 0,0 -0.113,-1.473 -0.468,-3.666 -0.09,-0.548 -0.178,-1.144 -0.299,-1.769 -0.106,-0.629 -0.298,-1.271 -0.48,-1.94 -0.188,-0.667 -0.383,-1.357 -0.582,-2.058 -0.212,-0.697 -0.428,-1.405 -0.644,-2.113 -0.278,-0.687 -0.555,-1.373 -0.829,-2.049 -0.269,-0.676 -0.561,-1.332 -0.839,-1.967 -0.285,-0.632 -0.525,-1.259 -0.851,-1.808 -0.304,-0.559 -0.602,-1.083 -0.886,-1.561 -0.555,-0.962 -1.052,-1.743 -1.404,-2.285 -0.361,-0.537 -0.568,-0.843 -0.568,-0.843 0,0 0.11,0.355 0.303,0.977 0.202,0.617 0.497,1.49 0.893,2.514 0.191,0.516 0.408,1.068 0.648,1.646 0.246,0.577 0.418,1.221 0.663,1.858 0.228,0.645 0.459,1.312 0.721,1.978 0.258,0.668 0.521,1.347 0.783,2.026 0.228,0.691 0.456,1.382 0.68,2.062 0.238,0.676 0.473,1.342 0.7,1.986 0.209,0.65 0.502,1.253 0.664,1.859 0.175,0.601 0.367,1.163 0.536,1.686 0.681,2.087 1.259,3.467 1.259,3.467"
         style="fill:#0d1a26;fill-opacity:1;fill-rule:nonzero;stroke:none"
         id="path4845"
         inkscape:connector-curvature="0" /><path
         d="m 635.434,395.2402 c 0,0 0.336,-0.109 0.912,-0.296 0.584,-0.173 1.363,-0.529 2.355,-0.808 0.49,-0.153 1.022,-0.31 1.573,-0.5 0.546,-0.205 1.163,-0.299 1.768,-0.489 0.612,-0.168 1.236,-0.368 1.894,-0.479 0.649,-0.145 1.307,-0.294 1.966,-0.442 0.666,-0.113 1.332,-0.225 1.987,-0.336 0.654,-0.129 1.305,-0.19 1.934,-0.272 0.631,-0.06 1.238,-0.189 1.82,-0.221 0.582,-0.039 1.133,-0.086 1.643,-0.141 1.022,-0.121 1.879,-0.099 2.485,-0.165 0.609,-0.054 0.956,-0.085 0.956,-0.085 0,0 -0.339,-0.077 -0.932,-0.212 -0.598,-0.101 -1.455,-0.345 -2.5,-0.395 -0.522,-0.046 -1.09,-0.083 -1.692,-0.11 -0.603,-0.052 -1.235,0.01 -1.892,0.033 -0.657,0.034 -1.34,0.038 -2.02,0.167 -0.683,0.104 -1.377,0.21 -2.071,0.315 -0.681,0.171 -1.362,0.341 -2.033,0.509 -0.672,0.161 -1.306,0.411 -1.926,0.628 -0.617,0.226 -1.219,0.429 -1.759,0.696 -0.547,0.252 -1.053,0.515 -1.521,0.748 -0.946,0.446 -1.647,0.992 -2.162,1.31 -0.496,0.344 -0.785,0.545 -0.785,0.545"
         style="fill:#0d1a26;fill-opacity:1;fill-rule:nonzero;stroke:none"
         id="path4849"
         inkscape:connector-curvature="0" /><path
         d="m 634.7408,484.8229 c 0,0 -1.481,-17.263 0,-20.763 0,0 17.236,11.614 18.248,13.138 1.012,1.525 -18.248,7.625 -18.248,7.625"
         style="fill:#ffffff;fill-opacity:1;fill-rule:nonzero;stroke:none"
         id="path4853"
         inkscape:connector-curvature="0" /><path
         d="m 630.7217,553.5595 c 0,0 -5.75,5.75 -8,5 -2.25,-0.75 2.75,-6.723 2.75,-6.723 0,0 -8.564,-0.406 -8.75,-5.527 -0.186,-5.121 47.25,-25.779 46.75,-27.139 -0.5,-1.361 19.681,-30.119 27.091,-27.865 7.409,2.254 12.159,10.406 12.159,10.406 0,0 7,-5.097 7.25,0 0.25,5.098 -4.25,12.598 -7.75,14.848 0,0 6.429,-0.5 6.34,1.5 -0.09,2 -10.09,8 -17.34,10.25 -7.25,2.25 -60.5,25.25 -60.5,25.25"
         style="fill:#ec6523;fill-opacity:1;fill-rule:nonzero;stroke:none"
         id="path4857"
         inkscape:connector-curvature="0" /><path
         d="m 626.9754,554.0595 c 0,0 14.246,14.5 16.246,14.75 2,0.25 55.75,-30.75 58.5,-33.75 l -2.962,-11.75 c 0,0 -64.78,27 -71.784,30.75"
         style="fill:#1f3247;fill-opacity:1;fill-rule:nonzero;stroke:none"
         id="path4861"
         inkscape:connector-curvature="0" /><path
         d="m 643.2217,568.8095 c 0,0 4.003,-1.442 9.805,-4.039 1.452,-0.646 3.023,-1.35 4.666,-2.133 1.64,-0.789 3.385,-1.591 5.156,-2.489 1.769,-0.901 3.598,-1.832 5.455,-2.778 1.836,-0.99 3.711,-1.975 5.564,-3.003 1.846,-1.042 3.692,-2.082 5.492,-3.14 1.812,-1.034 3.557,-2.121 5.237,-3.188 1.697,-1.037 3.3,-2.105 4.804,-3.141 1.524,-1.002 2.923,-2.021 4.2,-2.977 1.297,-0.926 2.443,-1.84 3.444,-2.668 1.005,-0.821 1.879,-1.534 2.553,-2.184 1.352,-1.279 2.124,-2.01 2.124,-2.01 0,0 -0.903,0.558 -2.483,1.534 -0.767,0.511 -1.749,1.063 -2.855,1.717 -1.102,0.661 -2.343,1.403 -3.722,2.179 -1.374,0.783 -2.86,1.63 -4.432,2.525 -1.578,0.887 -3.242,1.822 -4.962,2.789 -1.725,0.963 -3.506,1.958 -5.316,2.968 -1.799,1.032 -3.647,2.046 -5.493,3.063 -1.827,1.051 -3.679,2.061 -5.49,3.074 -1.807,1.024 -3.586,2.031 -5.307,3.005 -1.735,0.951 -3.376,1.94 -4.955,2.834 -1.584,0.885 -3.052,1.78 -4.426,2.572 -5.477,3.199 -9.059,5.49 -9.059,5.49"
         style="fill:#0d1a26;fill-opacity:1;fill-rule:nonzero;stroke:none"
         id="path4865"
         inkscape:connector-curvature="0" /><path
         d="m 626.9717,540.5595 c 0,0 -0.5,7.25 -8,7 -7.5,-0.25 -13.001,-19 -2.25,-20 10.75,-1 10.25,13 10.25,13"
         style="fill:#f7c6a4;fill-opacity:1;fill-rule:nonzero;stroke:none"
         id="path4869"
         inkscape:connector-curvature="0" /><path
         d="m 630.9717,550.8095 c 0,0 -4.5,-8.119 -8.75,-11.935 -4.25,-3.815 -17,-14.315 -11.5,-32.815 5.5,-18.5 30.75,-29.25 48.25,-29.25 17.5,0 29.985,12.25 29.985,12.25 0,0 10.86,-7.694 18.938,1.653 8.077,9.347 0.577,19.347 -12.423,17.097 0,0 -1.75,-12 -4.25,-12.75 -2.5,-0.75 -12,9.5 0.25,17.25 0,0 -10.5,8.75 -9.5,17.5 0,0 0.25,-5.25 -2.75,-6.25 -3,-1 -14.24,7.5 -15.87,13.75 0,0 -5.38,-2 -9.13,-0.5 -3.75,1.5 -6,6.897 -6,6.897 0,0 -3.25,-5.647 -7.75,-5.897 -4.5,-0.25 -9.5,13 -9.5,13"
         style="fill:#ffd8bd;fill-opacity:1;fill-rule:nonzero;stroke:none"
         id="path4873"
         inkscape:connector-curvature="0" /><path
         d="m 705.2055,495.6244 c 0,0 0.095,0.118 0.273,0.34 0.088,0.108 0.196,0.242 0.324,0.399 0.113,0.167 0.21,0.382 0.336,0.605 0.466,0.901 0.851,2.397 0.466,4.049 -0.252,0.798 -0.63,1.626 -1.315,2.267 -0.68,0.636 -1.577,1.095 -2.563,1.327 -0.99,0.221 -2.073,0.127 -3.003,-0.279 -0.939,-0.39 -1.735,-1.138 -2.249,-2.066 -0.538,-0.917 -0.746,-2.021 -0.639,-3.037 0.018,-0.127 0,-0.261 0.043,-0.381 l 0.052,-0.183 0.024,-0.089 -0.003,-10e-4 c -0.017,-10e-4 -0.003,-0.024 0.052,-0.019 l 0.3,-0.021 c 0.163,-0.016 0.327,-0.018 0.487,-0.047 0.32,-0.063 0.637,-0.118 0.939,-0.233 1.225,-0.377 2.251,-1.264 2.779,-2.349 0.496,-1.092 0.496,-2.273 0.13,-3.226 -0.342,-0.969 -1.142,-1.651 -1.909,-1.894 -0.774,-0.253 -1.483,-0.174 -2.01,-0.025 -1.071,0.382 -1.34,1.027 -1.363,0.983 0.012,0.04 0.418,-0.533 1.43,-0.692 0.494,-0.058 1.118,-0.026 1.725,0.267 0.6,0.291 1.118,0.86 1.316,1.635 0.197,0.761 0.107,1.674 -0.308,2.449 -0.448,0.739 -1.228,1.357 -2.179,1.611 -0.232,0.08 -0.48,0.106 -0.725,0.146 -0.123,0.018 -0.249,0.01 -0.374,0.018 l -0.187,0.008 -0.381,-0.026 -0.405,-0.03 -0.203,-0.015 c -0.057,0.012 -0.166,-0.054 -0.163,0.049 l -0.243,0.833 -0.166,0.579 c -0.054,0.161 -0.042,0.331 -0.065,0.497 -0.15,1.332 0.111,2.719 0.779,3.897 0.665,1.173 1.724,2.155 2.983,2.656 1.259,0.49 2.621,0.533 3.828,0.216 1.211,-0.318 2.259,-0.99 3.039,-1.819 0.799,-0.844 1.153,-1.906 1.347,-2.844 0.26,-1.946 -0.402,-3.496 -1.027,-4.357 -0.168,-0.214 -0.301,-0.414 -0.445,-0.564 -0.156,-0.138 -0.29,-0.255 -0.398,-0.35 -0.214,-0.185 -0.329,-0.284 -0.329,-0.284"
         style="fill:#dda783;fill-opacity:1;fill-rule:nonzero;stroke:none"
         id="path4877"
         inkscape:connector-curvature="0" /><path
         d="m 614.5232,542.9825 c 0,0 0.092,0.119 0.287,0.32 0.094,0.109 0.226,0.211 0.391,0.317 0.161,0.116 0.355,0.23 0.586,0.311 0.226,0.103 0.484,0.179 0.768,0.221 0.281,0.057 0.588,0.062 0.905,0.051 0.313,-0.047 0.646,-0.078 0.967,-0.196 0.329,-0.095 0.628,-0.282 0.937,-0.449 0.268,-0.224 0.554,-0.434 0.764,-0.704 0.243,-0.243 0.388,-0.549 0.544,-0.826 0.123,-0.293 0.248,-0.575 0.286,-0.864 0.06,-0.281 0.095,-0.548 0.073,-0.799 0.008,-0.245 -0.029,-0.469 -0.081,-0.662 -0.041,-0.192 -0.091,-0.353 -0.159,-0.48 -0.13,-0.244 -0.204,-0.383 -0.204,-0.383 0,0 -0.033,0.151 -0.093,0.415 -0.016,0.125 -0.064,0.275 -0.12,0.44 -0.044,0.165 -0.103,0.344 -0.188,0.53 -0.069,0.188 -0.173,0.377 -0.275,0.573 -0.096,0.198 -0.251,0.377 -0.364,0.576 -0.155,0.176 -0.293,0.367 -0.466,0.528 -0.15,0.186 -0.355,0.309 -0.535,0.46 -0.205,0.115 -0.392,0.264 -0.62,0.338 -0.206,0.123 -0.44,0.175 -0.661,0.253 -0.228,0.029 -0.452,0.128 -0.673,0.133 -0.22,0.02 -0.437,0.059 -0.637,0.046 -0.205,0.012 -0.393,-10e-4 -0.563,-0.022 -0.174,-0.01 -0.33,-0.023 -0.453,-0.055 -0.257,-0.044 -0.416,-0.072 -0.416,-0.072"
         style="fill:#dda783;fill-opacity:1;fill-rule:nonzero;stroke:none"
         id="path4881"
         inkscape:connector-curvature="0" /><path
         d="m 646.0967,519.1702 c 0,0 -1.096,-0.091 -2.58,-0.484 -0.371,-0.094 -0.756,-0.239 -1.144,-0.396 -0.392,-0.157 -0.759,-0.388 -1.105,-0.632 -0.325,-0.266 -0.641,-0.557 -0.823,-0.933 -0.222,-0.347 -0.339,-0.769 -0.417,-1.211 -0.051,-0.429 -0.066,-0.862 0.057,-1.264 0.12,-0.397 0.275,-0.793 0.533,-1.134 0.24,-0.349 0.548,-0.648 0.853,-0.926 0.323,-0.258 0.649,-0.492 0.973,-0.681 0.65,-0.369 1.254,-0.625 1.695,-0.751 0.438,-0.148 0.708,-0.199 0.708,-0.199 0,0 -0.263,-0.058 -0.745,-0.097 -0.482,-0.036 -1.185,0.009 -1.998,0.261 -0.411,0.117 -0.838,0.307 -1.271,0.559 -0.426,0.261 -0.867,0.581 -1.232,1.024 -0.387,0.418 -0.699,0.961 -0.878,1.559 -0.191,0.601 -0.197,1.25 -0.128,1.87 0.118,0.596 0.311,1.209 0.665,1.736 0.338,0.538 0.83,0.926 1.304,1.238 0.486,0.299 0.999,0.472 1.475,0.593 0.478,0.124 0.936,0.172 1.352,0.191 0.834,0.042 1.515,-0.053 1.982,-0.142 0.467,-0.091 0.724,-0.181 0.724,-0.181"
         style="fill:#ba825b;fill-opacity:1;fill-rule:nonzero;stroke:none"
         id="path4885"
         inkscape:connector-curvature="0" /><path
         d="m 669.0829,517.613 c -0.544,-1.917 -2.143,-3.142 -3.571,-2.737 -1.428,0.406 -2.144,2.288 -1.6,4.205 0.544,1.917 2.143,3.142 3.571,2.737 1.428,-0.406 2.144,-2.288 1.6,-4.205"
         style="fill:#1d1d1b;fill-opacity:1;fill-rule:nonzero;stroke:none"
         id="path4889"
         inkscape:connector-curvature="0" /><path
         d="m 640.0571,526.7744 c -0.544,-1.917 -2.143,-3.142 -3.571,-2.737 -1.428,0.405 -2.144,2.288 -1.6,4.205 0.545,1.917 2.143,3.142 3.571,2.737 1.428,-0.406 2.144,-2.288 1.6,-4.205"
         style="fill:#1d1d1b;fill-opacity:1;fill-rule:nonzero;stroke:none"
         id="path4893"
         inkscape:connector-curvature="0" /><path
         d="m 666.4798,533.6476 c 0,0 0.165,0.03 0.46,0.057 0.29,0.015 0.728,0.084 1.229,0.013 0.251,-0.034 0.528,-0.063 0.815,-0.122 0.293,-0.044 0.589,-0.131 0.889,-0.243 0.297,-0.117 0.622,-0.204 0.923,-0.357 0.296,-0.163 0.596,-0.329 0.897,-0.495 0.294,-0.176 0.552,-0.411 0.824,-0.611 0.276,-0.198 0.515,-0.431 0.723,-0.683 0.219,-0.238 0.424,-0.473 0.597,-0.712 0.161,-0.251 0.302,-0.494 0.421,-0.722 0.274,-0.432 0.353,-0.881 0.438,-1.161 0.063,-0.29 0.098,-0.455 0.098,-0.455 0,0 -0.13,0.112 -0.357,0.308 -0.227,0.19 -0.477,0.494 -0.858,0.786 -0.185,0.149 -0.373,0.315 -0.561,0.496 -0.214,0.16 -0.443,0.32 -0.659,0.504 -0.213,0.188 -0.46,0.348 -0.706,0.518 -0.247,0.166 -0.476,0.367 -0.742,0.512 -0.258,0.16 -0.516,0.32 -0.77,0.477 -0.246,0.176 -0.52,0.289 -0.77,0.433 -0.256,0.128 -0.486,0.304 -0.735,0.398 -0.243,0.106 -0.468,0.232 -0.681,0.341 -0.422,0.227 -0.801,0.355 -1.06,0.499 -0.257,0.136 -0.415,0.219 -0.415,0.219"
         style="fill:#bc3500;fill-opacity:1;fill-rule:nonzero;stroke:none"
         id="path4897"
         inkscape:connector-curvature="0" /><path
         d="m 634.6188,542.0067 c 0,0 0.111,0.101 0.323,0.26 0.215,0.143 0.517,0.409 0.939,0.569 0.209,0.086 0.436,0.19 0.685,0.273 0.247,0.093 0.518,0.143 0.8,0.193 0.282,0.044 0.576,0.108 0.877,0.109 0.302,-10e-4 0.608,-10e-4 0.915,-0.002 0.302,-0.049 0.604,-0.099 0.902,-0.147 0.301,-0.032 0.579,-0.153 0.849,-0.249 0.268,-0.1 0.533,-0.178 0.757,-0.323 0.231,-0.128 0.442,-0.259 0.63,-0.388 0.389,-0.23 0.638,-0.552 0.824,-0.733 0.171,-0.203 0.269,-0.319 0.269,-0.319 0,0 -0.152,0.023 -0.418,0.061 -0.265,0.033 -0.597,0.149 -1.018,0.206 -0.21,0.029 -0.43,0.071 -0.655,0.126 -0.224,0.057 -0.478,0.059 -0.721,0.113 -0.248,0.038 -0.499,0.09 -0.76,0.111 -0.259,0.033 -0.521,0.065 -0.784,0.098 -0.264,0.015 -0.529,0.031 -0.789,0.046 -0.262,0.045 -0.518,0.028 -0.77,0.03 -0.248,-0.015 -0.501,0.045 -0.732,0.016 -0.231,-0.019 -0.457,-0.011 -0.667,-0.014 -0.426,0.016 -0.771,-0.049 -1.037,-0.039 -0.258,0.002 -0.419,0.003 -0.419,0.003"
         style="fill:#bc3500;fill-opacity:1;fill-rule:nonzero;stroke:none"
         id="path4901"
         inkscape:connector-curvature="0" /><path
         d="m 625.5536,509.2385 c 0,0 36.375,-5.875 43.125,-5.625 0,0 -8.268,-18.377 -25.625,-16.5 -17.357,1.877 -17.5,22.125 -17.5,22.125"
         style="fill:#720f0f;fill-opacity:1;fill-rule:nonzero;stroke:none"
         id="path4905"
         inkscape:connector-curvature="0" /><path
         d="m 651.8885,495.3065 c -4.614,-0.669 -9.008,-2.788 -12.403,-5.983 -0.38,-0.357 -0.748,-0.741 -1.087,-1.146 1.397,-0.507 2.939,-0.878 4.655,-1.064 8.534,-0.923 14.865,3.051 19.103,7.329 -3.301,1.052 -6.839,1.361 -10.268,0.864"
         style="fill:#d84a4a;fill-opacity:1;fill-rule:nonzero;stroke:none"
         id="path4909"
         inkscape:connector-curvature="0" /><path
         d="m 625.7092,517.0452 c -0.68,-2.63 -3.485,-4.179 -6.266,-3.46 -2.781,0.719 -4.484,3.434 -3.804,6.064 0.679,2.629 3.485,4.178 6.266,3.459 2.781,-0.719 4.484,-3.433 3.804,-6.063"
         style="fill:#ffac73;fill-opacity:1;fill-rule:nonzero;stroke:none"
         id="path4913"
         inkscape:connector-curvature="0" /><path
         d="m 682.6917,504.0939 c -0.68,-2.63 -3.485,-4.178 -6.266,-3.46 -2.781,0.719 -4.484,3.434 -3.804,6.064 0.679,2.629 3.485,4.178 6.266,3.459 2.781,-0.719 4.484,-3.433 3.804,-6.063"
         style="fill:#ffac73;fill-opacity:1;fill-rule:nonzero;stroke:none"
         id="path4917"
         inkscape:connector-curvature="0" /></g><g
       id="g7320"
       transform="matrix(4.9432083,0,0,4.9432083,-228.55601,-801.10785)"
       style="opacity:0.15"><path
         d="m 122.04621,242.87139 c 0,0 -13.327,-12.049 -13.788,-30.879 l 11.647,-3.943 c 0,0 1.441,23.457 9.286,30.306 z"
         style="fill:#aa1400;fill-opacity:1;fill-rule:nonzero;stroke:none"
         id="path5003"
         inkscape:connector-curvature="0" /><path
         d="m 135.11561,244.52019 c 0,0 12.671,-12.737 12.137,-31.564 l -11.847,-4.907 c 0,0 -0.192,25.085 -7.664,32.338 z"
         style="fill:#aa1400;fill-opacity:1;fill-rule:nonzero;stroke:none"
         id="path5007"
         inkscape:connector-curvature="0" /><path
         d="m 131.35361,275.54459 0.141,0.206 c 2.868,4.186 9.426,2.056 9.285,-3.017 l -0.007,-0.249 c -0.099,-3.576 3.424,-6.135 6.793,-4.936 l 0.235,0.084 c 4.781,1.701 8.834,-3.877 5.739,-7.899 l -0.152,-0.197 c -2.182,-2.835 -0.836,-6.976 2.594,-7.986 l 0.24,-0.071 c 4.868,-1.434 4.868,-8.329 0,-9.763 l -0.24,-0.07 c -3.43,-1.011 -4.776,-5.152 -2.594,-7.986 l 0.152,-0.198 c 3.095,-4.021 -0.958,-9.599 -5.739,-7.898 l -0.235,0.084 c -3.369,1.198 -6.892,-1.361 -6.793,-4.936 l 0.007,-0.249 c 0.141,-5.073 -6.417,-7.204 -9.285,-3.017 l -0.141,0.206 c -2.021,2.95 -6.375,2.95 -8.397,0 l -0.141,-0.206 c -2.868,-4.187 -9.425,-2.056 -9.285,3.017 l 0.007,0.249 c 0.099,3.575 -3.423,6.134 -6.793,4.936 l -0.235,-0.084 c -4.781,-1.701 -8.834,3.877 -5.739,7.898 l 0.153,0.198 c 2.181,2.834 0.835,6.975 -2.595,7.986 l -0.24,0.07 c -4.867,1.434 -4.867,8.329 0,9.763 l 0.24,0.071 c 3.43,1.01 4.776,5.151 2.595,7.986 l -0.153,0.197 c -3.095,4.022 0.958,9.6 5.739,7.899 l 0.235,-0.084 c 3.37,-1.199 6.892,1.36 6.793,4.936 l -0.007,0.249 c -0.14,5.073 6.417,7.203 9.285,3.017 l 0.141,-0.206 c 2.022,-2.95 6.376,-2.95 8.397,0"
         style="fill:#ff4c06;fill-opacity:1;fill-rule:nonzero;stroke:none"
         id="path5011"
         inkscape:connector-curvature="0" /><path
         d="m 149.66931,246.59839 c 0,-12.434 -10.08,-22.514 -22.514,-22.514 -12.434,0 -22.514,10.08 -22.514,22.514 0,12.434 10.08,22.514 22.514,22.514 12.434,0 22.514,-10.08 22.514,-22.514"
         style="fill:#aa1400;fill-opacity:1;fill-rule:nonzero;stroke:none"
         id="path5015"
         inkscape:connector-curvature="0" /></g><g
       aria-label="Diplome"
       transform="scale(1,-1)"
       style="font-variant:normal;font-weight:normal;font-stretch:normal;font-size:95.50869751px;font-family:Boogaloo;-inkscape-font-specification:Boogaloo-Regular;writing-mode:lr-tb;fill:#00c9ff;fill-opacity:1;fill-rule:nonzero;stroke:none"
       id="text4933"><path
         d="m 288.8048,-655.89013 q 11.17452,0 17.19157,8.7868 6.11255,8.7868 6.11255,21.29844 0,9.64637 -3.05628,18.24216 -3.05627,8.50027 -9.55087,14.3263 -6.49459,5.73052 -15.18588,5.73052 -1.71915,0 -12.98918,-1.33712 1.33712,-20.53437 1.33712,-34.0011 0,-13.46672 -0.85958,-29.79871 9.26435,-3.24729 17.00055,-3.24729 z m -2.10119,56.73216 q 4.3934,0 8.69129,-7.7362 4.3934,-7.83172 4.3934,-16.80953 0,-9.07333 -3.15179,-14.89936 -3.05627,-5.82603 -7.35417,-5.82603 -2.2922,0 -4.29789,0.76407 0.38204,14.13529 0.38204,23.78166 0,9.55087 -0.57305,19.96132 0.66856,0.76407 1.91017,0.76407 z"
         style="fill:#ff0000;fill-opacity:1;stroke:none;stroke-opacity:1"
         id="path7514" /><path
         d="m 320.60917,-634.49619 10.888,1.0506 v 45.84417 l -10.888,-1.05059 z m 0.76407,-16.80953 10.69698,1.24162 -0.95509,10.69697 -10.69697,-1.33712 z"
         style="fill:#ffc000;fill-opacity:1"
         id="path7516" /><path
         d="m 352.83142,-627.61956 q 3.82035,-5.82603 9.45536,-5.82603 5.63502,0 8.7868,4.58442 3.15179,4.58441 3.15179,12.03409 0,11.07901 -4.77544,20.15234 -4.67992,9.07332 -10.02841,9.07332 -3.82035,0 -6.5901,-0.95508 0.19102,13.1802 0.66856,23.01759 l -11.17452,-1.1461 q -0.47754,-17.19157 -0.47754,-36.48432 0,-19.38827 1.33712,-33.42805 l 9.93291,1.0506 z m 2.86526,30.46727 q 2.67425,0 4.96645,-5.25297 2.38772,-5.25298 2.38772,-10.50596 0,-5.34849 -0.95509,-8.21375 -0.95508,-2.96077 -2.1967,-2.96077 -2.10119,0 -3.72483,2.48323 -1.52814,2.48322 -3.2473,7.16315 -0.0955,4.96645 -0.0955,15.28139 1.43263,2.00568 2.86526,2.00568 z"
         style="fill:#00ff42;fill-opacity:1"
         id="path7518" /><path
         d="m 394.29712,-657.89582 q -1.43263,24.1637 -1.43263,43.55197 0,19.38826 0.47754,27.21998 l -11.27002,-1.0506 q -0.38204,-9.9329 -0.38204,-28.17506 0,-18.33767 1.43263,-42.40587 z"
         style="fill:#00fcff;fill-opacity:1"
         id="path7520" /><path
         d="m 411.42899,-606.1301 q 0,10.79248 4.77544,10.79248 2.10119,0 3.53382,-6.01705 1.43263,-6.11255 1.43263,-11.65206 0,-12.22511 -4.01137,-12.22511 -2.57873,0 -4.20238,6.5901 -1.52814,6.49459 -1.52814,12.51164 z m -11.17452,-0.85958 q 0,-8.88231 3.62933,-17.38258 1.91018,-4.2979 5.34849,-6.97214 3.53382,-2.76975 7.83171,-2.76975 4.2979,0 7.35417,2.00568 3.15179,1.91018 4.77544,5.15747 3.15179,6.39908 3.15179,13.94427 0,10.41045 -4.2979,18.52869 -4.20238,8.02273 -11.84307,8.02273 -15.94996,0 -15.94996,-20.53437 z"
         style="fill:#003cff;fill-opacity:1"
         id="path7522" /><path
         d="m 458.91472,-631.53542 q 5.82603,0 8.88231,4.01137 4.96645,-7.25866 9.83739,-7.25866 13.27571,0 13.27571,19.96132 0,11.27002 -1.91017,27.31548 l -11.07901,-0.95508 q 1.81466,-17.86013 1.81466,-27.21998 0,-9.35986 -3.05627,-9.35986 -1.33713,0 -3.15179,4.2979 -1.81467,4.29789 -2.38772,9.55087 -0.19102,11.93858 -0.76407,21.29844 l -11.17452,-1.0506 q 0.76407,-13.46673 0.76407,-22.15802 0,-8.69129 -2.38771,-8.69129 -1.52814,0 -4.01137,5.34849 -2.38772,5.25298 -3.43831,11.07901 0.0955,8.7868 0.85958,18.14665 l -11.17452,-1.0506 q -1.0506,-13.46672 -1.0506,-24.54573 0,-11.07901 0.57305,-20.72539 l 7.92723,0.57305 q 0.57305,2.57874 1.62364,9.35986 5.06197,-7.92723 10.02842,-7.92723 z"
         style="fill:#8400ff;fill-opacity:1"
         id="path7524" /><path
         d="m 512.35035,-595.81516 q 3.62933,0 7.7362,-6.97214 l 7.25866,4.29789 q -1.81466,3.15179 -3.53382,5.34849 -1.62365,2.1967 -4.96645,4.20238 -3.3428,2.00569 -7.44968,2.00569 -6.01705,0 -10.12392,-5.06197 -4.10687,-5.15747 -4.10687,-13.84876 0,-9.9329 3.53382,-18.52868 1.91017,-4.48891 5.44399,-7.25867 3.62933,-2.86526 7.35417,-2.86526 3.82035,0 6.11256,1.24162 2.29221,1.1461 3.62933,2.67424 1.43263,1.43263 2.48323,4.29789 1.05059,2.86526 1.43263,4.67993 0.47754,1.81466 0.76407,5.25298 0.38203,4.58441 0.38203,8.30925 -7.64069,2.10119 -19.7703,3.82035 0.28653,3.82035 1.33712,6.11256 1.0506,2.29221 2.48323,2.29221 z m 2.10119,-29.32117 q -2.10119,0 -3.82035,4.20238 -1.62365,4.20238 -1.91017,9.74189 5.06196,-1.0506 8.7868,-2.00569 0,-11.93858 -3.05628,-11.93858 z"
         style="fill:#ff00ba;fill-opacity:1"
         id="path7526" /></g><g
       id="g5602"
       transform="translate(0,4.0050062)"><path
         d="m 422.66654,517.5329 c 0,-12.518 -10.148,-22.667 -22.667,-22.667 -12.518,0 -22.666,10.149 -22.666,22.667 0,12.518 10.148,22.667 22.666,22.667 12.519,0 22.667,-10.149 22.667,-22.667"
         style="fill:#00dbff;fill-opacity:1;fill-rule:nonzero;stroke:none"
         id="path4957"
         inkscape:connector-curvature="0" /><g
         aria-label="En "
         transform="scale(1,-1)"
         style="font-variant:normal;font-weight:normal;font-stretch:normal;font-size:27.63920021px;font-family:Boogaloo;-inkscape-font-specification:Boogaloo-Regular;writing-mode:lr-tb;fill:#21428f;fill-opacity:1;fill-rule:nonzero;stroke:none"
         id="text4961"><path
           d="m 389.0806,-509.06236 q -0.11056,-4.36699 -0.11056,-8.26412 0,-3.89712 0.44223,-10.14358 4.7263,-0.71862 9.23149,-0.71862 v 3.39962 q -3.12323,0 -5.80423,0.19347 -0.11056,3.09559 -0.13819,4.75395 2.10057,-0.30404 4.97505,-0.35931 l 0.52515,3.04031 q -1.85183,0.0276 -5.55548,0.41459 0,3.3167 0.0276,4.78158 2.40461,-0.19348 5.74895,-0.82918 l 0.46987,3.04031 q -2.34934,1.07793 -5.55548,1.07793 z"
           style=""
           id="path7529" /><path
           d="m 406.41902,-522.32917 q 3.64837,0 3.64837,6.08062 0,3.20615 -0.35931,6.79925 l -3.23379,-0.30404 q 0.30404,-3.15086 0.30404,-6.35701 0,-3.23379 -0.9121,-3.23379 -0.44223,0 -1.13321,2.23878 -0.69098,2.21113 -0.85681,4.33935 0.0553,1.13321 0.22111,4.0906 l -3.23378,-0.30403 q -0.30403,-3.89713 -0.30403,-6.85452 0,-2.95739 0.16583,-5.30673 l 2.0453,0.22112 q 0.0553,0.22111 0.41459,1.79655 1.60307,-3.20615 3.23379,-3.20615 z"
           style=""
           id="path7531" /></g></g><g
       id="g4971"
       transform="matrix(1.6325697,0,0,1.6325697,-251.39527,-128.77992)"><g
         id="g4973"
         clip-path="url(#clipPath4977)"><path
           d="M 522.721,316.431 H 275.279 v 54.957 h 247.442 z"
           style="fill:#ffa300;fill-opacity:1;fill-rule:nonzero;stroke:none"
           id="path4979"
           inkscape:connector-curvature="0" /></g></g><g
       aria-label="Animation"
       transform="matrix(1.6325697,0,0,-1.6325697,-251.39527,-128.77992)"
       style="font-variant:normal;font-weight:normal;font-stretch:normal;font-size:36.13669968px;font-family:'Dancing Script OT';-inkscape-font-specification:DancingScriptOT;writing-mode:lr-tb;fill:#c94300;fill-opacity:1;fill-rule:nonzero;stroke:none"
       id="text4983"><path
         d="m 325.14624,-343.57391 c 1,0 2.36,0.04 4.32,0.2 -3.4,5.32 -6.08,10.32 -6.08,12.52 0,0.52 0.16,1.4 1.36,2.08 2,-4.72 4.44,-9.76 6.96,-14.4 1.64,0.2 3.56,0.44 5.92,0.8 -0.44,2.2 -0.68,4.24 -0.68,5.96 0,3.24 0.92,5.36 3.12,5.36 2.64,0 5.32,-3 6.92,-7.28 l -0.4,-0.4 c -2.08,4.04 -3.84,5.92 -5.24,5.92 -1.08,0 -1.48,-1.16 -1.48,-3.2 0,-7 4.64,-22.48 6.24,-23.76 -0.8,-0.8 -1.56,-1.28 -2.12,-1.28 -0.52,0 -1.12,0.36 -1.92,1.12 -2.48,2.32 -7.2,8.44 -11.28,14.56 -1.04,-0.16 -2,-0.28 -2.88,-0.28 -2.04,0 -3.6,0.56 -4.16,2.08 z m 17.56,-14.96 c -1.64,3.68 -3.64,9.48 -4.8,14.76 -1.52,-0.36 -3.36,-0.84 -5.16,-1.24 3.72,-6.64 7.48,-12 9.96,-13.52 z"
         style="font-size:40px"
         id="path7534"
         inkscape:connector-curvature="0" /><path
         d="m 344.26937,-332.53391 c 0.44,0.6 1.28,0.88 2.12,0.88 2.08,-3.52 5.76,-9.88 9.08,-9.88 0.92,0 1.6,0.48 1.6,1.96 0,1.88 -1.16,3.92 -1.16,5.56 0,1.48 0.92,2.56 2.8,2.56 3,0 5.24,-2.84 6.92,-6.76 l -0.44,-0.52 c -1.48,2.96 -3.6,6.24 -5.6,6.24 -0.68,0 -1.2,-0.4 -1.2,-1.52 0,-1.96 1.64,-3.84 1.64,-6.32 0,-1.8 -0.88,-3.6 -2.96,-3.6 -3.04,0 -6.2,3.8 -8.32,7.04 0.72,-2.2 1.28,-4.44 1.28,-5.28 0,-0.64 -0.36,-1.04 -1.08,-1.04 -0.76,0 -1.52,0.48 -1.84,0.84 -0.04,3.48 -2.84,9.36 -2.84,9.84 z"
         style="font-size:40px"
         id="path7536"
         inkscape:connector-curvature="0" /><path
         d="m 370.02124,-345.81391 c -2.72,0 -5.76,8.2 -5.76,11.24 0,1.88 1,3.36 3.08,3.36 3.12,0 6.32,-2.52 7.88,-7.12 l -0.36,-0.4 c -2.28,4.56 -4.36,6.12 -6.16,6.12 -1.32,0 -1.96,-0.48 -1.96,-2.4 0,-3.76 4.16,-8.6 4.16,-9.92 0,-0.56 -0.4,-0.88 -0.88,-0.88 z m 2.12,-3.72 c 1.28,0 2.6,-1.16 2.6,-2.16 0,-0.92 -0.52,-1.24 -1.32,-1.24 -1.28,0 -2.92,0.96 -2.92,2.08 0,0.92 0.76,1.32 1.64,1.32 z"
         style="font-size:40px"
         id="path7538"
         inkscape:connector-curvature="0" /><path
         d="m 384.50874,-331.37391 c 0.52,-1.08 1.08,-2.44 1.92,-3.72 2.48,-3.8 3.92,-5.96 5.24,-5.96 0.6,0 1.16,0.4 1.16,1.44 0,1.56 -1.2,3.72 -1.2,5.68 0,1.6 0.8,2.92 2.68,2.92 3.2,0 5.64,-3.8 6.92,-7.16 l -0.48,-0.56 c -1.24,2.72 -3.16,6.32 -5.36,6.32 -0.92,0 -1.2,-0.64 -1.2,-1.36 0,-1.68 1.48,-4.56 1.48,-6.68 0,-1.36 -0.6,-2.56 -2.28,-2.56 -2.72,0 -4.96,3.12 -6.64,6.16 0.44,-1.08 1.24,-3.6 1.24,-5.64 0,-1.64 -0.52,-3.04 -2.16,-3.04 -2.88,0 -6.28,4.2 -8.44,7.6 0.6,-2 1.04,-3.84 1.04,-4.56 0,-0.64 -0.36,-1.04 -1.08,-1.04 -0.76,0 -1.52,0.48 -1.84,0.84 -0.04,3.52 -2.76,10.08 -2.76,10.68 0,0.4 1.4,0.84 2.16,0.84 1.96,-5.4 6.76,-11.72 9.08,-11.72 0.72,0 1,0.6 1,1.52 0,2.8 -2.52,8.48 -2.52,9.2 0,0.56 1.4,0.8 2.04,0.8 z"
         style="font-size:40px"
         id="path7540"
         inkscape:connector-curvature="0" /><path
         d="m 411.20812,-340.73391 c -1.96,2.88 -5.92,8.72 -8.4,8.72 -0.72,0 -1.08,-0.48 -1.08,-1.56 0,-3.88 4.48,-11.32 8.24,-11.32 1.44,0 1.96,1.04 1.96,2.24 0,0.44 -0.08,0.96 -0.2,1.4 1.16,0 1.96,-0.4 1.96,-1.72 0,-1.8 -1.56,-3 -3.64,-3 -5.2,0 -11.08,7.52 -11.08,12.28 0,2.24 1.28,3.32 2.96,3.32 1.96,0 3.72,-1.56 6.04,-4.64 -0.08,0.44 -0.12,0.84 -0.12,1.16 0,1.4 0.92,2.8 2.88,2.8 2.84,0 6.24,-2.96 7.92,-7.28 l -0.4,-0.4 c -2.4,4.24 -4.96,6.32 -6.4,6.32 -0.96,0 -1.36,-0.96 -1.36,-1.76 0,-1.92 2.32,-4.64 2.32,-5.56 0,-0.6 -1.12,-0.92 -1.6,-1 z"
         style="font-size:40px"
         id="path7542"
         inkscape:connector-curvature="0" /><path
         d="m 429.66812,-345.01391 c -2,0.2 -3.96,0.24 -5.72,0.24 h -1.48 c 2.32,-4.92 5.32,-9.08 5.32,-10.48 0,-0.56 -0.44,-0.88 -0.84,-0.88 -1.64,0 -4.72,5.48 -6.96,11.24 -0.76,-0.04 -1.36,-0.12 -1.76,-0.16 v 0.72 c 0.44,0.16 0.92,0.24 1.44,0.32 -1.36,3.64 -2.32,7.28 -2.32,9.64 0,2.64 1.24,3.96 3.56,3.96 3.76,0 7.36,-3.4 9.28,-7.92 l -0.52,-0.4 c -2.04,4.2 -4.84,6.84 -7.6,6.84 -1.6,0 -2.24,-0.88 -2.24,-3.2 0,-2.84 0.96,-5.88 2.2,-8.72 h 0.6 c 1.8,0 4.12,-0.16 7.04,-0.48 z"
         style="font-size:40px"
         id="path7544"
         inkscape:connector-curvature="0" /><path
         d="m 434.47437,-345.81391 c -2.72,0 -5.76,8.2 -5.76,11.24 0,1.88 1,3.36 3.08,3.36 3.12,0 6.32,-2.52 7.88,-7.12 l -0.36,-0.4 c -2.28,4.56 -4.36,6.12 -6.16,6.12 -1.32,0 -1.96,-0.48 -1.96,-2.4 0,-3.76 4.16,-8.6 4.16,-9.92 0,-0.56 -0.4,-0.88 -0.88,-0.88 z m 2.12,-3.72 c 1.28,0 2.6,-1.16 2.6,-2.16 0,-0.92 -0.52,-1.24 -1.32,-1.24 -1.28,0 -2.92,0.96 -2.92,2.08 0,0.92 0.76,1.32 1.64,1.32 z"
         style="font-size:40px"
         id="path7546"
         inkscape:connector-curvature="0" /><path
         d="m 455.56187,-338.65391 c -1.04,2.2 -2.04,3.04 -3.16,3.04 -1.4,0 -2.8,-1.28 -2.8,-3.32 0,-2.12 1.56,-4.04 1.56,-5.04 0,-0.48 -0.36,-1.56 -1.36,-1.56 -0.12,0 -0.2,0 -0.28,0.04 -0.24,-0.48 -0.72,-0.84 -1.72,-0.84 -4.76,0 -9.68,7.64 -9.68,11.88 0,2.04 1.16,3.48 3.2,3.48 2.8,0 5.32,-2.72 7,-6.64 0.8,1.84 2.28,2.8 3.76,2.8 1.32,0 2.84,-0.76 4,-3.44 z m -13.36,5.96 c -0.96,0 -1.52,-0.8 -1.52,-2.04 0,-3.04 3.24,-10.04 7.76,-10.04 -0.44,0.68 -0.76,1.84 -0.76,3.64 0,0.92 0.08,1.64 0.24,2.28 -1.44,3.44 -3.92,6.16 -5.72,6.16 z"
         style="font-size:40px"
         id="path7548"
         inkscape:connector-curvature="0" /><path
         d="m 453.25374,-332.53391 c 0.44,0.6 1.28,0.88 2.12,0.88 2.08,-3.52 5.76,-9.88 9.08,-9.88 0.92,0 1.6,0.48 1.6,1.96 0,1.88 -1.16,3.92 -1.16,5.56 0,1.48 0.92,2.56 2.8,2.56 3,0 5.24,-2.84 6.92,-6.76 l -0.44,-0.52 c -1.48,2.96 -3.6,6.24 -5.6,6.24 -0.68,0 -1.2,-0.4 -1.2,-1.52 0,-1.96 1.64,-3.84 1.64,-6.32 0,-1.8 -0.88,-3.6 -2.96,-3.6 -3.04,0 -6.2,3.8 -8.32,7.04 0.72,-2.2 1.28,-4.44 1.28,-5.28 0,-0.64 -0.36,-1.04 -1.08,-1.04 -0.76,0 -1.52,0.48 -1.84,0.84 -0.04,3.48 -2.84,9.36 -2.84,9.84 z"
         style="font-size:40px"
         id="path7550"
         inkscape:connector-curvature="0" /></g><path
       inkscape:connector-curvature="0"
       id="path4995"
       style="fill:#ffa300;fill-opacity:1;fill-rule:nonzero;stroke:none;stroke-width:1.63256967"
       d="m 189.67853,419.78162 v -62.07683 h -81.03096 l 27.06311,31.03842 -31.38126,27.02719 z" /><path
       inkscape:connector-curvature="0"
       id="path4999"
       style="fill:#ffa300;fill-opacity:1;fill-rule:nonzero;stroke:none;stroke-width:1.63256967"
       d="m 610.32155,419.78162 v -62.07683 h 81.03096 l -27.06311,31.03842 31.38126,27.02719 z" /><g
       id="g5029"><g
         id="g5031"
         clip-path="url(#clipPath5035)"><g
           id="g5037"
           transform="translate(567.2641,220.3599)" /></g></g><g
       id="g7512"
       transform="matrix(0.74733235,0,0,0.74733235,-85.973446,51.706096)"><path
         inkscape:connector-curvature="0"
         id="path5039"
         style="fill:none;stroke:#21428f;stroke-width:3;stroke-linecap:round;stroke-linejoin:round;stroke-miterlimit:10;stroke-dasharray:0, 6;stroke-dashoffset:0;stroke-opacity:1"
         d="M 0,0 H 166.027"
         transform="translate(567.2641,220.3599)" /><g
         aria-label="Signature"
         transform="scale(1,-1)"
         style="font-variant:normal;font-weight:normal;font-stretch:normal;font-size:18px;font-family:Boogaloo;-inkscape-font-specification:Boogaloo-Regular;writing-mode:lr-tb;fill:#000000;fill-opacity:1;fill-rule:nonzero;stroke:none"
         id="text5043"><path
           d="m 625.4216,-205.55941 q 0.234,-0.882 0.234,-1.476 0,-0.594 -0.324,-0.972 -0.324,-0.396 -0.846,-0.396 -0.504,0 -0.846,0.504 -0.342,0.504 -0.342,1.152 0,1.26 1.44,2.16 1.44,0.936 1.962,1.35 0.522,0.414 0.738,0.756 0.54,0.882 0.54,1.818 0,1.62 -1.098,2.592 -1.08,0.954 -2.448,0.954 -1.62,0 -2.718,-1.368 -0.792,-0.99 -1.458,-2.466 l 1.746,-0.846 q 0.414,1.08 1.026,1.836 0.63,0.738 1.332,0.738 0.45,0 0.81,-0.288 0.36,-0.288 0.36,-0.864 0,-0.594 -0.45,-1.098 -0.45,-0.504 -1.206,-1.026 -0.756,-0.522 -1.17,-0.846 -0.414,-0.342 -0.918,-0.864 -0.954,-1.008 -0.954,-2.574 0,-1.584 1.098,-2.646 1.098,-1.08 2.61,-1.08 1.512,0 2.538,1.17 1.044,1.17 1.044,2.412 0,1.224 -0.468,2.106 z"
           style=""
           id="path7553" /><path
           d="m 629.77056,-206.27941 2.052,0.198 v 8.64 l -2.052,-0.198 z m 0.144,-3.168 2.016,0.234 -0.18,2.016 -2.016,-0.252 z"
           style=""
           id="path7555" /><path
           d="m 636.22131,-195.28141 q 0.558,0 0.9,-1.152 0.342,-1.134 0.342,-2.826 -0.954,1.71 -1.98,1.71 -1.008,0 -1.638,-0.684 -0.612,-0.702 -0.612,-2.106 0,-1.422 0.486,-2.808 0.486,-1.404 1.188,-2.232 0.72,-0.846 1.368,-0.846 1.134,0 2.088,0.918 l 1.26,0.18 q -0.234,1.17 -0.234,3.6 0,2.412 -0.144,3.564 -0.126,1.134 -0.432,2.232 -0.306,1.098 -0.9,1.746 -0.594,0.648 -1.566,0.648 -0.972,0 -1.854,-0.792 -0.882,-0.774 -1.422,-1.872 l 1.512,-0.648 q 0.702,1.368 1.638,1.368 z m 0.504,-9.108 q -0.45,0 -0.918,1.296 -0.45,1.296 -0.45,2.754 0,0.558 0.144,0.846 0.162,0.288 0.342,0.288 0.198,0 0.504,-0.36 0.306,-0.36 0.648,-1.152 0.36,-0.792 0.522,-1.746 l 0.036,-1.368 q -0.522,-0.558 -0.828,-0.558 z"
           style=""
           id="path7557" /><path
           d="m 644.65066,-206.26141 q 2.376,0 2.376,3.96 0,2.088 -0.234,4.428 l -2.106,-0.198 q 0.198,-2.052 0.198,-4.14 0,-2.106 -0.594,-2.106 -0.288,0 -0.738,1.458 -0.45,1.44 -0.558,2.826 0.036,0.738 0.144,2.664 l -2.106,-0.198 q -0.198,-2.538 -0.198,-4.464 0,-1.926 0.108,-3.456 l 1.332,0.144 q 0.036,0.144 0.27,1.17 1.044,-2.088 2.106,-2.088 z"
           style=""
           id="path7559" /><path
           d="m 648.48156,-203.00341 q 0.27,-1.404 1.026,-2.376 0.756,-0.99 1.98,-0.99 1.224,0 1.8,1.026 0.594,1.008 0.594,2.88 0,1.872 -0.216,5.166 l -1.512,-0.126 -0.144,-0.576 q -0.846,0.486 -1.728,0.486 -0.882,0 -1.458,-0.576 -0.576,-0.594 -0.576,-1.692 0,-1.098 1.08,-1.89 1.098,-0.792 2.52,-0.828 v -0.486 q 0,-1.422 -0.684,-1.422 -0.342,0 -0.63,0.486 -0.27,0.468 -0.396,1.08 z m 1.602,3.33 q 0,0.576 0.684,0.576 0.468,0 0.99,-0.216 l 0.036,-1.512 q -0.846,0.072 -1.278,0.432 -0.432,0.342 -0.432,0.72 z"
           style=""
           id="path7561" /><path
           d="m 659.81481,-205.21741 v 1.71 q -0.864,0 -1.332,0.018 -0.054,1.8 -0.054,6.048 l -2.124,-0.198 q 0,-3.15 0.054,-5.706 -0.27,0 -1.026,0.09 l -0.27,-1.476 q 0.432,-0.09 1.35,-0.234 0.036,-1.332 0.144,-3.888 l 2.142,0.198 q -0.108,1.782 -0.162,3.456 0.45,-0.018 1.278,-0.018 z"
           style=""
           id="path7563" /><path
           d="m 666.69194,-206.13541 -0.036,2.844 q 0,4.014 0.144,5.904 l -1.782,-0.18 q -0.054,-0.756 -0.234,-1.53 -0.99,1.458 -1.998,1.458 -0.99,0 -1.584,-0.684 -0.594,-0.684 -0.594,-1.89 0,-2.34 0.342,-5.58 l 2.088,0.198 q -0.324,3.078 -0.324,5.112 0,0.918 0.576,0.918 0.27,0 0.648,-0.738 0.396,-0.738 0.63,-1.782 -0.018,-0.396 -0.018,-0.936 0,-0.54 0.054,-3.294 z"
           style=""
           id="path7565" /><path
           d="m 671.74853,-204.19141 q -0.756,0 -1.134,1.908 0.036,1.26 0.036,2.412 0,1.152 -0.072,2.592 l -2.088,-0.18 q 0.054,-2.646 0.054,-2.916 0,-3.33 -0.324,-5.094 l 1.35,0.144 q 0.126,0.522 0.288,0.918 0.882,-1.89 1.782,-1.89 0.738,0 1.296,0.648 l -0.468,1.656 q -0.288,-0.198 -0.72,-0.198 z"
           style=""
           id="path7567" /><path
           d="m 676.1726,-198.98941 q 0.684,0 1.458,-1.314 l 1.368,0.81 q -0.342,0.594 -0.666,1.008 -0.306,0.414 -0.936,0.792 -0.63,0.378 -1.404,0.378 -1.134,0 -1.908,-0.954 -0.774,-0.972 -0.774,-2.61 0,-1.872 0.666,-3.492 0.36,-0.846 1.026,-1.368 0.684,-0.54 1.386,-0.54 0.72,0 1.152,0.234 0.432,0.216 0.684,0.504 0.27,0.27 0.468,0.81 0.198,0.54 0.27,0.882 0.09,0.342 0.144,0.99 0.072,0.864 0.072,1.566 -1.44,0.396 -3.726,0.72 0.054,0.72 0.252,1.152 0.198,0.432 0.468,0.432 z m 0.396,-5.526 q -0.396,0 -0.72,0.792 -0.306,0.792 -0.36,1.836 0.954,-0.198 1.656,-0.378 0,-2.25 -0.576,-2.25 z"
           style=""
           id="path7569" /></g><g
         id="g5045"><g
           clip-path="url(#clipPath5051)"
           id="g5047"><g
             transform="translate(611.4064,226.2934)"
             id="g5053"><path
               inkscape:connector-curvature="0"
               id="path5055"
               style="fill:#000000;fill-opacity:1;fill-rule:nonzero;stroke:none"
               d="m 0,0 c -2.351,-5.318 -9.888,-9.855 -13.559,-3.072 -2.757,5.091 1.466,10.5 5.182,13.631 3.822,3.219 9.3,4.146 12.332,1.261 C 2.818,7.811 1.665,3.767 0,0 M 101.102,21.531 C 90.892,21.152 80.695,20.151 70.49,19.619 59.941,19.069 49.383,18.737 38.821,18.624 28.273,18.511 17.734,18.661 7.2,18.989 c 2.534,8.493 5.068,16.986 7.614,25.475 0.94,2.079 1.616,4.291 1.972,6.596 0.086,0.558 -0.693,0.803 -0.864,0.238 -0.681,-2.246 -1.371,-4.49 -2.053,-6.736 C 9.96,36.124 1.559,29.954 -7.917,29.307 c -0.449,-0.03 -0.454,-0.73 0,-0.703 C 0.467,29.109 8.091,33.79 12.658,40.59 10.47,33.402 8.281,26.213 6.086,19.028 c -10.197,0.329 -20.39,0.819 -30.582,1.4 -0.488,0.028 -0.474,-0.705 0,-0.75 C -14.462,18.731 -4.393,18.104 5.686,17.717 5.57,17.339 5.456,16.96 5.34,16.581 5.021,15.538 4.715,14.481 4.413,13.421 2.017,15.16 -1.536,15.253 -4.303,14.347 -11.887,11.865 -20.308,0.4 -12.567,-6.355 c 3.136,-2.736 7.576,-1.271 10.389,1.093 4.324,3.633 5.371,10.83 6.886,15.914 0.021,0.071 0.042,0.142 0.064,0.213 C 5.481,9.834 5.975,8.502 6.135,6.8 6.418,3.773 6.172,-1.309 9.728,-2.697 c 2.304,-0.898 5.402,0.09 5.441,2.881 0.007,0.53 -0.858,0.672 -0.944,0.128 -0.292,-1.829 -2.097,-2.257 -3.647,-1.927 -1.77,0.377 -2.443,2.642 -2.789,4.133 -0.638,2.744 -0.188,5.512 -1.255,8.186 -0.304,0.76 -0.726,1.4 -1.231,1.939 0.499,1.676 1.003,3.351 1.503,5.027 10.669,-0.39 21.35,-0.505 32.015,-0.419 10.562,0.085 21.121,0.417 31.669,0.954 10.225,0.521 20.58,1.057 30.713,2.574 0.431,0.064 0.324,0.767 -0.101,0.752" /></g><g
             transform="translate(681.1909,231.0576)"
             id="g5057"><path
               inkscape:connector-curvature="0"
               id="path5059"
               style="fill:#000000;fill-opacity:1;fill-rule:nonzero;stroke:none"
               d="m 0,0 c -8.301,-5.991 -19.917,-4.414 -24.794,5.075 -0.214,0.416 -0.779,0.34 -1.01,0 -2.67,-3.933 -6.077,-7.022 -10.123,-9.437 0.092,2.069 0.193,4.138 0.314,6.206 0.022,0.372 -0.416,0.575 -0.714,0.41 -1.04,-0.577 -2.081,-1.154 -3.121,-1.731 -0.521,-0.289 -1.041,-0.578 -1.561,-0.866 -0.475,-0.225 -0.95,-0.451 -1.425,-0.676 -1.579,0.061 -2.407,0.308 -2.486,0.739 0.407,0.396 0.77,0.785 1.055,1.129 0.31,0.372 0.131,0.988 -0.408,0.987 -1.001,-0.003 -1.604,-0.753 -1.741,-1.617 -1.953,-1.906 -4.693,-3.587 -6.545,-0.578 -0.543,0.882 -0.65,1.801 -0.491,2.709 l 3.46,5.588 c 0.262,0.423 -0.348,0.897 -0.689,0.532 -1.679,-1.796 -3.37,-3.898 -3.714,-6.194 -1.133,-1.897 -2.266,-3.794 -3.399,-5.691 -0.218,-0.365 0.345,-0.69 0.567,-0.332 0.936,1.512 1.872,3.024 2.808,4.536 0.091,-0.735 0.331,-1.485 0.778,-2.249 1.833,-3.13 5.079,-1.585 7.402,0.351 0.101,-0.214 0.226,-0.418 0.402,-0.593 2.135,-2.136 6.475,1.096 8.813,2.646 -0.127,-2.092 -0.262,-4.182 -0.42,-6.273 -0.032,-0.426 0.47,-0.631 0.802,-0.459 4.357,2.258 8.002,5.529 10.87,9.479 5.251,-9.1 17.938,-12.033 25.853,-4.317 C 0.8,-0.316 0.373,0.269 0,0" /></g></g></g></g><a
       id="a4808"><g
         aria-label="Animation"
         transform="matrix(1.6325697,0,0,-1.6325697,-251.39527,-128.77992)"
         style="font-variant:normal;font-weight:normal;font-stretch:normal;font-size:36.13669968px;font-family:'Dancing Script OT';-inkscape-font-specification:DancingScriptOT;writing-mode:lr-tb;fill:#c94300;fill-opacity:1;fill-rule:nonzero;stroke:none"
         id="g4806"><path
           d="m 325.14624,-343.57391 c 1,0 2.36,0.04 4.32,0.2 -3.4,5.32 -6.08,10.32 -6.08,12.52 0,0.52 0.16,1.4 1.36,2.08 2,-4.72 4.44,-9.76 6.96,-14.4 1.64,0.2 3.56,0.44 5.92,0.8 -0.44,2.2 -0.68,4.24 -0.68,5.96 0,3.24 0.92,5.36 3.12,5.36 2.64,0 5.32,-3 6.92,-7.28 l -0.4,-0.4 c -2.08,4.04 -3.84,5.92 -5.24,5.92 -1.08,0 -1.48,-1.16 -1.48,-3.2 0,-7 4.64,-22.48 6.24,-23.76 -0.8,-0.8 -1.56,-1.28 -2.12,-1.28 -0.52,0 -1.12,0.36 -1.92,1.12 -2.48,2.32 -7.2,8.44 -11.28,14.56 -1.04,-0.16 -2,-0.28 -2.88,-0.28 -2.04,0 -3.6,0.56 -4.16,2.08 z m 17.56,-14.96 c -1.64,3.68 -3.64,9.48 -4.8,14.76 -1.52,-0.36 -3.36,-0.84 -5.16,-1.24 3.72,-6.64 7.48,-12 9.96,-13.52 z"
           style="font-size:40px"
           id="path4787"
           inkscape:connector-curvature="0" /><path
           d="m 344.26937,-332.53391 c 0.44,0.6 1.28,0.88 2.12,0.88 2.08,-3.52 5.76,-9.88 9.08,-9.88 0.92,0 1.6,0.48 1.6,1.96 0,1.88 -1.16,3.92 -1.16,5.56 0,1.48 0.92,2.56 2.8,2.56 3,0 5.24,-2.84 6.92,-6.76 l -0.44,-0.52 c -1.48,2.96 -3.6,6.24 -5.6,6.24 -0.68,0 -1.2,-0.4 -1.2,-1.52 0,-1.96 1.64,-3.84 1.64,-6.32 0,-1.8 -0.88,-3.6 -2.96,-3.6 -3.04,0 -6.2,3.8 -8.32,7.04 0.72,-2.2 1.28,-4.44 1.28,-5.28 0,-0.64 -0.36,-1.04 -1.08,-1.04 -0.76,0 -1.52,0.48 -1.84,0.84 -0.04,3.48 -2.84,9.36 -2.84,9.84 z"
           style="font-size:40px"
           id="path4790"
           inkscape:connector-curvature="0" /><path
           d="m 370.02124,-345.81391 c -2.72,0 -5.76,8.2 -5.76,11.24 0,1.88 1,3.36 3.08,3.36 3.12,0 6.32,-2.52 7.88,-7.12 l -0.36,-0.4 c -2.28,4.56 -4.36,6.12 -6.16,6.12 -1.32,0 -1.96,-0.48 -1.96,-2.4 0,-3.76 4.16,-8.6 4.16,-9.92 0,-0.56 -0.4,-0.88 -0.88,-0.88 z m 2.12,-3.72 c 1.28,0 2.6,-1.16 2.6,-2.16 0,-0.92 -0.52,-1.24 -1.32,-1.24 -1.28,0 -2.92,0.96 -2.92,2.08 0,0.92 0.76,1.32 1.64,1.32 z"
           style="font-size:40px"
           id="path4792"
           inkscape:connector-curvature="0" /><path
           d="m 384.50874,-331.37391 c 0.52,-1.08 1.08,-2.44 1.92,-3.72 2.48,-3.8 3.92,-5.96 5.24,-5.96 0.6,0 1.16,0.4 1.16,1.44 0,1.56 -1.2,3.72 -1.2,5.68 0,1.6 0.8,2.92 2.68,2.92 3.2,0 5.64,-3.8 6.92,-7.16 l -0.48,-0.56 c -1.24,2.72 -3.16,6.32 -5.36,6.32 -0.92,0 -1.2,-0.64 -1.2,-1.36 0,-1.68 1.48,-4.56 1.48,-6.68 0,-1.36 -0.6,-2.56 -2.28,-2.56 -2.72,0 -4.96,3.12 -6.64,6.16 0.44,-1.08 1.24,-3.6 1.24,-5.64 0,-1.64 -0.52,-3.04 -2.16,-3.04 -2.88,0 -6.28,4.2 -8.44,7.6 0.6,-2 1.04,-3.84 1.04,-4.56 0,-0.64 -0.36,-1.04 -1.08,-1.04 -0.76,0 -1.52,0.48 -1.84,0.84 -0.04,3.52 -2.76,10.08 -2.76,10.68 0,0.4 1.4,0.84 2.16,0.84 1.96,-5.4 6.76,-11.72 9.08,-11.72 0.72,0 1,0.6 1,1.52 0,2.8 -2.52,8.48 -2.52,9.2 0,0.56 1.4,0.8 2.04,0.8 z"
           style="font-size:40px"
           id="path4794"
           inkscape:connector-curvature="0" /><path
           d="m 411.20812,-340.73391 c -1.96,2.88 -5.92,8.72 -8.4,8.72 -0.72,0 -1.08,-0.48 -1.08,-1.56 0,-3.88 4.48,-11.32 8.24,-11.32 1.44,0 1.96,1.04 1.96,2.24 0,0.44 -0.08,0.96 -0.2,1.4 1.16,0 1.96,-0.4 1.96,-1.72 0,-1.8 -1.56,-3 -3.64,-3 -5.2,0 -11.08,7.52 -11.08,12.28 0,2.24 1.28,3.32 2.96,3.32 1.96,0 3.72,-1.56 6.04,-4.64 -0.08,0.44 -0.12,0.84 -0.12,1.16 0,1.4 0.92,2.8 2.88,2.8 2.84,0 6.24,-2.96 7.92,-7.28 l -0.4,-0.4 c -2.4,4.24 -4.96,6.32 -6.4,6.32 -0.96,0 -1.36,-0.96 -1.36,-1.76 0,-1.92 2.32,-4.64 2.32,-5.56 0,-0.6 -1.12,-0.92 -1.6,-1 z"
           style="font-size:40px"
           id="path4796"
           inkscape:connector-curvature="0" /><path
           d="m 429.66812,-345.01391 c -2,0.2 -3.96,0.24 -5.72,0.24 h -1.48 c 2.32,-4.92 5.32,-9.08 5.32,-10.48 0,-0.56 -0.44,-0.88 -0.84,-0.88 -1.64,0 -4.72,5.48 -6.96,11.24 -0.76,-0.04 -1.36,-0.12 -1.76,-0.16 v 0.72 c 0.44,0.16 0.92,0.24 1.44,0.32 -1.36,3.64 -2.32,7.28 -2.32,9.64 0,2.64 1.24,3.96 3.56,3.96 3.76,0 7.36,-3.4 9.28,-7.92 l -0.52,-0.4 c -2.04,4.2 -4.84,6.84 -7.6,6.84 -1.6,0 -2.24,-0.88 -2.24,-3.2 0,-2.84 0.96,-5.88 2.2,-8.72 h 0.6 c 1.8,0 4.12,-0.16 7.04,-0.48 z"
           style="font-size:40px"
           id="path4798"
           inkscape:connector-curvature="0" /><path
           d="m 434.47437,-345.81391 c -2.72,0 -5.76,8.2 -5.76,11.24 0,1.88 1,3.36 3.08,3.36 3.12,0 6.32,-2.52 7.88,-7.12 l -0.36,-0.4 c -2.28,4.56 -4.36,6.12 -6.16,6.12 -1.32,0 -1.96,-0.48 -1.96,-2.4 0,-3.76 4.16,-8.6 4.16,-9.92 0,-0.56 -0.4,-0.88 -0.88,-0.88 z m 2.12,-3.72 c 1.28,0 2.6,-1.16 2.6,-2.16 0,-0.92 -0.52,-1.24 -1.32,-1.24 -1.28,0 -2.92,0.96 -2.92,2.08 0,0.92 0.76,1.32 1.64,1.32 z"
           style="font-size:40px"
           id="path4800"
           inkscape:connector-curvature="0" /><path
           d="m 455.56187,-338.65391 c -1.04,2.2 -2.04,3.04 -3.16,3.04 -1.4,0 -2.8,-1.28 -2.8,-3.32 0,-2.12 1.56,-4.04 1.56,-5.04 0,-0.48 -0.36,-1.56 -1.36,-1.56 -0.12,0 -0.2,0 -0.28,0.04 -0.24,-0.48 -0.72,-0.84 -1.72,-0.84 -4.76,0 -9.68,7.64 -9.68,11.88 0,2.04 1.16,3.48 3.2,3.48 2.8,0 5.32,-2.72 7,-6.64 0.8,1.84 2.28,2.8 3.76,2.8 1.32,0 2.84,-0.76 4,-3.44 z m -13.36,5.96 c -0.96,0 -1.52,-0.8 -1.52,-2.04 0,-3.04 3.24,-10.04 7.76,-10.04 -0.44,0.68 -0.76,1.84 -0.76,3.64 0,0.92 0.08,1.64 0.24,2.28 -1.44,3.44 -3.92,6.16 -5.72,6.16 z"
           style="font-size:40px"
           id="path4802"
           inkscape:connector-curvature="0" /><path
           d="m 453.25374,-332.53391 c 0.44,0.6 1.28,0.88 2.12,0.88 2.08,-3.52 5.76,-9.88 9.08,-9.88 0.92,0 1.6,0.48 1.6,1.96 0,1.88 -1.16,3.92 -1.16,5.56 0,1.48 0.92,2.56 2.8,2.56 3,0 5.24,-2.84 6.92,-6.76 l -0.44,-0.52 c -1.48,2.96 -3.6,6.24 -5.6,6.24 -0.68,0 -1.2,-0.4 -1.2,-1.52 0,-1.96 1.64,-3.84 1.64,-6.32 0,-1.8 -0.88,-3.6 -2.96,-3.6 -3.04,0 -6.2,3.8 -8.32,7.04 0.72,-2.2 1.28,-4.44 1.28,-5.28 0,-0.64 -0.36,-1.04 -1.08,-1.04 -0.76,0 -1.52,0.48 -1.84,0.84 -0.04,3.48 -2.84,9.36 -2.84,9.84 z"
           style="font-size:40px"
           id="path4804"
           inkscape:connector-curvature="0" /></g></a></g></svg>