<?xml version="1.0" encoding="UTF-8"?>
<svg width="297mm" height="210mm" version="1.1" viewBox="0 0 1052.3622 744.09448" xmlns="http://www.w3.org/2000/svg">
    <defs>
        <radialGradient id="d" cx="527.96" cy="1005.5" r="526.18"
                        gradientTransform="matrix(2.0035 0 0 .68592 -529.79 -16.945)" gradientUnits="userSpaceOnUse">
            <stop stop-color="#f57f17" offset="0"/>
            <stop stop-color="#b3e5fc" offset="1"/>
        </radialGradient>
        <filter id="a" x="-.033472" y="-.11257" width="1.0669" height="1.2251" color-interpolation-filters="sRGB">
            <feGaussianBlur stdDeviation="4.6564759"/>
        </filter>
        <radialGradient id="e" cx="526.18" cy="719.55" r="526.18" gradientTransform="matrix(1 0 0 1.5636 0 -447.56)"
                        gradientUnits="userSpaceOnUse">
            <stop stop-color="#bc9824" offset="0"/>
            <stop stop-color="#0288d1" stop-opacity=".90588" offset="1"/>
        </radialGradient>
    </defs>
    <g transform="translate(0 -308.27)">
        <path transform="matrix(.43774 0 0 .39711 378.21 318.75)"
              d="m887.85 286.99a99.279 99.279 0 0 0 -51.982 13.273 99.279 99.279 0 0 0 -23.629 19.031 70.201 70.201 0 0 0 -56.031 6.1504 70.201 70.201 0 0 0 -35.102 60.797h333.88a70.201 70.201 0 0 0 -35.1 -60.797 70.201 70.201 0 0 0 -59.979 -4.8047 99.279 99.279 0 0 0 -24.762 -20.377 99.279 99.279 0 0 0 -47.297 -13.273z"
              fill="#ffcc80" filter="url(#a)"/>
        <rect y="308.27" width="1052.4" height="369.24" fill="url(#d)"/>
        <path transform="matrix(.44358 0 0 .43883 403.84 276.59)"
              d="m887.85 286.99a99.279 99.279 0 0 0 -51.982 13.273 99.279 99.279 0 0 0 -23.629 19.031 70.201 70.201 0 0 0 -56.031 6.1504 70.201 70.201 0 0 0 -35.102 60.797h333.88a70.201 70.201 0 0 0 -35.1 -60.797 70.201 70.201 0 0 0 -59.979 -4.8047 99.279 99.279 0 0 0 -24.762 -20.377 99.279 99.279 0 0 0 -47.297 -13.273z"
              fill="#ffcc80" filter="url(#a)"/>
        <path d="m799.44 403.39a44.038 42.706 0 0 0 -23.058 5.7098 44.038 42.706 0 0 0 -10.481 8.1866 31.139 30.198 0 0 0 -24.854 2.6457 31.139 30.198 0 0 0 -15.57 26.153h148.1a31.139 30.198 0 0 0 -15.569 -26.153 31.139 30.198 0 0 0 -26.605 -2.0668 44.038 42.706 0 0 0 -10.984 -8.7654 44.038 42.706 0 0 0 -20.98 -5.7098z"
              fill="#fafafa"/>
        <circle cx="525.33" cy="662.59" r="44.52" fill="#fbc02d" stroke="#f57f17" stroke-linecap="round"
                stroke-linejoin="round" stroke-width="5"/>
        <rect y="677.51" width="1052.4" height="233.28" fill="url(#e)"/>
        <path d="m0 892.09 109.52-10.685 163.83 11.575 230.61-9.7943 211.02 7.1231 247.53-9.7943 89.848 12.466v159.38h-1052.4z"
              fill="#ffe0b2" fill-rule="evenodd"/>
        <g transform="matrix(.71739 0 0 .71739 325.87 216.16)">
            <circle cx="744.77" cy="442.42" r="12.468" fill="#efebe9" stroke="#d7ccc8" stroke-linecap="round"
                    stroke-linejoin="round" stroke-width="6.9697"/>
            <circle cx="771.48" cy="443.31" r="12.468" fill="#efebe9" stroke="#d7ccc8" stroke-linecap="round"
                    stroke-linejoin="round" stroke-width="6.9697"/>
            <path d="m757.34 416.77-31.73 54.584-29.263 66.37-15.593 106.54-34.77-83.542 31.671-89.779z" fill="#64dd17"
                  fill-rule="evenodd"/>
            <path d="m748.82 416.62-115.75 3.5616-77.464 49.862-36.506 37.396 23.15-70.341 64.999-56.095 81.026 5.3424z"
                  fill="#689f38" fill-rule="evenodd"/>
            <path d="m680.82 1052.4s32.411-52.732 44-79.468 19.678-52.926 26-79.468 10.671-52.945 14-79.468 6-52.903 6-79.468-3.3342-52.97-6-79.468-5.6683-52.96-8-79.468-5.0001-52.976-6-79.468-2-79.468-2-79.468h21.369s5.4522 52.976 8.678 79.468 8.1217 52.96 12.678 79.468 9.7868 52.97 14.678 79.468 8.4582 52.903 10.678 79.468 3.7839 52.945 2.6779 79.468-3.2224 52.926-7.322 79.468-9.952 52.729-19.322 79.468-37.322 79.468-37.322 79.468z"
                  fill="#8d6e63" fill-rule="evenodd"/>
            <path d="m748.82 416.62-82.807 63.218-64.108 146.91 23.15-168.28 66.779-54.314z" fill="#9ccc65"
                  fill-rule="evenodd"/>
            <path d="m770.19 416.62 115.75 3.5616 77.464 49.862 36.506 37.396-23.15-70.341-64.999-56.095-81.026 5.3424z"
                  fill="#689f38" fill-rule="evenodd"/>
            <path d="m770.19 416.62 82.807 63.218 64.108 146.91-23.15-168.28-66.779-54.314z" fill="#9ccc65"
                  fill-rule="evenodd"/>
            <path d="m756.82 416.62 33.318 53.63 31.197 65.483 18.711 106.04 32.305-84.526-34.29-88.812z" fill="#64dd17"
                  fill-rule="evenodd"/>
            <path d="m752.84 545.74 32.317-7.2499" fill="#d7ccc8" fill-rule="evenodd" stroke="#d7ccc8"
                  stroke-width="6.9697"/>
            <path d="m801 627.16-39.349-2.7398" fill="none" stroke="#efebe9" stroke-width="6.9697"/>
            <path d="m750.82 496.09h28.047" fill="none" stroke="#efebe9" stroke-width="6.9697"/>
            <path d="m770.14 712.44 43.181-11.948" fill="#efebe9" fill-rule="evenodd" stroke="#efebe9"
                  stroke-width="6.9697"/>
            <path d="m768.44 781.44 51.3 0.22877" fill="none" stroke="#efebe9" stroke-width="6.9697"/>
            <path d="m760.01 847.36 56.33 13.729" fill="#efebe9" fill-rule="evenodd" stroke="#efebe9"
                  stroke-width="6.9697"/>
            <path d="m741.24 928.52 59.571 19.181" fill="#efebe9" fill-rule="evenodd" stroke="#efebe9"
                  stroke-width="6.9697"/>
            <path d="m708.55 1004.9 58.422 25.404" fill="#efebe9" fill-rule="evenodd" stroke="#efebe9"
                  stroke-width="6.9697"/>
            <circle cx="748.55" cy="427.74" r="12.468" fill="#efebe9" stroke="#d7ccc8" stroke-linecap="round"
                    stroke-linejoin="round" stroke-width="6.9697"/>
            <circle cx="770.59" cy="415.71" r="12.468" fill="#efebe9" stroke="#d7ccc8" stroke-linecap="round"
                    stroke-linejoin="round" stroke-width="6.9697"/>
            <path d="m768.84 428.79 35.34-61.027 68.805-27.423-73.447 19.824-44.458 62.84z" fill="#9ccc65"
                  fill-rule="evenodd"/>
            <path d="m768.63 431.55-9.1047-49.293 20.829-52.352-29.307 49.631 3.3856 56.621z" fill="#689f38"
                  fill-rule="evenodd"/>
            <path d="m718.82 1052.4s28.411-52.732 40-79.468 21.678-52.926 28-79.468 8.6708-52.945 12-79.468 0-52.903 0-79.468-5.3342-52.97-8-79.468-9.6683-52.96-12-79.468-9.0001-52.976-10-79.468-6-79.468-6-79.468h7.3694s5.4522 52.976 8.678 79.468 8.1217 52.96 12.678 79.468 9.7868 52.97 14.678 79.468 8.4582 52.903 10.678 79.468 3.7839 52.945 2.6779 79.468-3.2224 52.926-7.322 79.468-9.952 52.729-19.322 79.468-37.322 79.468-37.322 79.468z"
                  fill="#5d4037" fill-rule="evenodd" opacity=".339"/>
            <path d="m753.27 438.59-35.34-61.027-68.805-27.423 73.447 19.824 44.458 62.84z" fill="#9ccc65"
                  fill-rule="evenodd"/>
            <circle cx="761.68" cy="434.41" r="12.468" fill="#efebe9" stroke="#d7ccc8" stroke-linecap="round"
                    stroke-linejoin="round" stroke-width="6.9697"/>
        </g>
        <path d="m272.6 844.4s24.572-8.3129 38.287-8.0135 28.207 10.727 41.848 10.685c13.641-0.0421 24.905-9.4272 37.396-9.7943 12.491-0.36707 35.616 7.1231 35.616 7.1231"
              fill="none" stroke="#e1f5fe" stroke-width="3"/>
        <g transform="matrix(-.71739 0 0 .71739 724.45 201.24)">
            <circle cx="744.77" cy="442.42" r="12.468" fill="#efebe9" stroke="#d7ccc8" stroke-linecap="round"
                    stroke-linejoin="round" stroke-width="6.9697"/>
            <circle cx="771.48" cy="443.31" r="12.468" fill="#efebe9" stroke="#d7ccc8" stroke-linecap="round"
                    stroke-linejoin="round" stroke-width="6.9697"/>
            <path d="m757.34 416.77-31.73 54.584-29.263 66.37-15.593 106.54-34.77-83.542 31.671-89.779z" fill="#64dd17"
                  fill-rule="evenodd"/>
            <path d="m748.82 416.62-115.75 3.5616-77.464 49.862-36.506 37.396 23.15-70.341 64.999-56.095 81.026 5.3424z"
                  fill="#689f38" fill-rule="evenodd"/>
            <path d="m680.82 1052.4s32.411-52.732 44-79.468 19.678-52.926 26-79.468 10.671-52.945 14-79.468 6-52.903 6-79.468-3.3342-52.97-6-79.468-5.6683-52.96-8-79.468-5.0001-52.976-6-79.468-2-79.468-2-79.468h21.369s5.4522 52.976 8.678 79.468 8.1217 52.96 12.678 79.468 9.7868 52.97 14.678 79.468 8.4582 52.903 10.678 79.468 3.7839 52.945 2.6779 79.468-3.2224 52.926-7.322 79.468-9.952 52.729-19.322 79.468-37.322 79.468-37.322 79.468z"
                  fill="#8d6e63" fill-rule="evenodd"/>
            <path d="m748.82 416.62-82.807 63.218-64.108 146.91 23.15-168.28 66.779-54.314z" fill="#9ccc65"
                  fill-rule="evenodd"/>
            <path d="m770.19 416.62 115.75 3.5616 77.464 49.862 36.506 37.396-23.15-70.341-64.999-56.095-81.026 5.3424z"
                  fill="#689f38" fill-rule="evenodd"/>
            <path d="m770.19 416.62 82.807 63.218 64.108 146.91-23.15-168.28-66.779-54.314z" fill="#9ccc65"
                  fill-rule="evenodd"/>
            <path d="m756.82 416.62 33.318 53.63 31.197 65.483 18.711 106.04 32.305-84.526-34.29-88.812z" fill="#64dd17"
                  fill-rule="evenodd"/>
            <path d="m752.84 545.74 32.317-7.2499" fill="#d7ccc8" fill-rule="evenodd" stroke="#d7ccc8"
                  stroke-width="6.9697"/>
            <path d="m801 627.16-39.349-2.7398" fill="none" stroke="#efebe9" stroke-width="6.9697"/>
            <path d="m750.82 496.09h28.047" fill="none" stroke="#efebe9" stroke-width="6.9697"/>
            <path d="m770.14 712.44 43.181-11.948" fill="#efebe9" fill-rule="evenodd" stroke="#efebe9"
                  stroke-width="6.9697"/>
            <path d="m768.44 781.44 51.3 0.22877" fill="none" stroke="#efebe9" stroke-width="6.9697"/>
            <path d="m760.01 847.36 56.33 13.729" fill="#efebe9" fill-rule="evenodd" stroke="#efebe9"
                  stroke-width="6.9697"/>
            <path d="m741.24 928.52 59.571 19.181" fill="#efebe9" fill-rule="evenodd" stroke="#efebe9"
                  stroke-width="6.9697"/>
            <path d="m708.55 1004.9 58.422 25.404" fill="#efebe9" fill-rule="evenodd" stroke="#efebe9"
                  stroke-width="6.9697"/>
            <circle cx="748.55" cy="427.74" r="12.468" fill="#efebe9" stroke="#d7ccc8" stroke-linecap="round"
                    stroke-linejoin="round" stroke-width="6.9697"/>
            <circle cx="770.59" cy="415.71" r="12.468" fill="#efebe9" stroke="#d7ccc8" stroke-linecap="round"
                    stroke-linejoin="round" stroke-width="6.9697"/>
            <path d="m768.84 428.79 35.34-61.027 68.805-27.423-73.447 19.824-44.458 62.84z" fill="#9ccc65"
                  fill-rule="evenodd"/>
            <path d="m768.63 431.55-9.1047-49.293 20.829-52.352-29.307 49.631 3.3856 56.621z" fill="#689f38"
                  fill-rule="evenodd"/>
            <path d="m718.82 1052.4s28.411-52.732 40-79.468 21.678-52.926 28-79.468 8.6708-52.945 12-79.468 0-52.903 0-79.468-5.3342-52.97-8-79.468-9.6683-52.96-12-79.468-9.0001-52.976-10-79.468-6-79.468-6-79.468h7.3694s5.4522 52.976 8.678 79.468 8.1217 52.96 12.678 79.468 9.7868 52.97 14.678 79.468 8.4582 52.903 10.678 79.468 3.7839 52.945 2.6779 79.468-3.2224 52.926-7.322 79.468-9.952 52.729-19.322 79.468-37.322 79.468-37.322 79.468z"
                  fill="#5d4037" fill-rule="evenodd" opacity=".339"/>
            <path d="m753.27 438.59-35.34-61.027-68.805-27.423 73.447 19.824 44.458 62.84z" fill="#9ccc65"
                  fill-rule="evenodd"/>
            <circle cx="761.68" cy="434.41" r="12.468" fill="#efebe9" stroke="#d7ccc8" stroke-linecap="round"
                    stroke-linejoin="round" stroke-width="6.9697"/>
        </g>
        <path d="m554.71 835.11s24.572-8.3129 38.287-8.0135 28.207 10.727 41.848 10.685 24.905-9.4272 37.396-9.7943 35.616 7.1231 35.616 7.1231"
              fill="none" stroke="#e1f5fe" stroke-width="3"/>
        <path d="m224.59 768.57s19.726-6.4642 30.736-6.2314c11.01 0.23281 22.644 8.3412 33.595 8.3085s19.993-7.3307 30.021-7.6161c10.027-0.28544 28.591 5.539 28.591 5.539"
              fill="none" stroke="#e1f5fe" stroke-width="3"/>
        <path d="m445.41 780.15s19.726-6.4642 30.736-6.2314c11.01 0.23281 22.644 8.3412 33.595 8.3085s19.993-7.3307 30.021-7.6161c10.027-0.28544 28.591 5.539 28.591 5.539"
              fill="none" stroke="#e1f5fe" stroke-width="3"/>
        <path d="m668.9 763.23s19.726-6.4642 30.736-6.2314c11.01 0.23281 22.644 8.3412 33.595 8.3085s19.993-7.3307 30.021-7.6161c10.027-0.28544 28.591 5.539 28.591 5.539"
              fill="none" stroke="#e1f5fe" stroke-width="3"/>
        <path d="m909.95 778.92s19.726-6.4642 30.736-6.2314c11.01 0.23281 22.644 8.3412 33.595 8.3085s19.993-7.3307 30.021-7.6161c10.028-0.28544 28.591 5.539 28.591 5.539"
              fill="none" stroke="#e1f5fe" stroke-width="3"/>
        <path d="m914.53 728.46s12.515-3.743 19.5-3.6082c6.9849 0.1348 14.366 4.8299 21.314 4.811 6.9476-0.0189 12.684-4.2448 19.046-4.41 6.3617-0.16529 18.139 3.2073 18.139 3.2073"
              fill="none" stroke="#e1f5fe" stroke-width="3"/>
        <path d="m587.75 707.09s12.515-3.743 19.5-3.6082c6.9849 0.1348 14.366 4.8299 21.314 4.811 6.9476-0.0189 12.684-4.2448 19.046-4.41 6.3617-0.16529 18.139 3.2073 18.139 3.2073"
              fill="none" stroke="#e1f5fe" stroke-width="3"/>
        <path d="m345.57 711.55s12.515-3.743 19.5-3.6082c6.9849 0.1348 14.366 4.8299 21.314 4.811 6.9476-0.0189 12.684-4.2448 19.046-4.41 6.3617-0.16529 18.139 3.2073 18.139 3.2073"
              fill="none" stroke="#e1f5fe" stroke-width="3"/>
        <path d="m24.134 701.75s12.515-3.743 19.5-3.6082c6.9849 0.1348 14.366 4.8299 21.314 4.811 6.9476-0.0189 12.684-4.2448 19.046-4.41 6.3617-0.16529 18.139 3.2073 18.139 3.2073"
              fill="none" stroke="#e1f5fe" stroke-width="3"/>
        <path d="m140.68 966.88 39.177-15.137 61.437 3.5616 35.616 13.356z" fill="#ffcc80" fill-rule="evenodd"/>
        <path d="m773.07 979.13 39.177-15.137 61.437 3.5616 35.616 13.356z" fill="#ffcc80" fill-rule="evenodd"/>
        <path transform="matrix(.71061 0 0 .70301 -400.53 156.38)"
              d="m887.85 286.99a99.279 99.279 0 0 0 -51.982 13.273 99.279 99.279 0 0 0 -23.629 19.031 70.201 70.201 0 0 0 -56.031 6.1504 70.201 70.201 0 0 0 -35.102 60.797h333.88a70.201 70.201 0 0 0 -35.1 -60.797 70.201 70.201 0 0 0 -59.979 -4.8047 99.279 99.279 0 0 0 -24.762 -20.377 99.279 99.279 0 0 0 -47.297 -13.273z"
              fill="#ffcc80" filter="url(#a)"/>
        <path d="m233.24 359.51a70.549 68.416 0 0 0 -36.939 9.1471 70.549 68.416 0 0 0 -16.791 13.115 49.886 48.377 0 0 0 -39.817 4.2384 49.886 48.377 0 0 0 -24.944 41.897h237.26a49.886 48.377 0 0 0 -24.942 -41.897 49.886 48.377 0 0 0 -42.622 -3.311 70.549 68.416 0 0 0 -17.596 -14.042 70.549 68.416 0 0 0 -33.61 -9.1471z"
              fill="#fafafa"/>
    </g>
</svg>
