<?xml version="1.0" encoding="UTF-8"?>
<svg version="1.1" viewBox="0 0 122.79 129" xmlns="http://www.w3.org/2000/svg" xmlns:xlink="http://www.w3.org/1999/xlink">
 <defs>
  <radialGradient id="i" cx="468.84" cy="375.45" r="50.093" gradientTransform="matrix(2.225 .0034763 -.0018494 1.1837 -574.06 -80.03)" gradientUnits="userSpaceOnUse">
   <stop stop-color="#f00" offset="0"/>
   <stop stop-color="#7cbdff" stop-opacity="0" offset="1"/>
  </radialGradient>
  <linearGradient id="f" x1="398" x2="406.08" y1="291.72" y2="376.57" gradientTransform="matrix(.27781 0 0 .27781 399.76 199.71)" gradientUnits="userSpaceOnUse" xlink:href="#a"/>
  <linearGradient id="a">
   <stop stop-color="#fff" offset="0"/>
   <stop stop-color="#fff" stop-opacity="0" offset="1"/>
  </linearGradient>
  <linearGradient id="g" x1="220.57" x2="393.99" y1="917.04" y2="917.04" gradientTransform="matrix(.16789 -.11352 .11352 .16789 302.04 176.92)" gradientUnits="userSpaceOnUse" xlink:href="#a"/>
  <linearGradient id="h" x1="187.38" x2="506.59" y1="892.25" y2="892.25" gradientUnits="userSpaceOnUse" xlink:href="#a"/>
 </defs>
 <g transform="translate(-367.24 -619.72)">
  <g transform="translate(-68.282 354.73)">
   <path d="m457.85 274.86h100.47v94.854s-4.0692 21.468-24.275 24.275h-89.101v-109.31z"/>
   <path d="m450.94 278.39h104.02v89.233s-3.828 20.196-22.836 22.836h-83.821v-112.07z" fill="#99cbff"/>
   <path d="m451.67 302.44v85.508h80.261c14.312-3.6482 19.925-19.925 19.925-19.925l-0.25254-61.596z" fill="url(#i)"/>
   <path transform="matrix(.17208 -.11711 .11636 .17319 300.81 174.97)" d="m356.43 969.39c-87.713 2.5342-163.05-29.948-168.27-72.552-5.2174-42.603 61.658-79.195 149.37-81.729 87.713-2.5342 163.05 29.948 168.27 72.552 4.9528 40.443-55.241 75.877-137.93 81.196"/>
   <path transform="matrix(.15142 -.10239 .10239 .15142 319.75 188.59)" d="m356.43 969.39c-87.713 2.5342-163.05-29.948-168.27-72.552-5.2174-42.603 61.658-79.195 149.37-81.729 87.713-2.5342 163.05 29.948 168.27 72.552 4.9528 40.443-55.241 75.877-137.93 81.196" fill="#ff9800"/>
   <path transform="matrix(.11157 -.075438 .078818 .11657 347.85 202.17)" d="m356.43 969.39c-87.713 2.5342-163.05-29.948-168.27-72.552-5.2174-42.603 61.658-79.195 149.37-81.729 87.713-2.5342 163.05 29.948 168.27 72.552 4.9528 40.443-55.241 75.877-137.93 81.196"/>
   <path transform="matrix(.094189 -.063688 .065319 .096602 365.82 215.75)" d="m356.43 969.39c-87.713 2.5342-163.05-29.948-168.27-72.552-5.2174-42.603 61.658-79.195 149.37-81.729 87.713-2.5342 163.05 29.948 168.27 72.552 4.9528 40.443-55.241 75.877-137.93 81.196" fill="#ff9800"/>
   <path d="m472.44 305.73s17.68-8.419 22.731-24.976h57.53v25.257z" fill="url(#f)"/>
   <path d="m441.44 295.63c11.298 6.2268 28.884-10.055 28.884-10.055l6.6899 7.725c-8.254 10.203-41.746 21.757-35.574 2.3302z" fill="url(#g)"/>
   <path transform="matrix(.080211 -.054236 .055625 .082265 379.32 225.27)" d="m356.43 969.39c-87.713 2.5342-163.05-29.948-168.27-72.552-5.2174-42.603 61.658-79.195 149.37-81.729 87.713-2.5342 163.05 29.948 168.27 72.552 4.9528 40.443-55.241 75.877-137.93 81.196" fill="url(#h)"/>
   <path d="m534.82 391.11c-13.571-13.214-30.714-32.5-72.321-23.929 8.2143 19.643 2.5 24.821 2.5 24.821 14.286-1.0714 25.893-7.3214 69.821-0.89285z"/>
   <path d="m475.84 348.91s8.0674-9.2457 42.875-3.1361c-8.1701-5.1386-17.525-13.589-37.239-7.5736-4.9065 1.589-5.6354 10.71-5.6354 10.71z"/>
   <path d="m555.77 325.12s-16.973-1.534-24.627 14.795c-0.69377-2.8775-0.51739-18.668 15.958-19.647 9.4717 0.80243 8.6689 4.8522 8.6689 4.8522z"/>
   <path d="m528.7 388.61c-13.036-10.893-27.64-25.81-61.371-17.77 5.7818 15.996 2.2511 19.471 2.2511 19.471s25.191-12.057 59.12-1.7002z" fill="#fff"/>
   <path d="m515.85 337.93s-15.843-22.713-30.263-24.585c-19.588 0.59669-16.503 13.623-8.9414 13.948 16.654-0.66034 39.204 10.637 39.204 10.637z"/>
   <path d="m527.94 328.76s-4.2544-18.299 2.6598-26.752c11.194-10.113 16.958-2.797 12.956 1.3496-9.6049 8.5318-15.616 25.403-15.616 25.403z"/>
   <path d="m468.39 378.61 0.35714 3.2143s4.6429-4.6428 41.429-0.89285c-33.393-6.7857-41.786-2.3214-41.786-2.3214z"/>
  </g>
 </g>
</svg>
