<?xml version="1.0" encoding="UTF-8"?>
<svg version="1.1" viewBox="0 0 122.79 129" xmlns="http://www.w3.org/2000/svg" xmlns:xlink="http://www.w3.org/1999/xlink">
 <defs>
  <linearGradient id="g" x1="341.43" x2="416.18" y1="652.34" y2="479.61" gradientTransform="matrix(.27781 0 0 .27781 136.18 199.71)" gradientUnits="userSpaceOnUse">
   <stop stop-color="#7ca2ff" offset="0"/>
   <stop stop-color="#7cbdff" stop-opacity="0" offset="1"/>
  </linearGradient>
  <linearGradient id="b" x1="452" x2="448.57" y1="562.29" y2="415.05" gradientUnits="userSpaceOnUse">
   <stop stop-color="#373098" offset="0"/>
   <stop stop-color="#373098" stop-opacity="0" offset="1"/>
  </linearGradient>
  <linearGradient id="h" x1="398" x2="406.08" y1="291.72" y2="376.57" gradientTransform="matrix(.27781 0 0 .27781 136.18 199.71)" gradientUnits="userSpaceOnUse" xlink:href="#a"/>
  <linearGradient id="a">
   <stop stop-color="#fff" offset="0"/>
   <stop stop-color="#fff" stop-opacity="0" offset="1"/>
  </linearGradient>
  <linearGradient id="i" x1="220.57" x2="393.99" y1="917.04" y2="917.04" gradientTransform="matrix(.16789 -.11352 .11352 .16789 38.472 176.92)" gradientUnits="userSpaceOnUse" xlink:href="#a"/>
  <linearGradient id="j" x1="187.38" x2="506.59" y1="892.25" y2="892.25" gradientUnits="userSpaceOnUse" xlink:href="#a"/>
 </defs>
 <g transform="translate(-218.6 -513.58)">
  <g transform="translate(46.655 248.59)">
   <path d="m194.28 274.86h100.47v94.854s-4.0692 21.468-24.275 24.275h-89.101v-109.31z"/>
   <path d="m187.37 278.39h104.02v89.233s-3.828 20.196-22.836 22.836h-83.821v-112.07z" fill="#99cbff"/>
   <path d="m188.1 313.3v74.648h80.261c14.312-3.6482 19.925-19.925 19.925-19.925v-40.131z" fill="url(#g)"/>
   <g transform="matrix(.25158 -.11448 .11448 .25158 73.693 273.66)">
    <path d="m450.61 587.5c-24.225 3.528-45.032-41.693-46.473-101-1.441-59.311 17.029-110.25 41.255-113.78 24.225-3.528 45.032 41.693 46.473 101 1.3679 56.303-15.257 105.63-38.095 113.04"/>
    <path transform="matrix(.88506 0 0 .88506 51.493 55.184)" d="m450.61 587.5c-24.225 3.528-45.032-41.693-46.473-101-1.441-59.311 17.029-110.25 41.255-113.78 24.225-3.528 45.032 41.693 46.473 101 1.3679 56.303-15.257 105.63-38.095 113.04" fill="url(#b)"/>
    <path transform="matrix(.4368 0 0 .4368 241.71 225.97)" d="m450.61 587.5c-24.225 3.528-45.032-41.693-46.473-101-1.441-59.311 17.029-110.25 41.255-113.78 24.225-3.528 45.032 41.693 46.473 101 1.3679 56.303-15.257 105.63-38.095 113.04" fill="#fff"/>
   </g>
   <g transform="matrix(.15643 -.11478 .10442 .19098 153.76 281.62)">
    <path d="m450.61 587.5c-24.225 3.528-45.032-41.693-46.473-101-1.441-59.311 17.029-110.25 41.255-113.78 24.225-3.528 45.032 41.693 46.473 101 1.3679 56.303-15.257 105.63-38.095 113.04"/>
    <path transform="matrix(.88506 0 0 .88506 51.493 55.184)" d="m450.61 587.5c-24.225 3.528-45.032-41.693-46.473-101-1.441-59.311 17.029-110.25 41.255-113.78 24.225-3.528 45.032 41.693 46.473 101 1.3679 56.303-15.257 105.63-38.095 113.04" fill="url(#b)"/>
    <path transform="matrix(.4368 0 0 .4368 241.71 225.97)" d="m450.61 587.5c-24.225 3.528-45.032-41.693-46.473-101-1.441-59.311 17.029-110.25 41.255-113.78 24.225-3.528 45.032 41.693 46.473 101 1.3679 56.303-15.257 105.63-38.095 113.04" fill="#fff"/>
   </g>
   <path transform="matrix(.17208 -.11711 .11636 .17319 37.243 174.97)" d="m356.43 969.39c-87.713 2.5342-163.05-29.948-168.27-72.552-5.2174-42.603 61.658-79.195 149.37-81.729 87.713-2.5342 163.05 29.948 168.27 72.552 4.9528 40.443-55.241 75.877-137.93 81.196"/>
   <path transform="matrix(.15142 -.10239 .10239 .15142 56.176 188.59)" d="m356.43 969.39c-87.713 2.5342-163.05-29.948-168.27-72.552-5.2174-42.603 61.658-79.195 149.37-81.729 87.713-2.5342 163.05 29.948 168.27 72.552 4.9528 40.443-55.241 75.877-137.93 81.196" fill="#ff9800"/>
   <path transform="matrix(.11157 -.075438 .078818 .11657 84.274 202.17)" d="m356.43 969.39c-87.713 2.5342-163.05-29.948-168.27-72.552-5.2174-42.603 61.658-79.195 149.37-81.729 87.713-2.5342 163.05 29.948 168.27 72.552 4.9528 40.443-55.241 75.877-137.93 81.196"/>
   <path transform="matrix(.094189 -.063688 .065319 .096602 102.25 215.75)" d="m356.43 969.39c-87.713 2.5342-163.05-29.948-168.27-72.552-5.2174-42.603 61.658-79.195 149.37-81.729 87.713-2.5342 163.05 29.948 168.27 72.552 4.9528 40.443-55.241 75.877-137.93 81.196" fill="#ff9800"/>
   <path d="m208.87 305.73s17.68-8.419 22.731-24.976h57.53v25.257z" fill="url(#h)"/>
   <path d="m177.87 295.63c11.298 6.2268 28.884-10.055 28.884-10.055l6.6899 7.725c-8.254 10.203-41.746 21.757-35.574 2.3302z" fill="url(#i)"/>
   <path transform="matrix(.080211 -.054236 .055625 .082265 115.75 225.27)" d="m356.43 969.39c-87.713 2.5342-163.05-29.948-168.27-72.552-5.2174-42.603 61.658-79.195 149.37-81.729 87.713-2.5342 163.05 29.948 168.27 72.552 4.9528 40.443-55.241 75.877-137.93 81.196" fill="url(#j)"/>
   <path d="m230.91 292.06s-21.035 12.483-23.619 25.064c-0.74431 17.294 10.93 15.421 11.707 8.7807 0.49803-14.713 11.912-33.845 11.912-33.845z"/>
   <path d="m251.87 298.58s18.576-5.2696 27.002-1.9518c10.029 5.862 2.5303 10.601-1.5919 8.5781-8.4576-5.05-25.41-6.6263-25.41-6.6263z"/>
   <path d="m239.66 380.1c-22.135-20.714-36.441-5.7143-36.441-5.7143s-3.7791-5.3571-1.0797-14.286c-9.7177 12.857-5.1288 26.429 2.1595 31.786h9.4477c-5.6686-2.6786-7.0183-7.6786-7.0183-7.6786s10.258-13.036 32.932-4.1072z"/>
  </g>
 </g>
</svg>
