<?xml version="1.0" encoding="UTF-8"?>
<svg version="1.1" viewBox="0 0 133.06 129" xmlns="http://www.w3.org/2000/svg" xmlns:xlink="http://www.w3.org/1999/xlink">
 <defs>
  <linearGradient id="j" x1="341.43" x2="416.18" y1="652.34" y2="479.61" gradientTransform="matrix(.27781 0 0 .27781 5.8273 353.99)" gradientUnits="userSpaceOnUse">
   <stop stop-color="#7ca2ff" offset="0"/>
   <stop stop-color="#7cbdff" stop-opacity="0" offset="1"/>
  </linearGradient>
  <linearGradient id="b" x1="452" x2="448.57" y1="562.29" y2="415.05" gradientUnits="userSpaceOnUse">
   <stop stop-color="#373098" offset="0"/>
   <stop stop-color="#373098" stop-opacity="0" offset="1"/>
  </linearGradient>
  <linearGradient id="k" x1="398" x2="406.08" y1="291.72" y2="376.57" gradientTransform="matrix(.27781 0 0 .27781 5.8273 353.99)" gradientUnits="userSpaceOnUse" xlink:href="#a"/>
  <linearGradient id="a">
   <stop stop-color="#fff" offset="0"/>
   <stop stop-color="#fff" stop-opacity="0" offset="1"/>
  </linearGradient>
  <linearGradient id="l" x1="220.57" x2="393.99" y1="917.04" y2="917.04" gradientTransform="matrix(.16789 -.11352 .11352 .16789 -91.885 331.2)" gradientUnits="userSpaceOnUse" xlink:href="#a"/>
  <linearGradient id="m" x1="187.38" x2="506.59" y1="892.25" y2="892.25" gradientUnits="userSpaceOnUse" xlink:href="#a"/>
  <linearGradient id="n" x1="69.857" x2="95.468" y1="618.13" y2="628.49" gradientUnits="userSpaceOnUse" spreadMethod="reflect">
   <stop stop-color="#200036" offset="0"/>
   <stop stop-color="#0034d3" offset=".70261"/>
   <stop stop-color="#fff" offset="1"/>
  </linearGradient>
  <linearGradient id="o" x1="127" x2="146.51" y1="596.22" y2="602.29" gradientUnits="userSpaceOnUse" spreadMethod="reflect">
   <stop stop-color="#200036" offset="0"/>
   <stop stop-color="#0034d3" offset=".5935"/>
   <stop stop-color="#fff" offset="1"/>
  </linearGradient>
  <radialGradient id="p" cx="153.39" cy="465.76" r="10.893" gradientTransform="matrix(1 0 0 1.1639 0 -76.355)" gradientUnits="userSpaceOnUse" xlink:href="#a"/>
 </defs>
 <g transform="translate(-529.22 -587.07)">
  <g transform="translate(488.71 167.8)">
   <path d="m63.918 429.14h100.47v94.854s-4.0692 21.468-24.275 24.275h-89.101v-109.31z"/>
   <path d="m57.009 432.67h104.02v89.233s-3.828 20.196-22.836 22.836h-83.821v-112.07z" fill="#99cbff"/>
   <path d="m57.744 467.59v74.648h80.261c14.312-3.6482 19.925-19.925 19.925-19.925v-40.131z" fill="url(#j)"/>
   <g transform="matrix(.25158 -.11448 .11448 .25158 -62.317 418.52)">
    <path d="m450.61 587.5c-24.225 3.528-45.032-41.693-46.473-101-1.441-59.311 17.029-110.25 41.255-113.78 24.225-3.528 45.032 41.693 46.473 101 1.3679 56.303-15.257 105.63-38.095 113.04"/>
    <path transform="matrix(.88506 0 0 .88506 51.493 55.184)" d="m450.61 587.5c-24.225 3.528-45.032-41.693-46.473-101-1.441-59.311 17.029-110.25 41.255-113.78 24.225-3.528 45.032 41.693 46.473 101 1.3679 56.303-15.257 105.63-38.095 113.04" fill="url(#b)"/>
    <path transform="matrix(.4368 0 0 .4368 241.71 225.97)" d="m450.61 587.5c-24.225 3.528-45.032-41.693-46.473-101-1.441-59.311 17.029-110.25 41.255-113.78 24.225-3.528 45.032 41.693 46.473 101 1.3679 56.303-15.257 105.63-38.095 113.04" fill="#fff"/>
   </g>
   <g transform="matrix(.15643 -.11478 .10442 .19098 22.924 428.26)">
    <path d="m450.61 587.5c-24.225 3.528-45.032-41.693-46.473-101-1.441-59.311 17.029-110.25 41.255-113.78 24.225-3.528 45.032 41.693 46.473 101 1.3679 56.303-15.257 105.63-38.095 113.04"/>
    <path transform="matrix(.88506 0 0 .88506 51.493 55.184)" d="m450.61 587.5c-24.225 3.528-45.032-41.693-46.473-101-1.441-59.311 17.029-110.25 41.255-113.78 24.225-3.528 45.032 41.693 46.473 101 1.3679 56.303-15.257 105.63-38.095 113.04" fill="url(#b)"/>
    <path transform="matrix(.4368 0 0 .4368 241.71 225.97)" d="m450.61 587.5c-24.225 3.528-45.032-41.693-46.473-101-1.441-59.311 17.029-110.25 41.255-113.78 24.225-3.528 45.032 41.693 46.473 101 1.3679 56.303-15.257 105.63-38.095 113.04" fill="#fff"/>
   </g>
   <path transform="matrix(.17208 -.11711 .11636 .17319 -93.114 329.26)" d="m356.43 969.39c-87.713 2.5342-163.05-29.948-168.27-72.552-5.2174-42.603 61.658-79.195 149.37-81.729 87.713-2.5342 163.05 29.948 168.27 72.552 4.9528 40.443-55.241 75.877-137.93 81.196"/>
   <path transform="matrix(.15142 -.10239 .10239 .15142 -74.181 342.87)" d="m356.43 969.39c-87.713 2.5342-163.05-29.948-168.27-72.552-5.2174-42.603 61.658-79.195 149.37-81.729 87.713-2.5342 163.05 29.948 168.27 72.552 4.9528 40.443-55.241 75.877-137.93 81.196" fill="#ff9800"/>
   <path transform="matrix(.11157 -.075438 .078818 .11657 -46.083 356.45)" d="m356.43 969.39c-87.713 2.5342-163.05-29.948-168.27-72.552-5.2174-42.603 61.658-79.195 149.37-81.729 87.713-2.5342 163.05 29.948 168.27 72.552 4.9528 40.443-55.241 75.877-137.93 81.196"/>
   <path transform="matrix(.094189 -.063688 .065319 .096602 -28.109 370.04)" d="m356.43 969.39c-87.713 2.5342-163.05-29.948-168.27-72.552-5.2174-42.603 61.658-79.195 149.37-81.729 87.713-2.5342 163.05 29.948 168.27 72.552 4.9528 40.443-55.241 75.877-137.93 81.196" fill="#ff9800"/>
   <path d="m78.511 460.01s17.68-8.419 22.731-24.976h57.53v25.257z" fill="url(#k)"/>
   <path d="m47.509 449.91c11.298 6.2268 28.884-10.055 28.884-10.055l6.6899 7.725c-8.254 10.203-41.746 21.757-35.574 2.3302z" fill="url(#l)"/>
   <path transform="matrix(.080211 -.054236 .055625 .082265 -14.609 379.55)" d="m356.43 969.39c-87.713 2.5342-163.05-29.948-168.27-72.552-5.2174-42.603 61.658-79.195 149.37-81.729 87.713-2.5342 163.05 29.948 168.27 72.552 4.9528 40.443-55.241 75.877-137.93 81.196" fill="url(#m)"/>
   <path d="m63.663 547.29s-0.28063-33.115 33.115-30.308c-11.506 3.9289-11.113 7.3814-11.113 7.3814 22.17 16.277 39.457 9.7372 39.457 9.7372-12.538 17.07-52.208 11.389-51.637 12.909z"/>
   <path d="m71.973 542.74c7.5761 0.75761 24.749 3.0305 41.921-4.2932 0 0-22.223 1.5152-32.83-9.5964 0 0-8.0812 4.5457-9.0914 13.89z" fill="#fff" stroke="#000" stroke-width="1px"/>
   <g transform="matrix(.89921 0 0 .67141 27.53 81.264)" stroke="#000" stroke-width="1px">
    <path d="m47.477 618.5 107.02-47.023 4.2071 5.7493-6.3482 3.6167s10.885 19 8.0282 32.929c-2.5 5-11.552 10.682-19.409 8.1825-9.7529-4.5372-15.297-17.258-21.101-23.04-2.1429-2.8571-4.7623-5.2451-6.1909 0.82632-0.71428 7.1428 2.9758 26.379 0.73967 34.478-2.5 7.5-10.497 15.999-24.068 15.999-8.5714-1.0714-21.786-7.8571-27.5-30 0 0-28.214 10-35.357 25-3.2143 4.6429-3.5714 17.857-3.5714 17.857l-8.9286-2.5s1.7857-14.286 6.7857-25c6.1225-7.1795 25.691-17.075 25.691-17.075z"/>
    <path d="m67.143 615.58 42.857-20.357c-1.7857 19.286 8.2143 40.714-6.0714 46.786 0 0-20.357 17.143-36.786-26.429z" fill="url(#n)"/>
    <path d="m117.86 591.65c9.6429 2.8571 19.066 32.143 33.351 27.143 12.143-8.5714 8.0771-22.857-5.4943-39.286 0 0-21.071 9.2857-27.857 12.143z" fill="url(#o)"/>
   </g>
   <path transform="matrix(1.4754 0 0 2.507 -68.815 -699.57)" d="m154.04 478.41c-6.0054 0.41577-11.163-4.9136-11.52-11.903-0.35721-6.9898 4.2215-12.993 10.227-13.409 6.0053-0.41577 11.163 4.9136 11.52 11.903 0.3391 6.6353-3.7822 12.449-9.4436 13.322" fill="url(#p)"/>
  </g>
 </g>
</svg>
