<?xml version="1.0" encoding="UTF-8"?>
<svg version="1.1" viewBox="0 0 498.31 735.38" xmlns="http://www.w3.org/2000/svg" xmlns:xlink="http://www.w3.org/1999/xlink">
 <defs>
  <linearGradient id="ac" x1="289.55" x2="287.07" y1="526.78" y2="466.31" gradientUnits="userSpaceOnUse">
   <stop stop-color="#00f" offset="0"/>
   <stop stop-opacity="0" offset="1"/>
  </linearGradient>
  <linearGradient id="ab" x1="365.11" x2="313.37" y1="127.82" y2="126.45" gradientUnits="userSpaceOnUse" xlink:href="#a"/>
  <linearGradient id="a">
   <stop stop-color="#f90" offset="0"/>
   <stop stop-color="#fff" offset="1"/>
  </linearGradient>
  <linearGradient id="z" x1="472.21" x2="495.26" y1="630.61" y2="679.35" gradientTransform="translate(-18.928 -77.854)" gradientUnits="userSpaceOnUse" xlink:href="#b"/>
  <linearGradient id="b">
   <stop stop-color="#fff" offset="0"/>
   <stop stop-color="#cecece" offset="1"/>
  </linearGradient>
  <linearGradient id="x" x1="325.88" x2="313.24" y1="662.82" y2="698.43" gradientTransform="translate(-18.928 -77.854)" gradientUnits="userSpaceOnUse" xlink:href="#b"/>
  <linearGradient id="aa" x1="438.1" x2="468.86" y1="546.72" y2="554.04" gradientTransform="translate(-18.928 -77.854)" gradientUnits="userSpaceOnUse" xlink:href="#b"/>
  <linearGradient id="y" x1="346.31" x2="342.62" y1="563.37" y2="576.75" gradientTransform="translate(-18.928 -78.107)" gradientUnits="userSpaceOnUse" xlink:href="#b"/>
  <linearGradient id="c" x1="475.32" x2="457.72" y1="482.37" y2="436.65" gradientUnits="userSpaceOnUse" xlink:href="#a"/>
  <linearGradient id="ad" x1="343.07" x2="419.03" y1="796.06" y2="771.06" gradientTransform="matrix(.95832 .091454 -.13431 1.1515 146.96 -207.34)" gradientUnits="userSpaceOnUse">
   <stop stop-color="#969696" offset="0"/>
   <stop stop-color="#5a5a5a" offset="1"/>
  </linearGradient>
  <linearGradient id="ae" x1="299.75" x2="273.4" y1="756.41" y2="644.98" gradientTransform="matrix(1.1076 .099486 -.14946 1.2689 97.522 -300.88)" gradientUnits="userSpaceOnUse">
   <stop stop-color="#36f" offset="0"/>
   <stop stop-color="#fff" offset="1"/>
  </linearGradient>
  <linearGradient id="af" x1="344.64" x2="399.51" y1="711.54" y2="620.93" gradientTransform="matrix(1.1076 .099486 -.14946 1.2689 97.522 -300.88)" gradientUnits="userSpaceOnUse">
   <stop stop-color="#36f" offset="0"/>
   <stop stop-color="#00279c" offset="1"/>
  </linearGradient>
  <linearGradient id="ag" x1="375.05" x2="385.19" y1="587.94" y2="521.77" gradientTransform="matrix(1.0968 .052161 -.22189 1.2508 146.43 -266.92)" gradientUnits="userSpaceOnUse">
   <stop stop-color="#f90" offset="0"/>
   <stop stop-color="#8d5500" offset="1"/>
  </linearGradient>
  <linearGradient id="ah" x1="532.61" x2="462.28" y1="515.02" y2="446.08" gradientTransform="matrix(-.87534 .72095 .76224 .78972 257.67 -250.1)" gradientUnits="userSpaceOnUse" xlink:href="#a"/>
  <linearGradient id="ai" x1="532.61" x2="462.28" y1="515.02" y2="446.08" gradientTransform="matrix(1.022 .66016 -.74474 .90591 425.53 -324.72)" gradientUnits="userSpaceOnUse" xlink:href="#a"/>
  <linearGradient id="aj" x1="215.19" x2="283.83" y1="649.58" y2="649.58" gradientTransform="translate(-19.642 -76.426)" gradientUnits="userSpaceOnUse" xlink:href="#a"/>
  <linearGradient id="ak" x1="215.19" x2="283.83" y1="649.58" y2="649.58" gradientTransform="matrix(-.96276 .02415 0 1 792.28 -112.26)" gradientUnits="userSpaceOnUse" xlink:href="#a"/>
  <linearGradient id="al" x1="402.37" x2="384.41" y1="915.92" y2="806.28" gradientTransform="matrix(1.1778 .26991 -.29199 1.0887 200.22 -227.21)" gradientUnits="userSpaceOnUse">
   <stop stop-color="#ff0" offset="0"/>
   <stop stop-color="#ff0" stop-opacity="0" offset="1"/>
  </linearGradient>
  <linearGradient id="am" x1="397.67" x2="366.45" y1="972.9" y2="816.83" gradientTransform="matrix(1.0848 .2486 -.26894 1.0028 218.72 -148.06)" gradientUnits="userSpaceOnUse">
   <stop offset="0"/>
   <stop stop-opacity="0" offset="1"/>
  </linearGradient>
  <linearGradient id="an" x1="377.17" x2="372.08" y1="987.52" y2="827.17" gradientTransform="matrix(1.0848 .2486 -.26894 1.0028 218.72 -148.06)" gradientUnits="userSpaceOnUse">
   <stop stop-color="#f00" offset="0"/>
   <stop stop-color="#f00" stop-opacity="0" offset="1"/>
  </linearGradient>
  <linearGradient id="ao" x1="181.87" x2="240.02" y1="532.23" y2="436.26" gradientTransform="matrix(1.1108 .11505 -.12348 1.293 72.872 -305.23)" gradientUnits="userSpaceOnUse">
   <stop stop-color="#9cdafb" offset="0"/>
   <stop stop-color="#fff" offset="1"/>
  </linearGradient>
  <linearGradient id="ap" x1="363.66" x2="475.7" y1="474.68" y2="435.28" gradientTransform="matrix(1.1108 .11505 -.12348 1.293 72.872 -305.23)" gradientUnits="userSpaceOnUse">
   <stop stop-color="#9cdafb" offset="0"/>
   <stop stop-color="#1aa9f6" offset="1"/>
  </linearGradient>
  <linearGradient id="aq" x1="356.41" x2="288.22" y1="104.42" y2="102.45" gradientTransform="matrix(1.2313 .17737 -.17219 1.2073 -26.019 67.828)" gradientUnits="userSpaceOnUse" xlink:href="#a"/>
 </defs>
 <g transform="translate(-141.25 -203.37)">
  <path d="m366.88 203.38c-11.987 0.12122-23.485 4.0971-34.531 8.2812-15.108 3.9412-32.251 11.831-37.594 27.562-28.583 12.192-54.499 30.755-75.312 53.844-35.819 37.612-61.294 84.108-78.188 133.06 8.3797 10.043 19.221 16.608 31.062 21.281-0.81627 2.6461-1.3627 5.3403-1.6562 7.9062-5.5183 24.041-8.9438 48.682-13.656 72.906-6.5535 10.003-9.1579 22.576-5.2812 34.25 6.1904 23.457 35.385 37.148 57.344 26.375 0.8079 0.53302 1.6094 1.0707 2.375 1.625 11.873 6.8695 25.306 11.969 39.094 13.844 0.49887 0.98561 1.0379 1.9612 1.625 2.9062 5.7322 7.4782 15.532 11.922 25 10.719 0.0591 0.0861 0.12801 0.16434 0.1875 0.25 7.8605 29.782 15.627 59.594 22.219 89.688 8.8593 3.2453 17.946 5.858 27.188 7.8438 2.6422 15.824 4.949 31.812 7.5 47.688 33.014 14.423 73.786 15.798 104.81-4.1875 7.7042-4.5758 16.667-8.662 21.938-15.938 1.5669-15.515 3.1973-31.022 4.8125-46.531 0.45953-0.25095 0.91753-0.49502 1.375-0.75 5.0892-2.123 9.7824-5.9785 9.2188-12.156 5.7067-29.669 11.808-59.245 17.875-88.844 1.3234 0.0114 2.9532 0.41397 3.9688-0.53125 10.448-2.9562 19.887-9.6172 26.125-18.438 8.7212-0.73885 17.428-3.2965 25.625-5.75 4.1736-1.6128 8.2388-3.49 12.188-5.5938 12.706 9.0889 29.563 12.572 44.469 6.9062 26.758-8.3819 41.371-42.909 27.688-67.75-4.1395-8.241-10.751-15.145-18.656-19.875-9.9874-31.687-16.554-64.592-29.781-95.125-0.69618-1.0342-1.4869-2.0516-2.3438-3 2.3528-1.6009 15.446-9.1532 17.764-10.81-43.653-80.868-83.115-110.04-132.55-132.28-8.5142-3.7518-17.248-6.9491-26.125-9.625-0.36184-1.201-0.85778-2.3971-1.5-3.5625-8.1622-15.244-26.613-19.342-42.25-22.312-9.3256-3.6864-19.66-3.9744-29.625-3.8438-0.80346-0.0272-1.6071-0.0393-2.4062-0.0312zm180.5 210.59c0.0806 0.34297 0.15657 0.69292 0.25 1.0312 3.7895 25.234 6.0783 50.613 9.3125 75.938-8.1224 8.0473-13.639 18.819-14.844 30.125-4.3337 0.24379-8.6828 0.19202-13.031 0.125-1.7043-4.8438-4.2856-9.3226-8.1875-13.125-2.2146-2.5417-5.2249-4.039-8.2812-5.2188 0.55766-2.9894 1.0774-5.9774 1.625-8.9688 3.5908-1.9923 7.1541-3.9988 10.688-6.0938 7.4572-24.615 14.95-49.217 22.469-73.812zm-334.47 45.094c6.0151 22.089 11.99 44.186 18.094 66.25 6.528 3.7638 13.266 7.0254 20.156 9.875-2.994 4.6518-4.6611 9.9968-5.625 15.562-4.0704 0.0789-8.1043-0.0164-12.062-0.53125 0.0542-7.572-1.9513-15.109-6.375-21.562-3.8651-6.1252-9.385-11.163-15.75-14.594 0.30922-18.358 0.55796-36.713 1.5625-55z"/>
  <path d="m459.66 689.54c-41.119 23.574-88.135 26.89-130.63 15.118 2.9482 18.627 5.9119 37.25 8.8364 55.884 30.263 12.189 65.565 14.903 96.167-3.0547 8.0084-4.1991 15.602-8.9837 22.975-14.649 1.8701-18.308 3.7442-36.616 5.6947-54.918-1.0146 0.53999-2.0292 1.08-3.0437 1.62z"/>
  <path d="m458.04 695.35c-39.083 21.499-83.369 25.261-124.06 15.305l7.3153 46.248s29.511 12.303 58.728 7.9332c26.864-4.0178 53.385-24.591 53.385-24.591z" fill="#969696"/>
  <path d="m458.04 695.35c-26.662 14.667-55.741 21.071-84.453 20.504 1.899 1.581 3.4924 3.1834 4.6174 4.807 7.4052 10.687 7.9625 29.869 7.9625 29.869s3.1873-33.374 15.905-29.665c12.718 3.7087 14.791 30.52 14.791 30.52s3.2418-30.873 11.114-30.122c7.8719 0.75123 13.156 26.617 13.156 26.617l0.83853 0.08c7.01-4.307 11.437-7.7139 11.437-7.7139l4.6306-44.895z" fill="url(#ad)"/>
  <path d="m508.42 484.12c-47.511 24.874-98.251 41.779-149.61 47.556-35.322 2.9813-70.657-1.9391-103.05-15.783 13.915 62.81 33.392 126.12 47.242 188.96 55.17 18.762 114.72 15.685 168.33-15.858 8.5472-46.407 30.885-149.18 40.937-206.89-1.2849 0.67207-2.5698 1.3441-3.8548 2.0162z"/>
  <path d="m506.25 490.77c-31.498 16.538-64.576 28.491-98.13 36.947-48.361 13.669-100.01 13.812-145.93-3.8513l45.14 177.84s36.702 14.719 89.044 7.1148c52.342-7.6039 70.802-23.361 70.802-23.361z" fill="#36f"/>
  <path d="m506.25 490.77c-31.498 16.538-64.576 28.491-98.13 36.947-17.368 4.909-118.74 10.903-136.54 12.125 102.93 61.886 180.64 83.872 193.6 146.97 0.66618-0.53069 1.809-1.4003 1.809-1.4003z" fill="url(#af)"/>
  <path d="m285.79 571.11 24.753 126.64c14.812 4.1601 30.137 6.7651 45.619 7.6639l-8.7988-129.53c-23.336 0.86982-39.209 1.4463-61.573-4.7713z" fill="url(#ae)"/>
  <path d="m545.58 394.52c-98.193 47.959-202.54 62.042-302.06 58.32-9.7773-0.58874-19.407-1.8862-29.005-3.273 6.6474 24.346 13.205 48.724 19.912 73.04 50.695 28.707 114.54 29.265 174.37 10.253 38.419-11.028 76.513-26.552 112.73-47.762 9.366-30.857 18.75-61.711 28.204-92.549-1.3838 0.65683-2.7676 1.3136-4.1515 1.9705z"/>
  <path d="m542.64 401.04c-78.428 38.054-162.16 53.582-242.77 57.078-26.282 0.60214-53.21 1.3071-78.811-2.4869l17.23 63.216s54.782 34.468 137.14 17.362c82.359-17.106 142.61-54.353 142.61-54.353l24.602-80.816z" fill="#f90"/>
  <path d="m542.64 401.04c-78.428 38.054-162.16 53.582-242.77 57.078-9.9816 0.22869-20.057 0.4534-30.117 0.45967-2.2403 0.90397-4.4615 1.8141-6.7444 2.7537 128.09 3.4087 216.17 5.0844 255.04 20.446l24.588-80.738z" fill="url(#ag)"/>
  <path d="m184.32 436.1c8.5761-5.9786 18.679 1.9861 21.703 9.412 5.7659 10.263 0.85557 22.193 2.0972 33.257-0.45132 19.885-0.91702 39.7-1.2666 59.526-10.974 8.5304-23.888 20.143-39.293 17.435-6.8031-1.3123-12.776-8.4308-8.8807-14.746 6.4514-31.749 10.439-63.982 18.41-95.385 1.5209-3.634 3.7673-7.1312 7.2308-9.4992z"/>
  <path d="m179.59 452.35-17.369 94.85s5.0402 7.483 16.092 3.9288c11.052-3.5542 23.916-14.686 23.916-14.686l1.8596-84.403s-5.8487-14.693-13.696-13.778c-7.8469 0.91426-10.804 14.089-10.804 14.089z" fill="#f90"/>
  <path d="m189.71 443c4.6053-1.9775 7.5644 5.0079 8.7412 8.0389 3.4948 9.0018-0.52348 18.978 0.40958 28.432-0.41458 18.349-0.82916 36.698-1.2437 55.047-8.1891 5.7049-19.308 13.305-30.34 10.737 9.1994-40.205 11.872-70.591 18.602-97.017 0.51142-2.0081 1.7204-4.3312 3.8316-5.2378z" fill="url(#ah)"/>
  <path d="m575.26 384.31c-9.9016-5.3346-20.029 4.0584-22.544 12.137-5.1942 11.334 1.3463 23.274 1.1346 34.964 2.5255 20.724 5.0594 41.374 7.4686 62.048 12.761 7.7455 27.938 18.505 44.347 14.04 7.2344-2.0933 12.975-10.164 8.1089-16.347-10.24-32.481-17.86-65.728-29.71-97.686-2.0196-3.6346-4.8109-7.0493-8.805-9.1552z"/>
  <path d="m582.05 400.78 28.528 97.238s-4.693 8.3522-17.028 5.8131-27.409-12.802-27.409-12.802l-10.659-87.972s4.8303-15.969 13.423-15.848c8.5931 0.12171 13.145 13.57 13.145 13.57z" fill="#f90"/>
  <path d="m570.13 392.1c-5.1908-1.5766-7.6806 6.0347-8.6447 9.3259-2.8634 9.7746 2.5108 19.769 2.4684 29.744 2.3284 19.124 4.6568 38.248 6.9852 57.371 9.4544 5.0898 22.277 11.848 33.963 7.9942-14.082-41.022-20.089-72.48-30.085-99.371-0.75962-2.0434-2.3071-4.3418-4.6867-5.0646z" fill="url(#ai)"/>
  <path d="m588.52 481.13c-25.602 0.61057-46.566 26.042-41.916 51.241 3.0707 24.827 29.848 42.988 54.216 36.606 24.652-4.8889 40.821-32.978 32.584-56.733-5.804-18.986-24.846-32.309-44.885-31.113z"/>
  <path transform="matrix(1.1872 0 0 1.1826 29.654 -22.007)" d="m506.84 463.06c0 18.899-15.32 34.219-34.219 34.219s-34.219-15.32-34.219-34.219 15.32-34.219 34.219-34.219 34.219 15.32 34.219 34.219z" fill="#f90"/>
  <path transform="matrix(1.0558 0 0 1.0517 91.769 38.615)" d="m506.84 463.06c0 18.899-15.32 34.219-34.219 34.219s-34.219-15.32-34.219-34.219 15.32-34.219 34.219-34.219 34.219 15.32 34.219 34.219z" fill="url(#c)"/>
  <path d="m189.89 513.17c-21.565 0.51629-39.223 22.021-35.306 43.329 2.5865 20.994 25.141 36.35 45.667 30.954 20.764-4.134 34.384-27.886 27.446-47.973-4.8888-16.055-20.928-27.32-37.807-26.309z"/>
  <path transform="translate(-280.85 87.724)" d="m506.84 463.06c0 18.899-15.32 34.219-34.219 34.219s-34.219-15.32-34.219-34.219 15.32-34.219 34.219-34.219 34.219 15.32 34.219 34.219z" fill="#f90"/>
  <path transform="matrix(.8893 0 0 .8893 -228.53 138.99)" d="m506.84 463.06c0 18.899-15.32 34.219-34.219 34.219s-34.219-15.32-34.219-34.219 15.32-34.219 34.219-34.219 34.219 15.32 34.219 34.219z" fill="url(#c)"/>
  <path d="m205.73 545.29c-8.8303-1.0884-18.97 5.6524-17.656 15.312-0.11237 8.5339 6.4337 15.154 13.682 18.486 15.126 11.369 32.88 19.947 52.068 21.295 6.0718 0.99555 12.419 1.5784 18.406-0.15625-0.83054-15.353-1.6284-30.707-2.4062-46.062-16.672-0.63817-34.339 3.0666-50.219-3.1875-4.3133-2.5424-8.5306-6.1123-13.875-5.6875z"/>
  <path d="m266.03 558.23s-27.1 0.92349-37.814-0.50508c-10.714-1.4286-16.429-7.1429-16.429-7.1429s-7.8571-3.2143-15.357 0.71429-4.2857 18.214 2.1428 21.071c6.4286 2.8571 21.616 17.318 40.945 21.421 23.178 4.9208 28.525 3.2799 28.525 3.2799z" fill="#f90"/>
  <path d="m204.83 553.2c-4.811-0.5559-8.1629 0.34582-8.3725 5.9434-0.16809 4.4891 17.511 13.324 24.526 16.013 10.305 3.9486 24.373 11.057 41.989 11.952-0.43598-5.3414-0.25772-23.821-2.674-24.845-20.807 7.1467-44.082-3.88-55.469-9.0625z" fill="url(#aj)"/>
  <path d="m575.3 514.91c8.5015-1.3017 18.264 5.1942 16.999 14.886 0.10818 8.5312-6.1941 15.31-13.172 18.817-14.563 11.734-31.656 20.741-50.129 22.552-5.8457 1.1422-11.957 1.8783-17.721 0.28827 0.79961-15.373 1.5678-30.746 2.3166-46.121 16.051-1.0408 33.06 2.2373 48.349-4.4003 4.1526-2.6466 8.2129-6.3183 13.358-6.0226z"/>
  <path d="m517.25 529.3s26.09 0.26903 36.406-1.4183 15.817-7.5396 15.817-7.5396 7.5646-3.404 14.785 0.34341c7.2207 3.7474 4.1261 18.111-2.0631 21.123-6.1892 3.0124-20.811 17.84-39.42 22.41-22.315 5.4805-27.463 3.9688-27.463 3.9688z" fill="#f90"/>
  <path d="m576.17 522.79c4.6318-0.67209 7.8589 0.14869 8.0607 5.7412 0.16183 4.4851-16.859 13.747-23.613 16.605-9.9214 4.1974-23.465 11.646-40.425 12.966 0.41974-5.352 0.24812-23.827 2.5744-24.91 20.032 6.6442 42.44-4.9446 53.403-10.402z" fill="url(#ak)"/>
  <path d="m329.84 827.67c0.63715 42.08 45.729 64.778 45.729 64.778-4.9778 41.33-27.159 40.548-27.159 40.548s73.449-1.7155 106.88-55.88c33.428-54.165 0.67696-100.11-14.278-114.83-14.955-14.717-31.125-21.648-31.125-21.648l-40.56 15.704s-40.121 29.245-39.484 71.324z" fill="url(#an)"/>
  <path d="m410.83 734.29c-0.58836-0.12419-1.1588-0.16741-1.7367-0.0986-19.653 9.0324-43.622 12.512-57.548 29.555-21.39 21.866-34.828 53.702-25.279 82.853 6.7111 20.525 22.864 37.425 42.035 48.95-1.9055 12.078-5.9177 27.782-20.399 31.515-4.8336 1.6591-8.6498 4.814-12.486 7.9158 17.591 8.2558 37.062 0.96448 54.647-3.1767 41.738-12.213 77.458-44.844 84.848-85.733 8.1742-42.403-16.036-87.351-56.519-108.18-2.3987-0.99683-5.0146-3.0562-7.5637-3.5961zm-0.94373 6.3365s16.154 6.9481 31.109 21.665c14.955 14.717 47.717 60.674 14.289 114.84-31.116 50.419-96.841 55.373-105.79 55.82 4.4634-0.46175 21.755-4.5762 26.08-40.491 0 0-45.099-22.72-45.737-64.8-0.63715-42.08 39.492-71.313 39.492-71.313l40.559-15.719z" fill="url(#am)"/>
  <path d="m391.54 761.66s-32.712 30.151-22.771 56.653c9.9413 26.501 18.131 25.74 29.748 43.912 6.3357 9.9108 1.3169 25.078 1.3169 25.078s24.876-10.351 38.011-54.619c13.135-44.269-7.0663-72.537-10.188-72.669-3.1218-0.13173-36.117 1.6458-36.117 1.6458z" fill="url(#al)"/>
  <path d="m335.19 477.71c-12.226 1.072-22.072 8.8319-34.825 24.489 0 0-13.532 3.0856-19.988 8.524-4.3731 4.36-6.8741 10.609-8.7525 16-10.321-2.865-21.663 11.518-23.924 20.601-4.636 17.837-0.32747 35.006 4.8661 52.545 4.0166 10.152 16.059 16.253 26.438 13.688 10.693 16.731 30.065 26.504 49.812 27.031 18.172 1.5738 37.27 1.7658 54.5-4.625 13.061-7.3163 7.726-31.556-7.75-31.438-12.066-0.5645-24.48 1.0075-36-2.9688-4.8003-1.4522-9.4445-3.1944-14.188-4.9688 17.485-0.71569 35.717-0.48208 52.188-6.8438 12.939-7.4252 11.746-30.615-3.4688-34.531-17.324-4.8015-35.271 5.7724-52.469-0.0937-6.1478-2.4928-8.3941-13.435-2.125-16.812 21.01-4.6384 42.842-5.4657 63.594-11.25 8.8932-5.8165 7.0142-18.565 3.4688-26.969-2.9294-5.7283-9.2492-9.2259-15.688-8.5625-6.5846 0.80431-13.06 2.3632-19.531 3.9375 1.4448-9.2772-3.2214-18.887-16.159-17.752z"/>
  <path d="m427.04 458.24c-8.1594-0.0994-17.485 6.002-15.5 15.031 0.0355 2.2132 0.47117 5.2162 1.625 7.5625-12.232 1.4582-26.117 7.3673-29.344 20.469-3.5197 10.385 3.0084 24.244 14.875 24.438 20.207 2.5085 39.43-5.8318 58.188-11.625 7.4715 0.48293 10.534 12.27 3.7188 16.031-14.135 13.954-35.787 16.4-54.875 13.719-8.5316-1.2882-20.938-1.0217-23.938 8.9375-4.0641 12.086 0.70185 27.649 12.344 33.531 13.822 3.5872 28.403 0.34671 42.219-1.9062 3.4701-0.77237 7.1891-1.7107 10.5-2.6562-17.467 10.135-38.289 12.035-56.656 19.875-7.968 6.3109-5.394 18.649-1.3125 26.531 3.7041 6.8505 11.766 9.4685 19.156 8.125 30.656-0.4161 63.812-12.578 79.688-40.281 1.916-1.646 2.2459-7.9656 4.8125-4.7812 4.6606 0.87091 9.1372-2.8158 13.438-4.3438 13.663-6.9477 25.399-22.739 25.031-38.473-0.33746-14.436 0.0881-30.51-13.04-39.643-2.8505-1.9831-10.902-2.4242-12.491-4.8527-1.6496-11.651-5.7244-25.998-17.906-30.406-5.5644-1.5829-8.941-2.0829-18.064-1.3497-5.4176-4.49-25.63-14.274-40.842-13.838-0.52978-0.0628-1.081-0.0871-1.625-0.0937z"/>
  <path d="m334.6 481.05c-6.7869 0.56957-17.341 11.13-25.156 20.062 3.1494-0.49695 6.3071-0.89216 9.4062-1.2188 9.5772 0.49194 18.837-1.4219 28.062-3.625 1.8967-6.1175-1.2694-14.289-11.188-15.219-0.35714-0.0335-0.74253-0.0321-1.125 0z" fill="url(#y)"/>
  <path d="m428.76 462.33c-15.688 0.41983-14.018 8.7188-12.344 15.75 0.20065 0.84272 0.56098 1.631 1.0312 2.375 15.462-1.4478 30.7-5.0722 46.125-7.2188-8.756-4.9344-20.85-10.483-31.438-10.875-1.2054-0.0446-2.3291-0.0592-3.375-0.0312z" fill="url(#aa)"/>
  <path d="m272.86 571.29s-3.5714-50.714 15.357-59.286c22.051-9.9855 36.449-7.3517 47.5-8.9286 15.185-2.1668 33.571-10.357 42.143-6.4286s10 23.571 3.5714 26.786c-6.4286 3.2143-58.929 8.5714-65.357 12.143s-5.6168 19.543 3.9286 23.214c18.571 7.1429 47.857-7.5 58.214 3.2143 7.3509 7.6044 5.3572 21.071-5 25.357-10.357 4.2857-52.5 6.0714-64.286 5.3571-11.786-0.71429 17.143 8.2143 17.143 8.2143s15 7.1428 31.786 7.5c16.786 0.35714 20.357-1.4286 24.643 2.8571 4.2857 4.2857 7.8571 17.143-2.5 21.786-10.357 4.6429-54.643 7.8572-76.071-2.5-21.429-10.357-30.714-36.071-30.714-36.071l2.6786 15.357s-18.393 3.2143-21.964-20.357c-3.5714-23.571-1.9643-44.643 6.4286-53.214 5.48-5.5966 10-3.9286 10-3.9286-2.6786 21.25 2.5 38.929 2.5 38.929z" fill="url(#x)"/>
  <path d="m503.14 529.34s1.8725-48.723-18.037-52.304c-17.186-3.091-33.719 3.2522-52.309 5.4987-15.273 1.8456-26.439 2.3688-35.218 7.2118-13.467 7.4291-14.129 27.899-1.585 31.456 6.7103 1.9025 25.017 2.4338 56.054-10.163 12.653-5.1352 21.158 12.06 13.548 19.758-32.738 33.115-70.638 7.39-79.022 21.06-5.9507 9.7021 0.72304 30.153 11.58 31.535 10.857 1.3816 44.953-0.13192 70.314-15.242-21.723 30.01-71.348 29.855-77.97 38.655-3.4937 5.5082-0.35956 24.972 10.684 25.442 24.13 1.0256 50.561-5.3725 69.855-21.804 19.294-16.432 26.298-50.208 26.298-50.208l-2.5938 26.879s27.323-7.0046 28.885-31.617c1.0434-16.445 0.6379-31.064-6.1431-39.442-4.7154-5.8262-11.162-6.8382-11.162-6.8382 1.1194 7.5731 0.43296 12.792-3.1762 20.124z" fill="url(#z)"/>
  <path d="m393.61 228.1c-55.344-5.7287-113.24 12.451-157.07 53.756-40.775 37.101-71.396 87.917-90.746 143.38 17.095 18.874 28.216 23.769 63.409 31.2 57.798 10.124 117.74 4.3579 175.99-2.4691 70.53-9.9332 151.59-33.089 212.66-77.169-1.2773-4.4348-2.8778-7.491-7.4345-13.53-41.398-78.547-116.96-129.78-196.81-135.17z"/>
  <path d="m151.09 423.86s59.48-188.29 217.08-191.31c157.6-3.0277 220.83 138.03 220.83 138.03s-84.141 72.462-246.92 82.505c-162.78 10.043-190.99-29.22-190.99-29.22z" fill="#9cdafb"/>
  <path d="m396.61 233.6c-9.1203-0.86676-18.584-1.257-28.433-1.0678-1.6852 0.0324-3.3667 0.0985-5.0295 0.1728 65.851 31.195 108.33 93.875 101.9 161.25-1.356 14.198-4.8142 27.754-10.069 40.457 88.625-24.737 134.01-63.815 134.01-63.815s-55.574-123.99-192.38-137z" fill="url(#ap)"/>
  <path d="m349.54 254.43c-73.887-7.6525-154.72 69.666-183.52 174.05 20.717 11.845 44.851 14.625 67.839 17.921 3.7461 0.39059 7.5023 0.76656 11.255 1.084 0.35037-3.5419 0.77997-7.1074 1.2656-10.682 11.968-88.106 61.762-158.68 120.16-179.02-5.4379-1.6186-11.111-2.7422-16.997-3.3518z" fill="url(#ao)"/>
  <path d="m386.82 208.23c-1.0194-0.15731-2.0312-0.28631-3.0452-0.40015-15.024-1.0188-31.96-0.88679-45.289 6.4129-15.909 3.8869-36.066 11.188-42.564 27.096-3.897 13.316 12.398 22.613 24.026 26.062 32.327 10.695 68.793 8.2553 99.623-5.2085 10.859-4.7103 27.768-13.937 23.366-26.872-5.4872-14.103-27.96-20.964-41.518-23.447-0.6372-0.0601-1.1628 2.9e-4 -1.6261 0.11228-4.0435-1.9228-8.5202-3.0684-12.973-3.7554z"/>
  <path transform="matrix(1.1759 -.018366 -.16725 1.1727 -10.139 84.048)" d="m371.99 127.19c0 7.0434-14.19 12.753-31.694 12.753s-31.694-5.7098-31.694-12.753c0-7.0434 14.19-12.753 31.694-12.753s31.694 5.7098 31.694 12.753z" fill="#f90"/>
  <path d="m406.62 217.82c3.3856 2.5328 5.1434 5.513 4.6803 8.7597-1.3771 9.6553-21.573 17.846-45.099 18.299-23.526 0.4529-41.488-7.0188-40.111-16.674 0.34043-2.3869 1.8264-4.7078 4.2322-6.8213-15.574 5.313-26.149 13.182-27.369 21.739-2.1486 15.064 25.53 26.651 61.848 25.889 36.318-0.7625 67.519-13.595 69.667-28.659 1.3971-9.7956-9.8413-18.113-27.849-22.531z" fill="#f90"/>
  <path transform="matrix(.96253 -.015033 -.1369 .95986 58.622 109.98)" d="m371.99 127.19c0 7.0434-14.19 12.753-31.694 12.753s-31.694-5.7098-31.694-12.753c0-7.0434 14.19-12.753 31.694-12.753s31.694 5.7098 31.694 12.753z" fill="url(#ab)"/>
  <path d="m416.19 226.4c-2.1686 13.931-18.673 18.424-30.657 21.111-19.521 3.9506-42.098 3.9848-59.106-7.6672-2.7234-2.3828-4.8135-5.6054-5.3245-9.199-6.2517 3.0579-16.106 9.6883-12.167 17.575 8.9392 12.181 26.116 13.418 40.187 15.301 25.745 1.9919 53.902-0.94872 75.274-15.918 5.2406-3.7404 7.4539-12.164 1.0725-16.055-2.5936-2.1392-6.4046-4.9327-9.2794-5.1484z" fill="url(#aq)"/>
  <path transform="matrix(.85986 -.10223 .12657 1.0646 85.294 -135.81)" d="m304.46 504.86c0 18.541-7.7151 33.571-17.232 33.571s-17.232-15.03-17.232-33.571 7.7151-33.571 17.232-33.571 17.232 15.03 17.232 33.571z"/>
  <path transform="matrix(.75044 -.08922 .11047 .92916 124.85 -71.15)" d="m304.46 504.86c0 18.541-7.7151 33.571-17.232 33.571s-17.232-15.03-17.232-33.571 7.7151-33.571 17.232-33.571 17.232 15.03 17.232 33.571z" fill="url(#ac)"/>
  <path transform="matrix(.37484 -.044565 .055177 .46411 254.78 140.04)" d="m304.46 504.86c0 18.541-7.7151 33.571-17.232 33.571s-17.232-15.03-17.232-33.571 7.7151-33.571 17.232-33.571 17.232 15.03 17.232 33.571z" fill="#fff"/>
  <path transform="matrix(.45354 -.032168 .045827 .51422 200.22 126.82)" d="m304.46 504.86c0 18.541-7.7151 33.571-17.232 33.571s-17.232-15.03-17.232-33.571 7.7151-33.571 17.232-33.571 17.232 15.03 17.232 33.571z"/>
  <path transform="matrix(.19771 -.014023 .019977 .22416 283.88 262.75)" d="m304.46 504.86c0 18.541-7.7151 33.571-17.232 33.571s-17.232-15.03-17.232-33.571 7.7151-33.571 17.232-33.571 17.232 15.03 17.232 33.571z" fill="#fff"/>
  <path d="m453.9 397.31s38.007-36.493 37.357-65.364c-5.8652-3.5229-30.408-0.0984-30.408-0.0984s25.024-23.203 50.216-12.903c19.933 8.1499 15.844 36.421 15.844 36.421s-9.0642-16.273-16.902-17.732c-12.622 45.146-56.107 59.676-56.107 59.676z"/>
  <path d="m248.57 356.54c3.4017-6.1449 26.497-16.543 26.497-16.543s-33.163-6.0155-50.131 16.304c-13.425 17.661-2.8837 43.322-2.8837 43.322s4.5207-20.646 10.651-26.119c28.242 35.269 61.969 50.777 61.969 50.777s-39.911-36.737-46.103-67.743z"/>
 </g>
</svg>
