<?xml version="1.0" encoding="UTF-8"?>
<svg version="1.1" viewBox="0 0 543.86 628.51" xmlns="http://www.w3.org/2000/svg" xmlns:xlink="http://www.w3.org/1999/xlink">
 <defs>
  <linearGradient id="ae" x1="402.37" x2="384.41" y1="915.92" y2="806.28" gradientTransform="matrix(1.0857 0 0 1.0857 2.3057 -164.83)" gradientUnits="userSpaceOnUse">
   <stop stop-color="#ff0" offset="0"/>
   <stop stop-color="#ff0" stop-opacity="0" offset="1"/>
  </linearGradient>
  <linearGradient id="af" x1="397.67" x2="366.45" y1="972.9" y2="816.83" gradientTransform="translate(36.809 -94.449)" gradientUnits="userSpaceOnUse">
   <stop offset="0"/>
   <stop stop-opacity="0" offset="1"/>
  </linearGradient>
  <linearGradient id="ag" x1="377.17" x2="372.08" y1="987.52" y2="827.17" gradientTransform="translate(36.809 -94.449)" gradientUnits="userSpaceOnUse">
   <stop stop-color="#f00" offset="0"/>
   <stop stop-color="#f00" stop-opacity="0" offset="1"/>
  </linearGradient>
  <linearGradient id="ah" x1="532.61" x2="462.28" y1="515.02" y2="446.08" gradientTransform="translate(38.523 -96.646)" gradientUnits="userSpaceOnUse" xlink:href="#y"/>
  <linearGradient id="y">
   <stop stop-color="#f90" offset="0"/>
   <stop stop-color="#fff" offset="1"/>
  </linearGradient>
  <linearGradient id="ac" x1="475.32" x2="457.72" y1="482.37" y2="436.65" gradientUnits="userSpaceOnUse" xlink:href="#y"/>
  <linearGradient id="ab" x1="289.55" x2="287.07" y1="526.78" y2="466.31" gradientUnits="userSpaceOnUse">
   <stop stop-color="#00f" offset="0"/>
   <stop stop-opacity="0" offset="1"/>
  </linearGradient>
  <linearGradient id="ai" x1="356.41" x2="288.22" y1="104.42" y2="102.45" gradientTransform="translate(7.86 209.46)" gradientUnits="userSpaceOnUse" xlink:href="#y"/>
  <linearGradient id="ad" x1="365.11" x2="313.37" y1="127.82" y2="126.45" gradientUnits="userSpaceOnUse" xlink:href="#y"/>
  <linearGradient id="aj" x1="489.87" x2="498.62" y1="632.77" y2="654.23" gradientTransform="translate(38.71 -93.572)" gradientUnits="userSpaceOnUse" xlink:href="#z"/>
  <linearGradient id="z">
   <stop stop-color="#fff" offset="0"/>
   <stop stop-color="#cecece" offset="1"/>
  </linearGradient>
  <linearGradient id="ak" x1="544.4" x2="530.46" y1="686.05" y2="684.62" gradientTransform="translate(38.71 -93.572)" gradientUnits="userSpaceOnUse" xlink:href="#z"/>
  <linearGradient id="al" x1="523.5" x2="507.85" y1="666.86" y2="669.54" gradientTransform="translate(38.71 -93.572)" gradientUnits="userSpaceOnUse" xlink:href="#z"/>
  <linearGradient id="am" x1="504.02" x2="514.06" y1="584.16" y2="607.14" gradientTransform="translate(38.71 -93.572)" gradientUnits="userSpaceOnUse" xlink:href="#y"/>
  <linearGradient id="aq" x1="343.07" x2="419.03" y1="796.06" y2="771.06" gradientTransform="translate(39.893 -96.378)" gradientUnits="userSpaceOnUse">
   <stop stop-color="#969696" offset="0"/>
   <stop stop-color="#5a5a5a" offset="1"/>
  </linearGradient>
  <linearGradient id="ar" x1="299.75" x2="273.4" y1="756.41" y2="644.98" gradientTransform="translate(39.893 -96.378)" gradientUnits="userSpaceOnUse">
   <stop stop-color="#36f" offset="0"/>
   <stop stop-color="#fff" offset="1"/>
  </linearGradient>
  <linearGradient id="as" x1="181.87" x2="240.02" y1="532.23" y2="436.26" gradientTransform="translate(39.893 -96.378)" gradientUnits="userSpaceOnUse">
   <stop stop-color="#9cdafb" offset="0"/>
   <stop stop-color="#fff" offset="1"/>
  </linearGradient>
  <linearGradient id="at" x1="363.66" x2="475.7" y1="474.68" y2="435.28" gradientTransform="translate(39.893 -96.378)" gradientUnits="userSpaceOnUse">
   <stop stop-color="#9cdafb" offset="0"/>
   <stop stop-color="#1aa9f6" offset="1"/>
  </linearGradient>
  <linearGradient id="au" x1="375.05" x2="385.19" y1="587.94" y2="521.77" gradientTransform="translate(39.893 -96.378)" gradientUnits="userSpaceOnUse" xlink:href="#aa"/>
  <linearGradient id="aa">
   <stop stop-color="#f90" offset="0"/>
   <stop stop-color="#8d5500" offset="1"/>
  </linearGradient>
  <linearGradient id="av" x1="362.79" x2="438.37" y1="690.61" y2="604.74" gradientTransform="translate(39.893 -96.378)" gradientUnits="userSpaceOnUse">
   <stop stop-color="#36f" offset="0"/>
   <stop stop-color="#00279c" offset="1"/>
  </linearGradient>
  <linearGradient id="an" x1="72.559" x2="98.317" y1="659.24" y2="675.67" gradientTransform="translate(40.04 -95.439)" gradientUnits="userSpaceOnUse" xlink:href="#z"/>
  <linearGradient id="ao" x1="160.53" x2="151.63" y1="707.24" y2="759.74" gradientTransform="translate(40.04 -95.439)" gradientUnits="userSpaceOnUse" xlink:href="#z"/>
  <linearGradient id="ap" x1="190.93" x2="217.78" y1="672.72" y2="616.65" gradientTransform="translate(40.04 -95.439)" gradientUnits="userSpaceOnUse" xlink:href="#aa"/>
 </defs>
 <g transform="translate(-88.068 -270.25)">
  <path d="m352.89 274.25c-0.82909-8e-3 -1.6489 5e-3 -2.4688 0.0312-12.071 0.92958-25.534 3.0169-35.312 10.5-9.9712 4.0922-20.616 9.4115-26.031 18.656-19.487 8.8099-37.478 20.822-52.781 35.906-33.117 31.655-56.142 73.007-68.656 117 14.568 11.357 33.284 13.868 51.312 15.656 7.7821 15.016 15.553 30.037 23.375 45.031-3.0922 14.963-7.7791 29.587-14.875 43.094-0.68871-0.062-1.3879-0.0888-2.0938-0.0937-3.2144-0.55248-8.5097 2.4643-9.0625-2.4375-4.1329-8.5039-11.443-17.703-21.844-17.438-11.803 2.1095-20.354 10.478-27.781 19.531-11.923-9.974-27.418-15.53-43.094-14.5-14.698 0.29169-27.07 12.06-30.062 26.156-2.7648 8.241-2.2483 20.944 7.6875 23.719 9.9031 2.5691 20.421-2.6939 30.188 1.6875 5.2467 1.6275 10.199 3.965 15.125 6.375 0.022 4.7201 0.86088 9.4178 2.6875 14 8.1828 25.815 32.405 42.713 57.375 50.438 14.583 4.657 32.404 3.883 43.562-7.7188 13.926-13.995 21.532-33.27 26.125-52.219 1.1784-7.1316 2.3228-17.472-5.6562-21.031-4.8928-2.3066-10.559-1.773-15.75-0.90625 8.401-15.393 14.081-32.453 15.781-49.906 18.121 45.631 36.181 91.259 54.219 136.88 4.8568 1.0171 9.7565 1.8615 14.688 2.5625 4.8183 14.366 9.6076 28.743 14.469 43.094 33.073 8.2084 70.307 7.311 99.844-11.031 7.3348-4.1047 14.356-8.7161 20.969-13.906-0.30189-14.384-0.49434-28.771-0.75-43.156 1.0352-0.62785 2.0706-1.2557 3.0938-1.9062 4.4578-2.6888 7.6799-7.0812 6.5625-12.625 0.65836-10.313 1.3106-20.625 1.9688-30.938 7.0769 4.2248 14.592 7.7546 22.156 10.875 13.761 4.8097 29.535 3.6583 42.094-3.8125 13.229-2.2704 28.003-3.869 37.5-14.094 6.4111-8.1845 3.8611-23.557-7.5625-25.469-1.6072-0.46201-3.294-0.6614-4.9688-0.53125-1.0817-0.0656-2.0884 0.0917-3 0.40625-0.37184-5.7895-3.8351-11.298-10.062-11.688-0.20844-0.0305-0.41584-0.0648-0.625-0.0937-0.10467-1.6833-0.3341-3.3776-0.75-5.0312-0.0105-0.0419-0.0205-0.0831-0.0312-0.125-0.01-0.0419-0.0213-0.0832-0.0312-0.125-3e-3 -0.01 3e-3 -0.0217 0-0.0312-0.82119-3.3928-2.3002-6.5765-4.625-9.0625-0.0645-0.0689-0.12172-0.15092-0.1875-0.21875-0.95071-1.0525-2.0053-1.9729-3.1875-2.7188 0.74158-0.51827 1.433-1.0967 2.0312-1.7188 2.0044-1.4816 4.0126-3.0381 2.7188-4.1562 1.8547-4.2867 1.7646-9.4562 0.25-13.969-0.51381-2.7345-1.2887-5.469-2.0938-8.1875 10.004-8.3422 18.996-17.822 25.656-29.219 5.2129-7.8889 11.04-15.733 15.062-24.25 0.55207-0.10535 1.1066-0.24373 1.6562-0.375 21.452-3.8796 35.511-26.149 28.344-45-5.0507-15.067-21.624-25.636-39.062-24.688-3.7898 0.0824-7.4399 0.75057-10.906 1.875-4.7863-3.9321-9.5574-7.9011-14.312-11.875 1.3378-1.6202 1.5124-3.3987-1.375-5.5312-7.5737-10.199-16.08-19.656-25.344-28.344-0.28099-1.3309-0.64258-2.6312-1.0938-3.9375-4.8888-16.055-20.933-27.324-37.812-26.312-0.51582 0.0124-1.0201 0.0264-1.5312 0.0625-22.471-13.169-47.195-22.562-72.688-27.469-8.771-1.6902-17.63-2.8723-26.531-3.5625-6.6965-8.8014-20.228-10.477-30.469-10.875-0.51389 0.0257-0.9253 0.13618-1.2812 0.28125-3.436-1.0878-7.1285-1.4943-10.75-1.5312zm178.94 128.44c6.1213 6.7433 12.248 13.496 18.344 20.25-0.36858 3.0183-0.28007 6.1052 0.34375 9.1875 1.3361 9.8507 7.8148 18.38 16.625 23.812-7.0816 10.928-16.421 20.563-27.531 27.188-4.3427-4.6542-10.288-8.15-16.812-7.6875-10.546 0.48433-18.266 10.535-18.844 20.594-3.9576 0.0954-7.7929 0.78365-11.469 1.9375 0.18677-2.969 0.37612-5.9371 0.5625-8.9062 2.4128-1.4236 4.8083-2.8603 7.1875-4.3438 3.2954-23.212 6.6027-46.423 9.9688-69.625 7.3444-3.8904 14.559-8.0196 21.625-12.406z" stroke="#000" stroke-linejoin="round" stroke-width="8"/>
  <path d="m245.79 490.9-0.40625 3.6875c-2.4693 22.9-7.74 45.956-18.5 66.438-0.68871-0.062-1.3879-0.0888-2.0938-0.0937-3.2144-0.55248-8.5097 2.4643-9.0625-2.4375-4.1329-8.5039-11.443-17.703-21.844-17.438-11.803 2.1095-20.354 10.478-27.781 19.531-11.923-9.974-27.418-15.53-43.094-14.5-14.698 0.29169-27.07 12.06-30.063 26.156-2.7649 8.241-2.2483 20.944 7.6875 23.719 9.9031 2.5691 20.421-2.6939 30.187 1.6875 5.2467 1.6275 10.199 3.965 15.125 6.375 0.022 4.7201 0.86088 9.4178 2.6875 14 8.1828 25.815 32.405 42.713 57.375 50.438 14.583 4.657 32.404 3.883 43.562-7.7188 13.926-13.995 21.532-33.27 26.125-52.219 1.1784-7.1316 2.3228-17.472-5.6562-21.031-4.8928-2.3066-10.559-1.773-15.75-0.90625 12.571-23.033 19.043-49.814 15.219-76.031-7.8886-6.5734-15.803-13.115-23.719-19.656z"/>
  <path d="m248.98 498.72s-1.7812 19.286-9.2812 42.5c-2.3069 7.1404-5.4812 14.176-8.7812 20.531 9.7223 2.5133 17.311 10.627 21.375 19.906 3.456-6.5426 6.9384-14.423 9.5312-23.312 7.5-25.714 3.9375-45.719 3.9375-45.719l-16.781-13.906z" fill="url(#ap)"/>
  <path d="m251.47 591.92s17.5-6.7857 20.714 3.9286c3.2143 10.714-12.5 60.357-36.429 69.286-23.929 8.9286-62.857-13.571-74.286-30.714s-16.429-34.286-5-53.571c11.429-19.286 31.071-40.357 42.5-35 11.429 5.3572 15.357 20 15.357 20s14.643-3.5714 24.286 3.9286 12.857 22.143 12.857 22.143z" fill="url(#ao)" stroke="#000" stroke-width="1px"/>
  <path d="m127.66 550.06c-3.0284-0.0153-6.1696 0.22321-9.4062 0.78125-20.714 3.5714-26.076 32.522-20.719 38.594 5.3571 6.0714 12.844 1.7857 25.344 2.5 6.3677 0.36387 15.703 3.9673 23.281 7.75 0.99125-10.29 5.5465-20.331 11.688-28.594 1.8605-2.3703 3.7718-4.8389 5.7188-7.3125-7.3629-6.4682-20.087-13.639-35.906-13.719z" fill="url(#an)" stroke="#000" stroke-width="1px"/>
  <path d="m377.52 286.56c-2.1032-0.01-4.2081 0.0169-6.3125 0.0625-49.835 7e-3 -99.885 18.552-135.47 53.625-33.117 31.655-56.142 73.007-68.656 117 14.568 11.357 33.284 13.868 51.312 15.656 9.2149 17.781 17.762 37.087 27.056 54.828 7.497 3.1029 16.295 5.4377 24.074 7.56 18.476 46.517 36.388 91.766 54.776 138.27 4.8568 1.0171 9.7565 1.8615 14.688 2.5625 4.8183 14.366 9.6076 28.743 14.469 43.094 33.073 8.2084 70.307 7.311 99.844-11.031 7.3348-4.1047 14.356-8.7161 20.969-13.906-0.30189-14.384-0.49434-28.771-0.75-43.156 1.0352-0.62785 2.0706-1.2557 3.0938-1.9062 4.4578-2.6888 7.6799-7.0812 6.5625-12.625 3.1203-48.878 6.2442-97.744 9.3125-146.62 2.4128-1.4236 4.8083-2.8603 7.1875-4.3438 3.2954-23.212 6.6027-46.423 9.9688-69.625 16.404-8.6892 32.178-18.574 47.031-29.844 3.4678-2.7588 8.4039-5.4366 3.1562-9.3125-33.113-44.593-84.006-75.516-138.47-86-14.444-2.7833-29.122-4.2138-43.844-4.2812z"/>
  <path d="m171.69 455.77s36.993-148.91 177.22-163.73c140.23-14.819 208.6 88.19 208.6 88.19s-68.837 62.167-213.09 82.768c-144.25 20.602-172.74-7.2287-172.74-7.2287z" fill="#9cdafb"/>
  <path d="m505.27 418.25c-64.807 33.127-138.02 48.595-210.34 54.406-23.666 1.4684-47.9 3.0426-71.656 1l25.719 49.469s55.06 25.261 126.78 8.5938c71.721-16.668 120.22-48.469 120.22-48.469l9.2812-65z" fill="#f90"/>
  <path d="m488.36 492.37c-26.4 15.104-54.694 26.742-83.781 35.688-41.767 14.048-87.394 18.788-130.28 8.2289l52.964 133.83s39.913 9.5964 85.875 0 65.656-27.781 65.656-27.781z" fill="#36f"/>
  <path d="m469.58 653.4c-37.746 21.668-82.997 28.528-126.19 23.312l13.116 39.121s31.936 8.1476 61.562 2c27.24-5.6525 52.134-25.496 52.134-25.496z" fill="#969696"/>
  <path d="m488.36 492.37c-26.4 15.104-54.694 26.742-83.781 35.688-15 5.0449-30.571 8.7379-46.344 10.938 56.613 17.595 100.87 56.264 119.09 104.56 0.94089-0.75201 1.4688-1.2188 1.4688-1.2188l9.5625-149.97z" fill="url(#av)"/>
  <path d="m505.27 418.25c-64.807 33.127-138.02 48.595-210.34 54.406-8.9882 0.55767-18.062 1.1157-27.156 1.5-1.8806 0.80115-3.7429 1.6065-5.6562 2.4375 116.36-2.1274 196.27-4.1198 233.88 6.5938l9.2812-64.938z" fill="url(#au)"/>
  <path d="m374.36 290.59c-8.2039 0.0596-16.673 0.51133-25.438 1.4375-1.4995 0.15846-2.9928 0.34247-4.4688 0.53125 61.358 18.667 104.56 63.299 104.56 115.41 0 10.981-1.9287 21.636-5.5312 31.781 76.898-25.974 114.03-59.5 114.03-59.5s-60.097-90.55-183.16-89.656z" fill="url(#at)"/>
  <path d="m334.17 310.28c-66.517 0-131.99 65.624-148.78 147.84 19.476 7.4276 41.227 7.6426 62 8.3438 3.3727 2e-3 6.753-8e-3 10.125-0.0625 0.0108-2.7402 0.0902-5.5049 0.21875-8.2812 3.1677-68.423 41.548-126.42 91.875-146.62-4.9853-0.80824-10.138-1.2188-15.438-1.2188z" fill="url(#as)"/>
  <path d="m289.64 542.56 45.656 124.94c13.671 2.2068 27.636 3.1649 41.562 2.7812l-24.688-126.47c-20.757 2.313-41.897 2.0323-62.531-1.25z" fill="url(#ar)"/>
  <path d="m469.58 653.4c-25.75 14.782-54.988 22.665-84.688 24.531 2.1501 1.2022 3.9873 2.4478 5.3438 3.75 8.9286 8.5714 11.812 25 11.812 25s-0.72768-28.924 12.844-26.781c13.571 2.1429 18.938 25 18.938 25s-0.37053-26.781 7.8438-26.781c8.2143 0 16.781 21.781 16.781 21.781h0.875c6.7159-4.2736 10.875-7.5625 10.875-7.5625l-0.625-38.938z" fill="url(#aq)"/>
  <path d="m584.24 445.33c-0.46259 8e-3 -0.93484 0.0294-1.4062 0.0937-6.8061 0.32756-13.811 4.066-15.875 10.844-7.124 11.162-16.604 21.011-27.906 27.75-4.3427-4.6542-10.288-8.15-16.812-7.6875-10.546 0.48433-18.266 10.535-18.844 20.594-22.728 0.54779-41.944 19.951-44.625 42.125-3.9351 17.928-5.0498 40.197 9.25 53.875 11.243 10.552 25.176 17.775 39.281 23.594 13.761 4.8097 29.535 3.6583 42.094-3.8125 13.229-2.2704 28.003-3.869 37.5-14.094 6.4111-8.1845 3.8611-23.557-7.5625-25.469-1.6072-0.46201-3.294-0.6614-4.9688-0.53125-1.0817-0.0656-2.0884 0.0917-3 0.40625-0.37184-5.7895-3.8351-11.298-10.062-11.688-0.20844-0.0305-0.41584-0.0646-0.625-0.0937-0.10467-1.6833-0.3341-3.3776-0.75-5.0312-0.0105-0.0419-0.0205-0.0831-0.0312-0.125-0.01-0.0419-0.0212-0.0832-0.0312-0.125-3e-3 -0.01 3e-3 -0.0217 0-0.0312-0.82119-3.3928-2.3002-6.5765-4.625-9.0625-0.0645-0.0689-0.12172-0.15092-0.1875-0.21875-0.95071-1.0525-2.0053-1.9729-3.1875-2.7188 0.74158-0.51827 1.433-1.0967 2.0312-1.7188 2.0044-1.4816 4.0126-3.0381 2.7188-4.1562 1.8547-4.2867 1.7646-9.4562 0.25-13.969-0.51381-2.7345-1.2887-5.469-2.0938-8.1875 10.004-8.3422 18.996-17.822 25.656-29.219 6.0757-9.1946 12.993-18.318 16.906-28.531-0.35695-6.8741-6.155-12.93-13.094-12.812z"/>
  <path d="m533.35 491.11s6.6071-0.71429 20.714-13.393c14.107-12.679 19.643-25.357 19.643-25.357 18.94-9.3439 19.643 6.4286 19.643 6.4286s-22.143 38.393-35.536 49.286-16.964 13.393-16.964 13.393-10.357-10.714-7.5-30.357z" fill="#f90"/>
  <path d="m522.68 480.33c-8.386 0.27321-13.935 7.9627-15 14.781-1.1313 7.2401 1 19.469 1 19.469s-4.5287-3.8073-4.7812-13.656c0 0-34.616-0.50747-41.688 40.656-7.0711 41.164 6.063 48.993 27.781 62.125s38.392 14.662 52.281 7.8438c13.89-6.8185 23.487-11.355 21.719-22.719-1.7678-11.364-25.252-10.374-34.344-7.3438-9.0914 3.0304-16.156 4.5625-16.156 4.5625s7.305-25.27-1.2812-41.938c-8.5863-16.668-20.438-17.656-20.438-17.656s17.924 0.7573 25.5 18.688c7.5761 17.93 2.5312 35.344 2.5312 35.344l7.1875-1.9688c8.3439-7.5709 16.939-15.575 28.281-17.469 0.42229-0.0271 0.83112-0.0131 1.25 0-0.13851-3.0401-0.81937-6.307-2.625-9.3438-5.5558-9.3439-13.024-2.1444-19.969-6.4375 0 0 12.189 0.41153 18.438-7.4688 3.0016-3.7851 0.94452-12.529-1.0714-19.46-8.1815 4.62-9.207 6.5281-10.46 10.366-6.2254-5.5834-10.114-15.391-11.406-23.562-0.0154-5.4484-2.2971-12.31 1.4375-16.938 1.5326-0.6559 3.0228-1.3908 4.5-2.1562-2.2779-2.338-4.8822-4.2152-7.75-5.0625-1.7362-0.51297-3.3845-0.70685-4.9375-0.65625z" fill="#fff"/>
  <path d="m566.77 483.27c-6.7794-0.18616-24.414 10.146-33.875 16 0.30621 9.3408 3.5256 15.89 5.7812 19.344 3.5808-3.3299 9.334-8.409 15.438-12.531 9.9693-6.7331 22.087-22.554 12.656-22.812z" fill="url(#am)"/>
  <path d="m549.87 566.97c-3.9391 1.5402-9.9441 6.1408-13.191 8.8347 0.90279 0.31777 4.9195-0.58036 6.5625-0.3125 6.9907-0.30003 16.106 0.90753 21.188 6.0625 1.2079-1.587 2.8438-4.1216 2.8438-6.1562 0-3.2143 0.10714-8.8259-5.3918-9.9132-5.499-1.0874-8.0722-0.0554-12.011 1.4848z" fill="url(#al)"/>
  <path d="m575.15 576.58c-1.4532 0.0198-2.9949 0.39245-4.7188 1.25-0.50383 2.7369-1.5908 5.4837-3.2188 7.9375 0.28143 0.67971 0.5141 1.3899 0.6875 2.1562 1.8698 7.954-2.9714 14.721-9.25 19.375 9.1346-2.1703 20.834-5.7416 24.406-10.281 6.0609-7.7024 2.5406-17.422-1.5-18.938-2.2728-0.85232-4.2658-1.5291-6.4062-1.5z" fill="url(#ak)"/>
  <path d="m529.65 535.27c-5.8734 0-11.447 1.0144-16.469 2.7812 1.544 1.9993 2.9335 4.3479 4.0938 7.0938 7.5761 17.93 2.5312 35.344 2.5312 35.344l7.1875-1.9688c8.3439-7.5709 16.939-15.575 28.281-17.469 0.42229-0.0271 0.83112-0.0131 1.25 0-0.13851-3.0401-0.81937-6.307-2.625-9.3438-5.5558-9.3439-13.024-2.1444-19.969-6.4375 0 0 9.9714 0.33417 16.5-5.4375-6.055-2.8717-13.164-4.5625-20.781-4.5625z" fill="url(#aj)"/>
  <path d="m586.43 392.35c-22.28 0.48451-40.522 20.666-36.475 40.662 2.6721 19.701 25.974 34.113 47.18 29.048 21.452-3.8796 35.522-26.169 28.355-45.021-5.0507-15.067-21.621-25.639-39.059-24.69z"/>
  <path transform="matrix(1.0331 0 0 .93845 100.1 -6.9117)" d="m506.84 463.06c0 18.899-15.32 34.219-34.219 34.219s-34.219-15.32-34.219-34.219 15.32-34.219 34.219-34.219 34.219 15.32 34.219 34.219z" fill="#f90"/>
  <path transform="matrix(.91875 0 0 .83456 154.15 41.195)" d="m506.84 463.06c0 18.899-15.32 34.219-34.219 34.219s-34.219-15.32-34.219-34.219 15.32-34.219 34.219-34.219 34.219 15.32 34.219 34.219z" fill="url(#ac)"/>
  <path d="m352.33 275.14c-0.82909-8e-3 -1.6489 5e-3 -2.4688 0.0312-12.071 0.92958-25.534 3.0169-35.312 10.5-12.219 5.0148-25.478 11.86-28.844 25.531-1.5898 11.263 10.481 18.342 20.125 19.781 26.939 4.9009 55.681-1.3427 78.688-15.875 8.107-5.0927 16.784-15.579 11.812-25.562-5.9674-10.805-20.898-12.726-31.969-13.156-0.51389 0.0257-0.9253 0.13618-1.2812 0.28125-3.436-1.0878-7.1285-1.4943-10.75-1.5312z"/>
  <path transform="matrix(.93371 -.15239 0 .97135 22.338 220.76)" d="m371.99 127.19c0 7.0434-14.19 12.753-31.694 12.753s-31.694-5.7098-31.694-12.753c0-7.0434 14.19-12.753 31.694-12.753s31.694 5.7098 31.694 12.753z" fill="#f90"/>
  <path d="m369.17 280.61c2.9817 1.6599 4.7188 3.8732 4.7188 6.5625 0 7.9976-15.142 17.007-33.812 20.125s-33.812-0.84611-33.812-8.8438c0-1.9771 0.91906-4.0346 2.5938-6.0312-11.791 6.1331-19.312 13.757-19.312 20.844 0 12.478 23.341 18.646 52.156 13.781s52.188-18.928 52.188-31.406c0-8.1139-9.8874-13.551-24.719-15.031z" fill="#f90"/>
  <path transform="matrix(.76426 -.12474 0 .79507 80 233.77)" d="m371.99 127.19c0 7.0434-14.19 12.753-31.694 12.753s-31.694-5.7098-31.694-12.753c0-7.0434 14.19-12.753 31.694-12.753s31.694 5.7098 31.694 12.753z" fill="url(#ad)"/>
  <path d="m377.76 286.45c-0.14458 11.56-12.769 17.137-22 20.719-15.086 5.4887-33.048 8.1561-47.906 0.6875-2.4377-1.6155-4.4667-3.9868-5.2812-6.8438-4.628 3.2128-11.717 9.7465-7.6875 15.688 8.4962 8.8412 22.306 7.8369 33.717 7.7208 20.714-1.3933 42.787-7.0721 58.096-21.721 3.7459-3.6486 4.5511-10.744-0.96875-13.156-2.3067-1.433-5.6566-3.2548-7.9688-3.0938z" fill="url(#ai)"/>
  <path transform="matrix(.94882 0 0 1.0083 53.895 -100.26)" d="m304.46 504.86c0 18.541-7.7151 33.571-17.232 33.571s-17.232-15.03-17.232-33.571 7.7151-33.571 17.232-33.571 17.232 15.03 17.232 33.571z"/>
  <path transform="matrix(.82808 0 0 .87999 88.575 -35.48)" d="m304.46 504.86c0 18.541-7.7151 33.571-17.232 33.571s-17.232-15.03-17.232-33.571 7.7151-33.571 17.232-33.571 17.232 15.03 17.232 33.571z" fill="url(#ab)"/>
  <path transform="matrix(.41362 0 0 .43955 202.62 176.17)" d="m304.46 504.86c0 18.541-7.7151 33.571-17.232 33.571s-17.232-15.03-17.232-33.571 7.7151-33.571 17.232-33.571 17.232 15.03 17.232 33.571z" fill="#fff"/>
  <path transform="matrix(.70012 0 0 .91788 65.688 -49.428)" d="m304.46 504.86c0 18.541-7.7151 33.571-17.232 33.571s-17.232-15.03-17.232-33.571 7.7151-33.571 17.232-33.571 17.232 15.03 17.232 33.571z"/>
  <path transform="matrix(.61102 0 0 .80108 91.278 9.542)" d="m304.46 504.86c0 18.541-7.7151 33.571-17.232 33.571s-17.232-15.03-17.232-33.571 7.7151-33.571 17.232-33.571 17.232 15.03 17.232 33.571z" fill="url(#ab)"/>
  <path transform="matrix(.3052 0 0 .40013 175.43 202.21)" d="m304.46 504.86c0 18.541-7.7151 33.571-17.232 33.571s-17.232-15.03-17.232-33.571 7.7151-33.571 17.232-33.571 17.232 15.03 17.232 33.571z" fill="#fff"/>
  <path d="m368.85 445.47s38.512-26.39 41.543-51.265c-4.7982-3.7881-27.148-4.0406-27.148-4.0406s25.254-16.668 46.467-4.5457c16.785 9.5913 9.5964 33.335 9.5964 33.335s-6.0609-15.152-12.879-17.425c-16.92 37.123-57.579 43.942-57.579 43.942z"/>
  <path d="m496.65 318.07c-21.565 0.51629-39.223 22.021-35.306 43.329 2.5865 20.994 25.141 36.35 45.667 30.954 20.764-4.134 34.384-27.886 27.446-47.973-4.8888-16.055-20.928-27.32-37.807-26.309z"/>
  <path transform="translate(25.904 -107.38)" d="m506.84 463.06c0 18.899-15.32 34.219-34.219 34.219s-34.219-15.32-34.219-34.219 15.32-34.219 34.219-34.219 34.219 15.32 34.219 34.219z" fill="#f90"/>
  <path transform="matrix(.8893 0 0 .8893 78.225 -56.114)" d="m506.84 463.06c0 18.899-15.32 34.219-34.219 34.219s-34.219-15.32-34.219-34.219 15.32-34.219 34.219-34.219 34.219 15.32 34.219 34.219z" fill="url(#ac)"/>
  <path d="m506.74 344.82c-9.131 0.76528-10.668 12.254-8.0312 19.25 2.6352 10.591 13.089 16.153 19.095 24.68 12.503 13.766 24.971 27.474 37.373 41.257 12.225-0.35865 27.578 0.33059 35.719-10.531 3.5237-4.8786 2.9522-13.371-3.4062-15.562-23.61-18.649-45.948-39.071-70.312-56.594-3.2004-1.6799-6.7784-2.8419-10.437-2.5z"/>
  <path d="m519.73 353.54 69.322 56.821s1.389 8.2075-7.8287 12.122c-9.2176 3.9143-24.244 3.5355-24.244 3.5355l-53.033-58.463s-5.3033-13.763 0.25253-17.678c5.5558-3.9143 15.531 3.6618 15.531 3.6618z" fill="#f90"/>
  <path d="m507.55 352.82c-4.1458 1.2808-1.738 7.9281-0.625 10.75 3.3056 8.381 11.991 13.084 17.205 20.295 11.536 12.704 23.072 25.407 34.607 38.111 8.7166-0.73358 20.462-1.8329 25.906-10.054-30.553-23.018-50.92-42.901-71.438-57.633-1.5591-1.1195-3.7556-2.0559-5.6562-1.4688z" fill="url(#ah)"/>
  <path d="m360.56 798.31c10.354 39.396 54.801 51.013 54.801 51.013 5.3033 39.901-14.142 43.942-14.142 43.942s63.387-17.425 79.802-75.509-22.728-94.197-39.143-104.8-32.072-13.637-32.072-13.637l-31.567 23.486s-28.032 36.113-17.678 75.509z" fill="url(#ag)"/>
  <path d="m409.15 693.14c-0.53989 0.01-1.0453 0.0922-1.5312 0.28125-14.964 12.717-34.969 21.147-43.094 40.156-13.484 25.148-17.739 57.95-2.6562 83.281 10.609 17.838 28.573 30.237 47.906 36.938 1.1583 11.758 1.3316 27.375-10.375 34-3.8113 2.5994-6.3907 6.385-9 10.125 17.199 3.969 32.411-7.0733 46.719-14.75 33.403-20.46 56.823-58.807 53.719-98.812-2.7772-41.597-34.272-78.612-74.281-89.469-2.3153-0.42007-5.0667-1.7917-7.4062-1.75zm0.65625 6.1562s15.648 3.0496 32.062 13.656 55.571 46.729 39.156 104.81c-15.28 54.067-71.205 72.872-78.875 75.219 3.7687-1.3948 17.827-8.9831 13.219-43.656 0 0-44.458-11.635-54.812-51.031s17.688-75.5 17.688-75.5l31.562-23.5z" fill="url(#af)"/>
  <path d="m398.77 723.01s-21.386 35.37-6.5804 58.127c14.806 22.757 21.741 20.279 36.062 34.85 7.8106 7.947 6.9845 23.277 6.9845 23.277s19.193-15.08 20.29-59.498c1.0967-44.418-23.031-66.627-25.773-66.078-2.7418 0.54836-30.983 9.3222-30.983 9.3222z" fill="url(#ae)"/>
 </g>
</svg>
