<?xml version="1.0" encoding="UTF-8"?>
<svg version="1.1" viewBox="0 0 601.42 713.34" xmlns="http://www.w3.org/2000/svg" xmlns:xlink="http://www.w3.org/1999/xlink">
 <defs>
  <linearGradient id="bd" x1="365.11" x2="313.37" y1="127.82" y2="126.45" gradientUnits="userSpaceOnUse" xlink:href="#ac"/>
  <linearGradient id="ac">
   <stop stop-color="#f90" offset="0"/>
   <stop stop-color="#fff" offset="1"/>
  </linearGradient>
  <linearGradient id="ad">
   <stop stop-color="#fff" offset="0"/>
   <stop stop-color="#cecece" offset="1"/>
  </linearGradient>
  <linearGradient id="ag" x1="475.32" x2="457.72" y1="482.37" y2="436.65" gradientUnits="userSpaceOnUse" xlink:href="#ac"/>
  <linearGradient id="ae">
   <stop stop-color="#00ae4f" offset="0"/>
   <stop stop-color="#007b38" offset="1"/>
  </linearGradient>
  <linearGradient id="af">
   <stop stop-color="#f90" offset="0"/>
   <stop stop-color="#8d5500" offset="1"/>
  </linearGradient>
  <linearGradient id="bc" x1="296.78" x2="262.64" y1="687.31" y2="694.89" gradientTransform="translate(-11.217 -162.39)" gradientUnits="userSpaceOnUse" xlink:href="#af"/>
  <linearGradient id="ah" x1="299.75" x2="273.4" y1="756.41" y2="644.98" gradientTransform="matrix(1.1296 .33396 -.29734 1.2687 200 -403.56)" gradientUnits="userSpaceOnUse">
   <stop stop-color="#36f" offset="0"/>
   <stop stop-color="#fff" offset="1"/>
  </linearGradient>
  <linearGradient id="ai" x1="362.79" x2="438.37" y1="690.61" y2="604.74" gradientTransform="matrix(1.1296 .33396 -.29734 1.2687 200 -403.56)" gradientUnits="userSpaceOnUse">
   <stop stop-color="#36f" offset="0"/>
   <stop stop-color="#00279c" offset="1"/>
  </linearGradient>
  <linearGradient id="aj" x1="375.05" x2="385.19" y1="587.94" y2="521.77" gradientTransform="matrix(1.1575 .39403 -.18227 1.3647 125.79 -475.65)" gradientUnits="userSpaceOnUse" xlink:href="#af"/>
  <linearGradient id="ak" x1="125.71" x2="512.55" y1="921.13" y2="921.13" gradientTransform="translate(-11.217 -162.39)" gradientUnits="userSpaceOnUse">
   <stop stop-color="#999" offset="0"/>
   <stop stop-color="#cbcbcb" offset="1"/>
  </linearGradient>
  <linearGradient id="al" x1="526.29" x2="275.77" y1="910.94" y2="750.83" gradientTransform="translate(-11.217 -162.39)" gradientUnits="userSpaceOnUse">
   <stop stop-color="#969696" offset="0"/>
   <stop stop-color="#5a5a5a" offset="1"/>
  </linearGradient>
  <linearGradient id="am" x1="328.12" x2="339.62" y1="781.52" y2="727.24" gradientTransform="translate(-11.217 -162.39)" gradientUnits="userSpaceOnUse" xlink:href="#ae"/>
  <linearGradient id="an" x1="333.35" x2="341.29" y1="707.97" y2="630.47" gradientTransform="translate(-11.217 -162.39)" gradientUnits="userSpaceOnUse" xlink:href="#ae"/>
  <linearGradient id="ao" x1="341.95" x2="347.53" y1="608.76" y2="578.4" gradientTransform="translate(-11.217 -162.39)" gradientUnits="userSpaceOnUse" xlink:href="#ae"/>
  <linearGradient id="ap" x1="165.22" x2="126.44" y1="691.55" y2="719.59" gradientTransform="translate(-11.217 -162.39)" gradientUnits="userSpaceOnUse">
   <stop stop-color="#828282" offset="0"/>
   <stop stop-color="#4d4d4d" offset="1"/>
  </linearGradient>
  <linearGradient id="aq" x1="122.01" x2="182.02" y1="603.65" y2="687.58" gradientTransform="translate(-11.217 -162.39)" gradientUnits="userSpaceOnUse" xlink:href="#ad"/>
  <linearGradient id="ar" x1="227.76" x2="232.64" y1="671.5" y2="722.57" gradientTransform="translate(-11.217 -162.39)" gradientUnits="userSpaceOnUse" xlink:href="#ad"/>
  <linearGradient id="as" x1="131.03" x2="167.21" y1="700.83" y2="786.54" gradientTransform="translate(-11.217 -162.39)" gradientUnits="userSpaceOnUse" xlink:href="#ad"/>
  <linearGradient id="at" x1="181.87" x2="240.02" y1="532.23" y2="436.26" gradientTransform="matrix(1.0919 .36872 -.33743 1.1932 241.98 -360.14)" gradientUnits="userSpaceOnUse">
   <stop stop-color="#9cdafb" offset="0"/>
   <stop stop-color="#fff" offset="1"/>
  </linearGradient>
  <linearGradient id="au" x1="363.66" x2="475.7" y1="474.68" y2="435.28" gradientTransform="matrix(1.0919 .36872 -.33743 1.1932 241.98 -360.14)" gradientUnits="userSpaceOnUse">
   <stop stop-color="#9cdafb" offset="0"/>
   <stop stop-color="#1aa9f6" offset="1"/>
  </linearGradient>
  <linearGradient id="av" x1="276.91" x2="220.02" y1="651.55" y2="634.3" gradientTransform="matrix(-.29581 1.6285 .9376 .7682 56.261 -460.06)" gradientUnits="userSpaceOnUse" xlink:href="#ac"/>
  <linearGradient id="aw" x1="532.61" x2="462.28" y1="515.02" y2="446.08" gradientTransform="matrix(-.96756 .65747 -.49975 -1.2729 1240.1 821.49)" gradientUnits="userSpaceOnUse" xlink:href="#ac"/>
  <linearGradient id="ax" x1="453.62" x2="461.03" y1="586.01" y2="594.23" gradientTransform="translate(-11.217 -162.39)" gradientUnits="userSpaceOnUse" xlink:href="#ad"/>
  <linearGradient id="ay" x1="427.18" x2="421.43" y1="649.91" y2="687.01" gradientTransform="translate(-11.217 -162.39)" gradientUnits="userSpaceOnUse" xlink:href="#ad"/>
  <linearGradient id="az" x1="336.21" x2="360.48" y1="607.89" y2="603.09" gradientTransform="matrix(-.98904 .25359 .053008 1.1111 761.48 -353.19)" gradientUnits="userSpaceOnUse">
   <stop stop-color="#d40000" offset="0"/>
   <stop stop-color="#ff9292" offset="1"/>
  </linearGradient>
  <linearGradient id="ba" x1="370.98" x2="316.68" y1="595.4" y2="574.94" gradientTransform="matrix(-.98904 .25359 .053008 1.1111 761.48 -353.19)" gradientUnits="userSpaceOnUse">
   <stop stop-color="#800000" offset="0"/>
   <stop stop-color="#3d0000" offset="1"/>
  </linearGradient>
  <linearGradient id="bb" x1="356.41" x2="288.22" y1="104.42" y2="102.45" gradientTransform="matrix(1.0278 .27426 -.25067 1.1719 113.59 26.343)" gradientUnits="userSpaceOnUse" xlink:href="#ac"/>
 </defs>
 <g transform="translate(-59.594 -191.41)">
  <path d="m430.09 191.41c-1.1906-2e-3 -2.3763 9e-3 -3.5625 0.0312-11.121 0.74024-21.466 5.7163-32.281 8.0625-3.7546 1.2113-7.5427 3.0509-11.031 5.375-40.741 4.4999-79.304 22.224-111.38 47.375-33.619 25.856-60.969 58.602-82.5 95.188 8.9655 14.837 22.486 25.095 37.438 33.219 7.1568 28.368 13.397 56.963 21 85.219 6.572 5.0251 13.367 9.7872 20.344 14.25 0.91583 8.5313 1.8341 17.062 2.75 25.594-6.0321 0.82179-12.045 1.6716-18 2.8438-3.5328-5.4966-8.444-9.9968-14.688-12.531-1.8063-5.0297-1.5302-10.761-3.7188-15.875-3.9376-13.769-15.561-26.656-30.625-26.844-2.4046-0.1736-4.8551-0.10006-7.3125 0.0625 0.25449-4.7049 0.65174-9.4393 0.25-14.062-0.10219-22.257-1.1166-44.497-1.4688-66.75l-3.2188 2.875c-37.47 33.022-75.134 65.823-112.69 98.75-0.30286 7.2109 3.1678 14.88 0.625 21.656-6.8173 7.295-13.632 14.601-20.438 21.906 9.7739 16.3 19.382 33.043 26.031 50.688-1.1549 27.809-0.78562 55.648-1.4062 83.469 10.828 2.9477 21.916 5.0163 33.125 5.7188 3.3893 9.971 4.7596 20.977 8.9375 30.438 5.337 4.1386 10.223-2.4557 14.031-5.3438 2.4946-1.8774 4.9784-3.7726 7.4688-5.6562 118.88 75.897 237.77 151.79 356.66 227.69 50.457-61.3 100.85-122.65 151.25-184 1.8883-20.799 5.3303-65.699 5.3303-65.699s-105.14-27.02-155.83-41.582c4.6241-15.643 9.2165-31.287 13.812-46.938 4.1779 1.1554 8.3586 2.238 12.562 3.2812 12.48 15.425 34.372 23.506 53.594 16.688 28.226-8.1754 43.394-44.709 28.75-70.469-0.24349-0.47011-0.49111-0.94504-0.75-1.4062 1.7687-12.514 2.0941-25.338 2.9375-37.875 0.22804-18.638-1.3092-37.205-3.8125-55.656 11.366-3.256 22.591-7.0381 33.625-11.375 7.4672-0.69869 11.675-9.9963 7.8125-16.312-21.214-61.955-62.906-117.1-118.97-151.37-12.416-7.6222-25.507-14.314-39.062-19.875-0.53691-1.3783-1.2232-2.7144-2.0938-4-8.1469-14.002-25.08-17.464-38.844-23.406-7.9164-2.631-16.322-3.33-24.656-3.3438zm128.84 297.5c-0.0998 0.5512-0.18421 1.1046-0.28125 1.6562-0.064 0.0155-0.12356 0.0467-0.1875 0.0625 0.152-0.57397 0.3167-1.1448 0.46875-1.7188z"/>
  <path d="m285.06 507.61c-14.349 2.5722-29.096 3.362-43.031 7.7188-2.4089 13.845-4.8291 27.688-7.25 41.531 16.939-5.3724 33.891-10.702 50.844-16.031 0.67539-11.195 1.2759-22.394 1.875-33.594-0.8125 0.125-1.625 0.25-2.4375 0.375z"/>
  <path d="m245.57 518.37c3.3929-1.6071 37.679-6.4286 37.679-6.4286l-1.4286 25.893-41.964 13.214z" fill="url(#bc)"/>
  <path d="m534.53 486.81c-51.749 15.532-105.92 22.224-159.48 17.383-36.719-4.3449-72.559-16.789-104.36-37.758 7.2349 67.269 14.476 134.54 21.641 201.81 54.706 30.781 128.24 38.808 187.03 17.722 14.048-45.757 42.492-143.4 59.367-200.42-1.3994 0.4194-2.7989 0.8388-4.1983 1.2582z"/>
  <path d="m531.54 493.17c-34.312 10.346-69.735 15.663-105.25 17.298-51.357 3.8742-104.58-6.8001-149.88-34.517l20.304 188.94s42.233 25.505 97.006 28.679c54.773 3.1742 82.427-13.32 82.427-13.32l55.394-187.08z" fill="#36f"/>
  <path d="m531.54 493.17c-34.312 10.346-69.735 15.663-105.25 17.298-18.444 1.3913-37.131 0.87659-55.603-1.6003 58.72 41.23 97.219 105.07 103.44 172.43 1.2865-0.63988 2.0215-1.0558 2.0215-1.0558l55.394-187.08z" fill="url(#ai)"/>
  <path d="m292.14 490.48 14.425 173.76c14.786 7.3652 30.277 13.245 46.123 17.409l9.7172-168.7c-24.135-3.9974-47.931-11.413-70.265-22.469z" fill="url(#ah)"/>
  <path d="m573.51 403.45c-101.47 24.989-210.82 9.3085-315.8-25.286-10.324-3.6544-20.522-8.0755-30.691-12.589 8.005 29.906 15.96 71.081 24.026 100.97 66.72 49.09 120.7 56.63 183.06 56.407 40.105-0.14345 80.521-9.8605 117.8-23.11 8.5965-32.48 17.212-64.951 25.903-97.383-1.4308 0.33034-2.8615 0.66067-4.2923 0.99101z"/>
  <path d="m570.68 410.01c-81.054 19.671-168.62 11.93-253.4-8.6367-27.662-7.3216-56.001-14.722-83.127-26.87l21.641 85.25s58.242 48.56 144.3 54.075 147.99-18.773 147.99-18.773z" fill="#f90"/>
  <path d="m299.38 404.9c0.0937 0.86458 0.1875 1.7292 0.28125 2.5938 1.6778 15.025 3.4065 30.045 5.1562 45.062 1.0822 0.35613 2.1679 0.70606 3.25 1.0625-6.208 26.713-13.834 53.274-19.031 80.094 2.8076 8.2168 5.5823 16.434 8.375 24.656-2.3494 7.4791-2.1199 15.52 1.125 22.688 5.5608 20.085 11.122 40.152 16.75 60.219 15.283-18.205 30.562-36.414 45.875-54.594-1.2293-9.4138-2.423-18.832-3.625-28.25 1.9056-2.2306 3.8166-4.454 5.7188-6.6875-5.0713-28.808-10.184-57.608-15.312-86.406 8.7586-16.235 17.559-32.435 26.344-48.656-24.969-3.9265-49.937-7.8576-74.906-11.781z"/>
  <path d="m570.68 410.01c-81.054 19.671-168.62 11.93-253.4-8.6367-10.506-2.7806-21.11-5.5943-31.708-8.6535-2.3229 0.35227-4.6254 0.71747-6.9916 1.0976 135.08 42.948 227.93 71.713 269.52 101.15l22.58-84.96z" fill="url(#aj)"/>
  <path d="m311.85 454.86-19 77.531 23.219 68.188 42.938-50.031-15.094-85.188c-10.698-3.4704-21.381-6.9792-32.062-10.5z" fill="url(#an)"/>
  <path d="m354.03 562.52c-13.135 15.35-26.326 30.656-39.469 46-4.8921-14.135-9.7197-28.306-14.531-42.469l-0.625 3.1875 17.688 63.656 39.875-47.469-2.9375-22.906z" fill="url(#am)"/>
  <path d="m253.62 545.43-143.94 76.741 0.0369 25.832 393.91 251.48 148.18-180.29 7.6664-63.626z"/>
  <path d="m503.46 844.52-386.38-223.75 137.38-71.216 398.51 112.63z" fill="url(#al)"/>
  <path d="m506.53 847.16 0.0613 41.651 142.07-172.08 4.2931-47.982z" fill="#e8e8e8"/>
  <path d="m501.26 848.15 0.074 45.082-386.84-248.25 0.71428-20.714z" fill="url(#ak)"/>
  <path d="m303.95 405.1 4.5457 44.447 36.871 12.122 22.728-41.921z" fill="url(#ao)"/>
  <path d="m191.5 381.3-3.2188 2.875c-34.893 30.59-69.841 61.116-104.75 91.688 0.69103 6.7338 1.2852 13.473 1.8438 20.219-6.9286 7.3849-13.857 14.77-20.781 22.156 9.5097 15.578 17.764 31.797 25.094 48.438-1.2223 27.53-0.85731 57.896-1.4062 82.125 10.516 2.7732 21.258 4.4584 32.125 5 2.745 9.4831 5.3471 18.995 7.9062 28.5 0.1241 8.3218 16.971-6.4386 20.562-7.808 29.401-22.536 48.766-40.643 78.156-63.192-5.3435-63.627-9.8666-75.562-22.375-111.62-3.625-11.3-7.7862-22.44-12.375-33.375 1.3395-28.321-0.23848-56.674-0.78125-85z"/>
  <path d="m69.595 518.75 94.449-100.51c52.857 92.5 51.446 159.28 58.589 191.42l-90.914 69.701s-24.982-101.33-62.124-160.61z" fill="url(#as)"/>
  <path d="m148.47 446.94c-18.882 2.0294-24.756 18.893-17.814 31.457 9.0409 18.367 30.207 27.33 49.125 29.938-8.356 13.98-5.7347 36.229 10.5 43.281 7.6168 3.4501 16.035 4.5302 24.375 4.1875 0.70343 9.2816 3.5441 21.421 4.2679 30.701 7.4396-2.1514 10.9-11.198 14.295-17.545 7.0441-0.57104 12.432-7.0209 16.188-12.531 8.7308-14.599 8.3418-35.129-1.9688-48.844-3.3419-4.03-7.922-7.0277-13-8.375-2.0975-13.527-5.1779-29.008-17-37.406-9.6336-6.5235-22.412-7.8252-33.164-6.6268-11.837 1.1736-20.397-5.1118-31.21-7.8923-1.5158-0.24626-3.0483-0.47149-4.5938-0.34375z"/>
  <path d="m232.99 523.8s3.7881-6.8185 3.7881-19.445c0 0 14.9 5.0508 14.647 29.547s-16.668 30.81-16.668 30.81 1e-5 -3.5355-1.7678-9.5964c-2.7779 17.93-12.627 22.476-12.627 22.476l-2.0203-26.011s-33.082 4.0406-38.133-17.678c-5.0508-21.718 11.112-33.082 11.112-33.082l-9.5964 3.5355s-26.769-1.5152-42.679-20.203 1.7678-30.557 9.5964-31.315c7.8287-0.75761 20.478 9.4904 31.567 9.5964 17.218 0.16467 27.527-5.5558 39.396 6.566 11.869 12.122 13.385 54.801 13.385 54.801z" fill="url(#ar)"/>
  <path d="m187.72 389.99-100 87.5s0.568 5.0844 1.3438 14.656c24.621-26.238 49.269-52.458 73.937-78.625l1.8438-1.9375c8.848 15.134 16.543 27.585 23.652 43.625-0.0625-22.091-0.0165-41.974-0.77744-65.218zm-95.031 183.62c0.32277 20.894 0.28418 44.972-0.34375 72.062 9.8141 2.3872 18.749 3.638 26.844 4-7.5717-25.804-16.069-51.367-26.5-76.062z" fill="url(#aq)"/>
  <path d="m139.53 493.58c-29.107 4.8201-50.75 30.625-50.75 30.625l5.8125 6.625s21.187-25.996 44.937-37.25zm8.2188 13.938c-29.107 4.8201-50.75 30.625-50.75 30.625l5.8125 6.5938s21.188-25.964 44.938-37.219zm12.688 18.031c-29.107 4.8201-50.75 30.625-50.75 30.625l5.8125 6.625s21.188-25.996 44.938-37.25zm16.438 29.625c-29.107 4.8201-50.781 30.656-50.781 30.656l5.8125 6.5938s21.219-25.996 44.969-37.25zm8.0312 18.594c-29.107 4.8201-50.75 30.625-50.75 30.625l5.7812 6.5938s21.219-25.964 44.969-37.219zm5 13.75c-29.107 4.8201-50.75 30.625-50.75 30.625l5.7812 6.5938s21.219-25.964 44.969-37.219zm4.8125 13.562c-29.107 4.8201-50.75 30.625-50.75 30.625l5.8125 6.625s21.188-25.996 44.938-37.25z" fill="url(#ap)"/>
  <path d="m397.78 576.68c-8.3649-0.29788-19.797 4.4379-18.775 13.516 1.6404 14.582 17.619 26.251 30.213 31.765 0.28504 0.10548 0.58246 0.21048 0.875 0.3125 0.58448 2.721 5.3389 4.8311 7.0625 6.7812 4.7969 3.8188 11.922 6.8787 18.312 6.2812 9.2e-4 3e-3 0.0303-3e-3 0.0312 0 0.29643 0.87283 0.8524 1.68 1.6875 2.25 13.853 20.674 16.893 46.155 19.875 70.219-13.693 1.6003-27.855 4.5472-39.656 12-7.2167 4.0915-12.505 12.431-9.7188 20.875 3.092 12.141 16.541 15.641 27.031 18.75 22.848 5.701 47.693 10.105 70.5 1.8125 9.8992-3.7321 22.46-10.121 22.406-22.375 0.0663-12.954-12.718-20.566-23.25-24.938-8.3258-3.4331-17.752-4.5836-26.219-6.5312-8.3864-27.337-11.54-58.825-31.656-80.656 2.0773-7.5597-3.2448-15.664-7.8125-21.875-1.4601-4.7702-4.5772-9.2906-7.9375-12.656-8.6083-8.7036-20.461-15.446-32.969-15.531z"/>
  <path transform="matrix(.84142 .54038 -.54038 .84142 461.6 -271.9)" d="m456.59 761.82c0 8.5776-12.55 15.531-28.032 15.531s-28.032-6.9535-28.032-15.531 12.55-15.531 28.032-15.531 28.032 6.9535 28.032 15.531z" fill="#4e4e4e"/>
  <path d="m439.31 613.08c-0.37398 2.0578-1.2012 4.074-2.5938 5.9688-4.7036 5.5643-12.222 6.2744-19.281 5.0938 0.6774 0.58143 1.3579 1.1777 2.0938 1.7188 9.15 6.7282 19.213 7.4607 22.469 1.6562 2.0813-3.7105 0.84061-9.2016-2.6875-14.438z" fill="#4e4e4e"/>
  <path d="m444.69 630.61c-0.0679 0.10072-0.11614 0.21218-0.1875 0.3125-1.4056 1.5533-3.014 2.6523-4.75 3.375 3.9202 5.0905 9.4366 14.55 13.938 31.094 7.8946 29.019 8.0938 57.219 8.0938 57.219l-4.625-11.125s-44.358 5.5255-46 22.781c-1.6416 17.256 20.478 20.874 49.062 26.312 28.584 5.4384 68.294-5.8729 63.031-25.219-5.2631-19.346-44.562-23.562-44.562-23.562l-0.3125 12.062s-8.3632-31.097-15.594-58.062c-4.3698-16.297-12.412-28.261-18.094-35.188z" fill="#c6d6e9"/>
  <path d="m474.53 219.01c-54.406-18.368-115.32-14.735-165.99 14.047-46.92 25.523-85.953 66.386-114.48 114.28 13.975 21.84 37.177 35.378 59.148 44.7 55.877 23.709 116.15 31.305 175.54 38.486 72.185 7.1191 146.82 2.7953 215.19-24.574 8.0876-1.2283 8.6314-6.3442 5.0731-13.118-28.409-83.928-95.502-150.04-174.48-173.82z"/>
  <path d="m199.58 347.27s90.641-164.04 248.77-130.01c158.13 34.024 198.03 182.14 198.03 182.14s-96.144 48.795-260.61 20.189c-164.47-28.606-186.18-72.317-186.18-72.317z" fill="#9cdafb"/>
  <path d="m476.62 224.91c-8.9784-2.9538-18.379-5.5375-28.261-7.664-1.6909-0.36382-3.3835-0.69485-5.0589-1.0138 60.7 44.897 92.818 114.08 75.235 176.25-3.7053 13.102-9.4069 25.105-16.764 35.881 92.732-2.6379 144.59-28.949 144.59-28.949s-35.069-130.2-169.74-174.51z" fill="url(#au)"/>
  <path d="m426.1 233.58c-72.633-24.526-166.27 29.634-212.35 121.55 18.76 16.044 42.438 24.32 64.885 32.816 3.6821 1.2459 7.3767 2.4804 11.077 3.6587 0.93643-3.2656 1.956-6.5351 3.0332-9.8004 26.547-80.473 88.026-135.52 149.8-141.08-5.171-2.8026-10.659-5.1922-16.446-7.1462z" fill="url(#at)"/>
  <path d="m285.73 313.35s6.4397-25.506 25.128-20.708c18.688 4.7982 14.142 35.103 14.142 35.103s-8.5863-25.254-19.445-26.517-19.824 12.122-19.824 12.122z"/>
  <path d="m350.73 333.17s6.4397-26.143 25.128-23.191c18.688 2.9516 14.142 33.705 14.142 33.705s-8.5863-24.405-19.445-24.595-19.824 14.081-19.824 14.081z"/>
  <path d="m570.39 316.6c-21.565 0.51629-39.223 22.021-35.306 43.329 2.5865 20.994 25.394 38.371 45.92 32.974 20.764-4.134 34.131-29.906 27.193-49.994-4.8888-16.055-20.928-27.32-37.807-26.309z"/>
  <path transform="translate(99.647 -108.85)" d="m506.84 463.06c0 18.899-15.32 34.219-34.219 34.219s-34.219-15.32-34.219-34.219 15.32-34.219 34.219-34.219 34.219 15.32 34.219 34.219z" fill="#f90"/>
  <path transform="matrix(.8893 0 0 .8893 151.97 -57.586)" d="m506.84 463.06c0 18.899-15.32 34.219-34.219 34.219s-34.219-15.32-34.219-34.219 15.32-34.219 34.219-34.219 34.219 15.32 34.219 34.219z" fill="url(#ag)"/>
  <path d="m572.52 384.57c1.5916-15.216 10.659-27.056 19.327-17.495 8.0346 6.3727 12.558 22.624 13.538 36.987 6.1848 33.367 8.9762 68.869 4.5639 101.15-0.86265 10.653-2.1937 21.437-5.5912 29.855-14.149-13.146-28.309-26.241-42.477-39.304 4.3334-27.641 13.033-53.565 11.866-84.23-1.1079-8.9772-3.2075-18.587-1.2283-26.965z"/>
  <path d="m566.81 493.71s8.8821-44.416 10.712-63.386-1.8375-32.979-1.8375-32.979-0.68951-15.614 5.2125-25.02c5.902-9.4063 18.346 7.1734 19.123 20.127 0.77724 12.954 9.8429 49.615 7.9728 85.037-2.2426 42.477-5.3626 50.093-5.3626 50.093z" fill="#f90"/>
  <path d="m580.2 389.17c0.90191-8.2618 2.7389-13.028 8.0492-9.0689 4.2588 3.1748 7.3133 38.752 7.7585 52.242 0.65387 19.815 3.1575 48.185-1.2146 77.56-4.8792-4.8133-22.258-18.719-22.504-23.441 12.856-28.395 9.4018-74.768 7.911-97.293z" fill="url(#av)"/>
  <path d="m567.99 493.43c-25.894 0.62643-47.096 26.719-42.393 52.572 3.1056 25.472 30.188 44.105 54.834 37.557 24.932-5.016 41.285-33.835 32.955-58.208-5.8701-19.48-25.129-33.149-45.396-31.922z"/>
  <path transform="matrix(1.2007 0 0 1.2133 2.7567 -22.789)" d="m506.84 463.06c0 18.899-15.32 34.219-34.219 34.219s-34.219-15.32-34.219-34.219 15.32-34.219 34.219-34.219 34.219 15.32 34.219 34.219z" fill="#f90"/>
  <path transform="matrix(1.0678 0 0 1.079 65.579 39.409)" d="m506.84 463.06c0 18.899-15.32 34.219-34.219 34.219s-34.219-15.32-34.219-34.219 15.32-34.219 34.219-34.219 34.219 15.32 34.219 34.219z" fill="url(#ag)"/>
  <path d="m566.46 567.37c8.4523-6.9776 4.1982-22.613-1.8494-29.784-7.8424-11.749-20.737-11.957-30.81-18.861-18.977-9.3028-37.891-18.554-56.779-27.946-11.649 8.4941-26.849 17.711-29.297 36.89-0.97133 8.5269 3.8256 18.961 11.073 17.57 32.164 8.2165 63.983 19.525 96.314 25.811 3.9361 0.0343 7.9787-0.83915 11.348-3.6801z"/>
  <path d="m549.53 564.82-95.469-26.752s-5.4456-9.5344 1.5168-20.577c6.9624-11.043 21.69-20.44 21.69-20.44l80.529 39.551s12.009 14.033 8.59 22.669c-3.4194 8.6355-16.857 5.5501-16.857 5.5501z" fill="#f90"/>
  <path d="m561.67 557.72c3.3713-4.3561-2.2804-11.235-4.7676-14.095-7.3868-8.4951-18.141-8.771-26.789-14.523-17.51-8.5864-35.02-17.173-52.531-25.759-8.0672 6.6647-18.882 15.786-20.041 29.831 41.065 9.2121 70.708 21.132 97.922 26.395 2.068 0.39998 4.6613 0.14777 6.2068-1.8492z" fill="url(#aw)"/>
  <path d="m398.63 410.43c-0.76617-3e-3 -1.5455 5e-3 -2.3125 0.0312-14.617-0.42227-31.705 2.7091-36.031 21.531-25.006 9.5438-25.009 29.5-21.094 46.469-11.131 13.14-9.842 32.898-1.0938 46.969 7.2255 14.785 21.083 29.765 38.875 28.75 5.6343-0.60319 9.0193-6.7345 11.125-10.5 12.704 8.77 29.542 13.243 44.25 6.875 3.5805-2.2215 6.392 3.058 10.031 3.8125 10.714 5.8989 26.872 5.7333 33.281-6.2812 9.6958-15.716 10.476-35.058 10.438-53.062 0.18788-10.2-6.4307-19.698-16.188-22.719-2.6377-1.8031-8.2767-0.41541-7.4375-4.9375-0.82912-7.8589-3.1199-15.589-6.6875-22.625 1.7321-8.7946 2.8296-18.873-4.6562-24.812-6.8976-4.7158-15.736-3.8813-23.688-4.125-0.87726-0.0254-1.5493 0.22145-2.0312 0.625-8.3778-3.8043-17.531-5.9596-26.781-6z"/>
  <path d="m460.02 499.55s3.7881-14.647 3.5355-25.001c0 0 15.91 2.7779 17.93 15.657 2.0203 12.879 0 45.962-11.364 58.841-8.2212 9.3173-23.486 4.0406-30.305-0.75761 0 0 6.3134-4.0406 10.354-16.415 0 0-11.617 17.93-34.85 17.678-23.234-0.25254-62.454-40.613-62.454-40.613s19.775 24.956 31.392 32.279c0 0-2.5223 9.2441-9.0914 9.0914-10.859-0.25254-25.759-7.0711-37.123-34.598-11.364-27.527 13.132-43.184 13.132-43.184s-5.0508 0.25253-8.3338 3.0304c0 0-3.7881-19.445 8.8388-32.577 7.8766-8.1917 29.042-10.607 29.042-10.607s-4.7982-3.283-15.152-2.2728c2.7779-5.0508 9.849-16.162 34.093-15.657 21.832 0.45483 44.952 14.142 53.538 33.84 8.5863 19.698 6.8185 51.265 6.8185 51.265z" fill="url(#ay)"/>
  <path d="m434.63 419.93c-0.81068-6e-3 -1.6346 6e-3 -2.4375 0.0312 8.3798 4.5415 15.271 11.239 20.375 19.156 0.97267-5.6654 0.95472-12.701-4.0312-16.094-3.4093-2.3202-8.6681-3.0531-13.906-3.0938z" fill="url(#ax)"/>
  <path d="m487.64 340.09-0.16658 5.0336c-0.39855 16.828-0.57299 35.58-9.5659 51.308 0.0445 0.0195 0.0842 0.0529 0.1286 0.0724-0.83602 1.347-1.7283 2.653-2.6602 3.9156-0.0206 0.0279-0.0379 0.0575-0.0585 0.0853-11.759 15.874-30.666 24.76-46.224 20.006-1.8763-0.96807-5.9764-0.85855-7.6083-2.0912-12.289-4.5114-22.994-12.247-32.852-21.03 26.16-4.6541 54.435-11.292 76.232-33.675 8.0562-7.2289 15.488-15.34 22.775-23.624z"/>
  <path d="m483.33 350.72c-0.50257 14.97-0.73111 30.686-9.1179 44.304-6.9278-2.4033-14.475-3.2639-22.22-1.4726-10.907 2.3498-22.543 8.9292-29.415 20.195-13.444-4.9693-23.624-13.836-23.624-13.836s22.3-4.0136 41.331-13.154c19.032-9.1403 43.045-36.036 43.045-36.036z" fill="url(#ba)"/>
  <path d="m452.11 398.02c9.137-1.9492 16.123-0.10466 19.291 1.0638-3.5772 4.6518-8.2938 9.0247-14.493 12.96-9.9171 6.2954-20.852 5.8236-30.55 2.9478 1.6476-2.7446 7.2834-10.665 20.104-15.348 1.9569-0.71479 3.8445-1.2392 5.6478-1.6239z" fill="url(#az)"/>
  <path d="m451.16 197.8c-0.84998-0.23735-1.696-0.44626-2.5451-0.64046-12.64-2.2214-26.999-3.4675-38.925 2.6202-13.815 2.5257-32.551 6.5537-39.437 21.653-4.4573 12.764 9.5667 24.726 19.118 29.059 26.459 13.132 57.564 13.698 84.852 2.977 9.6086-3.7448 23.655-12.94 21.048-26.003-3.4245-14.3-20.788-21.359-32.058-24.9-0.53461-0.11078-0.98513-0.0942-1.3873-0.0218-3.2587-2.2172-6.9518-3.7062-10.665-4.7428z"/>
  <path transform="matrix(.99783 .077492 -.24349 1.1383 125.63 43.567)" d="m371.99 127.19c0 7.0434-14.19 12.753-31.694 12.753s-31.694-5.7098-31.694-12.753c0-7.0434 14.19-12.753 31.694-12.753s31.694 5.7098 31.694 12.753z" fill="#f90"/>
  <path d="m467.09 208.83c2.6483 2.7631 3.8789 5.8333 3.2047 8.9849-2.0048 9.3726-19.826 15.778-39.796 14.311-19.97-1.4664-34.539-10.265-32.534-19.638 0.4956-2.317 1.9559-4.4762 4.1776-6.3568-13.655 3.9537-23.297 10.825-25.074 19.13-3.1279 14.623 19.315 28.254 50.15 30.455 30.834 2.2015 58.381-7.8691 61.509-22.492 2.0339-9.5088-6.7651-18.592-21.637-24.395z" fill="#f90"/>
  <path transform="matrix(.81674 .063428 -.1993 .93175 181.64 74.628)" d="m371.99 127.19c0 7.0434-14.19 12.753-31.694 12.753s-31.694-5.7098-31.694-12.753c0-7.0434 14.19-12.753 31.694-12.753s31.694 5.7098 31.694 12.753z" fill="url(#bd)"/>
  <path d="m474.46 218.03c-3.0464 13.508-17.419 16.581-27.804 18.247-16.88 2.2948-36.01 0.49429-49.409-12.333-2.1004-2.5619-3.5914-5.8972-3.7124-9.4688-5.5618 2.4959-14.486 8.2085-11.833 16.276 6.5159 12.691 20.961 15.302 32.718 18.295 21.638 4.0481 45.748 3.4471 65.153-9.5214 4.7645-3.2485 7.3707-11.343 2.3022-15.684-2.0116-2.312-4.9978-5.3657-7.4145-5.8112z" fill="url(#bb)"/>
 </g>
</svg>
