<?xml version="1.0" encoding="UTF-8"?>
<svg version="1.1" viewBox="0 0 122.79 129" xmlns="http://www.w3.org/2000/svg" xmlns:xlink="http://www.w3.org/1999/xlink">
 <defs>
  <linearGradient id="g" x1="341.43" x2="416.18" y1="652.34" y2="479.61" gradientTransform="matrix(.27781 0 0 .27781 399.76 48.277)" gradientUnits="userSpaceOnUse">
   <stop stop-color="#7ca2ff" offset="0"/>
   <stop stop-color="#7cbdff" stop-opacity="0" offset="1"/>
  </linearGradient>
  <linearGradient id="h" x1="398" x2="406.08" y1="291.72" y2="376.57" gradientTransform="matrix(.27781 0 0 .27781 399.76 48.277)" gradientUnits="userSpaceOnUse" xlink:href="#a"/>
  <linearGradient id="a">
   <stop stop-color="#fff" offset="0"/>
   <stop stop-color="#fff" stop-opacity="0" offset="1"/>
  </linearGradient>
  <linearGradient id="i" x1="220.57" x2="393.99" y1="917.04" y2="917.04" gradientTransform="matrix(.16789 -.11352 .11352 .16789 302.04 25.487)" gradientUnits="userSpaceOnUse" xlink:href="#a"/>
  <linearGradient id="j" x1="187.38" x2="506.59" y1="892.25" y2="892.25" gradientUnits="userSpaceOnUse" xlink:href="#a"/>
  <linearGradient id="k" x1="485.77" x2="469.95" y1="368.57" y2="324.28" gradientTransform="translate(0 -121.43)" gradientUnits="userSpaceOnUse">
   <stop stop-color="#ff1919" offset="0"/>
   <stop stop-color="#ff1919" stop-opacity="0" offset="1"/>
  </linearGradient>
 </defs>
 <g transform="translate(-560.78 -655.22)">
  <g transform="translate(125.26 541.66)">
   <path d="m457.85 123.43h100.47v94.854s-4.0692 21.468-24.275 24.275h-89.101v-109.31z"/>
   <path d="m450.94 126.96h104.02v89.233s-3.828 20.196-22.836 22.836h-83.821v-112.07z" fill="#99cbff"/>
   <path d="m451.67 161.87v74.648h80.261c14.312-3.6482 19.925-19.925 19.925-19.925v-40.131z" fill="url(#g)"/>
   <path transform="matrix(.17208 -.11711 .11636 .17319 300.81 23.544)" d="m356.43 969.39c-87.713 2.5342-163.05-29.948-168.27-72.552-5.2174-42.603 61.658-79.195 149.37-81.729 87.713-2.5342 163.05 29.948 168.27 72.552 4.9528 40.443-55.241 75.877-137.93 81.196"/>
   <path transform="matrix(.15142 -.10239 .10239 .15142 319.75 37.159)" d="m356.43 969.39c-87.713 2.5342-163.05-29.948-168.27-72.552-5.2174-42.603 61.658-79.195 149.37-81.729 87.713-2.5342 163.05 29.948 168.27 72.552 4.9528 40.443-55.241 75.877-137.93 81.196" fill="#ff9800"/>
   <path transform="matrix(.11157 -.075438 .078818 .11657 347.85 50.738)" d="m356.43 969.39c-87.713 2.5342-163.05-29.948-168.27-72.552-5.2174-42.603 61.658-79.195 149.37-81.729 87.713-2.5342 163.05 29.948 168.27 72.552 4.9528 40.443-55.241 75.877-137.93 81.196"/>
   <path transform="matrix(.094189 -.063688 .065319 .096602 365.82 64.326)" d="m356.43 969.39c-87.713 2.5342-163.05-29.948-168.27-72.552-5.2174-42.603 61.658-79.195 149.37-81.729 87.713-2.5342 163.05 29.948 168.27 72.552 4.9528 40.443-55.241 75.877-137.93 81.196" fill="#ff9800"/>
   <path d="m472.44 154.3s17.68-8.419 22.731-24.976h57.53v25.257z" fill="url(#h)"/>
   <path d="m441.44 144.2c11.298 6.2268 28.884-10.055 28.884-10.055l6.6899 7.725c-8.254 10.203-41.746 21.757-35.574 2.3302z" fill="url(#i)"/>
   <path transform="matrix(.080211 -.054236 .055625 .082265 379.32 73.839)" d="m356.43 969.39c-87.713 2.5342-163.05-29.948-168.27-72.552-5.2174-42.603 61.658-79.195 149.37-81.729 87.713-2.5342 163.05 29.948 168.27 72.552 4.9528 40.443-55.241 75.877-137.93 81.196" fill="url(#j)"/>
   <path d="m538.57 239.15c-21.071 3.2143-64.286-11.071-65.714-43.929-17.857 13.929-7.8571 45.357-7.8571 45.357s67.857 1.0714 73.571-1.4286z"/>
   <path d="m486.19 200.43s0.68493-28.478 37.203-7.866c-1.8266-3.3852-18.365-28.448-35.471-14.621-8.643 9.2605-1.7322 22.487-1.7322 22.487z"/>
   <path d="m553.45 168.25s-13.028-14.034-21.752 13.068c-0.61279-2.5416-3.6713-22.739 10.881-23.604 8.3662 0.70877 10.871 10.536 10.871 10.536z"/>
   <path d="m513.53 239.15c-13.571-1.0714-40.676-13.31-42.085-34.378-9.9325 14.925-1.856 34.113-1.856 34.113z" fill="url(#k)"/>
  </g>
 </g>
</svg>
