<?xml version="1.0" encoding="UTF-8" standalone="no"?>
<!-- Created with Inkscape (http://www.inkscape.org/) -->

<svg
   xmlns:dc="http://purl.org/dc/elements/1.1/"
   xmlns:cc="http://creativecommons.org/ns#"
   xmlns:rdf="http://www.w3.org/1999/02/22-rdf-syntax-ns#"
   xmlns:svg="http://www.w3.org/2000/svg"
   xmlns="http://www.w3.org/2000/svg"
   xmlns:xlink="http://www.w3.org/1999/xlink"
   xmlns:sodipodi="http://sodipodi.sourceforge.net/DTD/sodipodi-0.dtd"
   xmlns:inkscape="http://www.inkscape.org/namespaces/inkscape"
   width="210.99034mm"
   height="180mm"
   viewBox="0 0 210.99035 180"
   version="1.1"
   id="svg8"
   inkscape:version="0.92.1 r15371"
   sodipodi:docname="bad.svg">
  <defs
     id="defs2">
    <linearGradient
       xlink:href="#b"
       gradientUnits="userSpaceOnUse"
       gradientTransform="matrix(3.0517,0,0,3.506,-1014.7,-545.73)"
       y2="200.84"
       y1="241.56"
       x2="528.23999"
       x1="528.88"
       id="ax" />
    <linearGradient
       id="a">
      <stop
         id="stop4486"
         offset="0"
         stop-color="#f90" />
      <stop
         id="stop4488"
         offset="1"
         stop-color="#fff" />
    </linearGradient>
    <linearGradient
       id="d">
      <stop
         id="stop4491"
         offset="0"
         stop-color="#00f" />
      <stop
         id="stop4493"
         offset="1"
         stop-opacity="0" />
    </linearGradient>
    <linearGradient
       id="b">
      <stop
         id="stop4496"
         offset="0"
         stop-color="#fff" />
      <stop
         id="stop4498"
         offset="1"
         stop-color="#cecece" />
    </linearGradient>
    <linearGradient
       xlink:href="#a"
       gradientUnits="userSpaceOnUse"
       gradientTransform="matrix(-1.001,1.0213,-1.1252,-0.56643,1102.1,580.09)"
       y2="633.54999"
       y1="656.76001"
       x2="217.08"
       x1="266.14999"
       id="ab" />
    <linearGradient
       xlink:href="#a"
       gradientUnits="userSpaceOnUse"
       gradientTransform="matrix(1.3577,-0.23747,0.23476,1.3734,-665.93,29.636)"
       y2="446.07999"
       y1="515.02002"
       x2="462.28"
       x1="532.60999"
       id="ac" />
    <linearGradient
       xlink:href="#b"
       gradientUnits="userSpaceOnUse"
       gradientTransform="matrix(-0.9931,0.46888,0.47477,0.98078,405.54,-289.55)"
       y2="641.25"
       y1="651.34998"
       x2="510.09"
       x1="536.85999"
       id="ad" />
    <linearGradient
       xlink:href="#b"
       gradientUnits="userSpaceOnUse"
       gradientTransform="matrix(-0.9931,0.46888,0.47477,0.98078,405.54,-289.55)"
       y2="732.56"
       y1="716.65002"
       x2="553.17999"
       x1="566.33002"
       id="ae" />
    <linearGradient
       xlink:href="#b"
       gradientUnits="userSpaceOnUse"
       gradientTransform="matrix(-0.9931,0.46888,0.47477,0.98078,405.54,-289.55)"
       y2="713.32001"
       y1="721.90002"
       x2="488.70001"
       x1="525.51001"
       id="af" />
    <linearGradient
       xlink:href="#a"
       gradientUnits="userSpaceOnUse"
       gradientTransform="matrix(0.92275,0.89115,1.0372,-0.49424,-269.87,526.53)"
       y2="634.16998"
       y1="649.96002"
       x2="217.17"
       x1="275.92001"
       id="ag" />
    <linearGradient
       gradientUnits="userSpaceOnUse"
       gradientTransform="matrix(0.90539,0.063916,-0.064247,0.95069,122.78,-5.4734)"
       y2="771.06"
       y1="796.06"
       x2="419.03"
       x1="343.07001"
       id="ah">
      <stop
         id="stop4507"
         offset="0"
         stop-color="#969696" />
      <stop
         id="stop4509"
         offset="1"
         stop-color="#5a5a5a" />
    </linearGradient>
    <linearGradient
       gradientUnits="userSpaceOnUse"
       gradientTransform="matrix(0.93452,0.087235,-0.033881,1.1468,91.557,-157.77)"
       y2="644.97998"
       y1="756.40997"
       x2="273.39999"
       x1="299.75"
       id="ai">
      <stop
         id="stop4512"
         offset="0"
         stop-color="#36f" />
      <stop
         id="stop4514"
         offset="1"
         stop-color="#fff" />
    </linearGradient>
    <linearGradient
       gradientUnits="userSpaceOnUse"
       gradientTransform="matrix(0.93452,0.087235,-0.033881,1.1468,91.557,-157.77)"
       y2="604.73999"
       y1="690.60999"
       x2="438.37"
       x1="362.79001"
       id="aj">
      <stop
         id="stop4517"
         offset="0"
         stop-color="#36f" />
      <stop
         id="stop4519"
         offset="1"
         stop-color="#00279c" />
    </linearGradient>
    <linearGradient
       gradientUnits="userSpaceOnUse"
       gradientTransform="matrix(1.0754,0.25598,-0.3117,0.88313,270.47,-22.982)"
       y2="806.28003"
       y1="915.91998"
       x2="384.41"
       x1="402.37"
       id="ak">
      <stop
         id="stop4522"
         offset="0"
         stop-color="#ff0" />
      <stop
         id="stop4524"
         offset="1"
         stop-opacity="0"
         stop-color="#ff0" />
    </linearGradient>
    <linearGradient
       gradientUnits="userSpaceOnUse"
       gradientTransform="matrix(0.99048,0.23577,-0.2871,0.81341,284.43,42.402)"
       y2="816.83002"
       y1="972.90002"
       x2="366.45001"
       x1="397.67001"
       id="al">
      <stop
         id="stop4527"
         offset="0" />
      <stop
         id="stop4529"
         offset="1"
         stop-opacity="0" />
    </linearGradient>
    <linearGradient
       gradientUnits="userSpaceOnUse"
       gradientTransform="matrix(0.99048,0.23577,-0.2871,0.81341,284.43,42.402)"
       y2="827.16998"
       y1="987.52002"
       x2="372.07999"
       x1="377.17001"
       id="am">
      <stop
         id="stop4532"
         offset="0"
         stop-color="#f00" />
      <stop
         id="stop4534"
         offset="1"
         stop-opacity="0"
         stop-color="#f00" />
    </linearGradient>
    <linearGradient
       gradientUnits="userSpaceOnUse"
       gradientTransform="matrix(1.1295,0.18692,-0.022944,1.1871,21.44,-178.23)"
       y2="546.71002"
       y1="590.81"
       x2="337.63"
       x1="349.17999"
       id="an">
      <stop
         id="stop4537"
         offset="0"
         stop-color="#f90" />
      <stop
         id="stop4539"
         offset="1"
         stop-color="#8d5500" />
    </linearGradient>
    <linearGradient
       gradientUnits="userSpaceOnUse"
       gradientTransform="matrix(1.098,0.10796,-0.084094,1.1977,65.84,-169.03)"
       y2="436.26001"
       y1="532.22998"
       x2="240.02"
       x1="181.87"
       id="ao">
      <stop
         id="stop4542"
         offset="0"
         stop-color="#9cdafb" />
      <stop
         id="stop4544"
         offset="1"
         stop-color="#fff" />
    </linearGradient>
    <linearGradient
       gradientUnits="userSpaceOnUse"
       gradientTransform="matrix(1.098,0.10796,-0.084094,1.1977,65.84,-169.03)"
       y2="435.28"
       y1="474.67999"
       x2="475.70001"
       x1="363.66"
       id="ap">
      <stop
         id="stop4547"
         offset="0"
         stop-color="#9cdafb" />
      <stop
         id="stop4549"
         offset="1"
         stop-color="#1aa9f6" />
    </linearGradient>
    <linearGradient
       xlink:href="#a"
       gradientUnits="userSpaceOnUse"
       gradientTransform="matrix(1.1057,0.18176,-0.14752,1.2555,19.524,159.19)"
       y2="102.45"
       y1="104.42"
       x2="288.22"
       x1="356.41"
       id="aq" />
    <linearGradient
       xlink:href="#a"
       gradientUnits="userSpaceOnUse"
       y2="436.64999"
       y1="482.37"
       x2="457.72"
       x1="475.32001"
       id="c" />
    <linearGradient
       xlink:href="#d"
       gradientUnits="userSpaceOnUse"
       y2="466.31"
       y1="526.78003"
       x2="287.07001"
       x1="289.54999"
       id="ar" />
    <linearGradient
       xlink:href="#d"
       gradientUnits="userSpaceOnUse"
       gradientTransform="matrix(1.1125,0,0,1.1957,10.54,-146.52)"
       y2="466.31"
       y1="526.78003"
       x2="287.07001"
       x1="289.54999"
       id="as" />
    <linearGradient
       xlink:href="#a"
       gradientUnits="userSpaceOnUse"
       y2="126.45"
       y1="127.82"
       x2="313.37"
       x1="365.10999"
       id="at" />
    <linearGradient
       xlink:href="#b"
       gradientUnits="userSpaceOnUse"
       gradientTransform="rotate(-37.459,315.94,620.31)"
       y2="594.22998"
       y1="586.01001"
       x2="461.03"
       x1="453.62"
       id="av" />
    <linearGradient
       xlink:href="#b"
       gradientUnits="userSpaceOnUse"
       gradientTransform="rotate(-37.459,315.94,620.31)"
       y2="687.01001"
       y1="649.90997"
       x2="421.42999"
       x1="427.17999"
       id="aw" />
    <linearGradient
       xlink:href="#a"
       gradientUnits="userSpaceOnUse"
       gradientTransform="matrix(-0.69937,1.2338,-2.162,-0.39388,1974.1,107.58)"
       y2="446.07999"
       y1="515.02002"
       x2="462.28"
       x1="532.60999"
       id="au" />
    <linearGradient
       inkscape:collect="always"
       xlink:href="#a"
       id="linearGradient4826"
       gradientUnits="userSpaceOnUse"
       x1="475.32001"
       y1="482.37"
       x2="457.72"
       y2="436.64999" />
    <linearGradient
       inkscape:collect="always"
       xlink:href="#a"
       id="linearGradient4828"
       gradientUnits="userSpaceOnUse"
       x1="475.32001"
       y1="482.37"
       x2="457.72"
       y2="436.64999" />
    <linearGradient
       inkscape:collect="always"
       xlink:href="#a"
       id="linearGradient4830"
       gradientUnits="userSpaceOnUse"
       x1="475.32001"
       y1="482.37"
       x2="457.72"
       y2="436.64999" />
    <linearGradient
       gradientUnits="userSpaceOnUse"
       gradientTransform="matrix(0.98513,0,0,0.96502,66.439,-9.1697)"
       y2="806.28003"
       y1="915.91998"
       x2="384.41"
       x1="402.37"
       id="ad-9">
      <stop
         id="stop4832"
         offset="0"
         stop-color="#ff0" />
      <stop
         id="stop4834"
         offset="1"
         stop-opacity="0"
         stop-color="#ff0" />
    </linearGradient>
    <linearGradient
       gradientUnits="userSpaceOnUse"
       gradientTransform="matrix(0.90736,0,0,0.88884,97.746,53.389)"
       y2="816.83002"
       y1="972.90002"
       x2="366.45001"
       x1="397.67001"
       id="ae-9">
      <stop
         id="stop4837"
         offset="0" />
      <stop
         id="stop4839"
         offset="1"
         stop-opacity="0" />
    </linearGradient>
    <linearGradient
       gradientUnits="userSpaceOnUse"
       gradientTransform="matrix(0.90736,0,0,0.88884,97.746,53.389)"
       y2="827.16998"
       y1="987.52002"
       x2="372.07999"
       x1="377.17001"
       id="af-0">
      <stop
         id="stop4842"
         offset="0"
         stop-color="#f00" />
      <stop
         id="stop4844"
         offset="1"
         stop-opacity="0"
         stop-color="#f00" />
    </linearGradient>
    <linearGradient
       xlink:href="#a"
       gradientUnits="userSpaceOnUse"
       gradientTransform="matrix(1.126,0,0,1.2811,-53.287,174.09)"
       y2="102.45"
       y1="104.42"
       x2="288.22"
       x1="356.41"
       id="ag-6" />
    <linearGradient
       xlink:href="#a"
       gradientUnits="userSpaceOnUse"
       y2="126.45"
       y1="127.82"
       x2="313.37"
       x1="365.10999"
       id="au-3" />
    <linearGradient
       xlink:href="#b"
       gradientUnits="userSpaceOnUse"
       gradientTransform="translate(14.23,-125.59)"
       y2="712.59003"
       y1="710.06"
       x2="267.91"
       x1="202.82001"
       id="ah-7" />
    <linearGradient
       xlink:href="#a"
       gradientUnits="userSpaceOnUse"
       gradientTransform="matrix(1.359,0,-0.3184,1.243,-407.16,-24.278)"
       y2="446.07999"
       y1="515.02002"
       x2="462.28"
       x1="532.60999"
       id="ai-3" />
    <linearGradient
       gradientUnits="userSpaceOnUse"
       y2="466.31"
       y1="526.78003"
       x2="287.07001"
       x1="289.54999"
       id="aa">
      <stop
         id="stop4861"
         offset="0"
         stop-color="#00f" />
      <stop
         id="stop4863"
         offset="1"
         stop-opacity="0" />
    </linearGradient>
    <linearGradient
       gradientUnits="userSpaceOnUse"
       gradientTransform="translate(14.23,-125.59)"
       y2="603.09003"
       y1="607.89001"
       x2="360.48001"
       x1="336.20999"
       id="ak-0">
      <stop
         id="stop4866"
         offset="0"
         stop-color="#d40000" />
      <stop
         id="stop4868"
         offset="1"
         stop-color="#ff9292" />
    </linearGradient>
    <linearGradient
       gradientUnits="userSpaceOnUse"
       gradientTransform="translate(14.23,-125.59)"
       y2="574.94"
       y1="595.40002"
       x2="316.67999"
       x1="370.98001"
       id="al-9">
      <stop
         id="stop4871"
         offset="0"
         stop-color="#800000" />
      <stop
         id="stop4873"
         offset="1"
         stop-color="#3d0000" />
    </linearGradient>
    <linearGradient
       xlink:href="#a"
       gradientUnits="userSpaceOnUse"
       y2="436.64999"
       y1="482.37"
       x2="457.72"
       x1="475.32001"
       id="z" />
    <linearGradient
       xlink:href="#a"
       gradientUnits="userSpaceOnUse"
       gradientTransform="matrix(-0.46763,1.3302,-1.4097,-0.27393,1070.4,-51.156)"
       y2="446.07999"
       y1="515.02002"
       x2="462.28"
       x1="532.60999"
       id="am-3" />
    <linearGradient
       gradientUnits="userSpaceOnUse"
       gradientTransform="matrix(1.0453,-0.080706,0.051713,1.171,-4.0246,-147.85)"
       y2="771.06"
       y1="796.06"
       x2="419.03"
       x1="343.07001"
       id="an-7">
      <stop
         id="stop4878"
         offset="0"
         stop-color="#969696" />
      <stop
         id="stop4880"
         offset="1"
         stop-color="#5a5a5a" />
    </linearGradient>
    <linearGradient
       gradientUnits="userSpaceOnUse"
       gradientTransform="matrix(1.0453,-0.080706,0.051713,1.171,-4.0246,-147.85)"
       y2="644.97998"
       y1="756.40997"
       x2="273.39999"
       x1="299.75"
       id="ao-0">
      <stop
         id="stop4883"
         offset="0"
         stop-color="#36f" />
      <stop
         id="stop4885"
         offset="1"
         stop-color="#fff" />
    </linearGradient>
    <linearGradient
       gradientUnits="userSpaceOnUse"
       gradientTransform="matrix(1.0453,-0.080706,0.051713,1.171,-4.0246,-147.85)"
       y2="436.26001"
       y1="532.22998"
       x2="240.02"
       x1="181.87"
       id="ap-9">
      <stop
         id="stop4888"
         offset="0"
         stop-color="#9cdafb" />
      <stop
         id="stop4890"
         offset="1"
         stop-color="#fff" />
    </linearGradient>
    <linearGradient
       gradientUnits="userSpaceOnUse"
       gradientTransform="matrix(1.0453,-0.080706,0.051713,1.171,-4.0246,-147.85)"
       y2="435.28"
       y1="474.67999"
       x2="475.70001"
       x1="363.66"
       id="aq-5">
      <stop
         id="stop4893"
         offset="0"
         stop-color="#9cdafb" />
      <stop
         id="stop4895"
         offset="1"
         stop-color="#1aa9f6" />
    </linearGradient>
    <linearGradient
       gradientUnits="userSpaceOnUse"
       gradientTransform="matrix(1.0453,-0.080706,0.051713,1.171,-4.0246,-147.85)"
       y2="521.77002"
       y1="587.94"
       x2="385.19"
       x1="375.04999"
       id="ar-7">
      <stop
         id="stop4898"
         offset="0"
         stop-color="#f90" />
      <stop
         id="stop4900"
         offset="1"
         stop-color="#8d5500" />
    </linearGradient>
    <linearGradient
       gradientUnits="userSpaceOnUse"
       gradientTransform="matrix(1.0453,-0.080706,0.051713,1.171,-4.0246,-147.85)"
       y2="604.73999"
       y1="690.60999"
       x2="438.37"
       x1="362.79001"
       id="as-8">
      <stop
         id="stop4903"
         offset="0"
         stop-color="#36f" />
      <stop
         id="stop4905"
         offset="1"
         stop-color="#00279c" />
    </linearGradient>
    <linearGradient
       xlink:href="#b"
       gradientUnits="userSpaceOnUse"
       gradientTransform="translate(14.23,-125.59)"
       y2="633.71002"
       y1="632.64001"
       x2="559.69"
       x1="570.04999"
       id="ac-9" />
    <linearGradient
       xlink:href="#a"
       gradientUnits="userSpaceOnUse"
       gradientTransform="matrix(-0.92202,0.6523,-0.6497,-0.92708,1348.3,471.48)"
       y2="446.07999"
       y1="515.02002"
       x2="462.28"
       x1="532.60999"
       id="at-5" />
    <linearGradient
       xlink:href="#b"
       gradientUnits="userSpaceOnUse"
       gradientTransform="translate(7.8011,-130.95)"
       y2="644.90997"
       y1="647.77002"
       x2="487.73999"
       x1="535.71997"
       id="ab-8" />
    <linearGradient
       xlink:href="#a"
       gradientUnits="userSpaceOnUse"
       gradientTransform="matrix(-0.0076347,0.99997,-0.99997,-0.0076347,1083.9,-73.914)"
       y2="446.07999"
       y1="515.02002"
       x2="462.28"
       x1="532.60999"
       id="aj-9" />
    <linearGradient
       gradientUnits="userSpaceOnUse"
       gradientTransform="matrix(0.98513,0,0,0.96502,66.439,-9.1697)"
       y2="806.28"
       y1="915.92"
       x2="384.41"
       x1="402.37"
       id="ad-1">
      <stop
         id="stop5139"
         offset="0"
         stop-color="#ff0" />
      <stop
         id="stop5141"
         offset="1"
         stop-opacity="0"
         stop-color="#ff0" />
    </linearGradient>
    <linearGradient
       gradientUnits="userSpaceOnUse"
       gradientTransform="matrix(0.90736,0,0,0.88884,97.746,53.389)"
       y2="816.83"
       y1="972.9"
       x2="366.45"
       x1="397.67"
       id="ae-1">
      <stop
         id="stop5144"
         offset="0" />
      <stop
         id="stop5146"
         offset="1"
         stop-opacity="0" />
    </linearGradient>
    <linearGradient
       gradientUnits="userSpaceOnUse"
       gradientTransform="matrix(0.90736,0,0,0.88884,97.746,53.389)"
       y2="827.17"
       y1="987.52"
       x2="372.08"
       x1="377.17"
       id="af-3">
      <stop
         id="stop5149"
         offset="0"
         stop-color="#f00" />
      <stop
         id="stop5151"
         offset="1"
         stop-opacity="0"
         stop-color="#f00" />
    </linearGradient>
    <linearGradient
       xlink:href="#a"
       gradientUnits="userSpaceOnUse"
       gradientTransform="matrix(1.126,0,0,1.2811,-53.287,174.09)"
       y2="102.45"
       y1="104.42"
       x2="288.22"
       x1="356.41"
       id="ag-63" />
    <linearGradient
       xlink:href="#a"
       gradientUnits="userSpaceOnUse"
       y2="126.45"
       y1="127.82"
       x2="313.37"
       x1="365.11"
       id="au-6" />
    <linearGradient
       xlink:href="#b"
       gradientUnits="userSpaceOnUse"
       gradientTransform="translate(14.23,-125.59)"
       y2="712.59"
       y1="710.06"
       x2="267.91"
       x1="202.82"
       id="ah-2" />
    <linearGradient
       xlink:href="#a"
       gradientUnits="userSpaceOnUse"
       gradientTransform="matrix(1.359,0,-0.3184,1.243,-407.16,-24.278)"
       y2="446.08"
       y1="515.02"
       x2="462.28"
       x1="532.61"
       id="ai-9" />
    <linearGradient
       gradientUnits="userSpaceOnUse"
       gradientTransform="translate(14.23,-125.59)"
       y2="603.09"
       y1="607.89"
       x2="360.48"
       x1="336.21"
       id="ak-02">
      <stop
         id="stop5173"
         offset="0"
         stop-color="#d40000" />
      <stop
         id="stop5175"
         offset="1"
         stop-color="#ff9292" />
    </linearGradient>
    <linearGradient
       gradientUnits="userSpaceOnUse"
       gradientTransform="translate(14.23,-125.59)"
       y2="574.94"
       y1="595.4"
       x2="316.68"
       x1="370.98"
       id="al-7">
      <stop
         id="stop5178"
         offset="0"
         stop-color="#800000" />
      <stop
         id="stop5180"
         offset="1"
         stop-color="#3d0000" />
    </linearGradient>
    <linearGradient
       xlink:href="#a"
       gradientUnits="userSpaceOnUse"
       y2="436.65"
       y1="482.37"
       x2="457.72"
       x1="475.32"
       id="z-5" />
    <linearGradient
       gradientUnits="userSpaceOnUse"
       gradientTransform="matrix(1.0453,-0.080706,0.051713,1.171,-4.0246,-147.85)"
       y2="771.06"
       y1="796.06"
       x2="419.03"
       x1="343.07"
       id="an-9">
      <stop
         id="stop5185"
         offset="0"
         stop-color="#969696" />
      <stop
         id="stop5187"
         offset="1"
         stop-color="#5a5a5a" />
    </linearGradient>
    <linearGradient
       gradientUnits="userSpaceOnUse"
       gradientTransform="matrix(1.0453,-0.080706,0.051713,1.171,-4.0246,-147.85)"
       y2="644.98"
       y1="756.41"
       x2="273.4"
       x1="299.75"
       id="ao-3">
      <stop
         id="stop5190"
         offset="0"
         stop-color="#36f" />
      <stop
         id="stop5192"
         offset="1"
         stop-color="#fff" />
    </linearGradient>
    <linearGradient
       gradientUnits="userSpaceOnUse"
       gradientTransform="matrix(1.0453,-0.080706,0.051713,1.171,-4.0246,-147.85)"
       y2="436.26"
       y1="532.23"
       x2="240.02"
       x1="181.87"
       id="ap-3">
      <stop
         id="stop5195"
         offset="0"
         stop-color="#9cdafb" />
      <stop
         id="stop5197"
         offset="1"
         stop-color="#fff" />
    </linearGradient>
    <linearGradient
       gradientUnits="userSpaceOnUse"
       gradientTransform="matrix(1.0453,-0.080706,0.051713,1.171,-4.0246,-147.85)"
       y2="435.28"
       y1="474.68"
       x2="475.7"
       x1="363.66"
       id="aq-1">
      <stop
         id="stop5200"
         offset="0"
         stop-color="#9cdafb" />
      <stop
         id="stop5202"
         offset="1"
         stop-color="#1aa9f6" />
    </linearGradient>
    <linearGradient
       gradientUnits="userSpaceOnUse"
       gradientTransform="matrix(1.0453,-0.080706,0.051713,1.171,-4.0246,-147.85)"
       y2="521.77"
       y1="587.94"
       x2="385.19"
       x1="375.05"
       id="ar-8">
      <stop
         id="stop5205"
         offset="0"
         stop-color="#f90" />
      <stop
         id="stop5207"
         offset="1"
         stop-color="#8d5500" />
    </linearGradient>
    <linearGradient
       gradientUnits="userSpaceOnUse"
       gradientTransform="matrix(1.0453,-0.080706,0.051713,1.171,-4.0246,-147.85)"
       y2="604.74"
       y1="690.61"
       x2="438.37"
       x1="362.79"
       id="as-2">
      <stop
         id="stop5210"
         offset="0"
         stop-color="#36f" />
      <stop
         id="stop5212"
         offset="1"
         stop-color="#00279c" />
    </linearGradient>
    <linearGradient
       xlink:href="#b"
       gradientUnits="userSpaceOnUse"
       gradientTransform="translate(14.23,-125.59)"
       y2="633.71"
       y1="632.64"
       x2="559.69"
       x1="570.05"
       id="ac-2" />
    <linearGradient
       xlink:href="#b"
       gradientUnits="userSpaceOnUse"
       gradientTransform="translate(7.8011,-130.95)"
       y2="644.91"
       y1="647.77"
       x2="487.74"
       x1="535.72"
       id="ab-6" />
  </defs>
  <sodipodi:namedview
     id="base"
     pagecolor="#ffffff"
     bordercolor="#666666"
     borderopacity="1.0"
     inkscape:pageopacity="0.0"
     inkscape:pageshadow="2"
     inkscape:zoom="0.35"
     inkscape:cx="-123.41134"
     inkscape:cy="355.28399"
     inkscape:document-units="mm"
     inkscape:current-layer="layer1"
     showgrid="false"
     fit-margin-top="0"
     fit-margin-left="0"
     fit-margin-right="0"
     fit-margin-bottom="0"
     inkscape:window-width="1536"
     inkscape:window-height="801"
     inkscape:window-x="1272"
     inkscape:window-y="-8"
     inkscape:window-maximized="1" />
  <metadata
     id="metadata5">
    <rdf:RDF>
      <cc:Work
         rdf:about="">
        <dc:format>image/svg+xml</dc:format>
        <dc:type
           rdf:resource="http://purl.org/dc/dcmitype/StillImage" />
        <dc:title></dc:title>
      </cc:Work>
    </rdf:RDF>
  </metadata>
  <g
     inkscape:label="Calque 1"
     inkscape:groupmode="layer"
     id="layer1"
     transform="translate(-0.5246064,-62.835546)">
    <g
       id="g4698"
       transform="matrix(0.28247568,0,0,0.28247568,-0.54230032,-21.739161)">
      <path
         id="path4562"
         d="m 372.62,299.41 c -11.564,0.13044 -22.254,5.2183 -32.875,9.3125 -11.967,3.8046 -24.676,11.555 -30.062,23.156 -31.375,11.002 -60.107,29.59 -82.656,54.031 -3.4634,3.5472 -6.8051,7.1834 -10.062,10.906 -6.4438,-3.1278 -13.616,-4.7659 -20.938,-4.4062 -21.074,0.21005 -40.701,15.648 -46.656,35.562 -9.5361,3.0592 -18.673,7.6241 -28.188,10.562 -19.034,7.7204 -37.303,18.08 -53.312,31.031 -0.49682,0.0184 -1.0035,0.055 -1.5,0.0937 l -0.96875,0.0312 c -34.262,1.5082 -65.415,34.004 -61.25,68.875 2.677,18.323 20.405,32.2 38.719,31.469 9.354,0.27545 18.55,-1.878 26.969,-5.8125 4.9267,5.4725 11.061,10.066 17.125,13.906 18.663,14.815 37.306,29.611 55.969,44.406 -0.0282,12.457 6.3204,25.66 18.875,29.594 5.8499,2.5671 12.915,2.8141 18.594,4.6875 0.23727,2.6962 6.8642,7.8166 1.625,7.7812 -8.2688,1.792 -15.266,9.1526 -16.188,17.375 -11.92,4.2535 -16.279,20.025 -9.75,30.531 6.9801,16.824 20.828,33.752 40.406,34.469 21.2,1.7926 37.677,-14.129 54.125,-25 18.188,-15.232 33.683,-35.295 40.562,-58.219 12.693,29.64 26.081,59.041 36.938,89.375 4.6071,1.6602 9.2972,3.0915 14.031,4.3438 2.9275,11.858 5.8509,23.722 8.7188,35.594 32.313,11.649 70.694,12.388 100.62,-5.9062 5.9649,-3.6801 13.488,-6.7879 17.656,-12.094 0.57998,-10.924 1.1657,-21.858 1.75,-32.781 4.4562,-2.4387 8.786,-5.079 13,-7.9375 1.4749,-16.582 2.9021,-33.16 4.2812,-49.75 4.3479,-24.633 0.45841,-51.047 6.3693,-70.63 2.4646,-8.1653 20.29,-11.818 28.995,-17.472 16.142,-9.0954 -4.9247,-12.851 5.8682,-20.142 12.668,-8.5578 43.397,-13.135 45.298,-15.615 48.348,-21.362 55.988,-29.466 72.9,-25.155 8.4959,2.1654 16.418,9.7119 21.445,10.578 38.881,8.544 81.444,-23.688 81.656,-63.875 -0.28294,-20.293 -15.179,-39.14 -35.094,-43.562 -5.7619,-1.5352 -11.713,-2.1946 -17.688,-2.0312 -1.7272,0.0238 -3.4414,0.1453 -5.1562,0.3125 -7.8008,-6.8339 -16.81,-12.519 -25.188,-18.406 -18.583,-11.111 -39.04,-18.876 -59.75,-25.219 -4.9152,-19.127 -22.36,-34.849 -42.625,-35.188 -1.1028,-0.0532 -2.2097,-0.0532 -3.3125,0 -11.976,-0.14718 -23.166,5.741 -30.812,14.656 -26.807,-20.527 -57.423,-35.983 -90.156,-44.406 -0.73832,-2.2593 -1.8663,-4.4176 -3.4375,-6.4062 -8.3462,-12.478 -23.947,-15.731 -37.375,-19.344 -8.0088,-3.0664 -16.681,-3.3783 -25.188,-3.25 -0.7791,-0.0372 -1.5415,-0.0399 -2.3125,-0.0312 z m 225.59,133.34 c 0.009,0.003 0.0219,-0.003 0.0312,0 17.313,7.7384 29.564,22.56 42.812,35.844 -6.9721,10.575 -10.909,23.034 -10.219,36.156 0.0981,1.7192 0.31348,3.4237 0.625,5.0938 -1.3774,0.71909 -2.7499,1.4252 -4.1562,2.0625 -21.482,11.923 -42.457,24.913 -63.875,36.875 -6.2454,-2.8186 -12.92,-4.7038 -19.562,-5.5 -1.013,-0.15675 -2.0363,-0.25166 -3.0625,-0.34375 3.965,-16.613 8.0819,-33.185 11.688,-49.875 14.967,-7.5106 29.465,-15.98 43.312,-25.469 7.2961,-2.406 9.0306,-12.547 3.75,-17.812 -2.3479,-3.9517 -4.7933,-7.8582 -7.3438,-11.688 2.1586,-1.5949 4.1721,-3.3796 6,-5.3438 z m -438,39.406 c 1.8883,2.0064 3.9574,3.8475 6.1562,5.5 -4.477,10.215 -8.4968,20.629 -12.031,31.188 14.067,14.978 33.267,21.738 53.031,26 6.4946,14.188 13.315,28.225 20.094,42.281 -1.3516,0.15166 -2.7004,0.36254 -4.0625,0.65625 -2.5784,0.44872 -2.9782,-4.2769 -5.0312,-5.6875 -5.004,-6.9092 -13.168,-10.48 -21.656,-9.5 -7.6046,0.93612 -14.922,3.5166 -21.594,7.3125 -23.701,-13.784 -47.023,-28.358 -71.469,-40.656 1.1523,-2.788 2.1023,-5.6644 2.8125,-8.5938 17.315,-16.751 31.494,-37.968 53.75,-48.5 z"
         inkscape:connector-curvature="0" />
      <path
         id="path4564"
         d="m 211.77,399.03 c -22.928,-9.0016 -52.009,5.8224 -58.309,29.988 -7.5452,23.246 8.662,49.397 32.883,52.8 23.854,4.8385 49.788,-14.138 52.315,-38.357 2.7096,-19.066 -8.6468,-38.025 -26.889,-44.431 z"
         inkscape:connector-curvature="0" />
      <circle
         id="circle4566"
         r="34.219002"
         cy="463.06"
         cx="472.63"
         transform="matrix(1.0515,0.44262,-0.48895,1.0528,-75.176,-257.22)"
         style="fill:#ff9900" />
      <circle
         id="circle4568"
         r="34.219002"
         cy="463.06"
         cx="472.63"
         transform="matrix(0.93507,0.39362,-0.43482,0.93623,-45.228,-180.1)"
         style="fill:url(#linearGradient4826)" />
      <path
         id="path4570"
         d="m 176.97,458.11 c 10.064,-8.4021 12.63,-22.576 0.44474,-26.706 -9.49,-4.9486 -23.492,-2.0131 -34.497,3.5022 -27.934,9.0093 -55.359,22.283 -76.084,41.117 -7.1983,5.6374 -14.208,11.79 -18.25,18.887 18.106,7.848 36.182,15.73 54.239,23.634 17.408,-16.666 30.924,-36.808 53.858,-49.484 7.1785,-2.9651 15.417,-5.2503 20.289,-10.949 z"
         inkscape:connector-curvature="0" />
      <path
         id="path4572"
         d="m 102.06,512.36 c 0,0 26.089,-28.2 38.421,-38.334 12.333,-10.134 24.483,-12.733 24.483,-12.733 0,0 11.482,-6.204 14.569,-16.089 3.0873,-9.8852 -16.205,-14.694 -25.855,-9.747 -9.6502,4.9473 -41.125,12.268 -65.09,29.684 -28.739,20.885 -32.245,27.275 -32.245,27.275 z"
         inkscape:connector-curvature="0"
         style="fill:#ff9900" />
      <path
         id="path4574"
         d="m 168.98,452.7 c 5.4415,-4.5987 7.7822,-8.5328 1.6936,-11.917 -4.883,-2.7145 -32.522,10.337 -42.57,15.979 -14.759,8.2883 -36.84,18.629 -55.481,36.114 6.4467,2.5803 27.062,13.23 30.633,11.342 12.787,-25.299 48.494,-42.824 65.724,-51.518 z"
         inkscape:connector-curvature="0"
         style="fill:url(#ab)" />
      <path
         id="path4576"
         d="m 38.182,482.27 c -25.948,14.886 -38.532,48.872 -25.024,68.294 11.764,19.984 45.436,20.85 68.118,1.6102 23.49,-18.093 30.251,-51.714 13.58,-67.865 -12.528,-13.345 -36.614,-14.318 -56.674,-2.0393 z"
         inkscape:connector-curvature="0" />
      <circle
         id="circle4578"
         r="34.219002"
         cy="463.06"
         cx="472.63"
         transform="matrix(1.2131,-0.66552,0.41093,1.0339,-707.69,355.69)"
         style="fill:#ff9900" />
      <circle
         id="circle4580"
         r="34.219002"
         cy="463.06"
         cx="472.63"
         transform="matrix(1.0788,-0.59185,0.36544,0.91944,-623.16,373.87)"
         style="fill:url(#linearGradient4828)" />
      <path
         id="path4582"
         d="m 73.417,524.75 c -12.218,3.2194 -11.608,19.363 -6.385,28.345 6.0641,13.919 21.563,19.076 31.72,29.361 20.207,15.937 40.354,31.802 60.428,47.787 16.514,-3.3956 37.521,-6.095 46.024,-22.946 3.6389,-7.537 0.86924,-19.064 -8.2782,-20.564 -36.434,-20.006 -71.557,-42.748 -108.75,-61.028 -4.7396,-1.5472 -9.8703,-2.2933 -14.758,-0.95485 z"
         inkscape:connector-curvature="0" />
      <path
         id="path4584"
         d="m 93.103,533.64 107.46,61.575 c 0,0 3.8126,10.942 -7.7834,18.507 -11.596,7.5648 -32.086,10.613 -32.086,10.613 l -85.729,-67.698 c 0,0 -10.431,-17.643 -3.8072,-24.338 6.6243,-6.6952 21.946,1.3409 21.946,1.3409 z"
         inkscape:connector-curvature="0"
         style="fill:#ff9900" />
      <path
         id="path4586"
         d="m 76.398,535.55 c -5.3282,2.7435 -0.49852,11.301 1.6751,14.912 6.4556,10.725 19.353,15.122 28.124,23.788 18.645,14.708 37.289,29.415 55.934,44.123 11.662,-3.0774 27.351,-7.3764 32.813,-19.96 -46.886,-24.357 -79.207,-46.828 -110.52,-62.188 -2.3796,-1.1673 -5.5818,-1.9317 -8.0244,-0.67395 z"
         inkscape:connector-curvature="0"
         style="fill:url(#ac)" />
      <path
         id="path4588"
         d="m 181.36,571.11 c 0.7641,-0.3716 1.5358,-0.7167 2.3114,-1.0537 9.7574,-4.432 23.972,-6.1645 30.888,3.7917 2.2542,2.7994 4.0495,5.8792 5.7152,9.0498 16.895,-6.2812 36.04,2.5828 47.889,14.969 22.73,20.926 27.523,43.247 16.93,71.689 -6.4738,17.382 -25.428,42.065 -40.814,52.126 -20.048,13.109 -30.233,23.857 -51.314,20.849 -17.432,-2.487 -28.503,-19.658 -34.591,-34.991 -3.2598,-7.8512 -0.38033,-17.83 7.9651,-21.195 1.2503,-0.67841 2.5479,-1.2168 3.8604,-1.6344 -0.83819,-6.287 3.3305,-12.591 9.2526,-14.912 3.9774,-1.7418 8.4049,-2.2704 12.646,-1.6783 -3.6756,-4.789 -6.7483,-10.099 -9.2923,-15.494 -12.022,-1.7176 -27.534,-3.604 -32.975,-16.136 -10.02,-26.001 7.8398,-53.863 31.528,-65.38 z"
         inkscape:connector-curvature="0" />
      <path
         id="path4590"
         d="m 284.39,631.43 c 6.4909,20.456 -7.9402,56.185 -33.063,78.184 -26.604,23.296 -47.436,34.218 -63.223,27.066 -15.787,-7.1525 -29.521,-31.706 -26.14,-39.997 3.3814,-8.2909 19.126,-12.682 28.916,-3.9151 9.7898,8.7668 18.359,16.284 18.359,16.284 0,0 -2.0648,-9.7149 15.64,-26.25 -10.531,-1.0524 -22.068,-3.5784 -37.023,-29.381 -14.955,-25.803 6.5226,-56.673 35.159,-66.744 24.552,-8.6344 53.376,19.542 61.375,44.753 z"
         inkscape:connector-curvature="0"
         style="fill:url(#af)" />
      <path
         id="path4592"
         d="m 180.22,674.3 c 3.277,-1.7443 7.8219,-2.5229 13.246,-1.6222 1.0761,0.17869 2.2192,0.49612 3.3837,0.92527 5.0282,5.1798 10.957,9.3435 17.945,11.71 0.20786,0.17633 0.40168,0.36727 0.60571,0.54242 -2.6618,4.3053 -7.2116,9.0724 -9.1054,14.428 -2.1904,-0.69699 -4.6504,-4.12 -6.9408,-5.9106 -5.806,-7.1552 -15.457,-11.559 -24.674,-10.566 -0.58195,-3.7218 1.4945,-7.353 5.54,-9.5064 z"
         inkscape:connector-curvature="0"
         style="fill:url(#ae)" />
      <path
         id="path4594"
         d="m 184.16,574.61 c 6.9582,-3.2092 13.332,-4.1018 18.358,-3.5842 6.0168,0.61965 10.834,7.9077 13.741,13.657 -0.0301,0.0166 -0.0629,0.0273 -0.0931,0.0439 -3.1219,1.3567 -6.1499,2.9752 -8.9798,4.8422 -18.767,11.728 -33.587,34.459 -27.068,56.873 0.19544,0.49018 0.43147,0.97855 0.63525,1.4698 -7.1675,-0.95122 -16.496,-2.8726 -21.913,-6.6738 -9.3322,-6.5485 -11.493,-31.368 3.3714,-49.036 7.432,-8.8341 14.99,-14.383 21.948,-17.592 z"
         inkscape:connector-curvature="0"
         style="fill:url(#ad)" />
      <path
         id="path4596"
         d="m 534.78,374.54 c -15.428,16.193 -11.823,45.723 7.4637,59.299 18.068,14.309 46.449,9.6419 57.356,-9.5561 12.054,-18.398 3.7543,-46.704 -16.81,-57.127 -15.954,-8.8106 -36.401,-5.7583 -48.01,7.3841 z"
         inkscape:connector-curvature="0" />
      <circle
         id="circle4598"
         r="34.219002"
         cy="463.06"
         cx="472.63"
         transform="matrix(0.73387,-0.73239,0.77024,0.7718,-138.38,390.94)"
         style="fill:#ff9900" />
      <circle
         id="circle4600"
         r="34.219002"
         cy="463.06"
         cx="472.63"
         transform="matrix(0.65263,-0.65131,0.68498,0.68636,-60.496,392.19)"
         style="fill:url(#linearGradient4830)" />
      <path
         id="path4602"
         d="m 582.94,420.1 c -9.277,-7.3312 -11.642,-19.699 -0.40996,-23.302 8.7478,-4.3179 21.655,-1.7565 31.799,3.0558 25.749,7.861 51.03,19.443 70.133,35.876 6.6353,4.9188 13.097,10.287 16.822,16.48 -16.69,6.8477 -33.352,13.725 -49.997,20.621 -16.046,-14.542 -28.505,-32.116 -49.645,-43.177 -6.617,-2.5872 -14.211,-4.5811 -18.702,-9.5537 z"
         inkscape:connector-curvature="0" />
      <path
         id="path4604"
         d="m 652,467.44 c 0,0 -24.048,-24.606 -35.416,-33.448 -11.368,-8.842 -22.568,-11.11 -22.568,-11.11 0,0 -10.584,-5.4133 -13.43,-14.039 -2.8458,-8.6253 14.937,-12.821 23.833,-8.5046 8.8954,4.3167 37.908,10.704 60,25.901 26.492,18.223 29.723,23.799 29.723,23.799 z"
         inkscape:connector-curvature="0"
         style="fill:#ff9900" />
      <path
         id="path4606"
         d="m 590.31,415.38 c -5.0159,-4.0126 -7.1736,-7.4452 -1.5611,-10.399 4.5011,-2.3685 29.978,9.0191 39.24,13.943 13.605,7.2319 33.958,16.255 51.142,31.511 -5.9425,2.2514 -24.945,11.543 -28.237,9.8965 -11.787,-22.075 -44.701,-37.366 -60.583,-44.952 z"
         inkscape:connector-curvature="0"
         style="fill:url(#ag)" />
      <path
         id="path4608"
         d="m 664.09,451.49 c 27.752,-18.774 66.708,-12.357 78.146,13.173 12.884,24.014 -3.9017,60.08 -34.093,72.879 -29.522,14.318 -65.085,1.9626 -71.752,-25.011 -6.1606,-20.971 5.5101,-46.974 27.699,-61.041 z"
         inkscape:connector-curvature="0" />
      <circle
         id="circle4610"
         r="34.219002"
         cy="463.06"
         cx="472.63"
         transform="matrix(-1.2684,0.89531,0.76998,1.0336,933.61,-409.7)"
         style="fill:#ff9900" />
      <circle
         id="circle4612"
         r="34.219002"
         cy="463.06"
         cx="472.63"
         transform="matrix(-1.128,0.7962,0.68474,0.91914,906.72,-309.87)"
         style="fill:url(#c)" />
      <path
         id="path4616"
         d="m 464.86,729.99 c -37.369,19.921 -81.368,23.216 -121.93,14.022 3.7724,15.317 7.559,30.63 11.309,45.953 29.092,9.6842 62.408,11.499 90.197,-3.6677 7.299,-3.5566 14.176,-7.5909 20.8,-12.348 0.7722,-15.112 1.5482,-30.223 2.3964,-45.331 -0.92428,0.45719 -1.8486,0.91439 -2.7728,1.3716 z"
         inkscape:connector-curvature="0" />
      <path
         id="path4618"
         d="m 463.64,734.8 c -35.567,18.187 -76.977,21.817 -115.75,14.098 l 9.3618,38.03 c 0,0 28.391,9.787 55.61,5.8362 25.026,-3.6327 48.84,-20.906 48.84,-20.906 z"
         inkscape:connector-curvature="0"
         style="fill:#969696" />
      <path
         id="path4620"
         d="m 463.64,734.8 c -24.264,12.407 -51.242,18.033 -78.251,17.909 1.8694,1.2804 3.4528,2.582 4.5972,3.9066 7.5331,8.7195 9.0887,24.522 9.0887,24.522 0,0 1.1995,-27.544 13.349,-24.64 12.15,2.9046 15.54,24.978 15.54,24.978 0,0 1.3852,-25.484 8.8223,-24.959 7.4371,0.52502 13.794,21.78 13.794,21.78 l 0.79222,0.0559 c 6.3551,-3.6336 10.332,-6.4945 10.332,-6.4945 l 1.9358,-37.058 z"
         inkscape:connector-curvature="0"
         style="fill:url(#ah)" />
      <path
         id="path4622"
         d="m 492.05,550.52 c -37.991,22.588 -79.258,37.985 -121.84,43.327 -29.359,2.7784 -76.798,1.2744 -104.91,-11.156 16.168,56.718 45.198,109.86 65.956,167.32 47.542,16.82 106.23,10.676 148.85,-17.953 3.8186,-41.951 10.769,-131.2 15.034,-183.36 -1.0275,0.61032 -2.055,1.2206 -3.0825,1.8309 z"
         inkscape:connector-curvature="0" />
      <path
         id="path4624"
         d="m 490.71,556.55 c -25.183,15.018 -52.019,25.897 -79.504,33.618 -39.508,12.467 -100.6,14.148 -140.32,-1.7015 32.857,68.929 63.256,157.88 63.256,157.88 0,0 36.974,14.487 80.252,7.4913 43.277,-6.9959 62.298,-26.132 62.298,-26.132 z"
         inkscape:connector-curvature="0"
         style="fill:#3366ff" />
      <path
         id="path4626"
         d="m 490.71,556.55 c -25.183,15.018 -52.019,25.897 -79.504,33.618 -14.188,4.4771 -28.865,7.354 -43.68,8.5005 52.31,25.117 92.362,73.324 107.75,130.3 0.90476,-0.78035 1.4139,-1.2696 1.4139,-1.2696 z"
         inkscape:connector-curvature="0"
         style="fill:url(#aj)" />
      <path
         id="path4628"
         d="m 303.3,596.77 38.434,147.26 c 12.701,3.7233 25.719,6.0404 38.747,6.8153 l -18.786,-147.19 c -19.476,0.84183 -39.222,-1.3241 -58.394,-6.8884 z"
         inkscape:connector-curvature="0"
         style="fill:url(#ai)" />
      <path
         id="path4630"
         d="m 348.8,844.92 c -1.0549,34.486 39.634,54.415 39.634,54.415 -6.2026,33.706 -26.623,32.408 -26.623,32.408 0,0 67.787,0.77101 100.72,-42.605 32.934,-43.376 4.5313,-81.98 -8.6823,-94.477 -13.214,-12.498 -27.852,-18.654 -27.852,-18.654 l -38.01,11.661 c 0,0 -38.133,22.766 -39.188,57.252 z"
         inkscape:connector-curvature="0"
         style="fill:url(#am)" />
      <path
         id="path4632"
         d="m 427.12,770.83 c -0.53762,-0.11916 -1.0618,-0.17146 -1.5974,-0.13225 -18.473,6.8162 -40.707,8.9562 -54.212,22.503 -20.575,17.277 -34.207,42.955 -26.541,67.116 5.3866,17.011 19.62,31.332 36.846,41.34 -2.2283,9.8369 -6.5404,22.581 -20.038,25.21 -4.5213,1.2158 -8.163,3.6869 -11.821,6.1139 15.896,7.2836 34.134,1.8881 50.509,-0.98291 38.959,-8.7668 73.166,-34.437 81.576,-67.71 9.1916,-34.49 -11.376,-72.025 -47.888,-90.289 -2.1727,-0.88758 -4.5041,-2.652 -6.8334,-3.1697 z m -1.1174,5.1623 c 0,0 14.623,6.1699 27.837,18.668 13.214,12.4981 41.627,51.112 8.6924,94.488 -30.657,40.376 -91.449,42.487 -99.719,42.588 4.1332,-0.24597 20.237,-3.1039 25.626,-32.394 0,0 -40.695,-19.946 -39.64,-54.433 1.0549,-34.486 39.195,-57.243 39.195,-57.243 z"
         inkscape:connector-curvature="0"
         style="fill:url(#al)" />
      <path
         id="path4634"
         d="m 408.27,792.68 c 0,0 -31.337,23.728 -23.206,45.73 8.1315,22.002 15.712,21.621 25.714,36.85 5.4547,8.3057 0.23536,20.58 0.23536,20.58 0,0 23.34,-7.7412 37.178,-43.613 13.838,-35.871 -3.684,-59.625 -6.5572,-59.826 -2.8732,-0.2004 -33.364,0.27799 -33.364,0.27799 z"
         inkscape:connector-curvature="0"
         style="fill:url(#ak)" />
      <path
         id="path4636"
         d="m 237.98,532.81 c -10.089,-1.7865 -29.429,-13.529 -39.465,-16.068 10.762,24.469 37.624,75.133 48.442,99.58 70.467,26.123 115.18,21.524 172.99,14.731 37.745,-4.435 76.69,-25.222 110.25,-41.32 4.5438,-28.802 23.435,-91.513 28.073,-120.29 -133.88,60.9 -231.69,76.619 -320.29,63.361 z"
         inkscape:connector-curvature="0" />
      <path
         id="path4638"
         d="m 535.27,519.67 c -73.958,27.211 -157.01,31.887 -238.83,25.267 -26.765,-2.6807 -54.172,-5.3418 -80.957,-12.207 l 38.16,78.743 c 0,0 51.364,25.067 132.75,18.688 81.39,-6.3795 136.14,-43.651 136.14,-43.651 z"
         inkscape:connector-curvature="0"
         style="fill:#ff9900" />
      <path
         id="path4640"
         d="m 547.05,477.88 c -37.34,21.402 -117.24,85.095 -331.56,54.931 25.191,52.52 29.588,62.197 38.236,77.917 5.1789,-8.1505 37.966,-40.906 76.274,-44.755 116.2,-11.673 154.34,2.2248 192.53,20.458 z"
         inkscape:connector-curvature="0"
         style="fill:url(#an)" />
      <path
         id="path4642"
         d="m 397.42,325.46 c -54.706,-5.3758 -111.23,11.395 -153.22,49.605 -39.103,34.32 -67.801,81.359 -85.257,132.72 17.395,17.506 41.855,21.575 64.186,26.172 57.252,9.4507 115.36,6.9944 172.57,0.74198 69.216,-9.1148 138.5,-29.543 197.4,-70.303 7.3594,-2.9293 6.8715,-7.8666 2.2055,-13.467 -43.08,-72.819 -119.03,-120.38 -197.88,-125.46 z"
         inkscape:connector-curvature="0" />
      <path
         id="path4644"
         d="m 164.12,506.51 c 0,0 53.14,-174.36 208.36,-176.97 155.22,-2.6096 221.63,128.15 221.63,128.15 0,0 -80.811,67.026 -240.93,76.127 -160.12,9.1018 -189.06,-27.306 -189.06,-27.306 z"
         inkscape:connector-curvature="0"
         style="fill:#9cdafb" />
      <path
         id="path4646"
         d="m 400.54,330.55 c -9.0129,-0.81429 -18.35,-1.1875 -28.051,-1.0244 -1.6598,0.0279 -3.3148,0.0871 -4.9513,0.15385 65.8,28.982 109.49,87.101 105.1,149.51 -0.92342,13.152 -3.9372,25.706 -8.7459,37.467 86.617,-22.807 130.21,-58.953 130.21,-58.953 0,0 -58.371,-114.94 -193.56,-127.15 z"
         inkscape:connector-curvature="0"
         style="fill:url(#ap)" />
      <path
         id="path4648"
         d="m 354.76,349.79 c -73.035,-7.181 -150.44,64.348 -175.79,161.01 20.76,10.999 44.624,13.604 67.374,16.687 3.703,0.3665 7.4155,0.71945 11.122,1.0182 0.2423,-3.2808 0.56197,-6.5835 0.93659,-9.8949 9.2321,-81.608 56.25,-146.93 113.21,-165.69 -5.4059,-1.5062 -11.029,-2.5542 -16.848,-3.1263 z"
         inkscape:connector-curvature="0"
         style="fill:url(#ao)" />
      <ellipse
         id="ellipse4650"
         ry="33.570999"
         rx="17.232"
         cy="504.85999"
         cx="287.23001"
         transform="matrix(0.79338,0,0,1.0455,178.34,-66.936)" />
      <ellipse
         id="ellipse4652"
         ry="33.570999"
         rx="17.232"
         cy="504.85999"
         cx="287.23001"
         transform="matrix(0.69242,0,0,0.91249,207.34,0.23555)"
         style="fill:url(#ar)" />
      <ellipse
         id="ellipse4654"
         ry="33.570999"
         rx="17.232"
         cy="504.85999"
         cx="287.23001"
         transform="matrix(0.34586,0,0,0.45578,302.7,219.7)"
         style="fill:#ffffff" />
      <ellipse
         id="ellipse4656"
         ry="45.995998"
         rx="21.965"
         cy="457.16"
         cx="330.07999" />
      <ellipse
         id="ellipse4658"
         ry="40.143002"
         rx="19.17"
         cy="457.16"
         cx="330.07999"
         style="fill:url(#as)" />
      <ellipse
         id="ellipse4660"
         ry="20.051001"
         rx="9.5753002"
         cy="442.60999"
         cx="323.35999"
         style="fill:#ffffff" />
      <path
         id="path4662"
         d="m 297.59,506.95 c 0,0 -40.686,5.996 -56.451,-8.2399 1.1696,-5.3119 -0.71071,-9.2371 -0.71071,-9.2371 0,0 -9.4153,-5.2543 -17.135,15.246 -6.1084,16.221 10.996,8.3014 10.996,8.3014 0,0 -3.3761,5.5421 0,0 31.943,13.835 63.301,-6.0705 63.301,-6.0705 z"
         inkscape:connector-curvature="0" />
      <path
         id="path4664"
         d="m 390.72,304.27 c -0.91548,-0.16137 -1.824,-0.29331 -2.7343,-0.4095 -13.485,-1.0271 -28.678,-0.85358 -40.594,6.7638 -14.25,4.0749 -29.921,10.258 -35.659,26.811 -3.4195,13.852 8.8826,24.932 19.334,28.493 29.064,11.05 61.765,8.4352 89.347,-5.6279 9.7152,-4.9202 20.856,-16.508 16.832,-29.946 -5.0041,-14.65 -21.229,-19.775 -33.407,-22.328 -0.57201,-0.0611 -1.0432,0.003 -1.4582,0.12022 -3.6387,-1.9903 -7.6616,-3.1717 -11.66,-3.8764 z"
         inkscape:connector-curvature="0" />
      <ellipse
         id="ellipse4666"
         ry="12.753"
         rx="31.694"
         cy="127.19"
         cx="340.29999"
         transform="matrix(1.0549,-0.021608,-0.1433,1.2195,33.865,176.02)"
         style="fill:#ff9900" />
      <path
         id="path4668"
         d="m 408.53,314.2 c 3.052,2.626 4.6462,5.7204 4.2494,9.0967 -1.1798,10.041 -19.252,18.599 -40.356,19.12 -21.104,0.52115 -37.262,-7.2082 -36.082,-17.249 0.29167,-2.4822 1.6114,-4.8983 3.7577,-7.1006 -13.942,5.5568 -23.383,13.761 -24.429,22.658 -1.8408,15.666 23.058,27.652 55.637,26.782 32.579,-0.87036 60.497,-14.278 62.337,-29.944 1.197,-10.187 -8.9336,-18.81 -25.114,-23.364 z"
         inkscape:connector-curvature="0"
         style="fill:#ff9900" />
      <ellipse
         id="ellipse4670"
         ry="12.753"
         rx="31.694"
         cy="127.19"
         cx="340.29999"
         transform="matrix(0.86345,-0.017687,-0.11729,0.99818,95.703,202.84)"
         style="fill:url(#at)" />
      <path
         id="path4672"
         d="m 417.17,323.1 c -1.8653,14.487 -16.647,19.194 -27.382,22.013 -17.49,4.1488 -37.745,4.2327 -53.072,-7.8445 -2.4571,-2.4714 -4.3507,-5.8171 -4.8299,-9.552 -5.5911,3.1924 -14.394,10.107 -10.814,18.298 8.09,12.644 23.508,13.893 36.142,15.822 23.109,2.0157 48.353,-1.1016 67.441,-16.71 4.6801,-3.8998 6.6172,-12.662 0.86971,-16.693 -2.3392,-2.2184 -5.7744,-5.1144 -8.3547,-5.3325 z"
         inkscape:connector-curvature="0"
         style="fill:url(#aq)" />
      <path
         id="path4676"
         d="m 684.93,514.83 c 8.3932,-23.42 -9.7382,-22.378 -25.943,-22.259 -23.657,-1.4652 -50.717,12.813 -72.27,16.343 -36.607,9.0999 -73.072,18.184 -109.65,27.154 -7.1458,14.978 -18.483,33.286 -1.2181,47.934 7.8401,6.4182 25.814,9.4618 34.462,2.718 53.9,-20.416 110.65,-38.511 162.7,-60.337 5.5482,-3.1406 10.266,-6.9669 11.919,-11.553 z"
         inkscape:connector-curvature="0" />
      <path
         id="path4678"
         d="m 664.26,523.99 -171.33,63.15 c 0,0 -18.716,-1.519 -20.732,-14.434 -2.0163,-12.915 9.3114,-31.305 9.3114,-31.305 l 163.49,-42.406 c 0,0 33.465,-1.1222 38.042,7.2746 4.5773,8.3967 -18.779,17.72 -18.779,17.72 z"
         inkscape:connector-curvature="0"
         style="fill:#ff9900" />
      <path
         id="path4680"
         d="m 674.32,509.24 c 0.13046,-5.6197 -15.925,-5.2672 -22.804,-5.0054 -20.431,0.77741 -36.674,9.6418 -55.911,13.234 -35.533,9.2295 -71.066,18.459 -106.6,27.688 -4.51,11.044 -10.348,25.968 3.619,35.924 71.132,-28.631 128.36,-45.929 174.56,-65.441 3.5108,-1.4827 7.0714,-3.824 7.1311,-6.4003 z"
         inkscape:connector-curvature="0"
         style="fill:url(#au)" />
      <path
         id="path4682"
         d="m 361.59,525.5 c -0.61001,0.46361 -1.2237,0.94392 -1.8167,1.4312 -23.31,1.6282 -38.115,0.3657 -50.601,2.4595 -11.791,1.9773 -9.1601,10.262 -9.1601,10.262 -0.40652,8.4812 -2.5182,21.488 0.98551,26.94 0,0 16.98,4.4826 23.255,4.6817 6.9221,0.21954 8.539,2.0853 26.663,-0.3079 5.4688,-0.72211 -6.9819,-5.7604 -6.6489,-5.0302 -14.045,22.784 -1.9103,38.627 11.518,49.716 -0.84395,17.201 12.196,32.1 27.698,37.949 14.728,7.3421 34.838,10.805 48.344,-0.82185 4.1056,-3.9055 3.0636,-10.831 2.445,-15.101 15.418,-0.7646 31.505,-7.4552 39.307,-21.455 1.4911,-3.941 6.9337,-1.4601 10.281,-3.0746 12.093,-1.8339 24.818,-11.792 22.598,-25.227 -1.8617,-18.372 -13.006,-34.201 -23.987,-48.469 -6.0542,-8.2107 -17.085,-11.725 -26.667,-8.1889 -3.1904,0.17292 -6.8226,4.7041 -8.9068,0.60406 -5.4379,-5.7341 -11.958,-10.477 -19.069,-13.892 -3.9739,-8.0346 -9.2319,-16.702 -18.787,-16.864 -8.3433,0.45166 -14.852,6.4898 -21.312,11.132 -0.71181,0.51338 -1.0951,1.1181 -1.2323,1.7315 -8.9639,2.0755 -17.54,5.9313 -24.908,11.525 z"
         inkscape:connector-curvature="0" />
      <path
         id="path4684"
         d="m 464.53,558.91 c 0,0 -5.9013,-13.931 -12.399,-21.996 0,0 14.319,-7.4711 23.756,1.5237 9.4368,8.9949 27.954,36.484 26.766,53.619 -0.8592,12.396 -16.186,17.491 -24.516,17.83 0,0 2.5541,-7.0472 -1.7644,-19.327 0,0 1.6837,21.298 -16.912,35.228 -18.596,13.93 -74.276,5.7454 -74.276,5.7454 0,0 30.875,7.7827 44.55,6.531 0,0 3.62,8.872 -1.6874,12.746 -8.7735,6.404 -24.748,10.053 -50.51,-4.8855 -25.762,-14.939 -15.84,-42.266 -15.84,-42.266 0,0 -3.8557,3.2723 -4.7722,7.474 0,0 -14.833,-13.132 -12.797,-31.235 1.2703,-11.293 16.602,-26.082 16.602,-26.082 0,0 -14.532,-2.2643 -28.305,-0.14656 -2.5743,0.39583 22.181,0.0468 19.742,3.322 l -7.1842,9.647 c -3.333,4.4756 -40.156,-2.4944 -41.427,-4.4826 -0.52088,-3.4248 -0.43563,-19.939 3.395,-27.379 2.5435,-4.9403 50.107,-0.98903 57.909,-6.7127 17.607,-12.917 44.283,-16.113 63.079,-5.6993 18.796,10.414 36.591,36.547 36.591,36.547 z"
         inkscape:connector-curvature="0"
         style="fill:url(#aw)" />
      <path
         id="path4686"
         d="m 395.95,511.14 c -0.64716,0.48829 -1.2939,0.9989 -1.9159,1.5072 9.4139,-1.4915 18.958,-0.36655 27.824,2.8142 -2.6736,-5.0888 -6.9665,-10.662 -12.988,-10.323 -4.1174,0.23172 -8.7375,2.8483 -12.92,6.0018 z"
         inkscape:connector-curvature="0"
         style="fill:url(#av)" />
      <path
         id="path4688"
         d="m 355.4,400.97 c 0,0 -4.6031,11.355 -23.483,7.0198 -18.88,-4.335 -14.288,-31.714 -14.288,-31.714 0,0 7.0436,22.272 18.015,23.413 10.971,1.1408 19.756,1.2813 19.756,1.2813 z"
         inkscape:connector-curvature="0" />
      <path
         id="path4690"
         d="m 424.17,414.29 c 0,0 -5.1356,-9.303 -22.031,-1.0146 -16.895,8.2884 -17.885,19.58 -17.885,19.58 0,0 12.04,-9.3029 21.97,-12.862 9.9304,-3.5588 17.946,-5.7034 17.946,-5.7034 z"
         inkscape:connector-curvature="0" />
    </g>
  </g>
</svg>
