<?xml version="1.0" encoding="UTF-8"?>
<svg version="1.1" viewBox="0 0 627.47 681.94" xmlns="http://www.w3.org/2000/svg" xmlns:xlink="http://www.w3.org/1999/xlink">
 <defs>
  <linearGradient id="ad" x1="402.37" x2="384.41" y1="915.92" y2="806.28" gradientTransform="matrix(.98513 0 0 .96502 66.439 -9.1697)" gradientUnits="userSpaceOnUse">
   <stop stop-color="#ff0" offset="0"/>
   <stop stop-color="#ff0" stop-opacity="0" offset="1"/>
  </linearGradient>
  <linearGradient id="ae" x1="397.67" x2="366.45" y1="972.9" y2="816.83" gradientTransform="matrix(.90736 0 0 .88884 97.746 53.389)" gradientUnits="userSpaceOnUse">
   <stop offset="0"/>
   <stop stop-opacity="0" offset="1"/>
  </linearGradient>
  <linearGradient id="af" x1="377.17" x2="372.08" y1="987.52" y2="827.17" gradientTransform="matrix(.90736 0 0 .88884 97.746 53.389)" gradientUnits="userSpaceOnUse">
   <stop stop-color="#f00" offset="0"/>
   <stop stop-color="#f00" stop-opacity="0" offset="1"/>
  </linearGradient>
  <linearGradient id="ag" x1="356.41" x2="288.22" y1="104.42" y2="102.45" gradientTransform="matrix(1.126 0 0 1.2811 -53.287 174.09)" gradientUnits="userSpaceOnUse" xlink:href="#a"/>
  <linearGradient id="a">
   <stop stop-color="#f90" offset="0"/>
   <stop stop-color="#fff" offset="1"/>
  </linearGradient>
  <linearGradient id="au" x1="365.11" x2="313.37" y1="127.82" y2="126.45" gradientUnits="userSpaceOnUse" xlink:href="#a"/>
  <linearGradient id="ah" x1="202.82" x2="267.91" y1="710.06" y2="712.59" gradientTransform="translate(14.23 -125.59)" gradientUnits="userSpaceOnUse" xlink:href="#y"/>
  <linearGradient id="y">
   <stop stop-color="#fff" offset="0"/>
   <stop stop-color="#cecece" offset="1"/>
  </linearGradient>
  <linearGradient id="ai" x1="532.61" x2="462.28" y1="515.02" y2="446.08" gradientTransform="matrix(1.359 0 -.3184 1.243 -407.16 -24.278)" gradientUnits="userSpaceOnUse" xlink:href="#a"/>
  <linearGradient id="aa" x1="289.55" x2="287.07" y1="526.78" y2="466.31" gradientUnits="userSpaceOnUse">
   <stop stop-color="#00f" offset="0"/>
   <stop stop-opacity="0" offset="1"/>
  </linearGradient>
  <linearGradient id="ak" x1="336.21" x2="360.48" y1="607.89" y2="603.09" gradientTransform="translate(14.23 -125.59)" gradientUnits="userSpaceOnUse">
   <stop stop-color="#d40000" offset="0"/>
   <stop stop-color="#ff9292" offset="1"/>
  </linearGradient>
  <linearGradient id="al" x1="370.98" x2="316.68" y1="595.4" y2="574.94" gradientTransform="translate(14.23 -125.59)" gradientUnits="userSpaceOnUse">
   <stop stop-color="#800000" offset="0"/>
   <stop stop-color="#3d0000" offset="1"/>
  </linearGradient>
  <linearGradient id="z" x1="475.32" x2="457.72" y1="482.37" y2="436.65" gradientUnits="userSpaceOnUse" xlink:href="#a"/>
  <linearGradient id="am" x1="532.61" x2="462.28" y1="515.02" y2="446.08" gradientTransform="matrix(-.46763 1.3302 -1.4097 -.27393 1070.4 -51.156)" gradientUnits="userSpaceOnUse" xlink:href="#a"/>
  <linearGradient id="an" x1="343.07" x2="419.03" y1="796.06" y2="771.06" gradientTransform="matrix(1.0453 -.080706 .051713 1.171 -4.0246 -147.85)" gradientUnits="userSpaceOnUse">
   <stop stop-color="#969696" offset="0"/>
   <stop stop-color="#5a5a5a" offset="1"/>
  </linearGradient>
  <linearGradient id="ao" x1="299.75" x2="273.4" y1="756.41" y2="644.98" gradientTransform="matrix(1.0453 -.080706 .051713 1.171 -4.0246 -147.85)" gradientUnits="userSpaceOnUse">
   <stop stop-color="#36f" offset="0"/>
   <stop stop-color="#fff" offset="1"/>
  </linearGradient>
  <linearGradient id="ap" x1="181.87" x2="240.02" y1="532.23" y2="436.26" gradientTransform="matrix(1.0453 -.080706 .051713 1.171 -4.0246 -147.85)" gradientUnits="userSpaceOnUse">
   <stop stop-color="#9cdafb" offset="0"/>
   <stop stop-color="#fff" offset="1"/>
  </linearGradient>
  <linearGradient id="aq" x1="363.66" x2="475.7" y1="474.68" y2="435.28" gradientTransform="matrix(1.0453 -.080706 .051713 1.171 -4.0246 -147.85)" gradientUnits="userSpaceOnUse">
   <stop stop-color="#9cdafb" offset="0"/>
   <stop stop-color="#1aa9f6" offset="1"/>
  </linearGradient>
  <linearGradient id="ar" x1="375.05" x2="385.19" y1="587.94" y2="521.77" gradientTransform="matrix(1.0453 -.080706 .051713 1.171 -4.0246 -147.85)" gradientUnits="userSpaceOnUse">
   <stop stop-color="#f90" offset="0"/>
   <stop stop-color="#8d5500" offset="1"/>
  </linearGradient>
  <linearGradient id="as" x1="362.79" x2="438.37" y1="690.61" y2="604.74" gradientTransform="matrix(1.0453 -.080706 .051713 1.171 -4.0246 -147.85)" gradientUnits="userSpaceOnUse">
   <stop stop-color="#36f" offset="0"/>
   <stop stop-color="#00279c" offset="1"/>
  </linearGradient>
  <linearGradient id="ac" x1="570.05" x2="559.69" y1="632.64" y2="633.71" gradientTransform="translate(14.23 -125.59)" gradientUnits="userSpaceOnUse" xlink:href="#y"/>
  <linearGradient id="at" x1="532.61" x2="462.28" y1="515.02" y2="446.08" gradientTransform="matrix(-.92202 .6523 -.6497 -.92708 1348.3 471.48)" gradientUnits="userSpaceOnUse" xlink:href="#a"/>
  <linearGradient id="ab" x1="535.72" x2="487.74" y1="647.77" y2="644.91" gradientTransform="translate(7.8011 -130.95)" gradientUnits="userSpaceOnUse" xlink:href="#y"/>
  <linearGradient id="aj" x1="532.61" x2="462.28" y1="515.02" y2="446.08" gradientTransform="matrix(-.0076347 .99997 -.99997 -.0076347 1083.9 -73.914)" gradientUnits="userSpaceOnUse" xlink:href="#a"/>
 </defs>
 <g transform="translate(-44.839 -254.25)">
  <path d="m334.6 258.25c-0.93357-0.0109-1.8581-2e-3 -2.7812 0.0312-13.593 1.1909-28.77 3.8508-39.781 13.438-13.759 6.4245-28.679 15.204-32.469 32.719-0.34939 2.8163-0.0941 5.4185 0.59375 7.8125-13.524 9.9968-25.98 21.805-36.906 35.375-23.144 27.89-40.828 60.97-53.062 96.375-2.6087-0.34219-5.2576-0.46827-7.9062-0.375-10.635 0.61925-18.089 9.7315-19.781 19.719-18.71 9.5282-37.402 19.028-56.125 28.469-0.09707 0.30473-0.21354 0.63015-0.3125 0.9375-0.45376 0.0117-0.91982 0.029-1.375 0.0625-21.565 0.63382-39.23 27.029-35.312 53.188 2.5251 25.161 24.098 43.735 44.219 38.438 8.4609 11.48 16.88 22.957 25.281 34.438 0.0817 0.53116 0.16556 1.0647 0.25 1.5938 2.2698 11.348 4.2461 25.28 15.875 31.031 7.0728 3.7514 16.271 3.562 23.406 0.3125 6.3191 19.372 23.01 33.029 39.125 44.312 13.456 8.5893 30.237 15.578 46.219 10 16.553-5.2184 30.923-16.522 41.844-29.75 5.9408-7.0624 5.515-17.073 1.4688-24.875-1.8432-3.1904-3.4174-9.2414-7.9688-6.4375 5.1636-4.8518 9.4458-11.312 11.469-18.25 14.181 34.655 28.354 69.319 42.5 103.97 5.1291 0.79908 10.278 1.3896 15.469 1.8125 5.7792 16.433 11.552 32.869 17.375 49.281 34.995 6.9426 73.857 2.8935 103.78-20.969 7.4545-5.3985 14.544-11.358 21.188-17.969-1.0594-16.819-1.9888-33.644-3-50.469 1.0496-0.81875 2.0892-1.6556 3.125-2.5 4.5205-3.5083 7.6734-8.911 6.2188-15.312 0.49887-39.078 0.98572-78.145 1.4688-117.22 2.5065 0.0876 5.0278-0.21734 7.2188-0.5 7.4159 12.293 23.257 16.876 36.844 15.969 21.013-2.8329 39.369-14.656 56.375-26.594 9.3731-8.3631 12.922-24.854 4.2812-34.906-4.708-4.2159-10.504-4.6446-16.219-3.3438 0.0349-0.90884-0.12537-1.8557-0.53125-2.8125-1.2987-6.1084-7.5608-10.308-13.719-9.5625-1.0039-0.14297-1.9305-0.0547-2.75 0.21875-0.21203-1.8513-0.51645-3.6835-0.875-5.5 3.8845 4.5025 10.169 0.49048 15.312 0.53125 8.2427-0.75416 15.749-7.0338 16.312-15.5 0.87213-8.27-2.37-15.552-7.4062-21.656 12.898-15.296 26.059-30.406 38.125-46.281 2.4618-0.0801 4.9024-0.38936 7.3438-1.0312 20.764-4.134 34.407-27.881 27.469-47.969-4.8888-16.055-20.933-27.324-37.812-26.312-6.7151 0.16077-13.045 2.3462-18.469 5.9375-6.3816-1.3342-13.136-1.8108-19.219-4-19.649-4.4215-54.342-12.056-75.156-16.812-30.994-22.306-66.654-37.809-101.09-42.531-10.937-1.5023-21.957-2.1473-33-2-7.7554-10.401-22.413-12.443-33.594-12.938-0.57865 0.033-1.0367 0.18915-1.4375 0.375-3.869-1.3936-8.0159-1.9214-12.094-1.9688zm235 111.28c7.7576 0.6207 15.526 1.2069 23.281 1.6562 0.0726 1.4412 0.2029 2.8664 0.46875 4.3125 0.90839 7.3732 4.2746 14.047 9.1562 19.375-2.4281 2.4411-4.8821 4.8586-7.6562 6.7812-11.389 10.186-22.741 20.347-34.125 30.469-5.1534-1.8168-10.512-2.9755-16.031-3.125-13.047 1.2776-22.364 11.686-29.812 21.5-1.1164-0.22718-2.2352-0.3715-3.3438-0.46875 0.7825-7.0556 1.5688-14.511 2.3125-23.312 16.017-11.744 44.69-42.563 56.125-56.688-0.12391-0.16629-0.25055-0.33398-0.375-0.5zm-409.25 136.94c1.5426 3.4385 2.5877 7.0836 2.7812 11.062 1.3446 10.433-0.57716 22.091-6.9688 30.281-0.97404-3.4694-6.5781-4.2826-10.094-5.1562-7.092-1.6474-14.576 0.25884-19.277 5.655-0.86496-0.78475-2.1032-1.437-2.9726-2.2175 0.68333-4.9388 0.67674-10.013-0.0625-15 12.13-8.2878 24.383-16.436 36.594-24.625zm56.25 6.5938c3.7384 7.1194 7.446 14.259 11.188 21.375-3.591 3.231-6.4948 7.2031-8.3438 11.812-3.2902 2.1688-0.0709-2.7658-1.2812-4.6562-1.3147-9.3854-1.378-18.966-1.5625-28.531z" stroke="#000" stroke-linejoin="round" stroke-width="8"/>
  <path transform="translate(157.92 -93.267)" d="m506.84 463.06c0 18.899-15.32 34.219-34.219 34.219s-34.219-15.32-34.219-34.219 15.32-34.219 34.219-34.219 34.219 15.32 34.219 34.219z" fill="#f90"/>
  <path transform="matrix(.8893 0 0 .8893 210.24 -42.005)" d="m506.84 463.06c0 18.899-15.32 34.219-34.219 34.219s-34.219-15.32-34.219-34.219 15.32-34.219 34.219-34.219 34.219 15.32 34.219 34.219z" fill="url(#z)"/>
  <path d="m638.87 390.92c-0.69554-9.1366-12.172-10.762-19.188-8.178-10.61 2.5542-16.253 12.965-24.825 18.906-13.861 12.397-27.663 24.761-41.542 37.057 0.26531 12.227-0.54113 27.575 10.258 35.798 4.8516 3.5608 13.348 3.0542 15.588-3.2873 18.829-23.467 39.421-45.649 57.129-69.878 1.7043-3.1875 2.8935-6.7565 2.5796-10.418z"/>
  <path d="m630.05 403.85-57.349 68.886s-8.2179 1.3263-12.062-7.921c-3.8438-9.2473-3.3503-24.27-3.3503-24.27l58.866-52.585s13.803-5.1981 17.675 0.38749c3.8718 5.5856-3.7803 15.503-3.7803 15.503z" fill="#f90"/>
  <path d="m630.86 391.67c-1.2491-4.1555-7.9146-1.7985-10.745-0.70705-8.406 3.2415-13.175 11.891-20.426 17.05-12.791 11.438-25.583 22.877-38.374 34.315 0.66701 8.7219 1.6766 20.475 9.856 25.982 23.25-30.377 43.289-50.591 58.177-70.995 1.1314-1.5505 2.0845-3.7399 1.5119-5.6449z" fill="url(#aj)"/>
  <path d="m544.7 429c-13.047 1.2776-22.364 11.686-29.812 21.5-15.172-3.0872-29.84 6.1644-37.938 18.469-10.083 13.999-18.78 29.814-21.031 47.188-1.3474 9.4523-0.96227 23.594 9.9107 25.933 3.1481 0.67729 7.5434 0.85262 11.018-0.0134 1.3913 7.9188 6.9031 15.736 14.683 17.196 3.8911 1.3688 10.722-1.8618 14.388-2.3348 7.4159 12.293 23.257 16.876 36.844 15.969 21.013-2.8329 39.369-14.656 56.375-26.594 9.3731-8.3631 12.922-24.854 4.2812-34.906-4.708-4.2159-10.504-4.6446-16.219-3.3438 0.0349-0.90884-0.12537-1.8557-0.53125-2.8125-1.2987-6.1084-7.5608-10.308-13.719-9.5625-1.0039-0.14297-1.9305-0.0547-2.75 0.21875-0.21203-1.8513-0.51645-3.6835-0.875-5.5 3.8845 4.5025 10.169 0.49048 15.312 0.53125 8.2427-0.75416 15.749-7.0338 16.312-15.5 1.6317-15.473-11.04-27.516-23.188-34.781-9.9001-6.3424-21.124-11.333-33.062-11.656z"/>
  <path d="m561.46 478.76s7.3989 14.828 4.3341 33.148-24.715 29.166-24.715 29.166 14.631-6.3457 18.733-8.8483c4.1017-2.5026 10.505-11.478 10.505-11.478s19.367-14.18 28.694-7.7111c9.3265 6.4686 4.4838 22.64-0.1434 27.95-4.6272 5.311-44.086 31.718-64.447 27.908s-23.727-11.265-26.687-17.15c-8.6736 3.7576-14.229 0.64153-19.548-1.8164-6.3193-2.9204-7.1322-14.645-7.1322-14.645s-9.4119 4.0607-15.907-0.0615c-6.4955-4.1222-7.752-20.708-0.38635-36.77 7.3657-16.062 22.054-46.014 44.63-44.333s34.842 7.9732 34.842 7.9732-7.4624-8.6632-24.861-10.829c0 0 12.872-18.302 26.32-18.329 13.449-0.0268 42.633 14.881 49.484 30.697 4.4098 10.18 0.73105 19.394-5.1259 21.568s-16.629 3.4286-16.629 3.4286z" fill="url(#ab)"/>
  <path d="m629.74 367.62c7.9217-6.6656 1.8749-18.32-5.1017-23.085-9.3104-8.0994-22.563-6.4376-33.641-10.424-20.471-4.6065-57.659-12.753-78.05-17.442-11.039 8.3068-8.8564 21.254-9.3055 36.634-0.0793 6.8214 5.965 14.321 13.252 12.206 33.885 1.8887 67.75 6.25 101.6 6.6019 4.0423-0.53019 8.0962-1.787 11.248-4.4907z"/>
  <path d="m612.09 368.02-100.83-7.4589s-6.613-6.703-0.65731-16.345c5.9557-9.6416 7.9132-20.52 7.9132-20.52l99.023 21.034s13.832 9.3003 11.252 16.553c-2.5795 7.253-16.699 6.7362-16.699 6.7362z" fill="#f90"/>
  <path d="m623.79 360.74c2.9904-3.8917-3.5484-8.4836-6.408-10.374-8.4929-5.6136-19.557-4.3079-29.049-7.5925-18.89-4.2524-37.779-8.5049-56.669-12.757-7.5602 6.3659-17.675 15.047-17.354 26.22 43.125 1.4094 74.822 6.5574 103.31 6.8319 2.1648 0.0209 4.7985-0.54384 6.1694-2.3279z" fill="url(#at)"/>
  <path d="m368.69 273.31c-2.1988 0.15849-4.3977 0.35937-6.5949 0.58264-52.089 4.0301-103.45 29.785-138.83 73.727-32.979 39.74-54.908 90.02-65.713 142.55 15.814 12.123 35.507 13.553 54.444 14.192 10.551 20.078 21.066 40.169 31.697 60.193 7.9967 3.0284 16.139 5.4398 24.38 7.2971 21.717 52.98 43.373 105.96 64.999 158.93 5.1291 0.79908 10.294 1.3924 15.485 1.8153 5.7792 16.433 11.529 32.882 17.352 49.294 34.995 6.9426 73.867 2.8869 103.79-20.975 7.4545-5.3985 14.555-11.365 21.199-17.976-1.0594-16.819-2.0046-33.65-3.0157-50.475 1.0496-0.81875 2.0994-1.6375 3.1352-2.4819 4.5205-3.5083 7.6613-8.9118 6.2066-15.313 0.73387-57.487 4.865-115.85 5.5443-173.34 2.4484-1.8618 2.378-1.9517 4.7881-3.8808 2.2441-27.447 3.9651-43.286 6.2836-70.727 16.017-11.744 44.713-42.562 56.148-56.687-36.917-49.545-77.833-81.807-155.25-95.243-15.241-2.0935-30.657-2.584-46.049-1.4748z"/>
  <path d="m574.07 499.66c-1.1413 6e-3 -2.3291 0.19792-3.5312 0.53125 0.22304 4.9583-0.19195 9.9428-1.4375 14.75-1.9025 4.3926 1.6526 0.28576 3.8125-0.71875 2.9971-1.7829 6.4657-3.592 10.094-4.9062 0.14122-2.9146-0.7268-5.5522-2.6562-7.375-1.6538-1.5624-3.8568-2.2945-6.2812-2.2812z" fill="url(#ac)"/>
  <path d="m162.29 488.07s30.966-177.36 176.78-206.03c145.81-28.67 222.61 86.433 222.61 86.433s-56.111 92.999-205.82 128.76c-149.71 35.766-193.56-9.1707-193.56-9.1707z" fill="#9cdafb"/>
  <path d="m506.74 431.8c-39.241 37.236-103.33 63.452-192.69 78.45-20.897 3.5075-66.986 7.5722-91.566 3.8834l24.084 46.566s58.858 25.137 132.96-0.16888 123.15-66.458 123.15-66.458z" fill="#f90"/>
  <path d="m495.19 505.37c-26.813 19.817-55.786 35.729-85.727 48.551-42.93 19.82-90.958 27.911-136.33 19.008l62.862 153.58s42.216 8.016 89.761-6.9306c47.546-14.947 67.191-37.83 67.191-37.83l2.2399-176.38z" fill="#36f"/>
  <path d="m483.88 695.45c-38.333 28.419-84.206 42.961-129.62 40.34l14.661 41.894s33.803 6.9632 64.452-2.6265c28.181-8.8174 53.175-34.062 53.175-34.062z" fill="#969696"/>
  <path d="m495.19 505.37c-26.813 19.817-55.786 35.729-85.727 48.551-15.417 7.118-31.502 12.699-47.875 16.548 60.085 16.034 108.35 57.743 129.89 112.83 0.94458-0.95652 1.4722-1.5457 1.4722-1.5457l2.2399-176.38z" fill="url(#as)"/>
  <path d="m507 431.86c-70.671 50.297-92.259 56.931-194.28 81.144 6.0665 4.009 150.09-28.511 189.96-19.001z" fill="url(#ar)"/>
  <path d="m365.59 278.29c-8.5721 0.7319-17.401 1.9444-26.514 3.7362-1.5592 0.30657-3.1105 0.64256-4.6435 0.98273 65.1 16.907 112.57 65.683 115.26 126.7 0.56786 12.858-0.53998 42.277-3.7809 54.447 79.034-36.621 115.76-95.662 115.76-95.662s-67.499-101.18-196.08-90.204z" fill="url(#aq)"/>
  <path d="m324.6 304.59c-69.527 5.3683-134.57 87.496-147.87 185.13 20.741 7.1258 43.488 5.6221 65.237 4.7666 3.5254-0.26985 7.0582-0.55438 10.58-0.89033-0.13042-3.2096-0.1904-6.4534-0.19961-9.7148-0.22729-80.377 36.89-151.39 88.45-179.11-5.2527-0.54408-10.66-0.60893-16.199-0.18123z" fill="url(#ap)"/>
  <path d="m290.07 580.18 54.183 142.61c14.403 1.4808 29.05 1.4756 43.587-0.0975l-32.345-146.1c-21.576 4.3836-43.688 5.7611-65.426 3.5829z" fill="url(#ao)"/>
  <path d="m483.88 695.45c-26.151 19.387-54.411 31.357-86.746 37.833 2.3095 1.2343 3.7892 0.27169 5.2744 1.6871 9.7759 9.3164 13.64 28.321 13.64 28.321s-2.2564-33.811 12.04-32.397c14.296 1.414 21.087 27.746 21.087 27.746s-1.7722-31.33 6.8138-31.993c8.586-0.66294 18.667 24.151 18.667 24.151l0.9146-0.0706c6.7988-5.5463 10.976-9.7332 10.976-9.7332l-2.6669-45.545z" fill="url(#an)"/>
  <path d="m223.82 407.34c-20.896 0.49505-38.006 21.116-34.21 41.547 2.5062 20.13 24.361 34.855 44.25 29.681 20.12-3.964 33.317-26.739 26.594-46-4.7371-15.395-20.278-26.196-36.634-25.227z"/>
  <path transform="matrix(.91484 0 0 .90531 -206.72 24.195)" d="m506.84 463.06c0 18.899-15.32 34.219-34.219 34.219s-34.219-15.32-34.219-34.219 15.32-34.219 34.219-34.219 34.219 15.32 34.219 34.219z" fill="#f90"/>
  <path transform="matrix(.81357 0 0 .80509 -158.86 70.603)" d="m506.84 463.06c0 18.899-15.32 34.219-34.219 34.219s-34.219-15.32-34.219-34.219 15.32-34.219 34.219-34.219 34.219 15.32 34.219 34.219z" fill="url(#z)"/>
  <path d="m229.12 450.73c3.1911-12.356-12.286-17.548-23.38-15.956-16.162 0.60415-28.891 12.986-43.72 18.64-25.252 12.86-50.406 25.691-75.636 38.412-5.2112 16.36-13.362 36.593-1.8576 50.398 5.2294 6.0236 17.468 7.5897 23.531-0.26787 37.33-26.297 76.564-50.417 112.66-78.026 3.8647-3.7969 7.1759-8.2381 8.4051-13.199z"/>
  <path d="m210.76 465.63-112.52 76.646s-12.219-0.40073-13.427-13.734c-1.2075-13.334 6.3531-33.217 6.3531-33.217l107.21-54.529s21.882-3.2842 24.802 5.1784c2.9198 8.4626-12.425 19.656-12.425 19.656z" fill="#f90"/>
  <path d="m217.47 449.62c0.13325-5.8656-10.363-4.4837-14.862-3.7762-13.36 2.1012-24.052 12.367-36.655 17.326-23.302 11.865-46.605 23.73-69.907 35.595-3.042 11.796-6.9849 27.72 2.0584 37.215 46.735-34.336 84.289-55.982 114.65-79.238 2.3072-1.7672 4.6544-4.4326 4.7155-7.1216z" fill="url(#am)"/>
  <path d="m84.942 492.18c-21.712 0.63814-39.491 27.219-35.547 53.555 2.6041 25.948 25.313 44.93 45.979 38.259 20.906-5.1098 34.618-34.467 27.633-59.296-4.9221-19.844-21.071-33.768-38.065-32.518z"/>
  <path transform="matrix(1 0 0 1.2277 -386.04 -29.492)" d="m506.84 463.06c0 18.899-15.32 34.219-34.219 34.219s-34.219-15.32-34.219-34.219 15.32-34.219 34.219-34.219 34.219 15.32 34.219 34.219z" fill="#f90"/>
  <path transform="matrix(.8893 0 0 1.0917 -333.72 33.439)" d="m506.84 463.06c0 18.899-15.32 34.219-34.219 34.219s-34.219-15.32-34.219-34.219 15.32-34.219 34.219-34.219 34.219 15.32 34.219 34.219z" fill="url(#z)"/>
  <path d="m320.79 428.38 0.40625 4.4375c1.2 14.871 2.2678 31.504 12 43.438-0.0435 0.0275-0.0816 0.0662-0.125 0.0937 0.89926 1.0071 1.8527 1.9648 2.8438 2.875 0.0219 0.0201 0.0406 0.0425 0.0625 0.0625 12.502 11.433 31.811 15.023 47.125 7.25 1.8281-1.2885 5.9287-2.1258 7.5-3.5938 12.061-6.8128 22.384-16.131 31.812-26.188-26.352 1.8257-54.912 2.3696-77.75-12.562-8.3915-4.5907-16.202-10.108-23.875-15.812z"/>
  <path d="m325.6 436.85c1.2153 13.195 2.1925 27.116 11.219 37.312 6.8054-3.7162 14.303-6.2018 22.125-6.375 11.006-0.3972 22.943 2.7999 30.344 11.25 13.192-7.4832 22.938-17.688 22.938-17.688s-22.466 1.5152-41.911-2.2728c-19.445-3.7881-44.714-22.227-44.714-22.227z" fill="url(#al)"/>
  <path d="m359.04 471.78c-9.2195 0.34989-16.11 3.5826-19.219 5.3438 3.7948 3.3204 8.7144 6.1332 15.094 8.2188 10.206 3.3365 21.106 0.42424 30.656-4.3438-1.7765-2.0646-7.7833-7.8216-20.812-9.0625-1.9887-0.1894-3.8992-0.2253-5.7188-0.15625z" fill="url(#ak)"/>
  <path transform="matrix(.97852 -.35595 .32791 1.1996 -44.207 -113.06)" d="m304.46 504.86c0 18.541-7.7151 33.571-17.232 33.571s-17.232-15.03-17.232-33.571 7.7151-33.571 17.232-33.571 17.232 15.03 17.232 33.571z"/>
  <path transform="matrix(.854 -.31066 .28618 1.0469 12.626 -49.006)" d="m304.46 504.86c0 18.541-7.7151 33.571-17.232 33.571s-17.232-15.03-17.232-33.571 7.7151-33.571 17.232-33.571 17.232 15.03 17.232 33.571z" fill="url(#aa)"/>
  <path transform="matrix(.42656 -.15517 .14294 .52293 199.07 160.01)" d="m304.46 504.86c0 18.541-7.7151 33.571-17.232 33.571s-17.232-15.03-17.232-33.571 7.7151-33.571 17.232-33.571 17.232 15.03 17.232 33.571z" fill="#fff"/>
  <path transform="matrix(.66729 -.33584 .32191 .87622 110.84 16.755)" d="m304.46 504.86c0 18.541-7.7151 33.571-17.232 33.571s-17.232-15.03-17.232-33.571 7.7151-33.571 17.232-33.571 17.232 15.03 17.232 33.571z"/>
  <path transform="matrix(.5406 -.27208 .2608 .70986 178.09 82.426)" d="m304.46 504.86c0 18.541-7.7151 33.571-17.232 33.571s-17.232-15.03-17.232-33.571 7.7151-33.571 17.232-33.571 17.232 15.03 17.232 33.571z" fill="url(#aa)"/>
  <path transform="matrix(.27002 -.1359 .13027 .35457 315.27 215.69)" d="m304.46 504.86c0 18.541-7.7151 33.571-17.232 33.571s-17.232-15.03-17.232-33.571 7.7151-33.571 17.232-33.571 17.232 15.03 17.232 33.571z" fill="#fff"/>
  <path d="m88.586 524.46c-12.653 0.95124-18.4 15.232-17.044 23.928 0.20915 13.164 12.644 20.078 18.092 30.677 12.608 17.111 25.189 34.149 37.655 51.283 16.728-0.4458 37.373 0.41092 51.895-13.09 6.3421-6.064 8.2693-16.62 0.32599-19.344-26.148-23.181-50.004-48.565-77.536-70.345-3.8145-2.0881-8.3071-3.5324-13.389-3.1075z"/>
  <path d="m103.47 535.3 76.117 70.628s-0.72567 10.202-14.499 15.067c-13.773 4.8655-34.073 4.3946-34.073 4.3946l-53.458-72.668s-2.825-17.108 5.9718-21.973c8.7968-4.8655 19.941 4.5516 19.941 4.5516z" fill="#f90"/>
  <path d="m87.143 534.41c-6.042 1.592-4.8863 9.8545-4.2722 13.362 1.8238 10.418 12.131 16.263 16.92 25.227 11.632 15.79 23.265 31.581 34.897 47.372 12.079-0.91183 28.392-2.2782 38.408-12.497-34.193-28.611-55.542-53.326-78.734-71.638-1.7624-1.3915-4.4494-2.5555-7.2193-1.8256z" fill="url(#ai)"/>
  <path d="m165.83 441.86c-13.2 0.76862-27.546 17.298-26.004 29.661 1.257 17.876 22.433 27.937 23.313 46.013 1.3446 10.433-0.57716 22.091-6.9688 30.281-0.97404-3.4694-6.5781-4.2826-10.094-5.1562-8.711-2.0234-22.615 1.107-26.006 9.7475-9.7541 24.856-4.5036 45.688-0.93195 68.065 2.2698 11.348 4.2461 25.28 15.875 31.031 7.0728 3.7514 16.271 3.562 23.406 0.3125 6.3191 19.372 23.01 33.029 39.125 44.312 13.456 8.5893 30.237 15.578 46.219 10 16.553-5.2184 30.923-16.522 41.844-29.75 5.9408-7.0624 5.515-17.073 1.4688-24.875-1.8432-3.1904-3.4174-9.2414-7.9688-6.4375 9.9232-9.3241 18.563-24.791 12.183-37.929-2.1228-4.9432-5.7381-10.363-9.8884-13.759-5.2001 2.2706 0.27431-1.7986 1.4987-3.4645 7.909-7.3895 13.684-17.954 11.644-29.16-1.6666-17.082-15.437-31.754-32.312-34.781-16.663-4.3305-36.266 4.0399-42.781 20.281-3.2902 2.1688-0.0709-2.7658-1.2812-4.6562-2.8466-20.322 0.12847-41.541-4.8125-61.594-6.5669-21.592-24.991-38.936-47.527-38.143z"/>
  <path d="m153.52 570.05s-1.0714-13.353 5-18.994c6.0714-5.6402 11.786-22.041 7.5-40.098-4.2857-18.056-19.286-25.004-19.643-41.836-0.35349-16.66 9.8087-24.861 32.309-16.225 22.5 8.6357 32.334 24.976 33.048 41.14 0.71429 16.164 2.1429 52.064 2.1429 52.064l-26.071 8.4006s27.143-1.4757 43.214-6.889 20.357-10.928 20.357-10.928l-26.429 7.6399s12.5-23.02 41.786-12.789c24.966 8.7218 26.071 34.457 22.5 43.279-3.5714 8.822-29.286 31.912-29.286 31.912l18.929-7.5423s11.786 10.102 8.2143 25.709-27.5 31.072-27.5 31.072l21.429-7.2177s7.5 10.974 4.2857 20.199c-3.2143 9.2255-35.714 40.72-61.786 34.478-26.071-6.2423-57.5-35.323-61.429-53.333s-0.71428-30.45-0.71428-30.45c-6.566 14.047-5.1659 28.972-5.1659 28.972s-18.048 6.5852-26.62-7.3849c-8.5714-13.97-10.992-55.688-7.4208-70.581s6.3493-21.344 13.135-23.677c6.7857-2.3332 16.786 1.4652 16.786 1.4652-1.4286 10.172 1.4286 21.614 1.4286 21.614z" fill="url(#ah)"/>
  <path d="m334.59 258.24c-0.93357-0.0109-1.8567 7e-3 -2.7798 0.04-13.593 1.1909-28.752 3.865-39.762 13.452-13.759 6.4245-28.689 15.194-32.478 32.708-1.7902 14.43 11.801 23.498 22.661 25.342 30.334 6.2786 62.698-1.7201 88.603-20.338 9.1286-6.5243 18.899-19.959 13.301-32.748-6.7193-13.843-23.531-16.303-35.997-16.855-0.57865 0.033-1.0419 0.17447-1.4427 0.36032-3.869-1.3936-8.0268-1.9143-12.105-1.9617z"/>
  <path transform="matrix(1.0514 -.19523 0 1.2444 -36.984 188.58)" d="m371.99 127.19c0 7.0434-14.19 12.753-31.694 12.753s-31.694-5.7098-31.694-12.753c0-7.0434 14.19-12.753 31.694-12.753s31.694 5.7098 31.694 12.753z" fill="#f90"/>
  <path d="m353.55 265.25c3.3574 2.1266 5.3134 4.962 5.3134 8.4073 0 10.246-17.05 21.788-38.073 25.782s-38.073-1.084-38.073-11.33c0-2.5329 1.0349-5.1688 2.9206-7.7267-13.276 7.8572-21.746 17.624-21.746 26.703 0 15.986 26.283 23.888 58.729 17.655s58.764-24.249 58.764-40.235c0-10.395-11.133-17.36-27.834-19.257z" fill="#f90"/>
  <path transform="matrix(.86057 -.1598 0 1.0186 27.945 205.25)" d="m371.99 127.19c0 7.0434-14.19 12.753-31.694 12.753s-31.694-5.7098-31.694-12.753c0-7.0434 14.19-12.753 31.694-12.753s31.694 5.7098 31.694 12.753z" fill="url(#au)"/>
  <path d="m363.23 272.73c-0.1628 14.81-14.378 21.955-24.772 26.543-16.987 7.0317-37.213 10.449-53.943 0.88077-2.7449-2.0697-5.0296-5.1075-5.9468-8.7676-5.2111 4.116-13.194 12.486-8.6562 20.097 9.5668 11.327 25.117 10.04 37.966 9.8912 23.324-1.785 48.179-9.0601 65.416-27.827 4.2179-4.6743 5.1246-13.764-1.0908-16.855-2.5974-1.8359-6.3694-4.1697-8.9729-3.9634z" fill="url(#ag)"/>
  <path d="m391.51 846.9c9.3948 35.017 49.724 45.342 49.724 45.342 4.812 35.466-12.832 39.057-12.832 39.057s57.515-15.488 72.409-67.115-20.623-83.726-35.517-93.153c-14.894-9.4275-29.101-12.121-29.101-12.121l-28.643 20.875s-25.435 32.099-16.04 67.115z" fill="url(#af)"/>
  <path d="m435.6 753.43c-0.48987 9e-3 -0.94847 0.082-1.3894 0.24999-13.578 11.303-31.729 18.796-39.101 35.692-12.234 22.353-16.096 51.508-2.4102 74.023 9.6259 15.855 25.926 26.876 43.468 32.831 1.051 10.451 1.2082 24.332-9.4138 30.22-3.4582 2.3104-5.7987 5.6751-8.1662 8.9994 15.606 3.5278 29.409-6.287 42.391-13.11 30.309-18.186 51.559-52.27 48.742-87.828-2.5199-36.973-31.097-69.874-67.4-79.523-2.1008-0.37337-4.5973-1.5925-6.7201-1.5555zm0.59546 5.4719s14.198 2.7106 29.092 12.138c14.894 9.4275 50.423 41.534 35.529 93.161-13.864 48.057-64.609 64.771-71.568 66.857 3.4195-1.2397 16.176-7.9845 11.994-38.803 0 0-40.34-10.342-49.735-45.358-9.3948-35.017 16.049-67.107 16.049-67.107l28.638-20.888z" fill="url(#ae)"/>
  <path d="m426.18 779.98s-19.405 31.438-5.9708 51.665c13.434 20.227 19.727 18.024 32.721 30.976 7.087 7.0636 6.3374 20.689 6.3374 20.689s17.415-13.404 18.41-52.884c0.99512-39.48-20.898-59.22-23.386-58.733-2.4878 0.48741-28.112 8.2859-28.112 8.2859z" fill="url(#ad)"/>
 </g>
</svg>
