<?xml version="1.0" encoding="UTF-8"?>
<svg version="1.1" viewBox="0 0 122.79 129" xmlns="http://www.w3.org/2000/svg" xmlns:xlink="http://www.w3.org/1999/xlink">
 <defs>
  <linearGradient id="g" x1="341.43" x2="416.18" y1="652.34" y2="479.61" gradientTransform="matrix(.27781 0 0 .27781 269.4 199.71)" gradientUnits="userSpaceOnUse">
   <stop stop-color="#7ca2ff" offset="0"/>
   <stop stop-color="#7cbdff" stop-opacity="0" offset="1"/>
  </linearGradient>
  <linearGradient id="b" x1="452" x2="448.57" y1="562.29" y2="415.05" gradientUnits="userSpaceOnUse">
   <stop stop-color="#373098" offset="0"/>
   <stop stop-color="#373098" stop-opacity="0" offset="1"/>
  </linearGradient>
  <linearGradient id="h" x1="398" x2="406.08" y1="291.72" y2="376.57" gradientTransform="matrix(.27781 0 0 .27781 269.4 199.71)" gradientUnits="userSpaceOnUse" xlink:href="#a"/>
  <linearGradient id="a">
   <stop stop-color="#fff" offset="0"/>
   <stop stop-color="#fff" stop-opacity="0" offset="1"/>
  </linearGradient>
  <linearGradient id="i" x1="220.57" x2="393.99" y1="917.04" y2="917.04" gradientTransform="matrix(.16789 -.11352 .11352 .16789 171.69 176.92)" gradientUnits="userSpaceOnUse" xlink:href="#a"/>
  <linearGradient id="j" x1="187.38" x2="506.59" y1="892.25" y2="892.25" gradientUnits="userSpaceOnUse" xlink:href="#a"/>
 </defs>
 <g transform="translate(-391.49 -669.51)">
  <g transform="translate(86.329 404.52)">
   <path d="m327.49 274.86h100.47v94.854s-4.0692 21.468-24.275 24.275h-89.101v-109.31z"/>
   <path d="m320.58 278.39h104.02v89.233s-3.828 20.196-22.836 22.836h-83.821v-112.07z" fill="#99cbff"/>
   <path d="m321.32 313.3v74.648h80.261c14.312-3.6482 19.925-19.925 19.925-19.925v-40.131z" fill="url(#g)"/>
   <g transform="matrix(.15643 -.11478 .10442 .19098 289 275.05)">
    <path d="m450.61 587.5c-24.225 3.528-45.032-41.693-46.473-101-1.441-59.311 17.029-110.25 41.255-113.78 24.225-3.528 45.032 41.693 46.473 101 1.3679 56.303-15.257 105.63-38.095 113.04"/>
    <path transform="matrix(.88506 0 0 .88506 51.493 55.184)" d="m450.61 587.5c-24.225 3.528-45.032-41.693-46.473-101-1.441-59.311 17.029-110.25 41.255-113.78 24.225-3.528 45.032 41.693 46.473 101 1.3679 56.303-15.257 105.63-38.095 113.04" fill="url(#b)"/>
    <path transform="matrix(.4368 0 0 .4368 241.71 225.97)" d="m450.61 587.5c-24.225 3.528-45.032-41.693-46.473-101-1.441-59.311 17.029-110.25 41.255-113.78 24.225-3.528 45.032 41.693 46.473 101 1.3679 56.303-15.257 105.63-38.095 113.04" fill="#fff"/>
   </g>
   <path d="m325.81 393s-0.28063-33.115 33.115-30.308c-11.506 3.9289-12.628 13.19-12.628 13.19 22.17 16.277 40.972 3.9289 40.972 3.9289s-20.206 20.486-47.988 5.332c-3.087 1.4032-3.6482 7.5771-3.6482 7.5771z"/>
   <path transform="matrix(.17208 -.11711 .11636 .17319 170.46 174.97)" d="m356.43 969.39c-87.713 2.5342-163.05-29.948-168.27-72.552-5.2174-42.603 61.658-79.195 149.37-81.729 87.713-2.5342 163.05 29.948 168.27 72.552 4.9528 40.443-55.241 75.877-137.93 81.196"/>
   <path transform="matrix(.15142 -.10239 .10239 .15142 189.39 188.59)" d="m356.43 969.39c-87.713 2.5342-163.05-29.948-168.27-72.552-5.2174-42.603 61.658-79.195 149.37-81.729 87.713-2.5342 163.05 29.948 168.27 72.552 4.9528 40.443-55.241 75.877-137.93 81.196" fill="#ff9800"/>
   <path transform="matrix(.11157 -.075438 .078818 .11657 217.49 202.17)" d="m356.43 969.39c-87.713 2.5342-163.05-29.948-168.27-72.552-5.2174-42.603 61.658-79.195 149.37-81.729 87.713-2.5342 163.05 29.948 168.27 72.552 4.9528 40.443-55.241 75.877-137.93 81.196"/>
   <path transform="matrix(.094189 -.063688 .065319 .096602 235.46 215.75)" d="m356.43 969.39c-87.713 2.5342-163.05-29.948-168.27-72.552-5.2174-42.603 61.658-79.195 149.37-81.729 87.713-2.5342 163.05 29.948 168.27 72.552 4.9528 40.443-55.241 75.877-137.93 81.196" fill="#ff9800"/>
   <path d="m342.08 305.73s17.68-8.419 22.731-24.976h57.53v25.257z" fill="url(#h)"/>
   <path d="m311.08 295.63c11.298 6.2268 28.884-10.055 28.884-10.055l6.6899 7.725c-8.254 10.203-41.746 21.757-35.574 2.3302z" fill="url(#i)"/>
   <path transform="matrix(.080211 -.054236 .055625 .082265 248.96 225.27)" d="m356.43 969.39c-87.713 2.5342-163.05-29.948-168.27-72.552-5.2174-42.603 61.658-79.195 149.37-81.729 87.713-2.5342 163.05 29.948 168.27 72.552 4.9528 40.443-55.241 75.877-137.93 81.196" fill="url(#j)"/>
   <g transform="matrix(.25158 -.11448 .11448 .25158 207.54 268.2)">
    <path d="m450.61 587.5c-24.225 3.528-45.032-41.693-46.473-101-1.441-59.311 17.029-110.25 41.255-113.78 24.225-3.528 45.032 41.693 46.473 101 1.3679 56.303-15.257 105.63-38.095 113.04"/>
    <path transform="matrix(.88506 0 0 .88506 51.493 55.184)" d="m450.61 587.5c-24.225 3.528-45.032-41.693-46.473-101-1.441-59.311 17.029-110.25 41.255-113.78 24.225-3.528 45.032 41.693 46.473 101 1.3679 56.303-15.257 105.63-38.095 113.04" fill="url(#b)"/>
    <path transform="matrix(.4368 0 0 .4368 241.71 225.97)" d="m450.61 587.5c-24.225 3.528-45.032-41.693-46.473-101-1.441-59.311 17.029-110.25 41.255-113.78 24.225-3.528 45.032 41.693 46.473 101 1.3679 56.303-15.257 105.63-38.095 113.04" fill="#fff"/>
   </g>
   <path d="m385.62 313.09s-20.908-12.694-33.227-9.0588c-15.612 7.475-8.4698 16.898-2.2444 14.461 13.219-6.479 35.471-5.4021 35.471-5.4021z"/>
   <path d="m392.62 310.22s-3.7578-16.163 2.3493-23.63c9.8871-8.9329 14.979-2.4705 11.444 1.1921-8.4838 7.536-13.793 22.438-13.793 22.438z"/>
  </g>
 </g>
</svg>
