<?xml version="1.0" encoding="UTF-8"?>
<svg version="1.1" viewBox="0 0 746.94 757.11" xmlns="http://www.w3.org/2000/svg" xmlns:xlink="http://www.w3.org/1999/xlink">
 <defs>
  <linearGradient id="aa" x1="528.88" x2="528.24" y1="241.56" y2="200.84" gradientTransform="translate(-142.62 -6.961)" gradientUnits="userSpaceOnUse">
   <stop stop-color="#828282" offset="0"/>
   <stop stop-color="#4d4d4d" offset="1"/>
  </linearGradient>
  <linearGradient id="a">
   <stop stop-color="#f90" offset="0"/>
   <stop stop-color="#fff" offset="1"/>
  </linearGradient>
  <linearGradient id="b">
   <stop stop-color="#fff" offset="0"/>
   <stop stop-color="#cecece" offset="1"/>
  </linearGradient>
  <linearGradient id="ab" x1="266.15" x2="217.08" y1="656.76" y2="633.55" gradientTransform="matrix(-1.001 1.0213 -1.1252 -.56643 1102.1 580.09)" gradientUnits="userSpaceOnUse" xlink:href="#a"/>
  <linearGradient id="ac" x1="532.61" x2="462.28" y1="515.02" y2="446.08" gradientTransform="matrix(1.3577 -.23747 .23476 1.3734 -665.93 29.636)" gradientUnits="userSpaceOnUse" xlink:href="#a"/>
  <linearGradient id="ad" x1="536.86" x2="510.09" y1="651.35" y2="641.25" gradientTransform="matrix(-.9931 .46888 .47477 .98078 405.54 -289.55)" gradientUnits="userSpaceOnUse" xlink:href="#b"/>
  <linearGradient id="ae" x1="566.33" x2="553.18" y1="716.65" y2="732.56" gradientTransform="matrix(-.9931 .46888 .47477 .98078 405.54 -289.55)" gradientUnits="userSpaceOnUse" xlink:href="#b"/>
  <linearGradient id="af" x1="525.51" x2="488.7" y1="721.9" y2="713.32" gradientTransform="matrix(-.9931 .46888 .47477 .98078 405.54 -289.55)" gradientUnits="userSpaceOnUse" xlink:href="#b"/>
  <linearGradient id="ag" x1="275.92" x2="217.17" y1="649.96" y2="634.17" gradientTransform="matrix(.92275 .89115 1.0372 -.49424 -269.87 526.53)" gradientUnits="userSpaceOnUse" xlink:href="#a"/>
  <linearGradient id="ah" x1="532.61" x2="462.28" y1="515.02" y2="446.08" gradientTransform="matrix(-1.3577 -.23747 -.23476 1.3734 1413.7 3.3719)" gradientUnits="userSpaceOnUse" xlink:href="#a"/>
  <linearGradient id="ai" x1="343.07" x2="419.03" y1="796.06" y2="771.06" gradientTransform="matrix(.90539 .063916 -.064247 .95069 122.78 -5.4734)" gradientUnits="userSpaceOnUse">
   <stop stop-color="#969696" offset="0"/>
   <stop stop-color="#5a5a5a" offset="1"/>
  </linearGradient>
  <linearGradient id="aj" x1="536.86" x2="510.09" y1="651.35" y2="641.25" gradientTransform="matrix(1.0945 0 0 1.0658 -39.199 -121.01)" gradientUnits="userSpaceOnUse" xlink:href="#b"/>
  <linearGradient id="ak" x1="566.33" x2="553.18" y1="716.65" y2="732.56" gradientTransform="matrix(1.0945 0 0 1.0658 -39.199 -121.01)" gradientUnits="userSpaceOnUse" xlink:href="#b"/>
  <linearGradient id="al" x1="525.51" x2="488.7" y1="721.9" y2="713.32" gradientTransform="matrix(1.0945 0 0 1.0658 -39.199 -121.01)" gradientUnits="userSpaceOnUse" xlink:href="#b"/>
  <linearGradient id="am" x1="299.75" x2="273.4" y1="756.41" y2="644.98" gradientTransform="matrix(.93452 .087235 -.033881 1.1468 91.557 -157.77)" gradientUnits="userSpaceOnUse">
   <stop stop-color="#36f" offset="0"/>
   <stop stop-color="#fff" offset="1"/>
  </linearGradient>
  <linearGradient id="an" x1="362.79" x2="438.37" y1="690.61" y2="604.74" gradientTransform="matrix(.93452 .087235 -.033881 1.1468 91.557 -157.77)" gradientUnits="userSpaceOnUse">
   <stop stop-color="#36f" offset="0"/>
   <stop stop-color="#00279c" offset="1"/>
  </linearGradient>
  <linearGradient id="ao" x1="402.37" x2="384.41" y1="915.92" y2="806.28" gradientTransform="matrix(1.0754 .25598 -.3117 .88313 270.47 -22.982)" gradientUnits="userSpaceOnUse">
   <stop stop-color="#ff0" offset="0"/>
   <stop stop-color="#ff0" stop-opacity="0" offset="1"/>
  </linearGradient>
  <linearGradient id="ap" x1="397.67" x2="366.45" y1="972.9" y2="816.83" gradientTransform="matrix(.99048 .23577 -.2871 .81341 284.43 42.402)" gradientUnits="userSpaceOnUse">
   <stop offset="0"/>
   <stop stop-opacity="0" offset="1"/>
  </linearGradient>
  <linearGradient id="aq" x1="377.17" x2="372.08" y1="987.52" y2="827.17" gradientTransform="matrix(.99048 .23577 -.2871 .81341 284.43 42.402)" gradientUnits="userSpaceOnUse">
   <stop stop-color="#f00" offset="0"/>
   <stop stop-color="#f00" stop-opacity="0" offset="1"/>
  </linearGradient>
  <linearGradient id="ar" x1="349.18" x2="337.63" y1="590.81" y2="546.71" gradientTransform="matrix(1.1295 .18692 -.022944 1.1871 21.44 -178.23)" gradientUnits="userSpaceOnUse">
   <stop stop-color="#f90" offset="0"/>
   <stop stop-color="#8d5500" offset="1"/>
  </linearGradient>
  <linearGradient id="as" x1="181.87" x2="240.02" y1="532.23" y2="436.26" gradientTransform="matrix(1.098 .10796 -.084094 1.1977 65.84 -169.03)" gradientUnits="userSpaceOnUse">
   <stop stop-color="#9cdafb" offset="0"/>
   <stop stop-color="#fff" offset="1"/>
  </linearGradient>
  <linearGradient id="at" x1="363.66" x2="475.7" y1="474.68" y2="435.28" gradientTransform="matrix(1.098 .10796 -.084094 1.1977 65.84 -169.03)" gradientUnits="userSpaceOnUse">
   <stop stop-color="#9cdafb" offset="0"/>
   <stop stop-color="#1aa9f6" offset="1"/>
  </linearGradient>
  <linearGradient id="au" x1="356.41" x2="288.22" y1="104.42" y2="102.45" gradientTransform="matrix(1.1057 .18176 -.14752 1.2555 19.524 159.19)" gradientUnits="userSpaceOnUse" xlink:href="#a"/>
  <linearGradient id="c" x1="475.32" x2="457.72" y1="482.37" y2="436.65" gradientUnits="userSpaceOnUse" xlink:href="#a"/>
  <linearGradient id="d" x1="289.55" x2="287.07" y1="526.78" y2="466.31" gradientUnits="userSpaceOnUse">
   <stop stop-color="#00f" offset="0"/>
   <stop stop-opacity="0" offset="1"/>
  </linearGradient>
  <linearGradient id="av" x1="365.11" x2="313.37" y1="127.82" y2="126.45" gradientUnits="userSpaceOnUse" xlink:href="#a"/>
 </defs>
 <g transform="translate(-3.781 -179.52)">
  <path d="m372.62 299.41c-11.564 0.13044-22.254 5.2183-32.875 9.3125-11.967 3.8046-24.676 11.555-30.062 23.156-31.375 11.002-60.107 29.59-82.656 54.031-3.4634 3.5472-6.8051 7.1834-10.062 10.906-6.4438-3.1278-13.616-4.7659-20.938-4.4062-21.074 0.21005-40.701 15.648-46.656 35.562-9.5361 3.0592-18.673 7.6241-28.188 10.562-19.034 7.7204-37.303 18.08-53.312 31.031-0.49682 0.0184-1.0035 0.055-1.5 0.0937l-0.96875 0.0312c-34.262 1.5082-65.415 34.004-61.25 68.875 2.677 18.323 20.405 32.2 38.719 31.469 9.354 0.27545 18.55-1.878 26.969-5.8125 4.9267 5.4725 11.061 10.066 17.125 13.906 18.663 14.815 37.306 29.611 55.969 44.406-0.0282 12.457 6.3204 25.66 18.875 29.594 5.8499 2.5671 12.915 2.8141 18.594 4.6875 0.23727 2.6962 6.8642 7.8166 1.625 7.7812-8.2688 1.792-15.266 9.1526-16.188 17.375-11.92 4.2535-16.279 20.025-9.75 30.531 6.9801 16.824 20.828 33.752 40.406 34.469 21.2 1.7926 37.677-14.129 54.125-25 18.188-15.232 33.683-35.295 40.562-58.219 12.693 29.64 26.081 59.041 36.938 89.375 4.6071 1.6602 9.2972 3.0915 14.031 4.3438 2.9275 11.858 5.8509 23.722 8.7188 35.594 32.313 11.649 70.694 12.388 100.62-5.9062 5.9649-3.6801 13.488-6.7879 17.656-12.094 0.57998-10.924 1.1657-21.858 1.75-32.781 4.4562-2.4387 8.786-5.079 13-7.9375 1.4749-16.582 2.9021-33.16 4.2812-49.75 14.837 11.928 32.822 20.024 51.281 24.5 16.24 2.534 33.292 7.6078 49.594 3.4375 15.82-4.1837 28.176-18.405 29.562-34.781 1.7311-11.371 3.2569-25.644-5.8125-34.375-4.1176-3.901-10.208-5.313-15.469-5.3438-4.6812-8.1119-15.593-10.39-24-8 0.2362-4.1552-1.0048-9.7184 4.375-11.062 4.6508-2.9503 9.3232-6.844 12.844-11.438 24.871-19.415 49.209-39.629 74.406-58.562 1.3869-0.86818 2.7451-1.8063 4.0938-2.8125 38.881 8.544 81.444-23.688 81.656-63.875-0.28294-20.293-15.179-39.14-35.094-43.562-5.7619-1.5352-11.713-2.1946-17.688-2.0312-1.7272 0.0238-3.4414 0.1453-5.1562 0.3125-7.8008-6.8339-16.81-12.519-25.188-18.406-18.583-11.111-39.04-18.876-59.75-25.219-4.9152-19.127-22.36-34.849-42.625-35.188-1.1028-0.0532-2.2097-0.0532-3.3125 0-11.976-0.14718-23.166 5.741-30.812 14.656-26.807-20.527-57.423-35.983-90.156-44.406-0.73832-2.2593-1.8663-4.4176-3.4375-6.4062-8.3462-12.478-23.947-15.731-37.375-19.344-8.0088-3.0664-16.681-3.3783-25.188-3.25-0.7791-0.0372-1.5415-0.0399-2.3125-0.0312zm225.59 133.34c9e-3 3e-3 0.0219-3e-3 0.0312 0 17.313 7.7384 29.564 22.56 42.812 35.844-6.9721 10.575-10.909 23.034-10.219 36.156 0.0981 1.7192 0.31348 3.4237 0.625 5.0938-1.3774 0.71909-2.7499 1.4252-4.1562 2.0625-21.482 11.923-42.457 24.913-63.875 36.875-6.2454-2.8186-12.92-4.7038-19.562-5.5-1.013-0.15675-2.0363-0.25166-3.0625-0.34375 3.965-16.613 8.0819-33.185 11.688-49.875 14.967-7.5106 29.465-15.98 43.312-25.469 7.2961-2.406 9.0306-12.547 3.75-17.812-2.3479-3.9517-4.7933-7.8582-7.3438-11.688 2.1586-1.5949 4.1721-3.3796 6-5.3438zm-438 39.406c1.8883 2.0064 3.9574 3.8475 6.1562 5.5-4.477 10.215-8.4968 20.629-12.031 31.188 14.067 14.978 33.267 21.738 53.031 26 6.4946 14.188 13.315 28.225 20.094 42.281-1.3516 0.15166-2.7004 0.36254-4.0625 0.65625-2.5784 0.44872-2.9782-4.2769-5.0312-5.6875-5.004-6.9092-13.168-10.48-21.656-9.5-7.6046 0.93612-14.922 3.5166-21.594 7.3125-23.701-13.784-47.023-28.358-71.469-40.656 1.1523-2.788 2.1023-5.6644 2.8125-8.5938 17.315-16.751 31.494-37.968 53.75-48.5z"/>
  <path d="m211.77 399.03c-22.928-9.0016-52.009 5.8224-58.309 29.988-7.5452 23.246 8.662 49.397 32.883 52.8 23.854 4.8385 49.788-14.138 52.315-38.357 2.7096-19.066-8.6468-38.025-26.889-44.431z"/>
  <path transform="matrix(1.0515 .44262 -.48895 1.0528 -75.176 -257.22)" d="m506.84 463.06c0 18.899-15.32 34.219-34.219 34.219s-34.219-15.32-34.219-34.219 15.32-34.219 34.219-34.219 34.219 15.32 34.219 34.219z" fill="#f90"/>
  <path transform="matrix(.93507 .39362 -.43482 .93623 -45.228 -180.1)" d="m506.84 463.06c0 18.899-15.32 34.219-34.219 34.219s-34.219-15.32-34.219-34.219 15.32-34.219 34.219-34.219 34.219 15.32 34.219 34.219z" fill="url(#c)"/>
  <path d="m176.97 458.11c10.064-8.4021 12.63-22.576 0.44474-26.706-9.49-4.9486-23.492-2.0131-34.497 3.5022-27.934 9.0093-55.359 22.283-76.084 41.117-7.1983 5.6374-14.208 11.79-18.25 18.887 18.106 7.848 36.182 15.73 54.239 23.634 17.408-16.666 30.924-36.808 53.858-49.484 7.1785-2.9651 15.417-5.2503 20.289-10.949z"/>
  <path d="m102.06 512.36s26.089-28.2 38.421-38.334c12.333-10.134 24.483-12.733 24.483-12.733s11.482-6.204 14.569-16.089c3.0873-9.8852-16.205-14.694-25.855-9.747-9.6502 4.9473-41.125 12.268-65.09 29.684-28.739 20.885-32.245 27.275-32.245 27.275z" fill="#f90"/>
  <path d="m168.98 452.7c5.4415-4.5987 7.7822-8.5328 1.6936-11.917-4.883-2.7145-32.522 10.337-42.57 15.979-14.759 8.2883-36.84 18.629-55.481 36.114 6.4467 2.5803 27.062 13.23 30.633 11.342 12.787-25.299 48.494-42.824 65.724-51.518z" fill="url(#ab)"/>
  <path d="m38.182 482.27c-25.948 14.886-38.532 48.872-25.024 68.294 11.764 19.984 45.436 20.85 68.118 1.6102 23.49-18.093 30.251-51.714 13.58-67.865-12.528-13.345-36.614-14.318-56.674-2.0393z"/>
  <path transform="matrix(1.2131 -.66552 .41093 1.0339 -707.69 355.69)" d="m506.84 463.06c0 18.899-15.32 34.219-34.219 34.219s-34.219-15.32-34.219-34.219 15.32-34.219 34.219-34.219 34.219 15.32 34.219 34.219z" fill="#f90"/>
  <path transform="matrix(1.0788 -.59185 .36544 .91944 -623.16 373.87)" d="m506.84 463.06c0 18.899-15.32 34.219-34.219 34.219s-34.219-15.32-34.219-34.219 15.32-34.219 34.219-34.219 34.219 15.32 34.219 34.219z" fill="url(#c)"/>
  <path d="m73.417 524.75c-12.218 3.2194-11.608 19.363-6.385 28.345 6.0641 13.919 21.563 19.076 31.72 29.361 20.207 15.937 40.354 31.802 60.428 47.787 16.514-3.3956 37.521-6.095 46.024-22.946 3.6389-7.537 0.86924-19.064-8.2782-20.564-36.434-20.006-71.557-42.748-108.75-61.028-4.7396-1.5472-9.8703-2.2933-14.758-0.95485z"/>
  <path d="m93.103 533.64 107.46 61.575s3.8126 10.942-7.7834 18.507c-11.596 7.5648-32.086 10.613-32.086 10.613l-85.729-67.698s-10.431-17.643-3.8072-24.338c6.6243-6.6952 21.946 1.3409 21.946 1.3409z" fill="#f90"/>
  <path d="m76.398 535.55c-5.3282 2.7435-0.49852 11.301 1.6751 14.912 6.4556 10.725 19.353 15.122 28.124 23.788 18.645 14.708 37.289 29.415 55.934 44.123 11.662-3.0774 27.351-7.3764 32.813-19.96-46.886-24.357-79.207-46.828-110.52-62.188-2.3796-1.1673-5.5818-1.9317-8.0244-0.67395z" fill="url(#ac)"/>
  <path d="m181.36 571.11c0.7641-0.3716 1.5358-0.7167 2.3114-1.0537 9.7574-4.432 23.972-6.1645 30.888 3.7917 2.2542 2.7994 4.0495 5.8792 5.7152 9.0498 16.895-6.2812 36.04 2.5828 47.889 14.969 22.73 20.926 27.523 43.247 16.93 71.689-6.4738 17.382-25.428 42.065-40.814 52.126-20.048 13.109-30.233 23.857-51.314 20.849-17.432-2.487-28.503-19.658-34.591-34.991-3.2598-7.8512-0.38033-17.83 7.9651-21.195 1.2503-0.67841 2.5479-1.2168 3.8604-1.6344-0.83819-6.287 3.3305-12.591 9.2526-14.912 3.9774-1.7418 8.4049-2.2704 12.646-1.6783-3.6756-4.789-6.7483-10.099-9.2923-15.494-12.022-1.7176-27.534-3.604-32.975-16.136-10.02-26.001 7.8398-53.863 31.528-65.38z"/>
  <path d="m284.39 631.43c6.4909 20.456-7.9402 56.185-33.063 78.184-26.604 23.296-47.436 34.218-63.223 27.066-15.787-7.1525-29.521-31.706-26.14-39.997 3.3814-8.2909 19.126-12.682 28.916-3.9151 9.7898 8.7668 18.359 16.284 18.359 16.284s-2.0648-9.7149 15.64-26.25c-10.531-1.0524-22.068-3.5784-37.023-29.381-14.955-25.803 6.5226-56.673 35.159-66.744 24.552-8.6344 53.376 19.542 61.375 44.753z" fill="url(#af)"/>
  <path d="m180.22 674.3c3.277-1.7443 7.8219-2.5229 13.246-1.6222 1.0761 0.17869 2.2192 0.49612 3.3837 0.92527 5.0282 5.1798 10.957 9.3435 17.945 11.71 0.20786 0.17633 0.40168 0.36727 0.60571 0.54242-2.6618 4.3053-7.2116 9.0724-9.1054 14.428-2.1904-0.69699-4.6504-4.12-6.9408-5.9106-5.806-7.1552-15.457-11.559-24.674-10.566-0.58195-3.7218 1.4945-7.353 5.54-9.5064z" fill="url(#ae)"/>
  <path d="m184.16 574.61c6.9582-3.2092 13.332-4.1018 18.358-3.5842 6.0168 0.61965 10.834 7.9077 13.741 13.657-0.0301 0.0166-0.0629 0.0273-0.0931 0.0439-3.1219 1.3567-6.1499 2.9752-8.9798 4.8422-18.767 11.728-33.587 34.459-27.068 56.873 0.19544 0.49018 0.43147 0.97855 0.63525 1.4698-7.1675-0.95122-16.496-2.8726-21.913-6.6738-9.3322-6.5485-11.493-31.368 3.3714-49.036 7.432-8.8341 14.99-14.383 21.948-17.592z" fill="url(#ad)"/>
  <path d="m534.78 374.54c-15.428 16.193-11.823 45.723 7.4637 59.299 18.068 14.309 46.449 9.6419 57.356-9.5561 12.054-18.398 3.7543-46.704-16.81-57.127-15.954-8.8106-36.401-5.7583-48.01 7.3841z"/>
  <path transform="matrix(.73387 -.73239 .77024 .7718 -138.38 390.94)" d="m506.84 463.06c0 18.899-15.32 34.219-34.219 34.219s-34.219-15.32-34.219-34.219 15.32-34.219 34.219-34.219 34.219 15.32 34.219 34.219z" fill="#f90"/>
  <path transform="matrix(.65263 -.65131 .68498 .68636 -60.496 392.19)" d="m506.84 463.06c0 18.899-15.32 34.219-34.219 34.219s-34.219-15.32-34.219-34.219 15.32-34.219 34.219-34.219 34.219 15.32 34.219 34.219z" fill="url(#c)"/>
  <path d="m582.94 420.1c-9.277-7.3312-11.642-19.699-0.40996-23.302 8.7478-4.3179 21.655-1.7565 31.799 3.0558 25.749 7.861 51.03 19.443 70.133 35.876 6.6353 4.9188 13.097 10.287 16.822 16.48-16.69 6.8477-33.352 13.725-49.997 20.621-16.046-14.542-28.505-32.116-49.645-43.177-6.617-2.5872-14.211-4.5811-18.702-9.5537z"/>
  <path d="m652 467.44s-24.048-24.606-35.416-33.448-22.568-11.11-22.568-11.11-10.584-5.4133-13.43-14.039c-2.8458-8.6253 14.937-12.821 23.833-8.5046 8.8954 4.3167 37.908 10.704 60 25.901 26.492 18.223 29.723 23.799 29.723 23.799z" fill="#f90"/>
  <path d="m590.31 415.38c-5.0159-4.0126-7.1736-7.4452-1.5611-10.399 4.5011-2.3685 29.978 9.0191 39.24 13.943 13.605 7.2319 33.958 16.255 51.142 31.511-5.9425 2.2514-24.945 11.543-28.237 9.8965-11.787-22.075-44.701-37.366-60.583-44.952z" fill="url(#ag)"/>
  <path d="m664.09 451.49c27.752-18.774 66.708-12.357 78.146 13.173 12.884 24.014-3.9017 60.08-34.093 72.879-29.522 14.318-65.085 1.9626-71.752-25.011-6.1606-20.971 5.5101-46.974 27.699-61.041z"/>
  <path transform="matrix(-1.2684 .89531 .76998 1.0336 933.61 -409.7)" d="m506.84 463.06c0 18.899-15.32 34.219-34.219 34.219s-34.219-15.32-34.219-34.219 15.32-34.219 34.219-34.219 34.219 15.32 34.219 34.219z" fill="#f90"/>
  <path transform="matrix(-1.128 .7962 .68474 .91914 906.72 -309.87)" d="m506.84 463.06c0 18.899-15.32 34.219-34.219 34.219s-34.219-15.32-34.219-34.219 15.32-34.219 34.219-34.219 34.219 15.32 34.219 34.219z" fill="url(#c)"/>
  <path d="m674.37 498.49c12.218 3.2194 11.608 19.363 6.385 28.345-6.0641 13.919-21.563 19.076-31.72 29.361-20.207 15.937-40.354 31.802-60.428 47.787-16.514-3.3956-37.521-6.095-46.024-22.946-3.6389-7.537-0.86924-19.064 8.2782-20.564 36.434-20.006 71.557-42.748 108.75-61.028 4.7396-1.5472 9.8703-2.2933 14.758-0.95485z"/>
  <path d="m654.68 507.38-107.46 61.575s-3.8126 10.942 7.7834 18.507c11.596 7.5648 32.086 10.613 32.086 10.613l85.729-67.698s10.431-17.643 3.8072-24.338c-6.6243-6.6952-21.946 1.3409-21.946 1.3409z" fill="#f90"/>
  <path d="m671.39 509.28c5.3282 2.7435 0.49852 11.301-1.6751 14.912-6.4556 10.725-19.353 15.122-28.124 23.788-18.645 14.708-37.289 29.415-55.934 44.123-11.662-3.0774-27.351-7.3764-32.813-19.96 46.886-24.357 79.207-46.828 110.52-62.188 2.3796-1.1673 5.5818-1.9317 8.0244-0.67395z" fill="url(#ah)"/>
  <path d="m418.29 179.53c-6.8359 0.1552-13.843 2.5024-18.531 7.5312-11.278-10.334-32.405-9.0581-40.688 4.3125-9.4962-5.8815-23.795-3.8288-30.188 5.625-12.4-7.6891-32.68-5.0113-38.594 9.6875-3.052 10.698 7.5039 20.13 17.5 21.281 4.4482 1.1271 9.9394-0.17329 13.75-0.125 1.8145 13.013 17.451 18.517 29.031 16.469 6.0289-0.8334 12.077-3.4756 16-8.1562 11.459 11.406 33.617 9.2264 41.969-3.875 10.71 7.0978 29.257 4.5293 33.656-8.8438 0.0788-2.5396 4.3826-0.19433 6.3125-1.375 8.6022-0.8508 17.999-9.5351 14.125-18.688-3.2534-8.0126-12.995-10.554-20.562-10.344-3.1558-9.6437-14.387-13.754-23.781-13.5z"/>
  <path d="m464.86 729.99c-37.369 19.921-81.368 23.216-121.93 14.022 3.7724 15.317 7.559 30.63 11.309 45.953 29.092 9.6842 62.408 11.499 90.197-3.6677 7.299-3.5566 14.176-7.5909 20.8-12.348 0.7722-15.112 1.5482-30.223 2.3964-45.331-0.92428 0.45719-1.8486 0.91439-2.7728 1.3716z"/>
  <path d="m463.64 734.8c-35.567 18.187-76.977 21.817-115.75 14.098l9.3618 38.03s28.391 9.787 55.61 5.8362c25.026-3.6327 48.84-20.906 48.84-20.906z" fill="#969696"/>
  <path d="m463.64 734.8c-24.264 12.407-51.242 18.033-78.251 17.909 1.8694 1.2804 3.4528 2.582 4.5972 3.9066 7.5331 8.7195 9.0887 24.522 9.0887 24.522s1.1995-27.544 13.349-24.64c12.15 2.9046 15.54 24.978 15.54 24.978s1.3852-25.484 8.8223-24.959c7.4371 0.52502 13.794 21.78 13.794 21.78l0.79222 0.0559c6.3551-3.6336 10.332-6.4945 10.332-6.4945l1.9358-37.058z" fill="url(#ai)"/>
  <path d="m535.64 546.68c-0.84681-0.01-1.689 7e-3 -2.531 0.0333-10.678 0.15462-24.182 4.5588-26.062 16.254-0.80654 3.4176-1.0797 6.8918-1.1971 10.392-17.883 1.4998-31.209 17.336-36.46 33.241-11.303 28.003-5.9099 49.749 15.943 70.484 13.355 12.671 41.077 26.59 59.248 29.063 23.677 3.223 37.48 8.4766 55.086-2.9882 14.558-9.4802 17.033-29.293 15.836-45.398-0.48511-8.3063-7.4015-15.931-16.349-15.421-1.4162-0.0779-2.814-0.0123-4.1727 0.16654-1.9782-5.9113-8.4554-9.7469-14.775-9.3261-4.3243 0.12038-8.5256 1.5019-12.073 3.7971 1.2176-5.7712 1.6682-11.752 1.6075-17.586 10.038-6.54 23.135-14.687 22.574-28.045-2.3019-27.185-30.422-44.371-56.674-44.666z"/>
  <path d="m469.41 643.07c3.06 20.805 31.521 46.383 63.611 55.35 33.982 9.4956 57.412 10.457 68.468-2.4631 11.056-12.92 12.714-40.375 6.0808-46.297-6.6336-5.9216-22.665-3.23-27.64 8.6133-4.9752 11.843-9.3975 22.072-9.3975 22.072s-2.3664-9.4558-25.429-16.688c8.9904-5.3292 18.242-12.382 20.453-41.452 2.2112-29.07-30.461-47.407-60.523-44.355-25.774 2.6163-39.396 39.578-35.624 65.219z" fill="url(#al)"/>
  <path d="m581.47 637.48c-3.6972-0.17434-8.1123 1.0351-12.587 4.0968-0.88773 0.60749-1.7754 1.3657-2.6336 2.2316-2.2614 6.6818-5.7718 12.841-11.013 17.853-0.10989 0.24279-0.20085 0.49262-0.30782 0.73277 4.2574 2.6967 10.409 5.0133 14.433 8.9598 1.6623-1.5314 2.3826-5.5866 3.6597-8.1271 2.1013-8.754 8.8466-16.68 17.546-19.652-1.0941-3.5352-4.5336-5.8801-9.0979-6.0953z" fill="url(#ak)"/>
  <path d="m534.65 550.94c-7.6355 0.0673-13.741 1.9394-18.025 4.4965-5.1284 3.061-6.2848 11.519-6.3959 17.82 0.0342 2e-3 0.0683-2e-3 0.10255 0 3.3897-0.10371 6.8088 0.0633 10.158 0.53292 21.928 2.5359 45.093 16.454 48.978 39.003 0.0375 0.51522 0.0379 1.0458 0.0684 1.5655 6.0166-3.8348 13.55-9.4302 16.759-15.055 5.528-9.69-3.3117-32.547-24.318-41.968-10.503-4.7104-19.692-6.4624-27.328-6.3951z" fill="url(#aj)"/>
  <path d="m492.05 550.52c-37.991 22.588-79.258 37.985-121.84 43.327-29.359 2.7784-76.798 1.2744-104.91-11.156 16.168 56.718 45.198 109.86 65.956 167.32 47.542 16.82 106.23 10.676 148.85-17.953 3.8186-41.951 10.769-131.2 15.034-183.36-1.0275 0.61032-2.055 1.2206-3.0825 1.8309z"/>
  <path d="m490.71 556.55c-25.183 15.018-52.019 25.897-79.504 33.618-39.508 12.467-100.6 14.148-140.32-1.7015 32.857 68.929 63.256 157.88 63.256 157.88s36.974 14.487 80.252 7.4913c43.277-6.9959 62.298-26.132 62.298-26.132z" fill="#36f"/>
  <path d="m490.71 556.55c-25.183 15.018-52.019 25.897-79.504 33.618-14.188 4.4771-28.865 7.354-43.68 8.5005 52.31 25.117 92.362 73.324 107.75 130.3 0.90476-0.78035 1.4139-1.2696 1.4139-1.2696l14.017-171.15z" fill="url(#an)"/>
  <path d="m303.3 596.77 38.434 147.26c12.701 3.7233 25.719 6.0404 38.747 6.8153l-18.786-147.19c-19.476 0.84183-39.222-1.3241-58.394-6.8884z" fill="url(#am)"/>
  <path d="m348.8 844.92c-1.0549 34.486 39.634 54.415 39.634 54.415-6.2026 33.706-26.623 32.408-26.623 32.408s67.787 0.77101 100.72-42.605c32.934-43.376 4.5313-81.98-8.6823-94.477-13.214-12.498-27.852-18.654-27.852-18.654l-38.01 11.661s-38.133 22.766-39.188 57.252z" fill="url(#aq)"/>
  <path d="m427.12 770.83c-0.53762-0.11916-1.0618-0.17146-1.5974-0.13225-18.473 6.8162-40.707 8.9562-54.212 22.503-20.575 17.277-34.207 42.955-26.541 67.116 5.3866 17.011 19.62 31.332 36.846 41.34-2.2283 9.8369-6.5404 22.581-20.038 25.21-4.5213 1.2158-8.163 3.6869-11.821 6.1139 15.896 7.2836 34.134 1.8881 50.509-0.98291 38.959-8.7668 73.166-34.437 81.576-67.71 9.1916-34.49-11.376-72.025-47.888-90.289-2.1727-0.88758-4.5041-2.652-6.8334-3.1697zm-1.1174 5.1623s14.623 6.1699 27.837 18.668 41.627 51.112 8.6924 94.488c-30.657 40.376-91.449 42.487-99.719 42.588 4.1332-0.24597 20.237-3.1039 25.626-32.394 0 0-40.695-19.946-39.64-54.433 1.0549-34.486 39.195-57.243 39.195-57.243l38.009-11.674z" fill="url(#ap)"/>
  <path d="m408.27 792.68s-31.337 23.728-23.206 45.73c8.1315 22.002 15.712 21.621 25.714 36.85 5.4547 8.3057 0.23536 20.58 0.23536 20.58s23.34-7.7412 37.178-43.613c13.838-35.871-3.684-59.625-6.5572-59.826-2.8732-0.2004-33.364 0.27799-33.364 0.27799z" fill="url(#ao)"/>
  <path d="m237.98 532.81c-10.089-1.7865-29.429-13.529-39.465-16.068 10.762 24.469 37.624 75.133 48.442 99.58 70.467 26.123 115.18 21.524 172.99 14.731 37.745-4.435 76.69-25.222 110.25-41.32 4.5438-28.802 23.435-91.513 28.073-120.29-133.88 60.9-231.69 76.619-320.29 63.361z"/>
  <path d="m535.27 519.67c-73.958 27.211-157.01 31.887-238.83 25.267-26.765-2.6807-54.172-5.3418-80.957-12.207l38.16 78.743s51.364 25.067 132.75 18.688c81.39-6.3795 136.14-43.651 136.14-43.651z" fill="#f90"/>
  <path d="m547.05 477.88c-37.34 21.402-117.24 85.095-331.56 54.931 25.191 52.52 29.588 62.197 38.236 77.917 5.1789-8.1505 37.966-40.906 76.274-44.755 116.2-11.673 154.34 2.2248 192.53 20.458z" fill="url(#ar)"/>
  <path d="m397.42 325.46c-54.706-5.3758-111.23 11.395-153.22 49.605-39.103 34.32-67.801 81.359-85.257 132.72 17.395 17.506 41.855 21.575 64.186 26.172 57.252 9.4507 115.36 6.9944 172.57 0.74198 69.216-9.1148 138.5-29.543 197.4-70.303 7.3594-2.9293 6.8715-7.8666 2.2055-13.467-43.08-72.819-119.03-120.38-197.88-125.46z"/>
  <path d="m164.12 506.51s53.14-174.36 208.36-176.97c155.22-2.6096 221.63 128.15 221.63 128.15s-80.811 67.026-240.93 76.127c-160.12 9.1018-189.06-27.306-189.06-27.306z" fill="#9cdafb"/>
  <path d="m400.54 330.55c-9.0129-0.81429-18.35-1.1875-28.051-1.0244-1.6598 0.0279-3.3148 0.0871-4.9513 0.15385 65.8 28.982 109.49 87.101 105.1 149.51-0.92342 13.152-3.9372 25.706-8.7459 37.467 86.617-22.807 130.21-58.953 130.21-58.953s-58.371-114.94-193.56-127.15z" fill="url(#at)"/>
  <path d="m354.76 349.79c-73.035-7.181-150.44 64.348-175.79 161.01 20.76 10.999 44.624 13.604 67.374 16.687 3.703 0.3665 7.4155 0.71945 11.122 1.0182 0.2423-3.2808 0.56197-6.5835 0.93659-9.8949 9.2321-81.608 56.25-146.93 113.21-165.69-5.4059-1.5062-11.029-2.5542-16.848-3.1263z" fill="url(#as)"/>
  <path transform="matrix(.79338 0 0 1.0455 178.34 -66.936)" d="m304.46 504.86c0 18.541-7.7151 33.571-17.232 33.571s-17.232-15.03-17.232-33.571 7.7151-33.571 17.232-33.571 17.232 15.03 17.232 33.571z"/>
  <path transform="matrix(.69242 0 0 .91249 207.34 .23555)" d="m304.46 504.86c0 18.541-7.7151 33.571-17.232 33.571s-17.232-15.03-17.232-33.571 7.7151-33.571 17.232-33.571 17.232 15.03 17.232 33.571z" fill="url(#d)"/>
  <path transform="matrix(.34586 0 0 .45578 302.7 219.7)" d="m304.46 504.86c0 18.541-7.7151 33.571-17.232 33.571s-17.232-15.03-17.232-33.571 7.7151-33.571 17.232-33.571 17.232 15.03 17.232 33.571z" fill="#fff"/>
  <path transform="matrix(.79338 0 0 1.0455 110.49 -59.793)" d="m304.46 504.86c0 18.541-7.7151 33.571-17.232 33.571s-17.232-15.03-17.232-33.571 7.7151-33.571 17.232-33.571 17.232 15.03 17.232 33.571z"/>
  <path transform="matrix(.69242 0 0 .91249 139.48 7.3784)" d="m304.46 504.86c0 18.541-7.7151 33.571-17.232 33.571s-17.232-15.03-17.232-33.571 7.7151-33.571 17.232-33.571 17.232 15.03 17.232 33.571z" fill="url(#d)"/>
  <path transform="matrix(.34586 0 0 .45578 234.85 226.84)" d="m304.46 504.86c0 18.541-7.7151 33.571-17.232 33.571s-17.232-15.03-17.232-33.571 7.7151-33.571 17.232-33.571 17.232 15.03 17.232 33.571z" fill="#fff"/>
  <rect transform="matrix(.90683 .42149 -.42149 .90683 0 0)" x="466.74" y="245.63" width="50.893" height="10.893" ry="5.4464"/>
  <rect transform="matrix(-.79982 .60024 .60024 .79982 0 0)" x="-88.99" y="577.13" width="50.893" height="10.893" ry="5.4464"/>
  <path d="m291.09 503.55s-40.686-5.4863-56.451 7.5394c1.1696 4.8604 16.202 17.233 16.202 17.233s-26.328-3.9739-34.048-22.732c-6.1084-14.842 11.856-24.926 11.856-24.926s-4.2358 12.259-0.8597 17.33c31.943-12.659 63.301 5.5544 63.301 5.5544z"/>
  <path d="m390.72 304.27c-0.91548-0.16137-1.824-0.29331-2.7343-0.4095-13.485-1.0271-28.678-0.85358-40.594 6.7638-14.25 4.0749-29.921 10.258-35.659 26.811-3.4195 13.852 8.8826 24.932 19.334 28.493 29.064 11.05 61.765 8.4352 89.347-5.6279 9.7152-4.9202 20.856-16.508 16.832-29.946-5.0041-14.65-21.229-19.775-33.407-22.328-0.57201-0.0611-1.0432 3e-3 -1.4582 0.12022-3.6387-1.9903-7.6616-3.1717-11.66-3.8764z"/>
  <path transform="matrix(1.0549 -.021608 -.1433 1.2195 33.865 176.02)" d="m371.99 127.19c0 7.0434-14.19 12.753-31.694 12.753s-31.694-5.7098-31.694-12.753c0-7.0434 14.19-12.753 31.694-12.753s31.694 5.7098 31.694 12.753z" fill="#f90"/>
  <path d="m408.53 314.2c3.052 2.626 4.6462 5.7204 4.2494 9.0967-1.1798 10.041-19.252 18.599-40.356 19.12-21.104 0.52115-37.262-7.2082-36.082-17.249 0.29167-2.4822 1.6114-4.8983 3.7577-7.1006-13.942 5.5568-23.383 13.761-24.429 22.658-1.8408 15.666 23.058 27.652 55.637 26.782 32.579-0.87036 60.497-14.278 62.337-29.944 1.197-10.187-8.9336-18.81-25.114-23.364z" fill="#f90"/>
  <path transform="matrix(.86345 -.017687 -.11729 .99818 95.703 202.84)" d="m371.99 127.19c0 7.0434-14.19 12.753-31.694 12.753s-31.694-5.7098-31.694-12.753c0-7.0434 14.19-12.753 31.694-12.753s31.694 5.7098 31.694 12.753z" fill="url(#av)"/>
  <path d="m417.17 323.1c-1.8653 14.487-16.647 19.194-27.382 22.013-17.49 4.1488-37.745 4.2327-53.072-7.8445-2.4571-2.4714-4.3507-5.8171-4.8299-9.552-5.5911 3.1924-14.394 10.107-10.814 18.298 8.09 12.644 23.508 13.893 36.142 15.822 23.109 2.0157 48.353-1.1016 67.441-16.71 4.6801-3.8998 6.6172-12.662 0.86971-16.693-2.3392-2.2184-5.7744-5.1144-8.3547-5.3325z" fill="url(#au)"/>
  <path d="m332.3 206.11c-1.2322-2.4562-3.4886-4.6595-6.424-6.2729-2.9354-1.6133-6.5399-2.6312-10.262-2.898s-7.5497 0.21849-10.897 1.3816c-3.3471 1.1631-6.2027 3-8.1298 5.2298-2.4379 2.8208-3.3531 6.2613-2.5274 9.5016 0.8257 3.2404 3.3852 6.2529 7.0686 8.3199s8.4593 3.1708 13.19 3.0484c4.7305-0.12241 9.3751-1.47 12.827-3.7216-2.365 3.7219-2.2808 8.157 0.22477 11.834 2.5056 3.6771 7.3887 6.5321 13.029 7.6176 5.6607 1.0894 11.985 0.3772 16.861-1.8989 4.8764-2.2761 8.2186-6.0758 8.9109-10.13 0.9539 3.4258 3.824 6.5757 7.8717 8.6392s9.232 3.0196 14.219 2.6224c5.3277-0.4244 10.365-2.3971 13.648-5.3448 3.2828-2.9477 4.7683-6.8319 4.0248-10.524 1.2181 3.1726 4.4816 5.9367 8.7202 7.3858s9.3802 1.5586 13.738 0.29249c3.711-1.0781 6.8186-3.1271 8.5634-5.6462 1.7448-2.5192 2.111-5.4858 1.0091-8.1748 3.7858 1.2113 8.2967 1.2766 12.152 0.17588 3.855-1.1007 6.9977-3.3512 8.466-6.0626 1.0325-1.9067 1.25-4.0228 0.61803-6.0122-0.632-1.9894-2.1112-3.845-4.2028-5.2721s-4.788-2.4206-7.6611-2.8227-5.9124-0.21135-8.6355 0.54194c0.21538-2.577-0.65084-5.1933-2.4652-7.4456-1.8143-2.2523-4.5705-4.1328-7.8437-5.3517-5.2876-1.9691-11.9-2.1189-17.361-0.39331-5.4608 1.7256-9.6461 5.2872-10.989 9.3514-1.3026-2.988-4.1166-5.6462-7.8331-7.3993-3.7164-1.7531-8.3093-2.5889-12.785-2.3266-5.2204 0.30606-10.224 2.1211-13.571 4.9228-3.3472 2.8018-4.995 6.5543-4.4692 10.178-1.2202-2.5849-3.9249-4.815-7.3835-6.0879s-7.6322-1.5742-11.393-0.82262c-3.9476 0.78888-7.3887 2.7326-9.3074 5.2573s-2.289 5.5962-1.0015 8.3077" fill="url(#aa)"/>
  <path d="m376.44 248.54c-9.2202-0.16837-19.475 2.3336-22.933 7.3824-1.4573 2.0396 0.50676 4.8037 4.8006 5.0133 9.4339 1.5298 19.394 1.9944 29.22 1.5374 1.6552-0.0197 3.3138-0.0172 4.9642 0.0642-5.844 1.208-11.782 2.3176-17.032 4.2709-4.2215 0.84986-9.8132-0.88451-13.168 1.3514-2.7176 1.9635-0.29804 4.6916 3.032 5.8475 1.3198 0.6369 3.364 1.0408 4.6222 1.4181-2.1457 0.73511-3.1631 2.2495-2.0064 3.5536 0.32873 0.80388 1.7823 1.5289 0.26753 2.1605-1.6796 1.4492-0.6805 3.5356 1.6646 4.4378 0.24826 0.88597 0.70944 1.6696 0.78771 2.5442 1.4455 1.4994 5.9436 0.83965 6.376-0.80913 0.88941-1.6476-1.1199-3.3118-2.8684-4.3961 3.1955-0.57182 3.7155-2.8849 1.6795-4.2042-0.60637-0.45645-1.4604-0.76885-0.20808-1.0844 1.9819-0.62843 2.9994-2.3519 1.8875-3.4117 0.7352-1.3287-1.3794-2.2624-3.4481-2.5108-1.2879-0.25472-2.6494-0.3203-3.9683-0.5589 4.1124 0.22703 8.2949 4e-3 11.899-1.1606 6.4961-1.5359 13.861-2.7072 18.747-5.6963 2.5513-2.0054 0.83297-5.2694-3.7008-5.7891-8.5296-1.7973-17.755 0.56309-26.418-0.91463-3.1998-0.53484-6.9235-0.34787-9.9653-0.46174 3.3421-3.1629 10.674-3.2681 16.482-3.6206 3.8437-0.15503 7.6991-0.17284 11.549-0.24992 0.90987-1.0297 3.2231-2.4893 1.0998-3.5118-4.142-1.0699-8.83-1.2638-13.361-1.2012z"/>
 </g>
</svg>
