<?xml version="1.0" encoding="UTF-8"?>
<svg version="1.1" viewBox="0 0 122.79 129" xmlns="http://www.w3.org/2000/svg" xmlns:xlink="http://www.w3.org/1999/xlink">
 <defs>
  <linearGradient id="c" x1="341.43" x2="416.18" y1="652.34" y2="479.61" gradientTransform="matrix(.27781 0 0 .27781 136.18 48.277)" gradientUnits="userSpaceOnUse">
   <stop stop-color="#7ca2ff" offset="0"/>
   <stop stop-color="#7cbdff" stop-opacity="0" offset="1"/>
  </linearGradient>
  <linearGradient id="b" x1="452" x2="448.57" y1="562.29" y2="415.05" gradientUnits="userSpaceOnUse">
   <stop stop-color="#373098" offset="0"/>
   <stop stop-color="#373098" stop-opacity="0" offset="1"/>
  </linearGradient>
  <linearGradient id="g" x1="398" x2="406.08" y1="291.72" y2="376.57" gradientTransform="matrix(.27781 0 0 .27781 136.18 48.277)" gradientUnits="userSpaceOnUse" xlink:href="#a"/>
  <linearGradient id="a">
   <stop stop-color="#fff" offset="0"/>
   <stop stop-color="#fff" stop-opacity="0" offset="1"/>
  </linearGradient>
  <linearGradient id="h" x1="220.57" x2="393.99" y1="917.04" y2="917.04" gradientTransform="matrix(.16789 -.11352 .11352 .16789 38.472 25.487)" gradientUnits="userSpaceOnUse" xlink:href="#a"/>
  <linearGradient id="i" x1="187.38" x2="506.59" y1="892.25" y2="892.25" gradientUnits="userSpaceOnUse" xlink:href="#a"/>
 </defs>
 <g transform="translate(-199.77 -311.12)">
  <g transform="translate(27.823 197.56)">
   <path d="m194.28 123.43h100.47v94.854s-4.0692 21.468-24.275 24.275h-89.101v-109.31z"/>
   <path d="m187.37 126.96h104.02v89.233s-3.828 20.196-22.836 22.836h-83.821v-112.07z" fill="#99cbff"/>
   <path d="m188.1 161.87v74.648h80.261c14.312-3.6482 19.925-19.925 19.925-19.925v-40.131z" fill="url(#c)"/>
   <g transform="matrix(.25158 -.11448 .11448 .25158 72.683 115.67)">
    <path d="m450.61 587.5c-24.225 3.528-45.032-41.693-46.473-101-1.441-59.311 17.029-110.25 41.255-113.78 24.225-3.528 45.032 41.693 46.473 101 1.3679 56.303-15.257 105.63-38.095 113.04"/>
    <path transform="matrix(.88506 0 0 .88506 51.493 55.184)" d="m450.61 587.5c-24.225 3.528-45.032-41.693-46.473-101-1.441-59.311 17.029-110.25 41.255-113.78 24.225-3.528 45.032 41.693 46.473 101 1.3679 56.303-15.257 105.63-38.095 113.04" fill="url(#b)"/>
    <path transform="matrix(.4368 0 0 .4368 241.71 225.97)" d="m450.61 587.5c-24.225 3.528-45.032-41.693-46.473-101-1.441-59.311 17.029-110.25 41.255-113.78 24.225-3.528 45.032 41.693 46.473 101 1.3679 56.303-15.257 105.63-38.095 113.04" fill="#fff"/>
   </g>
   <g transform="matrix(.15643 -.11478 .10442 .19098 155.78 123.62)">
    <path d="m450.61 587.5c-24.225 3.528-45.032-41.693-46.473-101-1.441-59.311 17.029-110.25 41.255-113.78 24.225-3.528 45.032 41.693 46.473 101 1.3679 56.303-15.257 105.63-38.095 113.04"/>
    <path transform="matrix(.88506 0 0 .88506 51.493 55.184)" d="m450.61 587.5c-24.225 3.528-45.032-41.693-46.473-101-1.441-59.311 17.029-110.25 41.255-113.78 24.225-3.528 45.032 41.693 46.473 101 1.3679 56.303-15.257 105.63-38.095 113.04" fill="url(#b)"/>
    <path transform="matrix(.4368 0 0 .4368 241.71 225.97)" d="m450.61 587.5c-24.225 3.528-45.032-41.693-46.473-101-1.441-59.311 17.029-110.25 41.255-113.78 24.225-3.528 45.032 41.693 46.473 101 1.3679 56.303-15.257 105.63-38.095 113.04" fill="#fff"/>
   </g>
   <path transform="matrix(.17208 -.11711 .11636 .17319 37.243 23.544)" d="m356.43 969.39c-87.713 2.5342-163.05-29.948-168.27-72.552-5.2174-42.603 61.658-79.195 149.37-81.729 87.713-2.5342 163.05 29.948 168.27 72.552 4.9528 40.443-55.241 75.877-137.93 81.196"/>
   <path transform="matrix(.15142 -.10239 .10239 .15142 56.176 37.159)" d="m356.43 969.39c-87.713 2.5342-163.05-29.948-168.27-72.552-5.2174-42.603 61.658-79.195 149.37-81.729 87.713-2.5342 163.05 29.948 168.27 72.552 4.9528 40.443-55.241 75.877-137.93 81.196" fill="#ff9800"/>
   <path transform="matrix(.11157 -.075438 .078818 .11657 84.274 50.738)" d="m356.43 969.39c-87.713 2.5342-163.05-29.948-168.27-72.552-5.2174-42.603 61.658-79.195 149.37-81.729 87.713-2.5342 163.05 29.948 168.27 72.552 4.9528 40.443-55.241 75.877-137.93 81.196"/>
   <path transform="matrix(.094189 -.063688 .065319 .096602 102.25 64.326)" d="m356.43 969.39c-87.713 2.5342-163.05-29.948-168.27-72.552-5.2174-42.603 61.658-79.195 149.37-81.729 87.713-2.5342 163.05 29.948 168.27 72.552 4.9528 40.443-55.241 75.877-137.93 81.196" fill="#ff9800"/>
   <path d="m208.87 154.3s17.68-8.419 22.731-24.976h57.53v25.257z" fill="url(#g)"/>
   <path d="m177.87 144.2c11.298 6.2268 28.884-10.055 28.884-10.055l6.6899 7.725c-8.254 10.203-41.746 21.757-35.574 2.3302z" fill="url(#h)"/>
   <path transform="matrix(.080211 -.054236 .055625 .082265 115.75 73.839)" d="m356.43 969.39c-87.713 2.5342-163.05-29.948-168.27-72.552-5.2174-42.603 61.658-79.195 149.37-81.729 87.713-2.5342 163.05 29.948 168.27 72.552 4.9528 40.443-55.241 75.877-137.93 81.196" fill="url(#i)"/>
   <path d="m251.79 228.08c-29.286-20.714-48.214-5.7143-48.214-5.7143s-5-5.3571-1.4286-14.286c-12.857 12.857-6.7857 26.429 2.8571 31.786h12.5c-7.5-2.6786-9.2857-7.6786-9.2857-7.6786s13.571-13.036 43.571-4.1072z"/>
  </g>
 </g>
</svg>
