<?xml version="1.0" encoding="UTF-8"?>
<svg viewBox="0 0 1448.125 592.32367" xmlns="http://www.w3.org/2000/svg">
 <g transform="translate(-96.127 -135.22)">
  <g transform="translate(11.924)" fill="#e6e6e6">
   <path d="m354.29 212.36c0 42.605-34.538 77.143-77.143 77.143s-77.143-34.538-77.143-77.143 34.538-77.143 77.143-77.143 77.143 34.538 77.143 77.143z"/>
   <path d="m277.13 294.46c-93.998 0-171.33 71.224-181 162.66h34.812c9.4866-72.294 71.301-128.09 146.19-128.09s136.73 55.8 146.22 128.09h34.812c-9.6717-91.433-87.034-162.66-181.03-162.66z"/>
   <path d="m277.14 292.28c-59.204 0-107.19 85.749-107.19 191.5 0 3.9613 0.0548 7.8796 0.1875 11.781h214c0.13275-3.9016 0.1875-7.82 0.1875-11.781 0-105.75-47.983-191.5-107.19-191.5z"/>
   <g transform="translate(-9.3252)">
    <path d="m226.85 485.53h38.629v242.01h-38.629z"/>
    <path d="m307.46 485.53h38.629v242.01h-38.629z"/>
   </g>
   <g transform="translate(362.03)">
    <path d="m354.29 212.36c0 42.605-34.538 77.143-77.143 77.143s-77.143-34.538-77.143-77.143 34.538-77.143 77.143-77.143 77.143 34.538 77.143 77.143z"/>
    <path d="m277.13 294.46c-93.998 0-171.33 71.224-181 162.66h34.812c9.4866-72.294 71.301-128.09 146.19-128.09s136.73 55.8 146.22 128.09h34.812c-9.6717-91.433-87.034-162.66-181.03-162.66z"/>
    <path d="m277.14 292.28c-59.204 0-107.19 85.749-107.19 191.5 0 3.9613 0.0548 7.8796 0.1875 11.781h214c0.13275-3.9016 0.1875-7.82 0.1875-11.781 0-105.75-47.983-191.5-107.19-191.5z"/>
    <g transform="translate(-9.3252)">
     <path d="m226.85 485.53h38.629v242.01h-38.629z"/>
     <path d="m307.46 485.53h38.629v242.01h-38.629z"/>
    </g>
   </g>
   <g transform="translate(724.06)">
    <path d="m354.29 212.36c0 42.605-34.538 77.143-77.143 77.143s-77.143-34.538-77.143-77.143 34.538-77.143 77.143-77.143 77.143 34.538 77.143 77.143z"/>
    <path d="m277.13 294.46c-93.998 0-171.33 71.224-181 162.66h34.812c9.4866-72.294 71.301-128.09 146.19-128.09s136.73 55.8 146.22 128.09h34.812c-9.6717-91.433-87.034-162.66-181.03-162.66z"/>
    <path d="m277.14 292.28c-59.204 0-107.19 85.749-107.19 191.5 0 3.9613 0.0548 7.8796 0.1875 11.781h214c0.13275-3.9016 0.1875-7.82 0.1875-11.781 0-105.75-47.983-191.5-107.19-191.5z"/>
    <g transform="translate(-9.3252)">
     <path d="m226.85 485.53h38.629v242.01h-38.629z"/>
     <path d="m307.46 485.53h38.629v242.01h-38.629z"/>
    </g>
   </g>
   <g transform="translate(1086.1)">
    <path d="m354.29 212.36c0 42.605-34.538 77.143-77.143 77.143s-77.143-34.538-77.143-77.143 34.538-77.143 77.143-77.143 77.143 34.538 77.143 77.143z"/>
    <path d="m277.13 294.46c-93.998 0-171.33 71.224-181 162.66h34.812c9.4866-72.294 71.301-128.09 146.19-128.09s136.73 55.8 146.22 128.09h34.812c-9.6717-91.433-87.034-162.66-181.03-162.66z"/>
    <path d="m277.14 292.28c-59.204 0-107.19 85.749-107.19 191.5 0 3.9613 0.0548 7.8796 0.1875 11.781h214c0.13275-3.9016 0.1875-7.82 0.1875-11.781 0-105.75-47.983-191.5-107.19-191.5z"/>
    <g transform="translate(-9.3252)">
     <path d="m226.85 485.53h38.629v242.01h-38.629z"/>
     <path d="m307.46 485.53h38.629v242.01h-38.629z"/>
    </g>
   </g>
  </g>
  <path d="m354.29 212.36c0 42.605-34.538 77.143-77.143 77.143s-77.143-34.538-77.143-77.143 34.538-77.143 77.143-77.143 77.143 34.538 77.143 77.143z" fill="#d44117"/>
  <path d="m277.13 294.46c-93.998 0-171.33 71.224-181 162.66h34.812c9.4866-72.294 71.301-128.09 146.19-128.09s136.73 55.8 146.22 128.09h34.812c-9.6717-91.433-87.034-162.66-181.03-162.66z" fill="#d44117"/>
  <path d="m277.14 292.28c-59.204 0-107.19 85.749-107.19 191.5 0 3.9613 0.0548 7.8796 0.1875 11.781h214c0.13275-3.9016 0.1875-7.82 0.1875-11.781 0-105.75-47.983-191.5-107.19-191.5z" fill="#d44117"/>
  <g transform="translate(-9.3252)" fill="#d44117">
   <path d="m226.85 485.53h38.629v242.01h-38.629z"/>
   <path d="m307.46 485.53h38.629v242.01h-38.629z"/>
  </g>
  <g transform="translate(362.03)" fill="#f2a438">
   <path d="m354.29 212.36c0 42.605-34.538 77.143-77.143 77.143s-77.143-34.538-77.143-77.143 34.538-77.143 77.143-77.143 77.143 34.538 77.143 77.143z"/>
   <path d="m277.13 294.46c-93.998 0-171.33 71.224-181 162.66h34.812c9.4866-72.294 71.301-128.09 146.19-128.09s136.73 55.8 146.22 128.09h34.812c-9.6717-91.433-87.034-162.66-181.03-162.66z"/>
   <path d="m277.14 292.28c-59.204 0-107.19 85.749-107.19 191.5 0 3.9613 0.0548 7.8796 0.1875 11.781h214c0.13275-3.9016 0.1875-7.82 0.1875-11.781 0-105.75-47.983-191.5-107.19-191.5z"/>
   <g transform="translate(-9.3252)">
    <path d="m226.85 485.53h38.629v242.01h-38.629z"/>
    <path d="m307.46 485.53h38.629v242.01h-38.629z"/>
   </g>
  </g>
  <g transform="translate(724.06)" fill="#6bb427">
   <path d="m354.29 212.36c0 42.605-34.538 77.143-77.143 77.143s-77.143-34.538-77.143-77.143 34.538-77.143 77.143-77.143 77.143 34.538 77.143 77.143z"/>
   <path d="m277.13 294.46c-93.998 0-171.33 71.224-181 162.66h34.812c9.4866-72.294 71.301-128.09 146.19-128.09s136.73 55.8 146.22 128.09h34.812c-9.6717-91.433-87.034-162.66-181.03-162.66z"/>
   <path d="m277.14 292.28c-59.204 0-107.19 85.749-107.19 191.5 0 3.9613 0.0548 7.8796 0.1875 11.781h214c0.13275-3.9016 0.1875-7.82 0.1875-11.781 0-105.75-47.983-191.5-107.19-191.5z"/>
   <g transform="translate(-9.3252)">
    <path d="m226.85 485.53h38.629v242.01h-38.629z"/>
    <path d="m307.46 485.53h38.629v242.01h-38.629z"/>
   </g>
  </g>
  <g transform="translate(1086.1)" fill="#5775b1">
   <path d="m354.29 212.36c0 42.605-34.538 77.143-77.143 77.143s-77.143-34.538-77.143-77.143 34.538-77.143 77.143-77.143 77.143 34.538 77.143 77.143z"/>
   <path d="m277.13 294.46c-93.998 0-171.33 71.224-181 162.66h34.812c9.4866-72.294 71.301-128.09 146.19-128.09s136.73 55.8 146.22 128.09h34.812c-9.6717-91.433-87.034-162.66-181.03-162.66z"/>
   <path d="m277.14 292.28c-59.204 0-107.19 85.749-107.19 191.5 0 3.9613 0.0548 7.8796 0.1875 11.781h214c0.13275-3.9016 0.1875-7.82 0.1875-11.781 0-105.75-47.983-191.5-107.19-191.5z"/>
   <g transform="translate(-9.3252)">
    <path d="m226.85 485.53h38.629v242.01h-38.629z"/>
    <path d="m307.46 485.53h38.629v242.01h-38.629z"/>
   </g>
  </g>
 </g>
</svg>
