<?xml version="1.0" encoding="UTF-8" standalone="no"?>
<!-- Created with Inkscape (http://www.inkscape.org/) -->

<svg
        xmlns:osb="http://www.openswatchbook.org/uri/2009/osb"
        xmlns:dc="http://purl.org/dc/elements/1.1/"
        xmlns:cc="http://creativecommons.org/ns#"
        xmlns:rdf="http://www.w3.org/1999/02/22-rdf-syntax-ns#"
        xmlns:svg="http://www.w3.org/2000/svg"
        xmlns="http://www.w3.org/2000/svg"
        xmlns:xlink="http://www.w3.org/1999/xlink"
        xmlns:sodipodi="http://sodipodi.sourceforge.net/DTD/sodipodi-0.dtd"
        xmlns:inkscape="http://www.inkscape.org/namespaces/inkscape"
        width="1119.9602"
        height="630.00012"
        viewBox="0 0 296.3228 166.68754"
        version="1.1"
        id="svg8"
        inkscape:version="0.92.1 r15371"
        sodipodi:docname="slide_bg.svg">
    <defs
            id="defs2">
        <linearGradient
                osb:paint="gradient"
                id="linearGradient4925">
            <stop
                    id="stop4921"
                    offset="0"
                    style="stop-color:#000000;stop-opacity:1;"/>
            <stop
                    id="stop4923"
                    offset="1"
                    style="stop-color:#000000;stop-opacity:0;"/>
        </linearGradient>
        <radialGradient
                gradientUnits="userSpaceOnUse"
                gradientTransform="matrix(2.0035,0,0,1.0415525,-529.79,-375.1277)"
                r="526.17999"
                cy="1005.5"
                cx="527.96002"
                id="d">
            <stop
                    id="stop4485"
                    offset="0"
                    stop-color="#f57f17"/>
            <stop
                    id="stop4487"
                    offset="1"
                    stop-color="#b3e5fc"/>
        </radialGradient>
        <filter
                style="color-interpolation-filters:sRGB"
                height="1.2251"
                width="1.0669"
                y="-0.11257"
                x="-0.033472002"
                id="a">
            <feGaussianBlur
                    id="feGaussianBlur4490"
                    stdDeviation="4.6564759"/>
        </filter>
        <radialGradient
                gradientUnits="userSpaceOnUse"
                gradientTransform="matrix(1,0,0,1.5636,0,-447.56)"
                r="526.17999"
                cy="719.54999"
                cx="526.17999"
                id="e">
            <stop
                    id="stop4493"
                    offset="0"
                    stop-color="#bc9824"/>
            <stop
                    id="stop4495"
                    offset="1"
                    stop-opacity=".90588"
                    stop-color="#0288d1"/>
        </radialGradient>
        <linearGradient
                xlink:href="#a-8"
                gradientUnits="userSpaceOnUse"
                y2="436.64999"
                y1="482.37"
                x2="457.72"
                x1="475.32001"
                id="z"/>
        <linearGradient
                id="a-8">
            <stop
                    id="stop4666"
                    offset="0"
                    stop-color="#f90"/>
            <stop
                    id="stop4668"
                    offset="1"
                    stop-color="#fff"/>
        </linearGradient>
        <linearGradient
                xlink:href="#a-8"
                gradientUnits="userSpaceOnUse"
                gradientTransform="matrix(-0.0076347,0.99997,-0.99997,-0.0076347,1083.9,-73.914)"
                y2="446.07999"
                y1="515.02002"
                x2="462.28"
                x1="532.60999"
                id="aj"/>
        <linearGradient
                xlink:href="#y"
                gradientUnits="userSpaceOnUse"
                gradientTransform="translate(7.8011,-130.95)"
                y2="644.90997"
                y1="647.77002"
                x2="487.73999"
                x1="535.71997"
                id="ab"/>
        <linearGradient
                id="y">
            <stop
                    id="stop4673"
                    offset="0"
                    stop-color="#fff"/>
            <stop
                    id="stop4675"
                    offset="1"
                    stop-color="#cecece"/>
        </linearGradient>
        <linearGradient
                xlink:href="#a-8"
                gradientUnits="userSpaceOnUse"
                gradientTransform="matrix(-0.92202,0.6523,-0.6497,-0.92708,1348.3,471.48)"
                y2="446.07999"
                y1="515.02002"
                x2="462.28"
                x1="532.60999"
                id="at"/>
        <linearGradient
                xlink:href="#y"
                gradientUnits="userSpaceOnUse"
                gradientTransform="translate(14.23,-125.59)"
                y2="633.71002"
                y1="632.64001"
                x2="559.69"
                x1="570.04999"
                id="ac"/>
        <linearGradient
                gradientUnits="userSpaceOnUse"
                gradientTransform="matrix(1.0453,-0.080706,0.051713,1.171,-4.0246,-147.85)"
                y2="604.73999"
                y1="690.60999"
                x2="438.37"
                x1="362.79001"
                id="as">
            <stop
                    id="stop4721"
                    offset="0"
                    stop-color="#36f"/>
            <stop
                    id="stop4723"
                    offset="1"
                    stop-color="#00279c"/>
        </linearGradient>
        <linearGradient
                gradientUnits="userSpaceOnUse"
                gradientTransform="matrix(1.0453,-0.080706,0.051713,1.171,-4.0246,-147.85)"
                y2="521.77002"
                y1="587.94"
                x2="385.19"
                x1="375.04999"
                id="ar">
            <stop
                    id="stop4716"
                    offset="0"
                    stop-color="#f90"/>
            <stop
                    id="stop4718"
                    offset="1"
                    stop-color="#8d5500"/>
        </linearGradient>
        <linearGradient
                gradientUnits="userSpaceOnUse"
                gradientTransform="matrix(1.0453,-0.080706,0.051713,1.171,-4.0246,-147.85)"
                y2="435.28"
                y1="474.67999"
                x2="475.70001"
                x1="363.66"
                id="aq">
            <stop
                    id="stop4711"
                    offset="0"
                    stop-color="#9cdafb"/>
            <stop
                    id="stop4713"
                    offset="1"
                    stop-color="#1aa9f6"/>
        </linearGradient>
        <linearGradient
                gradientUnits="userSpaceOnUse"
                gradientTransform="matrix(1.0453,-0.080706,0.051713,1.171,-4.0246,-147.85)"
                y2="436.26001"
                y1="532.22998"
                x2="240.02"
                x1="181.87"
                id="ap">
            <stop
                    id="stop4706"
                    offset="0"
                    stop-color="#9cdafb"/>
            <stop
                    id="stop4708"
                    offset="1"
                    stop-color="#fff"/>
        </linearGradient>
        <linearGradient
                gradientUnits="userSpaceOnUse"
                gradientTransform="matrix(1.0453,-0.080706,0.051713,1.171,-4.0246,-147.85)"
                y2="644.97998"
                y1="756.40997"
                x2="273.39999"
                x1="299.75"
                id="ao">
            <stop
                    id="stop4701"
                    offset="0"
                    stop-color="#36f"/>
            <stop
                    id="stop4703"
                    offset="1"
                    stop-color="#fff"/>
        </linearGradient>
        <linearGradient
                gradientUnits="userSpaceOnUse"
                gradientTransform="matrix(1.0453,-0.080706,0.051713,1.171,-4.0246,-147.85)"
                y2="771.06"
                y1="796.06"
                x2="419.03"
                x1="343.07001"
                id="an">
            <stop
                    id="stop4696"
                    offset="0"
                    stop-color="#969696"/>
            <stop
                    id="stop4698"
                    offset="1"
                    stop-color="#5a5a5a"/>
        </linearGradient>
        <linearGradient
                xlink:href="#a-8"
                gradientUnits="userSpaceOnUse"
                gradientTransform="matrix(-0.46763,1.3302,-1.4097,-0.27393,1070.4,-51.156)"
                y2="446.07999"
                y1="515.02002"
                x2="462.28"
                x1="532.60999"
                id="am"/>
        <linearGradient
                gradientUnits="userSpaceOnUse"
                gradientTransform="translate(14.23,-125.59)"
                y2="574.94"
                y1="595.40002"
                x2="316.67999"
                x1="370.98001"
                id="al">
            <stop
                    id="stop4689"
                    offset="0"
                    stop-color="#800000"/>
            <stop
                    id="stop4691"
                    offset="1"
                    stop-color="#3d0000"/>
        </linearGradient>
        <linearGradient
                gradientUnits="userSpaceOnUse"
                gradientTransform="translate(14.23,-125.59)"
                y2="603.09003"
                y1="607.89001"
                x2="360.48001"
                x1="336.20999"
                id="ak">
            <stop
                    id="stop4684"
                    offset="0"
                    stop-color="#d40000"/>
            <stop
                    id="stop4686"
                    offset="1"
                    stop-color="#ff9292"/>
        </linearGradient>
        <linearGradient
                gradientUnits="userSpaceOnUse"
                y2="466.31"
                y1="526.78003"
                x2="287.07001"
                x1="289.54999"
                id="aa">
            <stop
                    id="stop4679"
                    offset="0"
                    stop-color="#00f"/>
            <stop
                    id="stop4681"
                    offset="1"
                    stop-opacity="0"/>
        </linearGradient>
        <linearGradient
                xlink:href="#a-8"
                gradientUnits="userSpaceOnUse"
                gradientTransform="matrix(1.359,0,-0.3184,1.243,-407.16,-24.278)"
                y2="446.07999"
                y1="515.02002"
                x2="462.28"
                x1="532.60999"
                id="ai"/>
        <linearGradient
                xlink:href="#y"
                gradientUnits="userSpaceOnUse"
                gradientTransform="translate(14.23,-125.59)"
                y2="712.59003"
                y1="710.06"
                x2="267.91"
                x1="202.82001"
                id="ah"/>
        <linearGradient
                xlink:href="#a-8"
                gradientUnits="userSpaceOnUse"
                y2="126.45"
                y1="127.82"
                x2="313.37"
                x1="365.10999"
                id="au"/>
        <linearGradient
                xlink:href="#a-8"
                gradientUnits="userSpaceOnUse"
                gradientTransform="matrix(1.126,0,0,1.2811,-53.287,174.09)"
                y2="102.45"
                y1="104.42"
                x2="288.22"
                x1="356.41"
                id="ag"/>
        <linearGradient
                gradientUnits="userSpaceOnUse"
                gradientTransform="matrix(0.90736,0,0,0.88884,97.746,53.389)"
                y2="827.16998"
                y1="987.52002"
                x2="372.07999"
                x1="377.17001"
                id="af">
            <stop
                    id="stop4660"
                    offset="0"
                    stop-color="#f00"/>
            <stop
                    id="stop4662"
                    offset="1"
                    stop-opacity="0"
                    stop-color="#f00"/>
        </linearGradient>
        <linearGradient
                gradientUnits="userSpaceOnUse"
                gradientTransform="matrix(0.90736,0,0,0.88884,97.746,53.389)"
                y2="816.83002"
                y1="972.90002"
                x2="366.45001"
                x1="397.67001"
                id="ae">
            <stop
                    id="stop4655"
                    offset="0"/>
            <stop
                    id="stop4657"
                    offset="1"
                    stop-opacity="0"/>
        </linearGradient>
        <linearGradient
                gradientUnits="userSpaceOnUse"
                gradientTransform="matrix(0.98513,0,0,0.96502,66.439,-9.1697)"
                y2="806.28003"
                y1="915.91998"
                x2="384.41"
                x1="402.37"
                id="ad">
            <stop
                    id="stop4650"
                    offset="0"
                    stop-color="#ff0"/>
            <stop
                    id="stop4652"
                    offset="1"
                    stop-opacity="0"
                    stop-color="#ff0"/>
        </linearGradient>
        <linearGradient
                gradientUnits="userSpaceOnUse"
                y2="-76.023415"
                x2="1099.8958"
                y1="-76.023415"
                x1="18.91762"
                id="linearGradient4929"
                xlink:href="#linearGradient4925"
                inkscape:collect="always"/>
        <clipPath
                clipPathUnits="userSpaceOnUse"
                id="clipPath5000">
            <rect
                    style="opacity:1;fill:#9d9d9d;fill-opacity:1;fill-rule:nonzero;stroke:none;stroke-width:7.73096228;stroke-linecap:round;stroke-linejoin:miter;stroke-miterlimit:4;stroke-dasharray:none;stroke-dashoffset:0;stroke-opacity:1"
                    id="rect5002"
                    width="1050"
                    height="590.62512"
                    x="-1049.9207"
                    y="420.48596"
                    transform="scale(-1,1)"
                    clip-path="none"/>
        </clipPath>
        <clipPath
                clipPathUnits="userSpaceOnUse"
                id="clipPath5004">
            <rect
                    style="opacity:1;fill:#9d9d9d;fill-opacity:1;fill-rule:nonzero;stroke:none;stroke-width:1.52420688;stroke-linecap:round;stroke-linejoin:miter;stroke-miterlimit:4;stroke-dasharray:none;stroke-dashoffset:0;stroke-opacity:1"
                    id="rect5006"
                    width="207.01398"
                    height="116.44538"
                    x="-81.296097"
                    y="-10.57398"
                    transform="scale(-1,1)"
                    clip-path="none"/>
        </clipPath>
        <clipPath
                clipPathUnits="userSpaceOnUse"
                id="clipPath5008">
            <rect
                    style="opacity:1;fill:#9d9d9d;fill-opacity:1;fill-rule:nonzero;stroke:none;stroke-width:7.73096228;stroke-linecap:round;stroke-linejoin:miter;stroke-miterlimit:4;stroke-dasharray:none;stroke-dashoffset:0;stroke-opacity:1"
                    id="rect5010"
                    width="1050"
                    height="590.62512"
                    x="-1049.9207"
                    y="420.48596"
                    transform="scale(-1,1)"
                    clip-path="none"/>
        </clipPath>
    </defs>
    <sodipodi:namedview
            id="base"
            pagecolor="#ffffff"
            bordercolor="#666666"
            borderopacity="1.0"
            inkscape:pageopacity="0.0"
            inkscape:pageshadow="2"
            inkscape:zoom="0.35"
            inkscape:cx="362.86889"
            inkscape:cy="590.7346"
            inkscape:document-units="mm"
            inkscape:current-layer="g4924"
            showgrid="false"
            units="px"
            fit-margin-top="0"
            fit-margin-left="0"
            fit-margin-right="0"
            fit-margin-bottom="0"
            inkscape:window-width="1536"
            inkscape:window-height="801"
            inkscape:window-x="-8"
            inkscape:window-y="-8"
            inkscape:window-maximized="1"/>
    <metadata
            id="metadata5">
        <rdf:RDF>
            <cc:Work
                    rdf:about="">
                <dc:format>image/svg+xml</dc:format>
                <dc:type
                        rdf:resource="http://purl.org/dc/dcmitype/StillImage"/>
                <dc:title></dc:title>
            </cc:Work>
        </rdf:RDF>
    </metadata>
    <g
            inkscape:label="Calque 1"
            inkscape:groupmode="layer"
            id="layer1"
            transform="translate(125.07674,-140.05134)">
        <g
                id="g4924"
                transform="matrix(0.28222223,0,0,0.28222223,-125.07674,54.881534)">
            <g
                    id="g5157">
                <g
                        clip-path="url(#clipPath5008)"
                        transform="translate(0.042,-118.7032)"
                        id="g4642">
                    <path
                            transform="matrix(0.43774,0,0,0.39711,378.21,318.75)"
                            d="m 887.85,286.99 a 99.279,99.279 0 0 0 -51.982,13.273 99.279,99.279 0 0 0 -23.629,19.031 70.201,70.201 0 0 0 -56.031,6.1504 70.201,70.201 0 0 0 -35.102,60.797 h 333.88 a 70.201,70.201 0 0 0 -35.1,-60.797 70.201,70.201 0 0 0 -59.979,-4.8047 99.279,99.279 0 0 0 -24.762,-20.377 99.279,99.279 0 0 0 -47.297,-13.273 z"
                            id="path4500"
                            inkscape:connector-curvature="0"
                            style="fill:#ffcc80;filter:url(#a)"/>
                    <rect
                            y="118.7032"
                            width="1052.4"
                            height="560.68176"
                            id="rect4502"
                            style="fill:url(#d);stroke-width:1.23226428"
                            x="0"/>
                    <g
                            transform="translate(0,31.874999)"
                            id="g5014">
                        <path
                                style="fill:#ffcc80;filter:url(#a)"
                                inkscape:connector-curvature="0"
                                id="path4504"
                                d="m 887.85,286.99 a 99.279,99.279 0 0 0 -51.982,13.273 99.279,99.279 0 0 0 -23.629,19.031 70.201,70.201 0 0 0 -56.031,6.1504 70.201,70.201 0 0 0 -35.102,60.797 h 333.88 a 70.201,70.201 0 0 0 -35.1,-60.797 70.201,70.201 0 0 0 -59.979,-4.8047 99.279,99.279 0 0 0 -24.762,-20.377 99.279,99.279 0 0 0 -47.297,-13.273 z"
                                transform="matrix(0.44358,0,0,0.43883,403.84,276.59)"/>
                        <path
                                style="fill:#fafafa"
                                inkscape:connector-curvature="0"
                                id="path4506"
                                d="m 799.44,403.39 a 44.038,42.706 0 0 0 -23.058,5.7098 44.038,42.706 0 0 0 -10.481,8.1866 31.139,30.198 0 0 0 -24.854,2.6457 31.139,30.198 0 0 0 -15.57,26.153 h 148.1 a 31.139,30.198 0 0 0 -15.569,-26.153 31.139,30.198 0 0 0 -26.605,-2.0668 44.038,42.706 0 0 0 -10.984,-8.7654 44.038,42.706 0 0 0 -20.98,-5.7098 z"/>
                    </g>
                    <circle
                            cx="525.33002"
                            cy="662.59003"
                            r="44.52"
                            id="circle4508"
                            style="fill:#fbc02d;stroke:#f57f17;stroke-width:5;stroke-linecap:round;stroke-linejoin:round"/>
                    <rect
                            y="677.51001"
                            width="1052.4"
                            height="233.28"
                            id="rect4510"
                            x="0"
                            style="fill:url(#e)"/>
                    <path
                            d="m 0,892.09 109.52,-10.685 163.83,11.575 230.61,-9.7943 211.02,7.1231 247.53,-9.7943 89.848,12.466 v 159.38 H -0.042 Z"
                            id="path4512"
                            inkscape:connector-curvature="0"
                            style="fill:#ffe0b2;fill-rule:evenodd"/>
                    <path
                            d="m 272.6,844.4 c 0,0 24.572,-8.3129 38.287,-8.0135 13.715,0.2994 28.207,10.727 41.848,10.685 13.641,-0.0421 24.905,-9.4272 37.396,-9.7943 12.491,-0.36707 35.616,7.1231 35.616,7.1231"
                            id="path4564"
                            inkscape:connector-curvature="0"
                            style="fill:none;stroke:#e1f5fe;stroke-width:3"/>
                    <g
                            transform="translate(69.374999,116.25)"
                            id="g5018">
                        <path
                                style="fill:#ffcc80;filter:url(#a)"
                                inkscape:connector-curvature="0"
                                id="path4638"
                                d="m 887.85,286.99 a 99.279,99.279 0 0 0 -51.982,13.273 99.279,99.279 0 0 0 -23.629,19.031 70.201,70.201 0 0 0 -56.031,6.1504 70.201,70.201 0 0 0 -35.102,60.797 h 333.88 a 70.201,70.201 0 0 0 -35.1,-60.797 70.201,70.201 0 0 0 -59.979,-4.8047 99.279,99.279 0 0 0 -24.762,-20.377 99.279,99.279 0 0 0 -47.297,-13.273 z"
                                transform="matrix(0.71061,0,0,0.70301,-400.53,156.38)"/>
                        <path
                                style="fill:#fafafa"
                                inkscape:connector-curvature="0"
                                id="path4640"
                                d="m 233.24,359.51 a 70.549,68.416 0 0 0 -36.939,9.1471 70.549,68.416 0 0 0 -16.791,13.115 49.886,48.377 0 0 0 -39.817,4.2384 49.886,48.377 0 0 0 -24.944,41.897 h 237.26 a 49.886,48.377 0 0 0 -24.942,-41.897 49.886,48.377 0 0 0 -42.622,-3.311 70.549,68.416 0 0 0 -17.596,-14.042 70.549,68.416 0 0 0 -33.61,-9.1471 z"/>
                    </g>
                    <g
                            transform="matrix(-0.71739,0,0,0.71739,724.45,201.24)"
                            id="g4614">
                        <circle
                                cx="744.77002"
                                cy="442.42001"
                                r="12.468"
                                id="circle4566"
                                style="fill:#efebe9;stroke:#d7ccc8;stroke-width:6.96969986;stroke-linecap:round;stroke-linejoin:round"/>
                        <circle
                                cx="771.47998"
                                cy="443.31"
                                r="12.468"
                                id="circle4568"
                                style="fill:#efebe9;stroke:#d7ccc8;stroke-width:6.96969986;stroke-linecap:round;stroke-linejoin:round"/>
                        <path
                                d="m 757.34,416.77 -31.73,54.584 -29.263,66.37 -15.593,106.54 -34.77,-83.542 31.671,-89.779 z"
                                id="path4570"
                                inkscape:connector-curvature="0"
                                style="fill:#64dd17;fill-rule:evenodd"/>
                        <path
                                d="m 748.82,416.62 -115.75,3.5616 -77.464,49.862 -36.506,37.396 23.15,-70.341 64.999,-56.095 81.026,5.3424 z"
                                id="path4572"
                                inkscape:connector-curvature="0"
                                style="fill:#689f38;fill-rule:evenodd"/>
                        <path
                                d="m 680.82,1052.4 c 0,0 32.411,-52.732 44,-79.468 11.589,-26.736 19.678,-52.926 26,-79.468 6.322,-26.542 10.671,-52.945 14,-79.468 3.329,-26.523 6,-52.903 6,-79.468 0,-26.565 -3.3342,-52.97 -6,-79.468 -2.6658,-26.498 -5.6683,-52.96 -8,-79.468 -2.3317,-26.508 -5.0001,-52.976 -6,-79.468 -0.9999,-26.492 -2,-79.468 -2,-79.468 h 21.369 c 0,0 5.4522,52.976 8.678,79.468 3.2258,26.492 8.1217,52.96 12.678,79.468 4.5563,26.508 9.7868,52.97 14.678,79.468 4.8912,26.498 8.4582,52.903 10.678,79.468 2.2198,26.565 3.7839,52.945 2.6779,79.468 -1.106,26.523 -3.2224,52.926 -7.322,79.468 -4.0996,26.542 -9.952,52.729 -19.322,79.468 -9.37,26.739 -37.322,79.468 -37.322,79.468 z"
                                id="path4574"
                                inkscape:connector-curvature="0"
                                style="fill:#8d6e63;fill-rule:evenodd"/>
                        <path
                                d="m 748.82,416.62 -82.807,63.218 -64.108,146.91 23.15,-168.28 66.779,-54.314 z"
                                id="path4576"
                                inkscape:connector-curvature="0"
                                style="fill:#9ccc65;fill-rule:evenodd"/>
                        <path
                                d="m 770.19,416.62 115.75,3.5616 77.464,49.862 36.506,37.396 -23.15,-70.341 -64.999,-56.095 -81.026,5.3424 z"
                                id="path4578"
                                inkscape:connector-curvature="0"
                                style="fill:#689f38;fill-rule:evenodd"/>
                        <path
                                d="m 770.19,416.62 82.807,63.218 64.108,146.91 -23.15,-168.28 -66.779,-54.314 z"
                                id="path4580"
                                inkscape:connector-curvature="0"
                                style="fill:#9ccc65;fill-rule:evenodd"/>
                        <path
                                d="m 756.82,416.62 33.318,53.63 31.197,65.483 18.711,106.04 32.305,-84.526 -34.29,-88.812 z"
                                id="path4582"
                                inkscape:connector-curvature="0"
                                style="fill:#64dd17;fill-rule:evenodd"/>
                        <path
                                d="m 752.84,545.74 32.317,-7.2499"
                                id="path4584"
                                inkscape:connector-curvature="0"
                                style="fill:#d7ccc8;fill-rule:evenodd;stroke:#d7ccc8;stroke-width:6.96969986"/>
                        <path
                                d="m 801,627.16 -39.349,-2.7398"
                                id="path4586"
                                inkscape:connector-curvature="0"
                                style="fill:none;stroke:#efebe9;stroke-width:6.96969986"/>
                        <path
                                d="m 750.82,496.09 h 28.047"
                                id="path4588"
                                inkscape:connector-curvature="0"
                                style="fill:none;stroke:#efebe9;stroke-width:6.96969986"/>
                        <path
                                d="m 770.14,712.44 43.181,-11.948"
                                id="path4590"
                                inkscape:connector-curvature="0"
                                style="fill:#efebe9;fill-rule:evenodd;stroke:#efebe9;stroke-width:6.96969986"/>
                        <path
                                d="m 768.44,781.44 51.3,0.22877"
                                id="path4592"
                                inkscape:connector-curvature="0"
                                style="fill:none;stroke:#efebe9;stroke-width:6.96969986"/>
                        <path
                                d="m 760.01,847.36 56.33,13.729"
                                id="path4594"
                                inkscape:connector-curvature="0"
                                style="fill:#efebe9;fill-rule:evenodd;stroke:#efebe9;stroke-width:6.96969986"/>
                        <path
                                d="m 741.24,928.52 59.571,19.181"
                                id="path4596"
                                inkscape:connector-curvature="0"
                                style="fill:#efebe9;fill-rule:evenodd;stroke:#efebe9;stroke-width:6.96969986"/>
                        <path
                                d="m 708.55,1004.9 58.422,25.404"
                                id="path4598"
                                inkscape:connector-curvature="0"
                                style="fill:#efebe9;fill-rule:evenodd;stroke:#efebe9;stroke-width:6.96969986"/>
                        <circle
                                cx="748.54999"
                                cy="427.73999"
                                r="12.468"
                                id="circle4600"
                                style="fill:#efebe9;stroke:#d7ccc8;stroke-width:6.96969986;stroke-linecap:round;stroke-linejoin:round"/>
                        <circle
                                cx="770.59003"
                                cy="415.70999"
                                r="12.468"
                                id="circle4602"
                                style="fill:#efebe9;stroke:#d7ccc8;stroke-width:6.96969986;stroke-linecap:round;stroke-linejoin:round"/>
                        <path
                                d="m 768.84,428.79 35.34,-61.027 68.805,-27.423 -73.447,19.824 -44.458,62.84 z"
                                id="path4604"
                                inkscape:connector-curvature="0"
                                style="fill:#9ccc65;fill-rule:evenodd"/>
                        <path
                                d="m 768.63,431.55 -9.1047,-49.293 20.829,-52.352 -29.307,49.631 3.3856,56.621 z"
                                id="path4606"
                                inkscape:connector-curvature="0"
                                style="fill:#689f38;fill-rule:evenodd"/>
                        <path
                                d="m 718.82,1052.4 c 0,0 28.411,-52.732 40,-79.468 11.589,-26.736 21.678,-52.926 28,-79.468 6.322,-26.542 8.6708,-52.945 12,-79.468 3.3292,-26.523 0,-52.903 0,-79.468 0,-26.565 -5.3342,-52.97 -8,-79.468 -2.6658,-26.498 -9.6683,-52.96 -12,-79.468 -2.3317,-26.508 -9.0001,-52.976 -10,-79.468 -0.9999,-26.492 -6,-79.468 -6,-79.468 h 7.3694 c 0,0 5.4522,52.976 8.678,79.468 3.2258,26.492 8.1217,52.96 12.678,79.468 4.5563,26.508 9.7868,52.97 14.678,79.468 4.8912,26.498 8.4582,52.903 10.678,79.468 2.2198,26.565 3.7839,52.945 2.6779,79.468 -1.106,26.523 -3.2224,52.926 -7.322,79.468 -4.0996,26.542 -9.952,52.729 -19.322,79.468 -9.37,26.739 -37.322,79.468 -37.322,79.468 z"
                                id="path4608"
                                inkscape:connector-curvature="0"
                                style="opacity:0.33899997;fill:#5d4037;fill-rule:evenodd"/>
                        <path
                                d="m 753.27,438.59 -35.34,-61.027 -68.805,-27.423 73.447,19.824 44.458,62.84 z"
                                id="path4610"
                                inkscape:connector-curvature="0"
                                style="fill:#9ccc65;fill-rule:evenodd"/>
                        <circle
                                cx="761.67999"
                                cy="434.41"
                                r="12.468"
                                id="circle4612"
                                style="fill:#efebe9;stroke:#d7ccc8;stroke-width:6.96969986;stroke-linecap:round;stroke-linejoin:round"/>
                    </g>
                    <path
                            d="m 554.71,835.11 c 0,0 24.572,-8.3129 38.287,-8.0135 13.715,0.2994 28.207,10.727 41.848,10.685 13.641,-0.042 24.905,-9.4272 37.396,-9.7943 12.491,-0.3671 35.616,7.1231 35.616,7.1231"
                            id="path4616"
                            inkscape:connector-curvature="0"
                            style="fill:none;stroke:#e1f5fe;stroke-width:3"/>
                    <path
                            d="m 224.59,768.57 c 0,0 19.726,-6.4642 30.736,-6.2314 11.01,0.23281 22.644,8.3412 33.595,8.3085 10.951,-0.0327 19.993,-7.3307 30.021,-7.6161 10.027,-0.28544 28.591,5.539 28.591,5.539"
                            id="path4618"
                            inkscape:connector-curvature="0"
                            style="fill:none;stroke:#e1f5fe;stroke-width:3"/>
                    <path
                            d="m 445.41,780.15 c 0,0 19.726,-6.4642 30.736,-6.2314 11.01,0.23281 22.644,8.3412 33.595,8.3085 10.951,-0.0327 19.993,-7.3307 30.021,-7.6161 10.027,-0.28544 28.591,5.539 28.591,5.539"
                            id="path4620"
                            inkscape:connector-curvature="0"
                            style="fill:none;stroke:#e1f5fe;stroke-width:3"/>
                    <path
                            d="m 668.9,763.23 c 0,0 19.726,-6.4642 30.736,-6.2314 11.01,0.23281 22.644,8.3412 33.595,8.3085 10.951,-0.0327 19.993,-7.3307 30.021,-7.6161 10.027,-0.28544 28.591,5.539 28.591,5.539"
                            id="path4622"
                            inkscape:connector-curvature="0"
                            style="fill:none;stroke:#e1f5fe;stroke-width:3"/>
                    <path
                            d="m 909.95,778.92 c 0,0 19.726,-6.4642 30.736,-6.2314 11.01,0.23281 22.644,8.3412 33.595,8.3085 10.951,-0.0327 19.993,-7.3307 30.021,-7.6161 10.028,-0.28544 28.591,5.539 28.591,5.539"
                            id="path4624"
                            inkscape:connector-curvature="0"
                            style="fill:none;stroke:#e1f5fe;stroke-width:3"/>
                    <path
                            d="m 914.53,728.46 c 0,0 12.515,-3.743 19.5,-3.6082 6.9849,0.1348 14.366,4.8299 21.314,4.811 6.9476,-0.0189 12.684,-4.2448 19.046,-4.41 6.3617,-0.16529 18.139,3.2073 18.139,3.2073"
                            id="path4626"
                            inkscape:connector-curvature="0"
                            style="fill:none;stroke:#e1f5fe;stroke-width:3"/>
                    <path
                            d="m 587.75,707.09 c 0,0 12.515,-3.743 19.5,-3.6082 6.9849,0.1348 14.366,4.8299 21.314,4.811 6.9476,-0.0189 12.684,-4.2448 19.046,-4.41 6.3617,-0.16529 18.139,3.2073 18.139,3.2073"
                            id="path4628"
                            inkscape:connector-curvature="0"
                            style="fill:none;stroke:#e1f5fe;stroke-width:3"/>
                    <path
                            d="m 345.57,711.55 c 0,0 12.515,-3.743 19.5,-3.6082 6.9849,0.1348 14.366,4.8299 21.314,4.811 6.9476,-0.0189 12.684,-4.2448 19.046,-4.41 6.3617,-0.16529 18.139,3.2073 18.139,3.2073"
                            id="path4630"
                            inkscape:connector-curvature="0"
                            style="fill:none;stroke:#e1f5fe;stroke-width:3"/>
                    <path
                            d="m 24.134,701.75 c 0,0 12.515,-3.743 19.5,-3.6082 6.9849,0.1348 14.366,4.8299 21.314,4.811 6.9476,-0.0189 12.684,-4.2448 19.046,-4.41 6.3617,-0.16529 18.139,3.2073 18.139,3.2073"
                            id="path4632"
                            inkscape:connector-curvature="0"
                            style="fill:none;stroke:#e1f5fe;stroke-width:3"/>
                    <path
                            d="m 140.68,966.88 39.177,-15.137 61.437,3.5616 35.616,13.356 z"
                            id="path4634"
                            inkscape:connector-curvature="0"
                            style="fill:#ffcc80;fill-rule:evenodd"/>
                </g>
                <g
                        clip-path="url(#clipPath5004)"
                        style="stroke:#000000"
                        transform="matrix(5.0721212,0,0,5.0721212,637.61901,355.41526)"
                        id="g4968">
                    <g
                            style="stroke-linecap:round;stroke-linejoin:round"
                            id="g4952">
                        <rect
                                x="36.467999"
                                y="64.364998"
                                width="7.1698999"
                                height="32.981998"
                                rx="0.12188"
                                ry="0.12188"
                                id="rect4932"/>
                        <rect
                                x="37.098999"
                                y="44.347"
                                width="5.908"
                                height="20.190001"
                                rx="0.12188"
                                ry="0.12188"
                                id="rect4934"/>
                        <rect
                                x="38.132"
                                y="26.68"
                                width="3.8431001"
                                height="17.667"
                                rx="0.12188"
                                ry="0.12188"
                                id="rect4936"/>
                        <g
                                style="fill:#9d9d9d;fill-opacity:1"
                                id="g4944">
                            <rect
                                    style="fill:#9d9d9d;fill-opacity:1;stroke-width:1.00699997"
                                    x="37.015999"
                                    y="4.9728999"
                                    width="6.0735998"
                                    height="22.105"
                                    rx="0.1236"
                                    ry="0.1236"
                                    id="rect4938"/>
                            <rect
                                    style="fill:#9d9d9d;fill-opacity:1;stroke-width:0.97899997"
                                    x="28.370001"
                                    y="4.9303999"
                                    width="5.0686998"
                                    height="22.334"
                                    rx="0.11631"
                                    ry="0.11631"
                                    id="rect4940"/>
                            <rect
                                    style="fill:#9d9d9d;fill-opacity:1;stroke-width:0.97600001"
                                    x="46.827"
                                    y="4.9288001"
                                    width="5.0721002"
                                    height="22.165001"
                                    rx="0.11543"
                                    ry="0.11543"
                                    id="rect4942"/>
                        </g>
                        <g
                                style="fill:none"
                                id="g4950">
                            <rect
                                    x="33.403"
                                    y="14.533"
                                    width="3.2447"
                                    height="3.2447"
                                    rx="0.11543"
                                    ry="0.11543"
                                    id="rect4946"/>
                            <rect
                                    x="43.403"
                                    y="14.533"
                                    width="3.2447"
                                    height="3.2447"
                                    rx="0.11543"
                                    ry="0.11543"
                                    id="rect4948"/>
                        </g>
                    </g>
                    <g
                            style="fill:none"
                            id="g4966">
                        <path
                                inkscape:connector-curvature="0"
                                d="m 20.506,9.4636 c -3.6513,4.9799 -3.89,9.4858 0.24336,13.384"
                                id="path4954"/>
                        <path
                                inkscape:connector-curvature="0"
                                d="m 13.61,4.6776 c -5.4641,7.508 -7.2844,15.139 -0.04056,23.078"
                                id="path4956"/>
                        <path
                                inkscape:connector-curvature="0"
                                d="M 6.6343,0.5 C 0.022,10.1473 -2.9429,20.427 6.553179,32.866"
                                id="path4958"/>
                        <path
                                inkscape:connector-curvature="0"
                                d="m 59.605,9.5853 c 2.1168,4.3534 3.485,8.7067 -0.16224,13.06"
                                id="path4960"/>
                        <path
                                inkscape:connector-curvature="0"
                                d="m 65.526,4.7993 c 6.1841,7.9183 7.4992,15.605 0.08113,22.875"
                                id="path4962"/>
                        <path
                                inkscape:connector-curvature="0"
                                d="m 72.746,0.6622 c 8.4933,10.411 8.5683,20.928 -0.24336,31.555"
                                id="path4964"/>
                    </g>
                </g>
                <path
                        clip-path="url(#clipPath5000)"
                        d="m 773.07,979.13 39.177,-15.137 61.437,3.5616 35.616,13.356 z"
                        id="path4636"
                        inkscape:connector-curvature="0"
                        style="fill:#ffcc80;fill-rule:evenodd"
                        transform="translate(0.04199609,-118.7032)"/>
            </g>
        </g>
    </g>
</svg>
