<?xml version="1.0" encoding="UTF-8"?>
<svg viewBox="0 0 991.17432 565.12445" xmlns="http://www.w3.org/2000/svg">
 <g transform="translate(-194.41 -162)">
  <path transform="matrix(1.0587 .14231 -.68511 .10747 786.16 482.88)" d="m820 879.89c0 259.57-152.86 470-341.43 470s-341.43-210.43-341.43-470 152.86-470 341.43-470 341.43 210.43 341.43 470z" fill="#000070" stroke="#000070" stroke-linejoin="round" stroke-width="50"/>
  <path d="m982.9 591.57c60.958 124.97-617.97 132.91-551.07 3.9428 69.946-134.85 28.777-285.96 126.82-384.56 47.316-47.589 90.725-29.978 134.26-28.594 46.666 1.4837 93.474-9.7132 145.38 44.651 101.48 106.28 79.795 231.67 144.61 364.56z" fill="#000070" stroke="#000070" stroke-linejoin="round" stroke-width="32.081"/>
  <path d="m943.97 452.72c40.014 84.629-405.65 90.004-361.74 2.67 45.914-91.316 18.89-193.64 83.245-260.41 31.059-32.226 59.554-20.3 88.13-19.363 30.633 1.0047 61.359-6.5775 95.435 30.236 66.616 71.968 52.379 156.88 94.928 246.87z" fill="#99f" stroke="#000070" stroke-linejoin="round" stroke-width="21.389"/>
  <path d="m918.88 484.65c40.014 84.629-405.65 90.004-361.74 2.67 45.914-91.316 18.89-193.64 83.245-260.41 31.059-32.226 59.554-20.3 88.13-19.363 30.633 1.0047 61.359-6.5775 95.435 30.236 66.616 71.968 52.379 156.88 94.928 246.87z" fill="#000070"/>
  <path d="m453.42 506.65h497.15c15.347 0 18.092-0.7732 27.702 27.702l4.2307 12.536c5.0308 14.906 24.31 33.515 8.9638 33.343l-564.84-6.346s0.3527-5.466 5.4383-19.946l5.6409-16.061c5.0856-14.48 0.3682-31.228 15.715-31.228z" fill="#00f"/>
  <path d="m464.69 529.21h470.8c14.534 0 17.133-0.3879 26.234 13.898l4.0064 6.2892c4.7641 7.4786 23.021 16.815 8.4887 16.729l-534.9-3.1839s0.334-2.7424 5.15-10.007l5.3419-8.058c4.816-7.2647 0.3487-15.667 14.882-15.667z" fill="#000080"/>
  <path d="m468.89 553.43h457.22c14.114 0 16.639 0.3879 25.477-13.898l3.8909-6.2892c4.6267-7.4786 22.358-16.815 8.2439-16.729l-519.48 3.1839s0.3244 2.7424 5.0015 10.007l5.1879 8.058c4.6771 7.2647 0.3386 15.667 14.453 15.667z" fill="#000080"/>
 </g>
</svg>
