<?xml version="1.0" encoding="UTF-8"?>
<svg version="1.1" viewBox="0 0 503.63 546.31" xmlns="http://www.w3.org/2000/svg"
     xmlns:xlink="http://www.w3.org/1999/xlink">
    <defs>
        <linearGradient id="bd" x1="280.9" x2="277.29" y1="639.23" y2="692.09"
                        gradientTransform="matrix(-.44975 .76752 .63481 .54377 215.42 -50.215)"
                        gradientUnits="userSpaceOnUse" xlink:href="#ah"/>
        <linearGradient id="ah">
            <stop stop-color="#fff" offset="0"/>
            <stop stop-color="#cecece" offset="1"/>
        </linearGradient>
        <linearGradient id="be" x1="280.9" x2="277.29" y1="639.23" y2="692.09"
                        gradientTransform="matrix(.95033 0 0 .93289 54.822 -124.32)" gradientUnits="userSpaceOnUse"
                        xlink:href="#ah"/>
        <linearGradient id="bf" x1="532.61" x2="462.28" y1="515.02" y2="446.08"
                        gradientTransform="matrix(.73682 -.67609 .67609 .73682 -477.68 470.9)"
                        gradientUnits="userSpaceOnUse" xlink:href="#a"/>
        <linearGradient id="a">
            <stop stop-color="#f90" offset="0"/>
            <stop stop-color="#fff" offset="1"/>
        </linearGradient>
        <linearGradient id="ag" x1="475.32" x2="457.72" y1="482.37" y2="436.65" gradientUnits="userSpaceOnUse"
                        xlink:href="#a"/>
        <linearGradient id="bg" x1="532.61" x2="462.28" y1="515.02" y2="446.08"
                        gradientTransform="matrix(.31301 .94975 -.94975 .31301 857.59 -194.51)"
                        gradientUnits="userSpaceOnUse" xlink:href="#a"/>
        <linearGradient id="ak" x1="532.61" x2="462.28" y1="515.02" y2="446.08"
                        gradientTransform="matrix(.95807 -.28653 .28653 .95807 -110.57 19.067)"
                        gradientUnits="userSpaceOnUse" xlink:href="#a"/>
        <linearGradient id="am" x1="356.41" x2="288.22" y1="104.42" y2="102.45"
                        gradientTransform="matrix(1.1082 0 0 1.2485 -15.897 115.47)" gradientUnits="userSpaceOnUse"
                        xlink:href="#a"/>
        <linearGradient id="al" x1="365.11" x2="313.37" y1="127.82" y2="126.45" gradientUnits="userSpaceOnUse"
                        xlink:href="#a"/>
        <linearGradient id="aj" x1="289.55" x2="287.07" y1="526.78" y2="466.31" gradientUnits="userSpaceOnUse">
            <stop stop-color="#00f" offset="0"/>
            <stop stop-opacity="0" offset="1"/>
        </linearGradient>
        <linearGradient id="an" x1="181.87" x2="240.02" y1="532.23" y2="436.26"
                        gradientTransform="matrix(.99595 .083557 -.089872 1.1644 91.584 -258.67)"
                        gradientUnits="userSpaceOnUse">
            <stop stop-color="#9cdafb" offset="0"/>
            <stop stop-color="#fff" offset="1"/>
        </linearGradient>
        <linearGradient id="ao" x1="363.66" x2="475.7" y1="474.68" y2="435.28"
                        gradientTransform="matrix(.99595 .083557 -.089872 1.1644 91.584 -258.67)"
                        gradientUnits="userSpaceOnUse">
            <stop stop-color="#9cdafb" offset="0"/>
            <stop stop-color="#1aa9f6" offset="1"/>
        </linearGradient>
        <linearGradient id="ap" x1="375.05" x2="385.19" y1="587.94" y2="521.77"
                        gradientTransform="matrix(.98788 .06045 -.15472 1.0028 133.42 -164.83)"
                        gradientUnits="userSpaceOnUse">
            <stop stop-color="#f90" offset="0"/>
            <stop stop-color="#8d5500" offset="1"/>
        </linearGradient>
        <linearGradient id="ax" x1="554.97" x2="644.66" y1="1007.5" y2="1007.5"
                        gradientTransform="matrix(1.112 0 .040646 .99447 -291.14 -449.53)"
                        gradientUnits="userSpaceOnUse" xlink:href="#af"/>
        <linearGradient id="af">
            <stop stop-color="#999" offset="0"/>
            <stop stop-color="#cbcbcb" offset="1"/>
        </linearGradient>
        <linearGradient id="ay" x1="632.36" x2="579.48" y1="991.22" y2="996.93"
                        gradientTransform="matrix(1.112 0 .040646 .99447 -291.14 -449.53)"
                        gradientUnits="userSpaceOnUse" xlink:href="#ae"/>
        <linearGradient id="ae">
            <stop stop-color="#828282" offset="0"/>
            <stop stop-color="#4d4d4d" offset="1"/>
        </linearGradient>
        <linearGradient id="az" x1="539.07" x2="653.95" y1="976.84" y2="976.84"
                        gradientTransform="matrix(1.112 0 .040646 .99447 -291.14 -449.53)"
                        gradientUnits="userSpaceOnUse" xlink:href="#af"/>
        <linearGradient id="ba" x1="644.38" x2="562" y1="960.46" y2="964.75"
                        gradientTransform="matrix(1.112 0 .040646 .99447 -291.14 -449.53)"
                        gradientUnits="userSpaceOnUse" xlink:href="#ae"/>
        <linearGradient id="bb" x1="531.04" x2="648.95" y1="943.02" y2="943.02"
                        gradientTransform="matrix(1.112 0 .040646 .99447 -291.14 -449.53)"
                        gradientUnits="userSpaceOnUse" xlink:href="#af"/>
        <linearGradient id="bc" x1="639.25" x2="562.65" y1="920.74" y2="923.95"
                        gradientTransform="matrix(1.112 0 .040646 .99447 -291.14 -449.53)"
                        gradientUnits="userSpaceOnUse" xlink:href="#ae"/>
        <linearGradient id="ar" x1="450.58" x2="458.64" y1="1201.2" y2="1376.5"
                        gradientTransform="matrix(1.0339 0 .15034 .91593 -242.65 -541.57)"
                        gradientUnits="userSpaceOnUse">
            <stop stop-color="#d7d7d7" offset="0"/>
            <stop stop-color="#808080" stop-opacity="0" offset=".5"/>
            <stop stop-color="#575757" offset="1"/>
        </linearGradient>
        <linearGradient id="as" x1="484.59" x2="493.63" y1="1232.3" y2="1232.2"
                        gradientTransform="matrix(1.0339 0 .15034 .91593 -242.65 -541.57)"
                        gradientUnits="userSpaceOnUse">
            <stop stop-color="#87cdde" offset="0"/>
            <stop stop-color="#fff" offset=".5"/>
            <stop stop-color="#87cdde" offset="1"/>
        </linearGradient>
        <linearGradient id="aq" x1="389.01" x2="398.14" y1="778.3" y2="862.35" gradientUnits="userSpaceOnUse"
                        xlink:href="#ai"/>
        <linearGradient id="ai">
            <stop stop-color="#7c85a5" offset="0"/>
            <stop stop-color="#555e7c" offset="1"/>
        </linearGradient>
        <linearGradient id="at" x1="488.55" x2="489.29" y1="1278.8" y2="1326.1"
                        gradientTransform="matrix(1.0339 0 .15034 .91593 -242.65 -541.57)"
                        gradientUnits="userSpaceOnUse">
            <stop stop-color="#7c85a5" offset="0"/>
            <stop stop-color="#dbdde6" offset=".2"/>
            <stop stop-color="#7c85a5" offset="1"/>
        </linearGradient>
        <linearGradient id="au" x1="473.09" x2="494.72" y1="1252.9" y2="1336.5"
                        gradientTransform="matrix(1.0339 0 .15034 .91593 -242.65 -541.57)"
                        gradientUnits="userSpaceOnUse" xlink:href="#ai"/>
        <linearGradient id="av" x1="460.7" x2="507.35" y1="1370.9" y2="1221.4"
                        gradientTransform="matrix(1.0339 0 .15034 .91593 -242.65 -541.57)"
                        gradientUnits="userSpaceOnUse">
            <stop stop-color="#969696" offset="0"/>
            <stop stop-color="#5a5a5a" offset="1"/>
        </linearGradient>
        <linearGradient id="aw" x1="532.61" x2="462.28" y1="515.02" y2="446.08"
                        gradientTransform="matrix(-.0080848 -.99997 .99997 -.0080848 -283.59 933.17)"
                        gradientUnits="userSpaceOnUse" xlink:href="#a"/>
    </defs>
    <g transform="translate(-116.76 -193.49)">
        <path d="m366.22 193.49c-1.0899-9e-3 -2.186 0.0129-3.2812 0.0625-15.411 0.73497-30.892 5.2617-43.25 14.625-9.8841 4.4553-20.102 11.407-26.219 20.656-23.569 11.523-44.796 27.929-61.844 47.75-31.395 34.54-53.345 76.776-67.688 121.06 5.1875 5.9076 11.284 10.449 17.938 14.031-4.3645 5.2661-8.7217 10.529-12.938 15.906-2.2014-0.26067-4.4181-0.34535-6.6563-0.25-28.87 1e-3 -51.486 31.411-44.125 58.938 4.913 26.301 35.646 44.689 60.906 34.594 7.4614-2.5275 13.824-7.1135 18.844-12.906 10.8 0.83784 21.59 1.9222 32.375 3 0.88906 4.2942 2.2194 8.5046 4.0625 12.562 3.9436 9.1874 13.571 16.221 23.844 13.906 4.9147-0.80296 9.4742-3.0649 13.562-5.8438 12.148 10.944 27.988 16.659 43.312 21.812 15.018 4.3353 31.031 2.9455 45.625-2.1875 1.1839 1.3543 2.3533 2.6902 3.5625 4-2.0128 1.2639-3.9525 2.6677-5.8125 4.2188-11.562 11.725-14.109 29.012-16.438 44.656-3.8302 37.805 8.2576 77.403 34.656 104.91 12.931 13.558 28.151 26.907 47.5 29.469 16.326 2.3755 33.875 1.9278 49.281-4.0625 20.426-8.7944 33.123-31.164 31.875-53.312 0.72923-25.668-0.5752-52.297-8.1562-76.906 4.4695 2.0264 9.4591 2.3707 14.094-0.1875 23.069-10.841 41.516-32.25 45.844-57.75 3.2792-12.659 4.3072-26.445 3.7812-39.156 13.685-5.0329 20.037-23.859 11.281-35.906-1.6496-3.1532-3.5768-6.1377-5.75-8.9375 5.5201-13.86 11.268-27.668 16.25-41.688 2.6028-0.56043 5.158-1.3661 7.6562-2.4375 24.73-9.0439 38.049-41.52 24.938-64.906-8.1359-15.98-25.883-26.579-44-25.875-1.3799-0.0196-2.7371 0.0676-4.0938 0.1875-31.66-55.26-85.446-99.123-148.31-112.38-0.8591-2.3828-2.1717-4.6328-4-6.6562-9.3005-11.524-25.288-12.984-38.969-13.844-3.1525-0.80675-6.3867-1.1286-9.6562-1.1562zm158.44 182.25c0.0988 3.0578 0.54979 6.1137 1.375 9.1562 2.2194 10.657 8.568 19.713 17 26.156-5.3192 9.0768-10.515 18.235-15.688 27.406-3.7024-0.68496-7.4657-1.024-11.25-1-6.3835 0.70432-11.096 4.5763-14.469 9.625 6.8993-23.413 13.863-46.808 20.875-70.188 0.71814-0.38539 1.4406-0.76622 2.1562-1.1562zm-301.84 56.688c3.9182 11.302 7.8314 22.605 11.75 33.906-8.2424 0.38654-16.483 0.73759-24.719 1.1562-0.83213-5.5579-2.6683-10.964-5.6562-15.906-0.25533-0.46435-0.50972-0.92009-0.78125-1.375 6.4646-5.9328 12.943-11.847 19.406-17.781zm277.12 17.5c-2.0364 3.8024-3.4548 8.0095-4.3438 11.938-8.1352-0.14621-15.578 2.5803-22.125 6.9375-1.5202-1.4561-3.0225-2.9438-4.5312-4.4375 10.525-4.3842 20.875-9.1849 31-14.438z"/>
        <path d="m154.08 461.4c0.83908 9.1245 12.34 10.569 19.314 7.8754 10.569-2.7207 16.047-13.219 24.525-19.294 13.664-12.614 27.271-25.193 40.954-37.706-0.45747-12.222 0.10762-27.58-10.82-35.632-4.9069-3.4842-13.394-2.844-15.534 3.532-18.458 23.76-38.699 46.263-56.023 70.768-1.654 3.2138-2.787 6.8012-2.4155 10.457z"/>
        <path d="m162.69 448.33 56.259-69.779s8.196-1.4553 12.185 7.7304c3.9887 9.1857 3.7314 24.214 3.7314 24.214l-58.032 53.504s-13.72 5.4144-17.679-0.1096c-3.9591-5.524 3.5361-15.56 3.5361-15.56z"
              fill="#f90"/>
        <path d="m162.08 460.52c1.3142 4.1353 7.9419 1.6739 10.755 0.53806 8.354-3.3732 12.987-12.097 20.156-17.369l37.83-34.914c-0.80402-8.7104-1.9982-20.446-10.263-25.824-22.77 30.738-42.488 51.266-57.054 71.901-1.1068 1.5681-2.0255 3.7722-1.423 5.6679z"
              fill="url(#aw)"/>
        <path d="m430.35 544.04c0.12643 0.63923 0.25295 1.2784 0.37941 1.9178 0.4239 1.9847 0.82227 3.9674 1.2357 5.9536-0.82203-0.25583-1.7326-0.3912-2.7428-0.37215-8.3081-2.4845-16.818-2.5706-25.089-2.4616-20.854 0.34411-44.179 6.6221-50.6 24.787-12.641 30.761-10.355 67.411 4.0942 100.92 9.8972 19.914 26.056 38.306 45.745 52.122 16.544 9.8387 36.458 9.6802 53.787 7.8141 16.213-2.1554 29.284-11.035 36.485-23.185 10.409-16.338 7.6019-37.119 7.6292-56.273-1.3456-23.02-4.5867-46.864-15.344-69.268-5.8434-10.079-15.356-20.2-27.506-24.272-0.70697-5.7442-1.4017-11.487-2.1175-17.231-8.6439-0.0961-17.312-0.36546-25.956-0.45797z"/>
        <path d="m360.77 569.34c-17.767 28.755-15.044 89.986 12.908 124.11 27.952 34.123 41.777 37.25 59.289 38.183 22.939 1.2223 26.361-1.1016 35.372-3.9143 7.689-2.4002 16.59-8.8108 24.796-24.108 8.2066-15.296 5.9251-97.462-15.893-123.79-5.2364-6.3199-11.588-11.107-18.418-14.769 1.0872 8.7881 2.1831 17.574 3.2608 26.362 8.4879 9.1089 12.809 21.378 16.893 33.432 0.55761 0.3203 1.0495 0.62695 1.4751 0.91593 7.9272 9.4961 12.495 26.844 4.1552 33.976 1.2376 25.086-8.2628 40.366-18.371 44.766-12.054 4.4946-25.795-5.2045-32.556-14.884-17.638-24.938-23.266-54.568-19.172-80.974 2.1743-12.296 7.3734-27.2 22.934-29.568-1.5145-7.6884-3.0431-15.364-4.6222-23.042-13.744-2.8033-7.9069-3.0197-24.8-3.2901-16.893-0.27047-39.579 4.1832-47.251 16.6z"
              fill="url(#av)"/>
        <path d="m438.17 582.71c-15.842 1.8561-24.456 27.776-19.376 59.507 5.2783 32.971 23.343 59.739 40.38 59.793 13.547 0.043 22.365-16.845 22.75-40.33-8.1224 5.4462-20.629 11.77-31.074 9.3024-12.181-6.9953-15.718-20.634-16.745-31.743-0.68691-9.4775-0.15427-22.211 10.56-25.818-2.4041-10.198-4.4634-20.459-6.4952-30.712zm24.418 14.512c0.84228 7.1628 2.6796 14.422 2.9145 21.496 3.6894 1.4566 7.3295 3.0085 10.26 4.4365-3.4054-10.142-7.9778-19.057-13.174-25.932z"
              fill="url(#au)"/>
        <path d="m445.56 617.08c-5.9521 2.3662-9.0005 13.152-6.9269 26.104 2.3233 14.513 10.214 26.324 17.548 25.217s13.197-4.6406 19.807-7.8714c-13.958-7.0947-14.944-31.492-6.8503-37.009-1.2038-0.0806-2.4433-0.35786-3.7086-0.74429-0.0576 0.81958-0.12164 1.6492-0.24214 2.4617-2.1914 7.1128-14.548 4.4976-18.048-1.8892-0.54031-2.0871-1.0685-4.1766-1.5782-6.2684z"
              fill="url(#at)"/>
        <path transform="matrix(.29958 .00095219 .042464 .26525 324.03 425.18)"
              d="m422.14 815.4c0 35.997-13.352 65.179-29.821 65.179s-29.821-29.181-29.821-65.179 13.352-65.179 29.821-65.179 29.821 29.181 29.821 65.179z"
              fill="url(#aq)"/>
        <path d="m435.22 547.78 14.928 72.948s2.7054 5.2338 7.5058 5.2338 3.8876-5.561 3.8876-5.561l-8.9123-72.293z"
              fill="url(#as)"/>
        <path d="m407.14 556.38c-17.819 0.38258-38.824 4.0984-45.066 19.661-12.645 28.42-10.365 62.899 2.0204 94.257 8.6143 18.535 23.196 36.149 41.309 49.318 9.9498 7.2864 22.388 8.7971 33.937 8.7359 17.52 0.77223 35.255-4.2161 43.847-16.922-16.788-1.6742-38.973 4.2255-55.514-24.043-19.137-30.033-23.985-65.813-12.746-95.171 3.318-7.1437 9.1268-13.692 17.821-16.029-1.281-5.7846-2.0993-11.913-3.7107-17.489-7.2764-1.9768-14.642-2.4946-21.899-2.3184z"
              fill="url(#ar)"/>
        <path d="m443.98 447.77c-29.365 1.63-59.918 3.3592-89.289 4.9368-10.073 9.7169-19.008 14.732-27.225 22.562 8.5302 6.9093 13.447 15.931 21.182 21.723-3.2626 4.3617-9.7003 8.854-10.175 14.611 5.2523 3.9579 23.138 16.762 27.435 19.139-3.0373 2.797-7.7044 6.1992-10.559 9.5333 9.9364 8.7846 14.117 15.208 18.347 18.747 25.91 8.1851 60.451 4.1413 86.039-0.15534 4.3725-5.1423 8.3368-12.238 11.469-17.782-3.953-6.4316-6.9843-8.668-9.4337-12.332 7.2605-6.3894 14.016-12.834 18.699-18.66-3.4154-4.5421-11.496-11.315-16.705-15.028 0.80554-6.5779 6.7449-15.781 8.5794-21.91-7.5202-7.4644-22.405-21.72-28.364-25.385z"/>
        <path d="m443.24 451.83c3.4555 1.9534 22.656 19.889 22.656 19.889s-21.216 10.477-66.226 12.076c-45.01 1.5983-64.905-9.0568-64.905-9.0568l21.897-18.114z"
              fill="url(#bc)"/>
        <path d="m467.73 475.41c-18.069 6.3723-40.827 10.946-60.395 12.018-22.988 0.83437-47.73 1.0478-69.414-7.2721l11.292 12.711s23.067 10.642 56.509 7.8004c33.442-2.8413 53.738-6.9213 53.738-6.9213z"
              fill="url(#bb)"/>
        <path d="m459.53 497.06c-30.302 9.1872-86.047 11.941-107.29 0.5816l-6.3878 11.689s19.835 8.7943 64.909 7.5784 63.855-8.635 63.855-8.635-8.4303-6.7332-15.088-11.214z"
              fill="url(#ba)"/>
        <path d="m474.82 511.59c-18.123 5.3698-37.598 8.0266-57.187 8.9302-23.01 0.70311-47.771 0.883-69.417-6.1281l20.071 13.552s14.162 6.1263 47.646 3.732 41.934-5.1501 41.934-5.1501z"
              fill="url(#az)"/>
        <path d="m457.47 530.44c-24.148 4.1942-58.598 7.7684-87.103 1.5316l-8.8064 8.4948s15.88 8.4165 51.855 7.8794c35.975-0.53712 52.944-8.197 52.944-8.197s-3.5372-5.1087-8.8902-9.7087z"
              fill="url(#ay)"/>
        <path d="m465.86 543.68c-29.486 8.9312-66.676 11.516-98.723 2.4552l6.5441 7.9246s18.081 9.0259 44.229 6.6195c26.147-2.4065 41.223-5.7182 41.223-5.7182z"
              fill="url(#ax)"/>
        <path d="m515.94 374.18c-86.561 36.94-179.87 46.516-269.47 41.844-8.8112-0.63848-17.515-1.8448-26.194-3.1224 6.8476 19.704 13.616 39.432 20.515 59.113 46.604 23.955 104.02 25.48 157.13 11.188 34.145-8.2275 67.837-20.078 99.635-36.536 7.3158-24.674 14.648-49.345 22.044-74.002-1.2206 0.50526-2.4412 1.0105-3.6618 1.5158z"/>
        <path d="m513.53 379.37c-69.147 29.302-143.87 40.388-216.21 41.843-23.607 0.0418-47.79 0.15552-70.942-3.3288l17.753 51.162s50.485 28.66 123.91 16.282c73.43-12.379 126.26-41.337 126.26-41.337l19.225-64.621z"
              fill="#f90"/>
        <path d="m513.53 379.37c-69.147 29.302-143.87 40.388-216.21 41.843-8.9655 0.0159-18.015 0.027-27.059-0.13741-1.9818 0.68972-3.9461 1.3847-5.9648 2.1024 115.28 4.9009 194.52 7.7329 230.02 20.75l19.216-64.558z"
              fill="url(#ap)"/>
        <path d="m387.14 214.99c-49.622-4.1602-101.15 13.216-139.71 51.126-35.899 34.077-62.492 80.301-78.925 130.5 15.6 16.659 37.769 20.136 57.997 24.167 51.889 8.0671 104.69 4.5576 156.71-2.6199 62.963-10.189 126.11-31.363 180.06-72.075 6.7166-2.9864 6.3292-7.7704 2.1548-13.117-38.303-69.863-106.74-114.57-178.3-117.98z"/>
        <path d="m173.23 395.28s50.226-170.3 191.22-175.84c141-5.538 199.83 120.12 199.83 120.12s-74.146 66.636-219.67 78.572c-145.52 11.936-171.39-22.851-171.39-22.851z"
              fill="#9cdafb"/>
        <path d="m389.92 219.87c-8.1761-0.6161-16.652-0.79775-25.464-0.45163-1.5077 0.0592-3.0114 0.14872-4.4984 0.24521 59.432 26.863 98.451 82.444 93.768 143.12-0.98688 12.786-3.8654 25.033-8.3651 36.545 78.921-23.819 118.92-59.755 118.92-59.755s-51.716-110.46-174.36-119.7z"
              fill="url(#ao)"/>
        <path d="m348.13 239.44c-66.248-5.558-137.35 65.385-161.47 159.72 18.73 10.276 40.373 12.344 60.999 14.896 3.3588 0.28414 6.7264 0.55495 10.09 0.77324 0.25702-3.1899 0.58457-6.4025 0.96212-9.6246 9.3042-79.408 52.741-143.73 104.68-163.06-4.8925-1.3577-9.9875-2.2662-15.266-2.7091z"
              fill="url(#an)"/>
        <path transform="matrix(.9898 .030601 -.036746 1.1886 27.651 -264.77)"
              d="m304.46 504.86c0 18.541-7.7151 33.571-17.232 33.571s-17.232-15.03-17.232-33.571 7.7151-33.571 17.232-33.571 17.232 15.03 17.232 33.571z"/>
        <path transform="matrix(.86384 .026707 -.03207 1.0373 61.469 -187.29)"
              d="m304.46 504.86c0 18.541-7.7151 33.571-17.232 33.571s-17.232-15.03-17.232-33.571 7.7151-33.571 17.232-33.571 17.232 15.03 17.232 33.571z"
              fill="url(#aj)"/>
        <path transform="matrix(.43148 .01334 -.016019 .51814 172.73 65.885)"
              d="m304.46 504.86c0 18.541-7.7151 33.571-17.232 33.571s-17.232-15.03-17.232-33.571 7.7151-33.571 17.232-33.571 17.232 15.03 17.232 33.571z"
              fill="#fff"/>
        <path transform="matrix(.60247 .027212 -.022367 1.057 72.147 -200.23)"
              d="m304.46 504.86c0 18.541-7.7151 33.571-17.232 33.571s-17.232-15.03-17.232-33.571 7.7151-33.571 17.232-33.571 17.232 15.03 17.232 33.571z"/>
        <path transform="matrix(.39426 .023749 -.014637 .92246 128.05 -131.33)"
              d="m304.46 504.86c0 18.541-7.7151 33.571-17.232 33.571s-17.232-15.03-17.232-33.571 7.7151-33.571 17.232-33.571 17.232 15.03 17.232 33.571z"
              fill="url(#aj)"/>
        <path transform="matrix(.26263 .011862 -.0097503 .46076 160.45 93.799)"
              d="m304.46 504.86c0 18.541-7.7151 33.571-17.232 33.571s-17.232-15.03-17.232-33.571 7.7151-33.571 17.232-33.571 17.232 15.03 17.232 33.571z"
              fill="#fff"/>
        <path d="m323.43 400.01s35.455-22.284 38.245-43.289c-4.4174-3.1987-24.993-3.4119-24.993-3.4119s23.249-14.074 42.779-3.8384c15.452 8.099 8.8347 28.148 8.8347 28.148s-5.5798-12.795-11.857-14.714c-15.577 31.347-53.008 37.105-53.008 37.105z"/>
        <path d="m365.84 197.48c-0.91879-0.0106-1.8273 6e-3 -2.7359 0.039-13.377 1.1606-28.297 3.7665-39.133 13.109-13.541 6.2608-28.235 14.807-31.965 31.875-1.7618 14.062 11.615 22.899 22.303 24.696 29.854 6.1186 61.706-1.6763 87.201-19.819 8.9842-6.3581 18.6-19.45 13.091-31.914-6.613-13.49-23.159-15.888-35.428-16.425-0.56949 0.0321-1.0254 0.17002-1.4199 0.35113-3.8078-1.3581-7.8998-1.8656-11.913-1.9117z"/>
        <path transform="matrix(1.0347 -.19026 0 1.2127 .14785 129.59)"
              d="m371.99 127.19c0 7.0434-14.19 12.753-31.694 12.753s-31.694-5.7098-31.694-12.753c0-7.0434 14.19-12.753 31.694-12.753s31.694 5.7098 31.694 12.753z"
              fill="#f90"/>
        <path d="m384.51 204.3c3.3043 2.0724 5.2293 4.8356 5.2293 8.1931 0 9.9848-16.78 21.233-37.471 25.125s-37.471-1.0564-37.471-11.041c0-2.4684 1.0185-5.0371 2.8744-7.5298-13.066 7.657-21.402 17.175-21.402 26.023 0 15.578 25.867 23.279 57.8 17.205 31.933-6.0739 57.834-23.631 57.834-39.21 0-10.13-10.957-16.918-27.393-18.766z"
              fill="#f90"/>
        <path transform="matrix(.84695 -.15573 0 .99262 64.049 145.83)"
              d="m371.99 127.19c0 7.0434-14.19 12.753-31.694 12.753s-31.694-5.7098-31.694-12.753c0-7.0434 14.19-12.753 31.694-12.753s31.694 5.7098 31.694 12.753z"
              fill="url(#al)"/>
        <path d="m394.03 211.6c-0.16022 14.433-14.15 21.395-24.38 25.867-16.718 6.8525-36.624 10.183-53.09 0.85832-2.7015-2.017-4.95-4.9774-5.8527-8.5442-5.1287 4.0111-12.985 12.168-8.5193 19.585 9.4155 11.038 24.719 9.7841 37.365 9.6391 22.955-1.7395 47.417-8.8293 64.382-27.118 4.1512-4.5552 5.0435-13.414-1.0736-16.425-2.5563-1.7891-6.2686-4.0635-8.831-3.8624z"
              fill="url(#am)"/>
        <path d="m450.17 276.39c-19.321 0.57496-35.141 24.523-31.631 48.252 2.3172 23.379 22.525 40.481 40.914 34.471 18.603-4.6038 30.805-31.054 24.589-53.424-4.38-17.879-18.75-30.424-33.872-29.298z"/>
        <path transform="matrix(.89591 0 0 1.1136 28.429 -197.41)"
              d="m506.84 463.06c0 18.899-15.32 34.219-34.219 34.219s-34.219-15.32-34.219-34.219 15.32-34.219 34.219-34.219 34.219 15.32 34.219 34.219z"
              fill="#f90"/>
        <path transform="matrix(.79674 0 0 .99035 75.304 -140.32)"
              d="m506.84 463.06c0 18.899-15.32 34.219-34.219 34.219s-34.219-15.32-34.219-34.219 15.32-34.219 34.219-34.219 34.219 15.32 34.219 34.219z"
              fill="url(#ag)"/>
        <path d="m464.51 307.87c-8.5289 3.3495-6.7098 14.797-2.1788 20.744 5.5592 9.3916 17.168 11.726 25.366 18.174 15.923 9.6063 31.796 19.167 47.628 28.819 11.61-3.8464 26.516-7.5851 31.204-20.324 1.9781-5.6837-1.0027-13.656-7.7225-13.934-27.963-11.103-55.217-24.268-83.58-34.074-3.5475-0.69249-7.3085-0.78049-10.716 0.59547z"/>
        <path d="m479.45 312.5 82.696 34.576s3.6824 7.4654-4.0272 13.857c-7.7096 6.3913-22.214 10.334-22.214 10.334l-67.561-40.816s-9.0245-11.667-4.8232-17.009c4.2013-5.3421 15.929-0.94183 15.929-0.94183z"
              fill="#f90"/>
        <path d="m467.58 315.3c-3.605 2.415 0.60647 8.0936 2.4814 10.478 5.5684 7.0824 15.238 9.0995 22.299 14.515 14.692 8.8656 29.384 17.731 44.076 26.597 8.1409-3.2004 19.079-7.6189 21.939-17.055-35.867-13.298-61.078-26.512-84.956-34.748-1.8145-0.62584-4.1873-0.8936-5.8399 0.21351z"
              fill="url(#ak)"/>
        <path d="m570.39 331.39c-25.034 0.58962-45.533 25.149-40.985 49.483 3.0025 23.975 29.186 41.513 53.013 35.35 24.105-4.7212 39.915-31.846 31.861-54.787-5.6752-18.335-24.294-31.2-43.889-30.046z"/>
        <path transform="matrix(1.1609 0 0 1.142 23.922 -154.49)"
              d="m506.84 463.06c0 18.899-15.32 34.219-34.219 34.219s-34.219-15.32-34.219-34.219 15.32-34.219 34.219-34.219 34.219 15.32 34.219 34.219z"
              fill="#f90"/>
        <path transform="matrix(1.0324 0 0 1.0156 84.658 -95.948)"
              d="m506.84 463.06c0 18.899-15.32 34.219-34.219 34.219s-34.219-15.32-34.219-34.219 15.32-34.219 34.219-34.219 34.219 15.32 34.219 34.219z"
              fill="url(#ag)"/>
        <path d="m584.86 388.37c-3.5849-8.4326-14.978-6.2965-20.797-1.6023-9.2336 5.8177-11.245 17.487-17.463 25.861-9.1606 16.183-18.277 32.316-27.486 48.409 4.1671 11.498 8.3182 26.296 21.182 30.628 5.7364 1.8196 13.623-1.3814 13.714-8.1063 10.322-28.261 22.726-55.869 31.742-84.494 0.59377-3.5654 0.57736-7.3273-0.89265-10.696z"/>
        <path d="m580.65 403.43-32.268 83.624s-7.3603 3.8882-13.963-3.641c-6.6028-7.5292-10.946-21.919-10.946-21.919l38.925-68.667s11.412-9.3448 16.868-5.2934c5.4567 4.0514 1.3836 15.897 1.3836 15.897z"
              fill="#f90"/>
        <path d="m577.52 391.64c-2.5141-3.5366-8.0737 0.83087-10.405 2.7712-6.9252 5.7628-8.6731 15.484-13.89 22.693-8.4545 14.932-16.909 29.865-25.363 44.797 3.4251 8.0489 8.1455 18.86 17.658 21.457 12.298-36.223 24.807-61.79 32.377-85.888 0.57523-1.8312 0.77703-4.2104-0.37551-5.8318z"
              fill="url(#bg)"/>
        <path d="m161.51 431.39c-24.422 0.60429-44.419 25.775-39.983 50.714 2.9291 24.572 28.472 42.546 51.717 36.23 23.515-4.8386 38.939-32.639 31.082-56.15-5.5364-18.791-23.7-31.977-42.815-30.793z"/>
        <path transform="matrix(1.1325 0 0 1.1704 -371.59 -66.575)"
              d="m506.84 463.06c0 18.899-15.32 34.219-34.219 34.219s-34.219-15.32-34.219-34.219 15.32-34.219 34.219-34.219 34.219 15.32 34.219 34.219z"
              fill="#f90"/>
        <path transform="matrix(1.0071 0 0 1.0409 -312.34 -6.5758)"
              d="m506.84 463.06c0 18.899-15.32 34.219-34.219 34.219s-34.219-15.32-34.219-34.219 15.32-34.219 34.219-34.219 34.219 15.32 34.219 34.219z"
              fill="url(#ag)"/>
        <path d="m165.79 479.63c-6.2105 6.7372 0.42428 16.242 7.0971 19.614 9.1019 6.0218 20.565 3.053 30.756 5.2747 18.519 1.69 36.974 3.3603 55.431 5.1316 8.7651-8.5294 20.544-18.402 19.198-31.909-0.70201-5.977-6.8646-11.848-13.031-9.1639-30.005 2.221-60.271 2.2765-90.07 5.8379-3.4939 0.92593-6.9158 2.4889-9.3808 5.2146z"/>
        <path d="m181.26 477.27 89.494-5.0006s6.5724 5.1084 2.4271 14.224c-4.1453 9.1161-15.473 18.996-15.473 18.996l-78.602-7.2215s-13.213-6.5556-11.766-13.196c1.4472-6.6404 13.919-7.8023 13.919-7.8023z"
              fill="#f90"/>
        <path d="m171.8 484.97c-2.1888 3.7466 4.0795 7.0166 6.8074 8.3434 8.1019 3.9404 17.682 1.5333 26.398 3.3219l51.266 4.6833c5.9266-6.4337 13.838-15.185 12.291-24.923-38.074 3.6966-66.524 2.8161-91.602 5.8325-1.9057 0.22921-4.1572 1.0243-5.1606 2.7419z"
              fill="url(#bf)"/>
        <path d="m367.84 423.11c-7.9205 0.62316-18.295 0.37069-23.224 7.0258-4.8441-8.5573-16.395-6.6236-24.59-5.335-15.28 2.5712-30.417 9.7029-38.934 22.856-1.6507 4.1832-6.0564-0.3349-9.2953-0.32068-9.0724-2.7781-20.595-1.345-25.807 7.3173-7.2342 10.529-10.967 23.214-12.711 35.683-1.1945 13.925 0.55736 29.845 11.048 40.143 8.5083 6.3426 21.159 2.4743 27.708-4.781 4.8528 7.5272 14.103 10.734 21.579 15.168 16.346 7.5096 34.683 14.231 52.945 9.8725 13.496-2.9367 26.972-7.7522 38.357-15.479 6.8837-4.917 7.9342-14.139 5.1674-21.573-0.49807-3.3937-4.5751-6.865-0.80179-9.4455 7.3522-8.6828 11.37-22.943 2.8806-32.097-2.4873-1.1649-2.0461-2.2375-0.14844-3.7316 7.0451-9.7469 3.718-22.731 1.0097-33.292-2.1363-7.5128-9.7295-11.663-17.314-11.865-2.6107-0.27481-5.249-0.24045-7.8698-0.14577z"/>
        <path d="m273.74 469.1s9.8426-27.154 28.679-34.983c18.837-7.8296 35.467-8.8291 38.522-2.832 3.0546 5.9971-3.6547 13.936-3.6547 13.936-10.56-0.23559-21.958-5.8744-21.958-5.8744s6.0972 10.596 23.067 11.096c16.97 0.49977 22.4-7.663 22.4-7.663s-10.768 3.8148-19.288 2.9902c0 0 4.7551-16.228 11.883-17.227s31.163-5.7532 35.406 6.2411c4.2425 11.994 4.4123 24.488 1.697 29.153-2.7152 4.6644-7.2971 6.8301-7.2971 6.8301s10.012 2.9986 10.012 14.16-10.691 21.157-10.691 21.157 7.6365 11.828 4.2425 21.157c-3.3941 9.3289-37.674 21.656-54.474 21.323-16.8-0.33319-54.983-16.992-57.868-26.321s-1.1879-33.484-1.1879-33.484c-5.0399 13.9-4.2511 34.776-4.2511 34.776s-9.325 9.3693-19.677 5.5378-16.291-30.152-10.012-49.976c6.2789-19.824 11.709-28.653 20.873-29.153 9.1638-0.49976 17.819 3.1652 17.819 3.1652-2.88 3.7694-4.2425 15.992-4.2425 15.992z"
              fill="url(#be)"/>
        <path d="m517.53 441.37c-11.451 0.47644-16.412 13.395-18.219 23-0.33448 3.2834-5.7153 0.33041-7.8125 1.625-15.69 2.2016-27.561 14.852-35.5 27.625-2.0252 4.0137-3.371 9.0263-1.2812 13.312-9.0004 1.1672-12.409 10.859-17.25 17.156-5.2324 7.845-7.7089 19.365-0.65625 27.031 5.1275 7.5449 12.098 16.038 21.75 16.812 3.3472-1.1391 1.62 4.5442 3.5938 6.5 4.2567 9.436 15.296 13.338 24.938 11.969 2.6395 8.3605 11.638 18.727 21.469 14.438 15.988-7.2663 29.69-19.978 38.125-35.406 7.5376-17.946 10.995-37.751 10.188-57.219-0.0183-1.9207-2.2286-4.4407 0.84375-4.2812 11.356-3.2734 18.401-17.519 12.25-28.094-8.9575-20.164-30.503-33.805-52.438-34.469z"/>
        <path d="m515.62 472.49s-23.136-7.8784-37.378 2.7712c-14.243 10.65-22.793 23.499-20.158 29.461 2.6353 5.9627 11.213 5.1716 11.213 5.1716 4.8371-8.6657 6.3944-21.158 6.3944-21.158s4.3248 11.101-3.3663 25.098c-7.6912 13.997-15.816 13.625-15.816 13.625s7.6919-6.473 11.163-13.835c0 0-13.293-5.6187-17.346-0.44491s-18.663 21.815-12.509 32.233 14.576 17.838 19.035 18.363c4.459 0.52598 8.1011-1.9122 8.1011-1.9122s-2.698 9.8342 4.8971 16.34c7.595 6.5059 19.456 3.6974 19.456 3.6974s4.4344 13.062 12.389 15.758c7.9544 2.6965 32.566-17.803 40.29-31.566 7.7242-13.763 14.459-54.311 9.4758-62.079-4.9828-7.7677-22.223-20.477-22.223-20.477 11.844 4.0317 25.676 16.838 25.676 16.838s10.789-2.0699 13.081-12.664c2.2918-10.594-12.808-30.733-29.269-37.217-16.461-6.4841-25.039-7.2447-29.716-0.13484-4.6769 7.1098-6.279 16.236-6.279 16.236 3.928-0.1288 12.89 5.8954 12.89 5.8954z"
              fill="url(#bd)"/>
    </g>
</svg>
